<svg xmlns="http://www.w3.org/2000/svg" width="920" height="520" viewBox="0 0 920 520">
<rect width="100%" height="100%" fill="#ffffff"/>
<text x="460.00" y="28.00" font-size="20" font-family="Arial, Helvetica, sans-serif" text-anchor="middle" fill="#17212b">Chapman Raw Mixture Component Magnitudes</text>
<rect x="82" y="54" width="810" height="384" fill="#fafafa" stroke="#cfd8dc"/>
<line x1="82.00" y1="54" x2="82.00" y2="438" stroke="#eceff1"/>
<text x="82.00" y="462.00" font-size="11" font-family="Arial, Helvetica, sans-serif" text-anchor="middle" fill="#263238">-0.04</text>
<line x1="244.00" y1="54" x2="244.00" y2="438" stroke="#eceff1"/>
<text x="244.00" y="462.00" font-size="11" font-family="Arial, Helvetica, sans-serif" text-anchor="middle" fill="#263238">0.38</text>
<line x1="406.00" y1="54" x2="406.00" y2="438" stroke="#eceff1"/>
<text x="406.00" y="462.00" font-size="11" font-family="Arial, Helvetica, sans-serif" text-anchor="middle" fill="#263238">0.79</text>
<line x1="568.00" y1="54" x2="568.00" y2="438" stroke="#eceff1"/>
<text x="568.00" y="462.00" font-size="11" font-family="Arial, Helvetica, sans-serif" text-anchor="middle" fill="#263238">1.2</text>
<line x1="730.00" y1="54" x2="730.00" y2="438" stroke="#eceff1"/>
<text x="730.00" y="462.00" font-size="11" font-family="Arial, Helvetica, sans-serif" text-anchor="middle" fill="#263238">1.6</text>
<line x1="892.00" y1="54" x2="892.00" y2="438" stroke="#eceff1"/>
<text x="892.00" y="462.00" font-size="11" font-family="Arial, Helvetica, sans-serif" text-anchor="middle" fill="#263238">2</text>
<line x1="82" y1="438.00" x2="892" y2="438.00" stroke="#eceff1"/>
<text x="72.00" y="442.00" font-size="11" font-family="Arial, Helvetica, sans-serif" text-anchor="end" fill="#263238">0</text>
<line x1="82" y1="361.20" x2="892" y2="361.20" stroke="#eceff1"/>
<text x="72.00" y="365.20" font-size="11" font-family="Arial, Helvetica, sans-serif" text-anchor="end" fill="#263238">0.21</text>
<line x1="82" y1="284.40" x2="892" y2="284.40" stroke="#eceff1"/>
<text x="72.00" y="288.40" font-size="11" font-family="Arial, Helvetica, sans-serif" text-anchor="end" fill="#263238">0.42</text>
<line x1="82" y1="207.60" x2="892" y2="207.60" stroke="#eceff1"/>
<text x="72.00" y="211.60" font-size="11" font-family="Arial, Helvetica, sans-serif" text-anchor="end" fill="#263238">0.63</text>
<line x1="82" y1="130.80" x2="892" y2="130.80" stroke="#eceff1"/>
<text x="72.00" y="134.80" font-size="11" font-family="Arial, Helvetica, sans-serif" text-anchor="end" fill="#263238">0.84</text>
<line x1="82" y1="54.00" x2="892" y2="54.00" stroke="#eceff1"/>
<text x="72.00" y="58.00" font-size="11" font-family="Arial, Helvetica, sans-serif" text-anchor="end" fill="#263238">1.1</text>
<polyline fill="none" stroke="#455a64" stroke-width="2.5" points="97.58,416.06 100.84,416.06 104.09,416.06 107.35,416.06 110.61,416.06 113.87,416.06 117.13,416.06 120.39,416.06 123.65,416.06 126.91,416.06 130.16,416.06 133.42,416.06 136.68,416.06 139.94,416.06 143.20,416.06 146.46,416.06 149.72,416.06 152.98,416.06 156.23,416.06 159.49,416.06 162.75,416.06 166.01,416.06 169.27,416.06 172.53,416.06 175.79,416.06 179.05,416.06 182.30,416.06 185.56,416.06 188.82,416.06 192.08,416.06 195.34,416.06 198.60,416.06 201.86,416.06 205.12,416.06 208.38,416.06 211.63,416.06 214.89,416.06 218.15,416.06 221.41,416.06 224.67,416.06 227.93,416.06 231.19,416.06 234.45,416.06 237.70,416.06 240.96,416.06 244.22,416.06 247.48,416.06 250.74,416.06 254.00,416.06 257.26,416.06 260.52,416.06 263.77,416.06 267.03,416.06 270.29,416.06 273.55,416.06 276.81,416.06 280.07,416.06 283.33,416.06 286.59,416.06 289.84,416.06 293.10,416.06 296.36,416.06 299.62,416.06 302.88,416.06 306.14,416.06 309.40,416.06 312.66,416.06 315.91,416.06 319.17,416.06 322.43,416.06 325.69,416.06 328.95,416.06 332.21,416.06 335.47,416.06 338.73,416.06 341.98,416.06 345.24,416.06 348.50,416.06 351.76,416.06 355.02,416.06 358.28,416.06 361.54,416.06 364.80,416.06 368.05,416.06 371.31,416.06 374.57,416.06 377.83,416.06 381.09,416.06 384.35,416.06 387.61,416.06 390.87,416.06 394.13,416.06 397.38,416.06 400.64,416.06 403.90,416.06 407.16,416.06 410.42,416.06 413.68,416.06 416.94,416.06 420.20,416.06 423.45,416.06 426.71,416.06 429.97,416.06 433.23,416.06 436.49,416.06 439.75,416.06 443.01,416.06 446.27,416.06 449.52,416.06 452.78,416.06 456.04,416.06 459.30,416.06 462.56,416.06 465.82,416.06 469.08,416.06 472.34,416.06 475.59,416.06 478.85,416.06 482.11,416.06 485.37,416.06 488.63,416.06 491.89,416.06 495.15,416.06 498.41,416.06 501.66,416.06 504.92,416.06 508.18,416.06 511.44,416.06 514.70,416.06 517.96,416.06 521.22,416.06 524.48,416.06 527.73,416.06 530.99,416.06 534.25,416.06 537.51,416.06 540.77,416.06 544.03,416.06 547.29,416.06 550.55,416.06 553.80,416.06 557.06,416.06 560.32,416.06 563.58,416.06 566.84,416.06 570.10,416.06 573.36,416.06 576.62,416.06 579.87,416.06 583.13,416.06 586.39,416.06 589.65,416.06 592.91,416.06 596.17,416.06 599.43,416.06 602.69,416.06 605.95,416.06 609.20,416.06 612.46,416.06 615.72,416.06 618.98,416.06 622.24,416.06 625.50,416.06 628.76,416.06 632.02,416.06 635.27,416.06 638.53,416.06 641.79,416.06 645.05,416.06 648.31,416.06 651.57,416.06 654.83,416.06 658.09,416.06 661.34,416.06 664.60,416.06 667.86,416.06 671.12,416.06 674.38,416.06 677.64,416.06 680.90,416.06 684.16,416.06 687.41,416.06 690.67,416.06 693.93,416.06 697.19,416.06 700.45,416.06 703.71,416.06 706.97,416.06 710.23,416.06 713.48,416.06 716.74,416.06 720.00,416.06 723.26,416.06 726.52,416.06 729.78,416.06 733.04,416.06 736.30,416.06 739.55,416.06 742.81,416.06 746.07,416.06 749.33,416.06 752.59,416.06 755.85,416.06 759.11,416.06 762.37,416.06 765.62,416.06 768.88,416.06 772.14,416.06 775.40,416.06 778.66,416.06 781.92,416.06 785.18,416.06 788.44,416.06 791.70,416.06 794.95,416.06 798.21,416.06 801.47,416.06 804.73,416.06 807.99,416.06 811.25,416.06 814.51,416.06 817.77,416.06 821.02,416.06 824.28,416.06 827.54,416.06 830.80,416.06 834.06,416.06 837.32,416.06 840.58,416.06 843.84,416.06 847.09,416.06 850.35,416.06 853.61,416.06 856.87,416.06 860.13,416.06 863.39,416.06 866.65,416.06 869.91,416.06 873.16,416.06 876.42,416.06"/>
<polyline fill="none" stroke="#2962ff" stroke-width="2.5" points="97.58,108.86 100.84,108.98 104.09,109.35 107.35,109.97 110.61,110.83 113.87,111.93 117.13,113.28 120.39,114.86 123.65,116.69 126.91,118.75 130.16,121.04 133.42,123.56 136.68,126.30 139.94,129.26 143.20,132.44 146.46,135.84 149.72,139.43 152.98,143.23 156.23,147.22 159.49,151.41 162.75,155.77 166.01,160.31 169.27,165.03 172.53,169.90 175.79,174.93 179.05,180.11 182.30,185.43 185.56,190.88 188.82,196.45 192.08,202.14 195.34,207.94 198.60,213.84 201.86,219.83 205.12,225.90 208.38,232.04 211.63,238.25 214.89,244.51 218.15,250.81 221.41,257.15 224.67,263.52 227.93,269.90 231.19,276.29 234.45,282.68 237.70,289.05 240.96,295.40 244.22,301.72 247.48,307.99 250.74,314.20 254.00,320.35 257.26,326.42 260.52,332.40 263.77,338.28 267.03,344.04 270.29,349.67 273.55,355.16 276.81,360.48 280.07,365.62 283.33,370.56 286.59,375.27 289.84,379.72 293.10,383.89 296.36,387.73 299.62,391.22 302.88,394.30 306.14,396.94 309.40,399.09 312.66,400.73 315.91,401.85 319.17,402.44 322.43,402.55 325.69,402.22 328.95,401.52 332.21,400.52 335.47,399.29 338.73,397.90 341.98,396.41 345.24,394.85 348.50,393.28 351.76,391.73 355.02,390.22 358.28,388.77 361.54,387.40 364.80,386.12 368.05,384.95 371.31,383.89 374.57,382.94 377.83,382.12 381.09,381.43 384.35,380.86 387.61,380.42 390.87,380.11 394.13,379.93 397.38,379.87 400.64,379.94 403.90,380.12 407.16,380.43 410.42,380.86 413.68,381.39 416.94,382.04 420.20,382.79 423.45,383.63 426.71,384.57 429.97,385.60 433.23,386.72 436.49,387.91 439.75,389.17 443.01,390.49 446.27,391.88 449.52,393.31 452.78,394.79 456.04,396.30 459.30,397.84 462.56,399.40 465.82,400.98 469.08,402.55 472.34,404.11 475.59,405.65 478.85,407.16 482.11,408.62 485.37,410.02 488.63,411.35 491.89,412.59 495.15,413.72 498.41,414.74 501.66,415.61 504.92,416.34 508.18,416.90 511.44,417.30 514.70,417.53 517.96,417.59 521.22,417.50 524.48,417.26 527.73,416.90 530.99,416.43 534.25,415.88 537.51,415.25 540.77,414.58 544.03,413.88 547.29,413.16 550.55,412.43 553.80,411.71 557.06,411.01 560.32,410.34 563.58,409.69 566.84,409.09 570.10,408.53 573.36,408.02 576.62,407.57 579.87,407.17 583.13,406.82 586.39,406.54 589.65,406.32 592.91,406.16 596.17,406.06 599.43,406.03 602.69,406.06 605.95,406.15 609.20,406.30 612.46,406.51 615.72,406.78 618.98,407.10 622.24,407.48 625.50,407.92 628.76,408.40 632.02,408.93 635.27,409.50 638.53,410.12 641.79,410.77 645.05,411.46 648.31,412.18 651.57,412.92 654.83,413.68 658.09,414.46 661.34,415.25 664.60,416.04 667.86,416.84 671.12,417.62 674.38,418.39 677.64,419.14 680.90,419.86 684.16,420.54 687.41,421.18 690.67,421.76 693.93,422.27 697.19,422.72 700.45,423.08 703.71,423.37 706.97,423.56 710.23,423.67 713.48,423.69 716.74,423.63 720.00,423.49 723.26,423.28 726.52,423.01 729.78,422.69 733.04,422.33 736.30,421.93 739.55,421.51 742.81,421.08 746.07,420.64 749.33,420.19 752.59,419.76 755.85,419.33 759.11,418.92 762.37,418.53 765.62,418.16 768.88,417.83 772.14,417.52 775.40,417.24 778.66,417.00 781.92,416.79 785.18,416.62 788.44,416.49 791.70,416.40 794.95,416.35 798.21,416.34 801.47,416.36 804.73,416.43 807.99,416.53 811.25,416.67 814.51,416.85 817.77,417.07 821.02,417.32 824.28,417.60 827.54,417.91 830.80,418.26 834.06,418.63 837.32,419.03 840.58,419.45 843.84,419.89 847.09,420.35 850.35,420.83 853.61,421.31 856.87,421.80 860.13,422.30 863.39,422.80 866.65,423.29 869.91,423.77 873.16,424.24 876.42,424.69"/>
<polyline fill="none" stroke="#6a1b9a" stroke-width="2.5" stroke-dasharray="7 5" points="97.58,423.37 100.84,423.38 104.09,423.42 107.35,423.47 110.61,423.55 113.87,423.64 117.13,423.76 120.39,423.90 123.65,424.06 126.91,424.24 130.16,424.43 133.42,424.65 136.68,424.88 139.94,425.13 143.20,425.39 146.46,425.67 149.72,425.96 152.98,426.27 156.23,426.58 159.49,426.91 162.75,427.24 166.01,427.59 169.27,427.94 172.53,428.29 175.79,428.66 179.05,429.02 182.30,429.39 185.56,429.75 188.82,430.12 192.08,430.49 195.34,430.85 198.60,431.22 201.86,431.57 205.12,431.93 208.38,432.27 211.63,432.61 214.89,432.94 218.15,433.27 221.41,433.58 224.67,433.89 227.93,434.18 231.19,434.47 234.45,434.74 237.70,435.00 240.96,435.25 244.22,435.49 247.48,435.72 250.74,435.93 254.00,436.13 257.26,436.32 260.52,436.49 263.77,436.66 267.03,436.81 270.29,436.95 273.55,437.07 276.81,437.19 280.07,437.29 283.33,437.39 286.59,437.47 289.84,437.54 293.10,437.60 296.36,437.66 299.62,437.70 302.88,437.74 306.14,437.77 309.40,437.80 312.66,437.81 315.91,437.82 319.17,437.83 322.43,437.83 325.69,437.83 328.95,437.82 332.21,437.81 335.47,437.80 338.73,437.78 341.98,437.77 345.24,437.75 348.50,437.73 351.76,437.71 355.02,437.69 358.28,437.67 361.54,437.65 364.80,437.64 368.05,437.62 371.31,437.60 374.57,437.59 377.83,437.58 381.09,437.57 384.35,437.56 387.61,437.55 390.87,437.55 394.13,437.54 397.38,437.54 400.64,437.54 403.90,437.55 407.16,437.55 410.42,437.56 413.68,437.57 416.94,437.58 420.20,437.59 423.45,437.60 426.71,437.61 429.97,437.63 433.23,437.64 436.49,437.66 439.75,437.68 443.01,437.70 446.27,437.71 449.52,437.73 452.78,437.75 456.04,437.77 459.30,437.78 462.56,437.80 465.82,437.81 469.08,437.83 472.34,437.84 475.59,437.86 478.85,437.87 482.11,437.88 485.37,437.89 488.63,437.90 491.89,437.91 495.15,437.92 498.41,437.93 501.66,437.93 504.92,437.94 508.18,437.94 511.44,437.94 514.70,437.94 517.96,437.94 521.22,437.94 524.48,437.94 527.73,437.94 530.99,437.94 534.25,437.93 537.51,437.93 540.77,437.93 544.03,437.92 547.29,437.92 550.55,437.91 553.80,437.91 557.06,437.90 560.32,437.90 563.58,437.89 566.84,437.89 570.10,437.88 573.36,437.88 576.62,437.87 579.87,437.87 583.13,437.87 586.39,437.87 589.65,437.86 592.91,437.86 596.17,437.86 599.43,437.86 602.69,437.86 605.95,437.86 609.20,437.86 612.46,437.87 615.72,437.87 618.98,437.87 622.24,437.87 625.50,437.88 628.76,437.88 632.02,437.89 635.27,437.89 638.53,437.90 641.79,437.90 645.05,437.90 648.31,437.91 651.57,437.92 654.83,437.92 658.09,437.93 661.34,437.93 664.60,437.93 667.86,437.94 671.12,437.94 674.38,437.95 677.64,437.95 680.90,437.96 684.16,437.96 687.41,437.96 690.67,437.96 693.93,437.97 697.19,437.97 700.45,437.97 703.71,437.97 706.97,437.97 710.23,437.97 713.48,437.97 716.74,437.97 720.00,437.97 723.26,437.97 726.52,437.97 729.78,437.97 733.04,437.97 736.30,437.97 739.55,437.96 742.81,437.96 746.07,437.96 749.33,437.96 752.59,437.96 755.85,437.95 759.11,437.95 762.37,437.95 765.62,437.95 768.88,437.95 772.14,437.94 775.40,437.94 778.66,437.94 781.92,437.94 785.18,437.94 788.44,437.94 791.70,437.94 794.95,437.94 798.21,437.94 801.47,437.94 804.73,437.94 807.99,437.94 811.25,437.94 814.51,437.94 817.77,437.94 821.02,437.94 824.28,437.94 827.54,437.95 830.80,437.95 834.06,437.95 837.32,437.95 840.58,437.95 843.84,437.96 847.09,437.96 850.35,437.96 853.61,437.96 856.87,437.96 860.13,437.97 863.39,437.97 866.65,437.97 869.91,437.97 873.16,437.97 876.42,437.98"/>
<polyline fill="none" stroke="#d84315" stroke-width="2.5" points="97.58,72.29 100.84,72.49 104.09,73.10 107.35,74.12 110.61,75.54 113.87,77.36 117.13,79.57 120.39,82.16 123.65,85.13 126.91,88.47 130.16,92.15 133.42,96.18 136.68,100.54 139.94,105.21 143.20,110.18 146.46,115.43 149.72,120.95 152.98,126.73 156.23,132.74 159.49,138.97 162.75,145.40 166.01,152.02 169.27,158.80 172.53,165.74 175.79,172.81 179.05,180.00 182.30,187.30 185.56,194.68 188.82,202.14 192.08,209.65 195.34,217.21 198.60,224.79 201.86,232.40 205.12,240.00 208.38,247.60 211.63,255.18 214.89,262.72 218.15,270.22 221.41,277.66 224.67,285.03 227.93,292.32 231.19,299.51 234.45,306.60 237.70,313.56 240.96,320.39 244.22,327.06 247.48,333.57 250.74,339.89 254.00,345.99 257.26,351.87 260.52,357.48 263.77,362.81 267.03,367.81 270.29,372.45 273.55,376.70 276.81,380.50 280.07,383.82 283.33,386.62 286.59,388.88 289.84,390.56 293.10,391.69 296.36,392.28 299.62,392.38 302.88,392.05 306.14,391.36 309.40,390.40 312.66,389.22 315.91,387.91 319.17,386.53 322.43,385.11 325.69,383.71 328.95,382.36 332.21,381.10 335.47,379.94 338.73,378.90 341.98,378.00 345.24,377.25 348.50,376.66 351.76,376.23 355.02,375.97 358.28,375.87 361.54,375.94 364.80,376.18 368.05,376.59 371.31,377.15 374.57,377.87 377.83,378.74 381.09,379.76 384.35,380.92 387.61,382.21 390.87,383.62 394.13,385.15 397.38,386.79 400.64,388.52 403.90,390.35 407.16,392.25 410.42,394.22 413.68,396.24 416.94,398.32 420.20,400.42 423.45,402.54 426.71,404.66 429.97,406.77 433.23,408.84 436.49,410.85 439.75,412.78 443.01,414.59 446.27,416.24 449.52,417.70 452.78,418.93 456.04,419.86 459.30,420.47 462.56,420.74 465.82,420.66 469.08,420.26 472.34,419.57 475.59,418.66 478.85,417.58 482.11,416.37 485.37,415.08 488.63,413.74 491.89,412.39 495.15,411.05 498.41,409.74 501.66,408.48 504.92,407.27 508.18,406.13 511.44,405.07 514.70,404.10 517.96,403.22 521.22,402.43 524.48,401.74 527.73,401.16 530.99,400.69 534.25,400.32 537.51,400.06 540.77,399.91 544.03,399.88 547.29,399.95 550.55,400.12 553.80,400.41 557.06,400.80 560.32,401.29 563.58,401.88 566.84,402.57 570.10,403.35 573.36,404.22 576.62,405.18 579.87,406.22 583.13,407.34 586.39,408.53 589.65,409.79 592.91,411.12 596.17,412.50 599.43,413.94 602.69,415.42 605.95,416.95 609.20,418.51 612.46,420.11 615.72,421.72 618.98,423.36 622.24,425.00 625.50,426.64 628.76,428.27 632.02,429.85 635.27,431.37 638.53,432.74 641.79,433.84 645.05,434.41 648.31,434.23 651.57,433.41 654.83,432.24 658.09,430.91 661.34,429.52 664.60,428.11 667.86,426.72 671.12,425.35 674.38,424.02 677.64,422.74 680.90,421.50 684.16,420.32 687.41,419.20 690.67,418.14 693.93,417.15 697.19,416.23 700.45,415.38 703.71,414.60 706.97,413.90 710.23,413.28 713.48,412.73 716.74,412.27 720.00,411.88 723.26,411.57 726.52,411.34 729.78,411.19 733.04,411.12 736.30,411.13 739.55,411.22 742.81,411.38 746.07,411.62 749.33,411.93 752.59,412.32 755.85,412.77 759.11,413.29 762.37,413.88 765.62,414.53 768.88,415.23 772.14,416.00 775.40,416.81 778.66,417.68 781.92,418.59 785.18,419.55 788.44,420.55 791.70,421.59 794.95,422.65 798.21,423.75 801.47,424.87 804.73,426.01 807.99,427.17 811.25,428.35 814.51,429.52 817.77,430.70 821.02,431.87 824.28,433.02 827.54,434.11 830.80,435.11 834.06,435.86 837.32,436.07 840.58,435.61 843.84,434.78 847.09,433.81 850.35,432.79 853.61,431.76 856.87,430.74 860.13,429.74 863.39,428.77 866.65,427.83 869.91,426.92 873.16,426.06 876.42,425.23"/>
<line x1="94" y1="72" x2="122" y2="72" stroke="#455a64" stroke-width="3"/>
<text x="130.00" y="76.00" font-size="12" font-family="Arial, Helvetica, sans-serif" text-anchor="start" fill="#263238">w0 zero-photon</text>
<line x1="94" y1="94" x2="122" y2="94" stroke="#2962ff" stroke-width="3"/>
<text x="130.00" y="98.00" font-size="12" font-family="Arial, Helvetica, sans-serif" text-anchor="start" fill="#263238">w1 one-photon</text>
<line x1="94" y1="116" x2="122" y2="116" stroke="#6a1b9a" stroke-width="3" stroke-dasharray="7 5"/>
<text x="130.00" y="120.00" font-size="12" font-family="Arial, Helvetica, sans-serif" text-anchor="start" fill="#263238">w2 two-photon</text>
<line x1="94" y1="138" x2="122" y2="138" stroke="#d84315" stroke-width="3"/>
<text x="130.00" y="142.00" font-size="12" font-family="Arial, Helvetica, sans-serif" text-anchor="start" fill="#263238">total mixture</text>
<text x="487.00" y="492.00" font-size="14" font-family="Arial, Helvetica, sans-serif" text-anchor="middle" fill="#263238">d_over_lambda</text>
<text x="22.00" y="246.00" font-size="14" font-family="Arial, Helvetica, sans-serif" text-anchor="middle" fill="#263238" transform="rotate(-90 22.00 246.00)">component magnitude</text>
</svg>
