<svg xmlns="http://www.w3.org/2000/svg" width="920" height="520" viewBox="0 0 920 520">
<rect width="100%" height="100%" fill="#ffffff"/>
<text x="460.00" y="28.00" font-size="20" font-family="Arial, Helvetica, sans-serif" text-anchor="middle" fill="#17212b">Chapman Mixture One-Photon Recoil Density</text>
<rect x="82" y="54" width="810" height="384" fill="#fafafa" stroke="#cfd8dc"/>
<line x1="82.00" y1="54" x2="82.00" y2="438" stroke="#eceff1"/>
<text x="82.00" y="462.00" font-size="11" font-family="Arial, Helvetica, sans-serif" text-anchor="middle" fill="#263238">-0.04</text>
<line x1="244.00" y1="54" x2="244.00" y2="438" stroke="#eceff1"/>
<text x="244.00" y="462.00" font-size="11" font-family="Arial, Helvetica, sans-serif" text-anchor="middle" fill="#263238">0.38</text>
<line x1="406.00" y1="54" x2="406.00" y2="438" stroke="#eceff1"/>
<text x="406.00" y="462.00" font-size="11" font-family="Arial, Helvetica, sans-serif" text-anchor="middle" fill="#263238">0.79</text>
<line x1="568.00" y1="54" x2="568.00" y2="438" stroke="#eceff1"/>
<text x="568.00" y="462.00" font-size="11" font-family="Arial, Helvetica, sans-serif" text-anchor="middle" fill="#263238">1.2</text>
<line x1="730.00" y1="54" x2="730.00" y2="438" stroke="#eceff1"/>
<text x="730.00" y="462.00" font-size="11" font-family="Arial, Helvetica, sans-serif" text-anchor="middle" fill="#263238">1.6</text>
<line x1="892.00" y1="54" x2="892.00" y2="438" stroke="#eceff1"/>
<text x="892.00" y="462.00" font-size="11" font-family="Arial, Helvetica, sans-serif" text-anchor="middle" fill="#263238">2</text>
<line x1="82" y1="438.00" x2="892" y2="438.00" stroke="#eceff1"/>
<text x="72.00" y="442.00" font-size="11" font-family="Arial, Helvetica, sans-serif" text-anchor="end" fill="#263238">-0.051</text>
<line x1="82" y1="361.20" x2="892" y2="361.20" stroke="#eceff1"/>
<text x="72.00" y="365.20" font-size="11" font-family="Arial, Helvetica, sans-serif" text-anchor="end" fill="#263238">0.099</text>
<line x1="82" y1="284.40" x2="892" y2="284.40" stroke="#eceff1"/>
<text x="72.00" y="288.40" font-size="11" font-family="Arial, Helvetica, sans-serif" text-anchor="end" fill="#263238">0.25</text>
<line x1="82" y1="207.60" x2="892" y2="207.60" stroke="#eceff1"/>
<text x="72.00" y="211.60" font-size="11" font-family="Arial, Helvetica, sans-serif" text-anchor="end" fill="#263238">0.4</text>
<line x1="82" y1="130.80" x2="892" y2="130.80" stroke="#eceff1"/>
<text x="72.00" y="134.80" font-size="11" font-family="Arial, Helvetica, sans-serif" text-anchor="end" fill="#263238">0.55</text>
<line x1="82" y1="54.00" x2="892" y2="54.00" stroke="#eceff1"/>
<text x="72.00" y="58.00" font-size="11" font-family="Arial, Helvetica, sans-serif" text-anchor="end" fill="#263238">0.7</text>
<polyline fill="none" stroke="#2962ff" stroke-width="2.5" points="97.58,411.52 98.55,396.60 99.52,390.24 100.50,385.36 101.47,381.25 102.44,377.63 103.42,374.36 104.39,371.36 105.37,368.56 106.34,365.93 107.31,363.45 108.29,361.09 109.26,358.83 110.23,356.67 111.21,354.59 112.18,352.59 113.15,350.65 114.13,348.77 115.10,346.95 116.07,345.17 117.05,343.45 118.02,341.76 119.00,340.12 119.97,338.52 120.94,336.95 121.92,335.41 122.89,333.90 123.86,332.43 124.84,330.98 125.81,329.56 126.78,328.16 127.76,326.79 128.73,325.43 129.70,324.10 130.68,322.79 131.65,321.50 132.62,320.23 133.60,318.98 134.57,317.74 135.55,316.53 136.52,315.32 137.49,314.14 138.47,312.96 139.44,311.80 140.41,310.66 141.39,309.53 142.36,308.41 143.33,307.31 144.31,306.21 145.28,305.13 146.25,304.06 147.23,303.00 148.20,301.95 149.18,300.92 150.15,299.89 151.12,298.87 152.10,297.86 153.07,296.86 154.04,295.87 155.02,294.89 155.99,293.92 156.96,292.96 157.94,292.00 158.91,291.06 159.88,290.12 160.86,289.19 161.83,288.26 162.81,287.34 163.78,286.44 164.75,285.53 165.73,284.64 166.70,283.75 167.67,282.87 168.65,281.99 169.62,281.12 170.59,280.26 171.57,279.40 172.54,278.55 173.51,277.71 174.49,276.87 175.46,276.03 176.44,275.21 177.41,274.38 178.38,273.57 179.36,272.76 180.33,271.95 181.30,271.15 182.28,270.35 183.25,269.56 184.22,268.77 185.20,267.99 186.17,267.21 187.14,266.44 188.12,265.67 189.09,264.91 190.06,264.15 191.04,263.40 192.01,262.65 192.99,261.90 193.96,261.16 194.93,260.42 195.91,259.69 196.88,258.96 197.85,258.23 198.83,257.51 199.80,256.79 200.77,256.07 201.75,255.36 202.72,254.66 203.69,253.95 204.67,253.25 205.64,252.56 206.62,251.86 207.59,251.17 208.56,250.49 209.54,249.80 210.51,249.12 211.48,248.45 212.46,247.77 213.43,247.10 214.40,246.44 215.38,245.77 216.35,245.11 217.32,244.45 218.30,243.80 219.27,243.15 220.25,242.50 221.22,241.85 222.19,241.21 223.17,240.57 224.14,239.93 225.11,239.30 226.09,238.67 227.06,238.04 228.03,237.41 229.01,236.79 229.98,236.17 230.95,235.55 231.93,234.93 232.90,234.32 233.87,233.71 234.85,233.10 235.82,232.49 236.80,231.89 237.77,231.29 238.74,230.69 239.72,230.10 240.69,229.50 241.66,228.91 242.64,228.32 243.61,227.73 244.58,227.15 245.56,226.57 246.53,225.99 247.50,225.41 248.48,224.83 249.45,224.26 250.43,223.69 251.40,223.12 252.37,222.55 253.35,221.99 254.32,221.42 255.29,220.86 256.27,220.30 257.24,219.75 258.21,219.19 259.19,218.64 260.16,218.09 261.13,217.54 262.11,216.99 263.08,216.45 264.06,215.91 265.03,215.36 266.00,214.83 266.98,214.29 267.95,213.75 268.92,213.22 269.90,212.69 270.87,212.16 271.84,211.63 272.82,211.10 273.79,210.58 274.76,210.05 275.74,209.53 276.71,209.01 277.69,208.50 278.66,207.98 279.63,207.47 280.61,206.95 281.58,206.44 282.55,205.93 283.53,205.43 284.50,204.92 285.47,204.42 286.45,203.91 287.42,203.41 288.39,202.91 289.37,202.42 290.34,201.92 291.31,201.42 292.29,200.93 293.26,200.44 294.24,199.95 295.21,199.46 296.18,198.97 297.16,198.49 298.13,198.00 299.10,197.52 300.08,197.04 301.05,196.56 302.02,196.08 303.00,195.61 303.97,195.13 304.94,194.66 305.92,194.18 306.89,193.71 307.87,193.24 308.84,192.78 309.81,192.31 310.79,191.84 311.76,191.38 312.73,190.92 313.71,190.46 314.68,190.00 315.65,189.54 316.63,189.08 317.60,188.63 318.57,188.17 319.55,187.72 320.52,187.27 321.50,186.82 322.47,186.37 323.44,185.92 324.42,185.47 325.39,185.03 326.36,184.58 327.34,184.14 328.31,183.70 329.28,183.26 330.26,182.82 331.23,182.38 332.20,181.94 333.18,181.51 334.15,181.07 335.12,180.64 336.10,180.21 337.07,179.78 338.05,179.35 339.02,178.92 339.99,178.49 340.97,178.07 341.94,177.64 342.91,177.22 343.89,176.80 344.86,176.38 345.83,175.96 346.81,175.54 347.78,175.12 348.75,174.70 349.73,174.29 350.70,173.87 351.68,173.46 352.65,173.05 353.62,172.64 354.60,172.23 355.57,171.82 356.54,171.41 357.52,171.00 358.49,170.60 359.46,170.19 360.44,169.79 361.41,169.39 362.38,168.99 363.36,168.59 364.33,168.19 365.31,167.79 366.28,167.39 367.25,167.00 368.23,166.60 369.20,166.21 370.17,165.82 371.15,165.42 372.12,165.03 373.09,164.64 374.07,164.26 375.04,163.87 376.01,163.48 376.99,163.10 377.96,162.71 378.94,162.33 379.91,161.95 380.88,161.56 381.86,161.18 382.83,160.80 383.80,160.43 384.78,160.05 385.75,159.67 386.72,159.30 387.70,158.92 388.67,158.55 389.64,158.17 390.62,157.80 391.59,157.43 392.56,157.06 393.54,156.69 394.51,156.33 395.49,155.96 396.46,155.59 397.43,155.23 398.41,154.86 399.38,154.50 400.35,154.14 401.33,153.78 402.30,153.42 403.27,153.06 404.25,152.70 405.22,152.34 406.19,151.98 407.17,151.63 408.14,151.27 409.12,150.92 410.09,150.57 411.06,150.21 412.04,149.86 413.01,149.51 413.98,149.16 414.96,148.81 415.93,148.47 416.90,148.12 417.88,147.77 418.85,147.43 419.82,147.09 420.80,146.74 421.77,146.40 422.75,146.06 423.72,145.72 424.69,145.38 425.67,145.04 426.64,144.70 427.61,144.36 428.59,144.03 429.56,143.69 430.53,143.36 431.51,143.03 432.48,142.69 433.45,142.36 434.43,142.03 435.40,141.70 436.37,141.37 437.35,141.04 438.32,140.71 439.30,140.39 440.27,140.06 441.24,139.74 442.22,139.41 443.19,139.09 444.16,138.77 445.14,138.44 446.11,138.12 447.08,137.80 448.06,137.48 449.03,137.17 450.00,136.85 450.98,136.53 451.95,136.22 452.93,135.90 453.90,135.59 454.87,135.27 455.85,134.96 456.82,134.65 457.79,134.34 458.77,134.03 459.74,133.72 460.71,133.41 461.69,133.10 462.66,132.79 463.63,132.49 464.61,132.18 465.58,131.88 466.56,131.57 467.53,131.27 468.50,130.97 469.48,130.67 470.45,130.37 471.42,130.07 472.40,129.77 473.37,129.47 474.34,129.17 475.32,128.88 476.29,128.58 477.26,128.29 478.24,127.99 479.21,127.70 480.19,127.41 481.16,127.12 482.13,126.82 483.11,126.53 484.08,126.24 485.05,125.96 486.03,125.67 487.00,125.38 487.97,125.10 488.95,124.81 489.92,124.53 490.89,124.24 491.87,123.96 492.84,123.68 493.81,123.39 494.79,123.11 495.76,122.83 496.74,122.56 497.71,122.28 498.68,122.00 499.66,121.72 500.63,121.45 501.60,121.17 502.58,120.90 503.55,120.62 504.52,120.35 505.50,120.08 506.47,119.81 507.44,119.54 508.42,119.27 509.39,119.00 510.37,118.73 511.34,118.46 512.31,118.20 513.29,117.93 514.26,117.66 515.23,117.40 516.21,117.14 517.18,116.87 518.15,116.61 519.13,116.35 520.10,116.09 521.07,115.83 522.05,115.57 523.02,115.31 524.00,115.06 524.97,114.80 525.94,114.54 526.92,114.29 527.89,114.04 528.86,113.78 529.84,113.53 530.81,113.28 531.78,113.03 532.76,112.78 533.73,112.53 534.70,112.28 535.68,112.03 536.65,111.78 537.62,111.54 538.60,111.29 539.57,111.05 540.55,110.80 541.52,110.56 542.49,110.32 543.47,110.07 544.44,109.83 545.41,109.59 546.39,109.35 547.36,109.12 548.33,108.88 549.31,108.64 550.28,108.40 551.25,108.17 552.23,107.93 553.20,107.70 554.18,107.47 555.15,107.24 556.12,107.00 557.10,106.77 558.07,106.54 559.04,106.31 560.02,106.09 560.99,105.86 561.96,105.63 562.94,105.41 563.91,105.18 564.88,104.96 565.86,104.73 566.83,104.51 567.81,104.29 568.78,104.07 569.75,103.85 570.73,103.63 571.70,103.41 572.67,103.19 573.65,102.98 574.62,102.76 575.59,102.54 576.57,102.33 577.54,102.12 578.51,101.90 579.49,101.69 580.46,101.48 581.44,101.27 582.41,101.06 583.38,100.85 584.36,100.64 585.33,100.44 586.30,100.23 587.28,100.02 588.25,99.82 589.22,99.62 590.20,99.41 591.17,99.21 592.14,99.01 593.12,98.81 594.09,98.61 595.06,98.41 596.04,98.21 597.01,98.02 597.99,97.82 598.96,97.62 599.93,97.43 600.91,97.24 601.88,97.04 602.85,96.85 603.83,96.66 604.80,96.47 605.77,96.28 606.75,96.09 607.72,95.90 608.69,95.72 609.67,95.53 610.64,95.35 611.62,95.16 612.59,94.98 613.56,94.80 614.54,94.62 615.51,94.44 616.48,94.26 617.46,94.08 618.43,93.90 619.40,93.72 620.38,93.55 621.35,93.37 622.32,93.20 623.30,93.03 624.27,92.85 625.25,92.68 626.22,92.51 627.19,92.34 628.17,92.17 629.14,92.01 630.11,91.84 631.09,91.68 632.06,91.51 633.03,91.35 634.01,91.18 634.98,91.02 635.95,90.86 636.93,90.70 637.90,90.54 638.87,90.38 639.85,90.23 640.82,90.07 641.80,89.92 642.77,89.76 643.74,89.61 644.72,89.46 645.69,89.31 646.66,89.16 647.64,89.01 648.61,88.86 649.58,88.71 650.56,88.57 651.53,88.42 652.50,88.28 653.48,88.14 654.45,88.00 655.43,87.85 656.40,87.72 657.37,87.58 658.35,87.44 659.32,87.30 660.29,87.17 661.27,87.03 662.24,86.90 663.21,86.77 664.19,86.64 665.16,86.51 666.13,86.38 667.11,86.25 668.08,86.13 669.06,86.00 670.03,85.88 671.00,85.75 671.98,85.63 672.95,85.51 673.92,85.39 674.90,85.27 675.87,85.16 676.84,85.04 677.82,84.93 678.79,84.81 679.76,84.70 680.74,84.59 681.71,84.48 682.69,84.37 683.66,84.26 684.63,84.16 685.61,84.05 686.58,83.95 687.55,83.85 688.53,83.75 689.50,83.65 690.47,83.55 691.45,83.45 692.42,83.36 693.39,83.26 694.37,83.17 695.34,83.08 696.31,82.99 697.29,82.90 698.26,82.81 699.24,82.72 700.21,82.64 701.18,82.56 702.16,82.47 703.13,82.39 704.10,82.31 705.08,82.24 706.05,82.16 707.02,82.09 708.00,82.01 708.97,81.94 709.94,81.87 710.92,81.80 711.89,81.74 712.87,81.67 713.84,81.61 714.81,81.54 715.79,81.48 716.76,81.42 717.73,81.37 718.71,81.31 719.68,81.26 720.65,81.20 721.63,81.15 722.60,81.10 723.57,81.06 724.55,81.01 725.52,80.97 726.50,80.92 727.47,80.88 728.44,80.85 729.42,80.81 730.39,80.77 731.36,80.74 732.34,80.71 733.31,80.68 734.28,80.65 735.26,80.63 736.23,80.60 737.20,80.58 738.18,80.56 739.15,80.55 740.12,80.53 741.10,80.52 742.07,80.51 743.05,80.50 744.02,80.49 744.99,80.49 745.97,80.48 746.94,80.48 747.91,80.48 748.89,80.49 749.86,80.50 750.83,80.50 751.81,80.52 752.78,80.53 753.75,80.54 754.73,80.56 755.70,80.58 756.68,80.61 757.65,80.63 758.62,80.66 759.60,80.69 760.57,80.73 761.54,80.76 762.52,80.80 763.49,80.84 764.46,80.89 765.44,80.94 766.41,80.99 767.38,81.04 768.36,81.10 769.33,81.16 770.31,81.22 771.28,81.29 772.25,81.35 773.23,81.43 774.20,81.50 775.17,81.58 776.15,81.66 777.12,81.75 778.09,81.84 779.07,81.93 780.04,82.03 781.01,82.12 781.99,82.23 782.96,82.34 783.94,82.45 784.91,82.56 785.88,82.68 786.86,82.80 787.83,82.93 788.80,83.06 789.78,83.20 790.75,83.34 791.72,83.48 792.70,83.63 793.67,83.79 794.64,83.95 795.62,84.11 796.59,84.28 797.56,84.45 798.54,84.63 799.51,84.82 800.49,85.01 801.46,85.20 802.43,85.40 803.41,85.61 804.38,85.83 805.35,86.04 806.33,86.27 807.30,86.50 808.27,86.74 809.25,86.99 810.22,87.24 811.19,87.50 812.17,87.76 813.14,88.04 814.12,88.32 815.09,88.61 816.06,88.91 817.04,89.21 818.01,89.53 818.98,89.85 819.96,90.19 820.93,90.53 821.90,90.88 822.88,91.24 823.85,91.62 824.82,92.00 825.80,92.40 826.77,92.80 827.75,93.22 828.72,93.65 829.69,94.10 830.67,94.56 831.64,95.03 832.61,95.51 833.59,96.01 834.56,96.53 835.53,97.07 836.51,97.62 837.48,98.18 838.45,98.77 839.43,99.38 840.40,100.01 841.37,100.66 842.35,101.33 843.32,102.03 844.30,102.75 845.27,103.50 846.24,104.28 847.22,105.08 848.19,105.92 849.16,106.80 850.14,107.71 851.11,108.66 852.08,109.65 853.06,110.69 854.03,111.77 855.00,112.91 855.98,114.11 856.95,115.37 857.93,116.70 858.90,118.10 859.87,119.59 860.85,121.17 861.82,122.86 862.79,124.66 863.77,126.60 864.74,128.70 865.71,130.97 866.69,133.46 867.66,136.21 868.63,139.26 869.61,142.71 870.58,146.66 871.56,151.29 872.53,156.88 873.50,163.96 874.48,173.67 875.45,189.48 876.42,302.85"/>
<line x1="94" y1="72" x2="122" y2="72" stroke="#2962ff" stroke-width="3"/>
<text x="130.00" y="76.00" font-size="12" font-family="Arial, Helvetica, sans-serif" text-anchor="start" fill="#263238">fitted one-photon P1(q)</text>
<text x="487.00" y="492.00" font-size="14" font-family="Arial, Helvetica, sans-serif" text-anchor="middle" fill="#263238">q = Delta k_x / k</text>
<text x="22.00" y="246.00" font-size="14" font-family="Arial, Helvetica, sans-serif" text-anchor="middle" fill="#263238" transform="rotate(-90 22.00 246.00)">density</text>
</svg>
