<svg xmlns="http://www.w3.org/2000/svg" width="720" height="560" viewBox="0 0 720 560">
<rect width="100%" height="100%" fill="#ffffff"/>
<text x="360.00" y="28.00" font-size="20" font-family="Arial, Helvetica, sans-serif" text-anchor="middle" fill="#17212b">Hornberger Methane Collisional Decoherence</text>
<rect x="82" y="54" width="606" height="424" fill="#fafafa" stroke="#cfd8dc"/>
<line x1="82.00" y1="54" x2="82.00" y2="478" stroke="#eceff1"/>
<text x="82.00" y="502.00" font-size="11" font-family="Arial, Helvetica, sans-serif" text-anchor="middle" fill="#263238">-0.14</text>
<line x1="203.20" y1="54" x2="203.20" y2="478" stroke="#eceff1"/>
<text x="203.20" y="502.00" font-size="11" font-family="Arial, Helvetica, sans-serif" text-anchor="middle" fill="#263238">0.39</text>
<line x1="324.40" y1="54" x2="324.40" y2="478" stroke="#eceff1"/>
<text x="324.40" y="502.00" font-size="11" font-family="Arial, Helvetica, sans-serif" text-anchor="middle" fill="#263238">0.92</text>
<line x1="445.60" y1="54" x2="445.60" y2="478" stroke="#eceff1"/>
<text x="445.60" y="502.00" font-size="11" font-family="Arial, Helvetica, sans-serif" text-anchor="middle" fill="#263238">1.5</text>
<line x1="566.80" y1="54" x2="566.80" y2="478" stroke="#eceff1"/>
<text x="566.80" y="502.00" font-size="11" font-family="Arial, Helvetica, sans-serif" text-anchor="middle" fill="#263238">2</text>
<line x1="688.00" y1="54" x2="688.00" y2="478" stroke="#eceff1"/>
<text x="688.00" y="502.00" font-size="11" font-family="Arial, Helvetica, sans-serif" text-anchor="middle" fill="#263238">2.5</text>
<line x1="82" y1="478.00" x2="688" y2="478.00" stroke="#eceff1"/>
<text x="72.00" y="482.00" font-size="11" font-family="Arial, Helvetica, sans-serif" text-anchor="end" fill="#263238">0.28</text>
<line x1="82" y1="393.20" x2="688" y2="393.20" stroke="#eceff1"/>
<text x="72.00" y="397.20" font-size="11" font-family="Arial, Helvetica, sans-serif" text-anchor="end" fill="#263238">8.2</text>
<line x1="82" y1="308.40" x2="688" y2="308.40" stroke="#eceff1"/>
<text x="72.00" y="312.40" font-size="11" font-family="Arial, Helvetica, sans-serif" text-anchor="end" fill="#263238">16</text>
<line x1="82" y1="223.60" x2="688" y2="223.60" stroke="#eceff1"/>
<text x="72.00" y="227.60" font-size="11" font-family="Arial, Helvetica, sans-serif" text-anchor="end" fill="#263238">24</text>
<line x1="82" y1="138.80" x2="688" y2="138.80" stroke="#eceff1"/>
<text x="72.00" y="142.80" font-size="11" font-family="Arial, Helvetica, sans-serif" text-anchor="end" fill="#263238">32</text>
<line x1="82" y1="54.00" x2="688" y2="54.00" stroke="#eceff1"/>
<text x="72.00" y="58.00" font-size="11" font-family="Arial, Helvetica, sans-serif" text-anchor="end" fill="#263238">40</text>
<circle cx="114.46" cy="76.71" r="3.4" fill="#455a64" fill-opacity="0.62"/>
<circle cx="123.56" cy="91.69" r="3.4" fill="#455a64" fill-opacity="0.62"/>
<circle cx="132.65" cy="112.00" r="3.4" fill="#455a64" fill-opacity="0.62"/>
<circle cx="144.02" cy="128.05" r="3.4" fill="#455a64" fill-opacity="0.62"/>
<circle cx="153.11" cy="138.74" r="3.4" fill="#455a64" fill-opacity="0.62"/>
<circle cx="159.93" cy="154.78" r="3.4" fill="#455a64" fill-opacity="0.62"/>
<circle cx="184.94" cy="194.35" r="3.4" fill="#455a64" fill-opacity="0.62"/>
<circle cx="196.31" cy="207.18" r="3.4" fill="#455a64" fill-opacity="0.62"/>
<circle cx="214.49" cy="228.57" r="3.4" fill="#455a64" fill-opacity="0.62"/>
<circle cx="241.78" cy="262.79" r="3.4" fill="#455a64" fill-opacity="0.62"/>
<circle cx="262.24" cy="299.15" r="3.4" fill="#455a64" fill-opacity="0.62"/>
<circle cx="282.70" cy="297.01" r="3.4" fill="#455a64" fill-opacity="0.62"/>
<circle cx="303.16" cy="335.51" r="3.4" fill="#455a64" fill-opacity="0.62"/>
<circle cx="330.44" cy="369.73" r="3.4" fill="#455a64" fill-opacity="0.62"/>
<circle cx="369.09" cy="379.36" r="3.4" fill="#455a64" fill-opacity="0.62"/>
<circle cx="414.55" cy="414.65" r="3.4" fill="#455a64" fill-opacity="0.62"/>
<circle cx="482.76" cy="438.18" r="3.4" fill="#455a64" fill-opacity="0.62"/>
<circle cx="550.96" cy="438.18" r="3.4" fill="#455a64" fill-opacity="0.62"/>
<circle cx="655.54" cy="455.29" r="3.4" fill="#455a64" fill-opacity="0.62"/>
<polyline fill="none" stroke="#d84315" stroke-width="2.5" points="114.46,69.79 118.04,77.73 121.61,85.51 125.19,93.14 128.76,100.62 132.34,107.96 135.91,115.16 139.49,122.22 143.06,129.14 146.64,135.93 150.21,142.59 153.78,149.12 157.36,155.52 160.93,161.80 164.51,167.96 168.08,174.00 171.66,179.92 175.23,185.73 178.81,191.43 182.38,197.01 185.96,202.49 189.53,207.87 193.10,213.14 196.68,218.30 200.25,223.37 203.83,228.34 207.40,233.22 210.98,238.00 214.55,242.69 218.13,247.28 221.70,251.79 225.28,256.22 228.85,260.55 232.42,264.81 236.00,268.98 239.57,273.07 243.15,277.08 246.72,281.01 250.30,284.87 253.87,288.66 257.45,292.37 261.02,296.00 264.60,299.57 268.17,303.07 271.74,306.51 275.32,309.87 278.89,313.17 282.47,316.41 286.04,319.59 289.62,322.70 293.19,325.75 296.77,328.75 300.34,331.69 303.92,334.57 307.49,337.39 311.06,340.16 314.64,342.88 318.21,345.54 321.79,348.16 325.36,350.72 328.94,353.23 332.51,355.70 336.09,358.11 339.66,360.48 343.24,362.81 346.81,365.09 350.38,367.32 353.96,369.52 357.53,371.67 361.11,373.78 364.68,375.84 368.26,377.87 371.83,379.86 375.41,381.81 378.98,383.73 382.56,385.60 386.13,387.44 389.70,389.25 393.28,391.02 396.85,392.75 400.43,394.45 404.00,396.12 407.58,397.76 411.15,399.36 414.73,400.94 418.30,402.48 421.87,404.00 425.45,405.48 429.02,406.94 432.60,408.37 436.17,409.77 439.75,411.14 443.32,412.49 446.90,413.81 450.47,415.11 454.05,416.38 457.62,417.62 461.19,418.84 464.77,420.04 468.34,421.22 471.92,422.37 475.49,423.50 479.07,424.61 482.64,425.70 486.22,426.76 489.79,427.81 493.37,428.83 496.94,429.84 500.51,430.83 504.09,431.79 507.66,432.74 511.24,433.67 514.81,434.58 518.39,435.48 521.96,436.36 525.54,437.22 529.11,438.06 532.69,438.89 536.26,439.70 539.83,440.50 543.41,441.28 546.98,442.04 550.56,442.79 554.13,443.53 557.71,444.25 561.28,444.96 564.86,445.66 568.43,446.34 572.01,447.00 575.58,447.66 579.15,448.30 582.73,448.93 586.30,449.55 589.88,450.16 593.45,450.75 597.03,451.33 600.60,451.90 604.18,452.46 607.75,453.01 611.33,453.55 614.90,454.08 618.47,454.60 622.05,455.11 625.62,455.61 629.20,456.10 632.77,456.58 636.35,457.05 639.92,457.51 643.50,457.96 647.07,458.40 650.65,458.84 654.22,459.27 657.79,459.68 661.37,460.09 664.94,460.50 668.52,460.89 672.09,461.28 675.67,461.66 679.24,462.03 682.82,462.40"/>
<text x="100.00" y="74.00" font-size="12" font-family="Arial, Helvetica, sans-serif" text-anchor="start" fill="#d84315">exp pressure fit</text>
<text x="385.00" y="532.00" font-size="14" font-family="Arial, Helvetica, sans-serif" text-anchor="middle" fill="#263238">pressure (10^-6 mbar)</text>
<text x="22.00" y="266.00" font-size="14" font-family="Arial, Helvetica, sans-serif" text-anchor="middle" fill="#263238" transform="rotate(-90 22.00 266.00)">visibility (%)</text>
</svg>
