<svg xmlns="http://www.w3.org/2000/svg" width="920" height="520" viewBox="0 0 920 520">
<rect width="100%" height="100%" fill="#ffffff"/>
<text x="460.00" y="28.00" font-size="20" font-family="Arial, Helvetica, sans-serif" text-anchor="middle" fill="#17212b">Chapman Kernel Fit: raw</text>
<rect x="82" y="54" width="810" height="384" fill="#fafafa" stroke="#cfd8dc"/>
<line x1="82.00" y1="54" x2="82.00" y2="438" stroke="#eceff1"/>
<text x="82.00" y="462.00" font-size="11" font-family="Arial, Helvetica, sans-serif" text-anchor="middle" fill="#263238">-0.04</text>
<line x1="244.00" y1="54" x2="244.00" y2="438" stroke="#eceff1"/>
<text x="244.00" y="462.00" font-size="11" font-family="Arial, Helvetica, sans-serif" text-anchor="middle" fill="#263238">0.38</text>
<line x1="406.00" y1="54" x2="406.00" y2="438" stroke="#eceff1"/>
<text x="406.00" y="462.00" font-size="11" font-family="Arial, Helvetica, sans-serif" text-anchor="middle" fill="#263238">0.79</text>
<line x1="568.00" y1="54" x2="568.00" y2="438" stroke="#eceff1"/>
<text x="568.00" y="462.00" font-size="11" font-family="Arial, Helvetica, sans-serif" text-anchor="middle" fill="#263238">1.2</text>
<line x1="730.00" y1="54" x2="730.00" y2="438" stroke="#eceff1"/>
<text x="730.00" y="462.00" font-size="11" font-family="Arial, Helvetica, sans-serif" text-anchor="middle" fill="#263238">1.6</text>
<line x1="892.00" y1="54" x2="892.00" y2="438" stroke="#eceff1"/>
<text x="892.00" y="462.00" font-size="11" font-family="Arial, Helvetica, sans-serif" text-anchor="middle" fill="#263238">2</text>
<line x1="82" y1="438.00" x2="892" y2="438.00" stroke="#eceff1"/>
<text x="72.00" y="442.00" font-size="11" font-family="Arial, Helvetica, sans-serif" text-anchor="end" fill="#263238">0</text>
<line x1="82" y1="361.20" x2="892" y2="361.20" stroke="#eceff1"/>
<text x="72.00" y="365.20" font-size="11" font-family="Arial, Helvetica, sans-serif" text-anchor="end" fill="#263238">0.21</text>
<line x1="82" y1="284.40" x2="892" y2="284.40" stroke="#eceff1"/>
<text x="72.00" y="288.40" font-size="11" font-family="Arial, Helvetica, sans-serif" text-anchor="end" fill="#263238">0.42</text>
<line x1="82" y1="207.60" x2="892" y2="207.60" stroke="#eceff1"/>
<text x="72.00" y="211.60" font-size="11" font-family="Arial, Helvetica, sans-serif" text-anchor="end" fill="#263238">0.63</text>
<line x1="82" y1="130.80" x2="892" y2="130.80" stroke="#eceff1"/>
<text x="72.00" y="134.80" font-size="11" font-family="Arial, Helvetica, sans-serif" text-anchor="end" fill="#263238">0.84</text>
<line x1="82" y1="54.00" x2="892" y2="54.00" stroke="#eceff1"/>
<text x="72.00" y="58.00" font-size="11" font-family="Arial, Helvetica, sans-serif" text-anchor="end" fill="#263238">1.1</text>
<line x1="296.12" y1="54" x2="296.12" y2="438" stroke="#2962ff" stroke-width="1.8" stroke-dasharray="6 5"/>
<text x="302.12" y="70.00" font-size="11" font-family="Arial, Helvetica, sans-serif" text-anchor="start" fill="#2962ff">sinc zero</text>
<polyline fill="none" stroke="#263238" stroke-width="2.5" points="97.58,72.29 175.46,145.46 253.35,357.53 292.29,423.39 331.23,372.13 409.12,339.27 487.00,416.09 564.88,379.44 642.77,386.74 720.65,419.74 798.54,394.18 876.42,412.44"/>
<polyline fill="none" stroke="#d84315" stroke-width="2.5" stroke-dasharray="7 5" points="97.58,72.29 175.46,183.96 253.35,346.50 292.29,379.52 331.23,391.86 409.12,396.16 487.00,396.31 564.88,396.31 642.77,396.31 720.65,396.31 798.54,396.31 876.42,396.31"/>
<polyline fill="none" stroke="#2962ff" stroke-width="2.5" points="97.58,72.29 175.46,152.34 253.35,334.85 292.29,418.54 331.23,374.65 409.12,354.85 487.00,418.55 564.88,382.30 642.77,395.93 720.65,410.34 798.54,393.53 876.42,418.60"/>
<polyline fill="none" stroke="#00897b" stroke-width="2.5" stroke-dasharray="7 5" points="97.58,72.29 175.46,183.95 253.35,346.48 292.29,379.51 331.23,391.86 409.12,396.16 487.00,396.31 564.88,396.31 642.77,396.31 720.65,396.31 798.54,396.31 876.42,396.31"/>
<line x1="94" y1="72" x2="122" y2="72" stroke="#263238" stroke-width="3"/>
<text x="130.00" y="76.00" font-size="12" font-family="Arial, Helvetica, sans-serif" text-anchor="start" fill="#263238">raw data</text>
<line x1="94" y1="94" x2="122" y2="94" stroke="#d84315" stroke-width="3" stroke-dasharray="7 5"/>
<text x="130.00" y="98.00" font-size="12" font-family="Arial, Helvetica, sans-serif" text-anchor="start" fill="#263238">exponential</text>
<line x1="94" y1="116" x2="122" y2="116" stroke="#2962ff" stroke-width="3"/>
<text x="130.00" y="120.00" font-size="12" font-family="Arial, Helvetica, sans-serif" text-anchor="start" fill="#263238">sinc fourier</text>
<line x1="94" y1="138" x2="122" y2="138" stroke="#00897b" stroke-width="3" stroke-dasharray="7 5"/>
<text x="130.00" y="142.00" font-size="12" font-family="Arial, Helvetica, sans-serif" text-anchor="start" fill="#263238">gaussian kernel</text>
<text x="487.00" y="492.00" font-size="14" font-family="Arial, Helvetica, sans-serif" text-anchor="middle" fill="#263238">d_over_lambda</text>
<text x="22.00" y="246.00" font-size="14" font-family="Arial, Helvetica, sans-serif" text-anchor="middle" fill="#263238" transform="rotate(-90 22.00 246.00)">relative visibility</text>
</svg>
