<svg xmlns="http://www.w3.org/2000/svg" width="720" height="560" viewBox="0 0 720 560">
<rect width="100%" height="100%" fill="#ffffff"/>
<text x="360.00" y="28.00" font-size="20" font-family="Arial, Helvetica, sans-serif" text-anchor="middle" fill="#17212b">Hackermueller Fig. 4b</text>
<rect x="82" y="54" width="606" height="424" fill="#fafafa" stroke="#cfd8dc"/>
<line x1="82.00" y1="54" x2="82.00" y2="478" stroke="#eceff1"/>
<text x="82.00" y="502.00" font-size="11" font-family="Arial, Helvetica, sans-serif" text-anchor="middle" fill="#263238">-0.6</text>
<line x1="203.20" y1="54" x2="203.20" y2="478" stroke="#eceff1"/>
<text x="203.20" y="502.00" font-size="11" font-family="Arial, Helvetica, sans-serif" text-anchor="middle" fill="#263238">1.6</text>
<line x1="324.40" y1="54" x2="324.40" y2="478" stroke="#eceff1"/>
<text x="324.40" y="502.00" font-size="11" font-family="Arial, Helvetica, sans-serif" text-anchor="middle" fill="#263238">3.9</text>
<line x1="445.60" y1="54" x2="445.60" y2="478" stroke="#eceff1"/>
<text x="445.60" y="502.00" font-size="11" font-family="Arial, Helvetica, sans-serif" text-anchor="middle" fill="#263238">6.1</text>
<line x1="566.80" y1="54" x2="566.80" y2="478" stroke="#eceff1"/>
<text x="566.80" y="502.00" font-size="11" font-family="Arial, Helvetica, sans-serif" text-anchor="middle" fill="#263238">8.4</text>
<line x1="688.00" y1="54" x2="688.00" y2="478" stroke="#eceff1"/>
<text x="688.00" y="502.00" font-size="11" font-family="Arial, Helvetica, sans-serif" text-anchor="middle" fill="#263238">11</text>
<line x1="82" y1="478.00" x2="688" y2="478.00" stroke="#eceff1"/>
<text x="72.00" y="482.00" font-size="11" font-family="Arial, Helvetica, sans-serif" text-anchor="end" fill="#263238">-0.06</text>
<line x1="82" y1="393.20" x2="688" y2="393.20" stroke="#eceff1"/>
<text x="72.00" y="397.20" font-size="11" font-family="Arial, Helvetica, sans-serif" text-anchor="end" fill="#263238">0.16</text>
<line x1="82" y1="308.40" x2="688" y2="308.40" stroke="#eceff1"/>
<text x="72.00" y="312.40" font-size="11" font-family="Arial, Helvetica, sans-serif" text-anchor="end" fill="#263238">0.39</text>
<line x1="82" y1="223.60" x2="688" y2="223.60" stroke="#eceff1"/>
<text x="72.00" y="227.60" font-size="11" font-family="Arial, Helvetica, sans-serif" text-anchor="end" fill="#263238">0.61</text>
<line x1="82" y1="138.80" x2="688" y2="138.80" stroke="#eceff1"/>
<text x="72.00" y="142.80" font-size="11" font-family="Arial, Helvetica, sans-serif" text-anchor="end" fill="#263238">0.84</text>
<line x1="82" y1="54.00" x2="688" y2="54.00" stroke="#eceff1"/>
<text x="72.00" y="58.00" font-size="11" font-family="Arial, Helvetica, sans-serif" text-anchor="end" fill="#263238">1.1</text>
<circle cx="114.46" cy="76.71" r="3.4" fill="#2962ff" fill-opacity="0.62"/>
<circle cx="168.57" cy="91.86" r="3.4" fill="#2962ff" fill-opacity="0.62"/>
<circle cx="222.68" cy="152.43" r="3.4" fill="#2962ff" fill-opacity="0.62"/>
<circle cx="276.79" cy="334.14" r="3.4" fill="#2962ff" fill-opacity="0.62"/>
<circle cx="330.89" cy="409.86" r="3.4" fill="#2962ff" fill-opacity="0.62"/>
<circle cx="385.00" cy="417.43" r="3.4" fill="#2962ff" fill-opacity="0.62"/>
<circle cx="439.11" cy="432.57" r="3.4" fill="#2962ff" fill-opacity="0.62"/>
<circle cx="493.21" cy="455.29" r="3.4" fill="#2962ff" fill-opacity="0.62"/>
<circle cx="547.32" cy="432.57" r="3.4" fill="#2962ff" fill-opacity="0.62"/>
<circle cx="601.43" cy="455.29" r="3.4" fill="#2962ff" fill-opacity="0.62"/>
<circle cx="655.54" cy="455.29" r="3.4" fill="#2962ff" fill-opacity="0.62"/>
<polyline fill="none" stroke="#d84315" stroke-width="2.5" points="114.46,76.71 119.01,76.71 123.56,76.71 128.10,76.71 132.65,76.71 137.20,76.71 141.75,76.71 146.29,76.71 150.84,76.71 155.39,79.21 159.93,82.97 164.48,88.09 169.03,93.56 173.57,99.38 178.12,105.56 182.67,112.12 187.21,119.06 191.76,126.38 196.31,134.09 200.85,142.19 205.40,150.67 209.95,159.55 214.49,168.81 219.04,178.45 223.59,188.47 228.13,198.86 232.68,209.60 237.23,220.69 241.78,232.10 246.32,243.84 250.87,255.86 255.42,268.16 259.96,280.71 264.51,293.49 269.06,306.47 273.60,319.63 278.15,330.19 282.70,334.43 287.24,338.68 291.79,342.94 296.34,347.21 300.88,351.48 305.43,355.77 309.98,360.06 314.52,364.35 319.07,368.65 323.62,372.95 328.16,377.25 332.71,381.55 337.26,385.85 341.81,390.15 346.35,394.45 350.90,398.74 355.45,403.03 359.99,407.31 364.54,411.59 369.09,415.85 373.63,420.11 378.18,424.36 382.73,428.59 387.27,431.06 391.82,431.76 396.37,432.46 400.91,433.16 405.46,433.87 410.01,434.57 414.55,435.27 419.10,435.97 423.65,436.67 428.19,437.37 432.74,438.07 437.29,438.77 441.84,439.47 446.38,440.17 450.93,440.86 455.48,441.56 460.02,442.26 464.57,442.95 469.12,443.65 473.66,444.35 478.21,445.04 482.76,445.74 487.30,446.43 491.85,447.12 496.40,447.41 500.94,447.52 505.49,447.63 510.04,447.74 514.58,447.85 519.13,447.96 523.68,448.07 528.22,448.18 532.77,448.30 537.32,448.41 541.87,448.52 546.41,448.63 550.96,448.74 555.51,448.85 560.05,448.96 564.60,449.07 569.15,449.18 573.69,449.29 578.24,449.40 582.79,449.51 587.33,449.62 591.88,449.74 596.43,449.85 600.97,449.96 605.52,450.07 610.07,450.18 614.61,450.29 619.16,450.40 623.71,450.51 628.25,450.62 632.80,450.63 637.35,450.63 641.90,450.63 646.44,450.63 650.99,450.63 655.54,450.63"/>
<text x="100.00" y="74.00" font-size="12" font-family="Arial, Helvetica, sans-serif" text-anchor="start" fill="#d84315">thermal delta T4</text>
<text x="385.00" y="532.00" font-size="14" font-family="Arial, Helvetica, sans-serif" text-anchor="middle" fill="#263238">incident laser power (W)</text>
<text x="22.00" y="266.00" font-size="14" font-family="Arial, Helvetica, sans-serif" text-anchor="middle" fill="#263238" transform="rotate(-90 22.00 266.00)">normalized visibility</text>
</svg>
