<svg xmlns="http://www.w3.org/2000/svg" width="920" height="520" viewBox="0 0 920 520">
<rect width="100%" height="100%" fill="#ffffff"/>
<text x="460.00" y="28.00" font-size="20" font-family="Arial, Helvetica, sans-serif" text-anchor="middle" fill="#17212b">Chapman Raw Recoil Distribution</text>
<rect x="82" y="54" width="810" height="384" fill="#fafafa" stroke="#cfd8dc"/>
<line x1="82.00" y1="54" x2="82.00" y2="438" stroke="#eceff1"/>
<text x="82.00" y="462.00" font-size="11" font-family="Arial, Helvetica, sans-serif" text-anchor="middle" fill="#263238">-0.04</text>
<line x1="244.00" y1="54" x2="244.00" y2="438" stroke="#eceff1"/>
<text x="244.00" y="462.00" font-size="11" font-family="Arial, Helvetica, sans-serif" text-anchor="middle" fill="#263238">0.38</text>
<line x1="406.00" y1="54" x2="406.00" y2="438" stroke="#eceff1"/>
<text x="406.00" y="462.00" font-size="11" font-family="Arial, Helvetica, sans-serif" text-anchor="middle" fill="#263238">0.79</text>
<line x1="568.00" y1="54" x2="568.00" y2="438" stroke="#eceff1"/>
<text x="568.00" y="462.00" font-size="11" font-family="Arial, Helvetica, sans-serif" text-anchor="middle" fill="#263238">1.2</text>
<line x1="730.00" y1="54" x2="730.00" y2="438" stroke="#eceff1"/>
<text x="730.00" y="462.00" font-size="11" font-family="Arial, Helvetica, sans-serif" text-anchor="middle" fill="#263238">1.6</text>
<line x1="892.00" y1="54" x2="892.00" y2="438" stroke="#eceff1"/>
<text x="892.00" y="462.00" font-size="11" font-family="Arial, Helvetica, sans-serif" text-anchor="middle" fill="#263238">2</text>
<line x1="82" y1="438.00" x2="892" y2="438.00" stroke="#eceff1"/>
<text x="72.00" y="442.00" font-size="11" font-family="Arial, Helvetica, sans-serif" text-anchor="end" fill="#263238">0.25</text>
<line x1="82" y1="361.20" x2="892" y2="361.20" stroke="#eceff1"/>
<text x="72.00" y="365.20" font-size="11" font-family="Arial, Helvetica, sans-serif" text-anchor="end" fill="#263238">0.36</text>
<line x1="82" y1="284.40" x2="892" y2="284.40" stroke="#eceff1"/>
<text x="72.00" y="288.40" font-size="11" font-family="Arial, Helvetica, sans-serif" text-anchor="end" fill="#263238">0.47</text>
<line x1="82" y1="207.60" x2="892" y2="207.60" stroke="#eceff1"/>
<text x="72.00" y="211.60" font-size="11" font-family="Arial, Helvetica, sans-serif" text-anchor="end" fill="#263238">0.58</text>
<line x1="82" y1="130.80" x2="892" y2="130.80" stroke="#eceff1"/>
<text x="72.00" y="134.80" font-size="11" font-family="Arial, Helvetica, sans-serif" text-anchor="end" fill="#263238">0.69</text>
<line x1="82" y1="54.00" x2="892" y2="54.00" stroke="#eceff1"/>
<text x="72.00" y="58.00" font-size="11" font-family="Arial, Helvetica, sans-serif" text-anchor="end" fill="#263238">0.8</text>
<polyline fill="none" stroke="#2962ff" stroke-width="2.5" points="97.58,411.52 98.55,344.48 99.52,336.88 100.50,332.33 101.47,329.05 102.44,326.48 103.42,324.36 104.39,322.55 105.37,320.98 106.34,319.58 107.31,318.33 108.29,317.18 109.26,316.13 110.23,315.17 111.21,314.27 112.18,313.42 113.15,312.63 114.13,311.89 115.10,311.18 116.07,310.52 117.05,309.88 118.02,309.27 119.00,308.69 119.97,308.14 120.94,307.60 121.92,307.09 122.89,306.59 123.86,306.12 124.84,305.66 125.81,305.21 126.78,304.78 127.76,304.36 128.73,303.95 129.70,303.56 130.68,303.17 131.65,302.80 132.62,302.44 133.60,302.08 134.57,301.74 135.55,301.40 136.52,301.07 137.49,300.75 138.47,300.43 139.44,300.12 140.41,299.82 141.39,299.53 142.36,299.24 143.33,298.95 144.31,298.67 145.28,298.40 146.25,298.13 147.23,297.87 148.20,297.61 149.18,297.36 150.15,297.11 151.12,296.86 152.10,296.62 153.07,296.38 154.04,296.15 155.02,295.92 155.99,295.69 156.96,295.46 157.94,295.24 158.91,295.03 159.88,294.81 160.86,294.60 161.83,294.39 162.81,294.19 163.78,293.98 164.75,293.78 165.73,293.59 166.70,293.39 167.67,293.20 168.65,293.01 169.62,292.82 170.59,292.63 171.57,292.45 172.54,292.27 173.51,292.09 174.49,291.91 175.46,291.73 176.44,291.56 177.41,291.39 178.38,291.22 179.36,291.05 180.33,290.88 181.30,290.72 182.28,290.55 183.25,290.39 184.22,290.23 185.20,290.07 186.17,289.91 187.14,289.76 188.12,289.60 189.09,289.45 190.06,289.30 191.04,289.15 192.01,289.00 192.99,288.85 193.96,288.71 194.93,288.56 195.91,288.42 196.88,288.28 197.85,288.14 198.83,287.99 199.80,287.86 200.77,287.72 201.75,287.58 202.72,287.44 203.69,287.31 204.67,287.18 205.64,287.04 206.62,286.91 207.59,286.78 208.56,286.65 209.54,286.52 210.51,286.39 211.48,286.27 212.46,286.14 213.43,286.02 214.40,285.89 215.38,285.77 216.35,285.64 217.32,285.52 218.30,285.40 219.27,285.28 220.25,285.16 221.22,285.04 222.19,284.92 223.17,284.81 224.14,284.69 225.11,284.57 226.09,284.46 227.06,284.34 228.03,284.23 229.01,284.12 229.98,284.01 230.95,283.89 231.93,283.78 232.90,283.67 233.87,283.56 234.85,283.45 235.82,283.34 236.80,283.24 237.77,283.13 238.74,283.02 239.72,282.91 240.69,282.81 241.66,282.70 242.64,282.60 243.61,282.49 244.58,282.39 245.56,282.29 246.53,282.19 247.50,282.08 248.48,281.98 249.45,281.88 250.43,281.78 251.40,281.68 252.37,281.58 253.35,281.48 254.32,281.38 255.29,281.28 256.27,281.19 257.24,281.09 258.21,280.99 259.19,280.90 260.16,280.80 261.13,280.70 262.11,280.61 263.08,280.52 264.06,280.42 265.03,280.33 266.00,280.23 266.98,280.14 267.95,280.05 268.92,279.96 269.90,279.86 270.87,279.77 271.84,279.68 272.82,279.59 273.79,279.50 274.76,279.41 275.74,279.32 276.71,279.23 277.69,279.14 278.66,279.05 279.63,278.96 280.61,278.88 281.58,278.79 282.55,278.70 283.53,278.61 284.50,278.53 285.47,278.44 286.45,278.35 287.42,278.27 288.39,278.18 289.37,278.10 290.34,278.01 291.31,277.93 292.29,277.84 293.26,277.76 294.24,277.68 295.21,277.59 296.18,277.51 297.16,277.43 298.13,277.34 299.10,277.26 300.08,277.18 301.05,277.10 302.02,277.02 303.00,276.93 303.97,276.85 304.94,276.77 305.92,276.69 306.89,276.61 307.87,276.53 308.84,276.45 309.81,276.37 310.79,276.29 311.76,276.21 312.73,276.13 313.71,276.06 314.68,275.98 315.65,275.90 316.63,275.82 317.60,275.74 318.57,275.67 319.55,275.59 320.52,275.51 321.50,275.43 322.47,275.36 323.44,275.28 324.42,275.21 325.39,275.13 326.36,275.05 327.34,274.98 328.31,274.90 329.28,274.83 330.26,274.75 331.23,274.68 332.20,274.60 333.18,274.53 334.15,274.45 335.12,274.38 336.10,274.30 337.07,274.23 338.05,274.16 339.02,274.08 339.99,274.01 340.97,273.94 341.94,273.86 342.91,273.79 343.89,273.72 344.86,273.65 345.83,273.57 346.81,273.50 347.78,273.43 348.75,273.36 349.73,273.29 350.70,273.21 351.68,273.14 352.65,273.07 353.62,273.00 354.60,272.93 355.57,272.86 356.54,272.79 357.52,272.72 358.49,272.65 359.46,272.58 360.44,272.51 361.41,272.44 362.38,272.37 363.36,272.30 364.33,272.23 365.31,272.16 366.28,272.09 367.25,272.02 368.23,271.95 369.20,271.88 370.17,271.81 371.15,271.74 372.12,271.68 373.09,271.61 374.07,271.54 375.04,271.47 376.01,271.40 376.99,271.33 377.96,271.27 378.94,271.20 379.91,271.13 380.88,271.06 381.86,271.00 382.83,270.93 383.80,270.86 384.78,270.79 385.75,270.73 386.72,270.66 387.70,270.59 388.67,270.53 389.64,270.46 390.62,270.39 391.59,270.33 392.56,270.26 393.54,270.20 394.51,270.13 395.49,270.06 396.46,270.00 397.43,269.93 398.41,269.87 399.38,269.80 400.35,269.73 401.33,269.67 402.30,269.60 403.27,269.54 404.25,269.47 405.22,269.41 406.19,269.34 407.17,269.28 408.14,269.21 409.12,269.15 410.09,269.08 411.06,269.02 412.04,268.95 413.01,268.89 413.98,268.83 414.96,268.76 415.93,268.70 416.90,268.63 417.88,268.57 418.85,268.50 419.82,268.44 420.80,268.38 421.77,268.31 422.75,268.25 423.72,268.19 424.69,268.12 425.67,268.06 426.64,267.99 427.61,267.93 428.59,267.87 429.56,267.80 430.53,267.74 431.51,267.68 432.48,267.61 433.45,267.55 434.43,267.49 435.40,267.43 436.37,267.36 437.35,267.30 438.32,267.24 439.30,267.17 440.27,267.11 441.24,267.05 442.22,266.99 443.19,266.92 444.16,266.86 445.14,266.80 446.11,266.74 447.08,266.67 448.06,266.61 449.03,266.55 450.00,266.49 450.98,266.42 451.95,266.36 452.93,266.30 453.90,266.24 454.87,266.17 455.85,266.11 456.82,266.05 457.79,265.99 458.77,265.93 459.74,265.86 460.71,265.80 461.69,265.74 462.66,265.68 463.63,265.62 464.61,265.56 465.58,265.49 466.56,265.43 467.53,265.37 468.50,265.31 469.48,265.25 470.45,265.19 471.42,265.12 472.40,265.06 473.37,265.00 474.34,264.94 475.32,264.88 476.29,264.82 477.26,264.75 478.24,264.69 479.21,264.63 480.19,264.57 481.16,264.51 482.13,264.45 483.11,264.39 484.08,264.32 485.05,264.26 486.03,264.20 487.00,264.14 487.97,264.08 488.95,264.02 489.92,263.96 490.89,263.90 491.87,263.83 492.84,263.77 493.81,263.71 494.79,263.65 495.76,263.59 496.74,263.53 497.71,263.47 498.68,263.41 499.66,263.34 500.63,263.28 501.60,263.22 502.58,263.16 503.55,263.10 504.52,263.04 505.50,262.98 506.47,262.92 507.44,262.85 508.42,262.79 509.39,262.73 510.37,262.67 511.34,262.61 512.31,262.55 513.29,262.49 514.26,262.42 515.23,262.36 516.21,262.30 517.18,262.24 518.15,262.18 519.13,262.12 520.10,262.06 521.07,262.00 522.05,261.93 523.02,261.87 524.00,261.81 524.97,261.75 525.94,261.69 526.92,261.63 527.89,261.57 528.86,261.50 529.84,261.44 530.81,261.38 531.78,261.32 532.76,261.26 533.73,261.20 534.70,261.13 535.68,261.07 536.65,261.01 537.62,260.95 538.60,260.89 539.57,260.83 540.55,260.76 541.52,260.70 542.49,260.64 543.47,260.58 544.44,260.52 545.41,260.45 546.39,260.39 547.36,260.33 548.33,260.27 549.31,260.20 550.28,260.14 551.25,260.08 552.23,260.02 553.20,259.96 554.18,259.89 555.15,259.83 556.12,259.77 557.10,259.71 558.07,259.64 559.04,259.58 560.02,259.52 560.99,259.46 561.96,259.39 562.94,259.33 563.91,259.27 564.88,259.20 565.86,259.14 566.83,259.08 567.81,259.02 568.78,258.95 569.75,258.89 570.73,258.83 571.70,258.76 572.67,258.70 573.65,258.64 574.62,258.57 575.59,258.51 576.57,258.45 577.54,258.38 578.51,258.32 579.49,258.25 580.46,258.19 581.44,258.13 582.41,258.06 583.38,258.00 584.36,257.93 585.33,257.87 586.30,257.81 587.28,257.74 588.25,257.68 589.22,257.61 590.20,257.55 591.17,257.48 592.14,257.42 593.12,257.35 594.09,257.29 595.06,257.22 596.04,257.16 597.01,257.09 597.99,257.03 598.96,256.96 599.93,256.90 600.91,256.83 601.88,256.77 602.85,256.70 603.83,256.63 604.80,256.57 605.77,256.50 606.75,256.44 607.72,256.37 608.69,256.30 609.67,256.24 610.64,256.17 611.62,256.10 612.59,256.04 613.56,255.97 614.54,255.90 615.51,255.84 616.48,255.77 617.46,255.70 618.43,255.63 619.40,255.57 620.38,255.50 621.35,255.43 622.32,255.36 623.30,255.30 624.27,255.23 625.25,255.16 626.22,255.09 627.19,255.02 628.17,254.95 629.14,254.88 630.11,254.82 631.09,254.75 632.06,254.68 633.03,254.61 634.01,254.54 634.98,254.47 635.95,254.40 636.93,254.33 637.90,254.26 638.87,254.19 639.85,254.12 640.82,254.05 641.80,253.98 642.77,253.91 643.74,253.84 644.72,253.77 645.69,253.69 646.66,253.62 647.64,253.55 648.61,253.48 649.58,253.41 650.56,253.34 651.53,253.26 652.50,253.19 653.48,253.12 654.45,253.05 655.43,252.97 656.40,252.90 657.37,252.83 658.35,252.75 659.32,252.68 660.29,252.60 661.27,252.53 662.24,252.46 663.21,252.38 664.19,252.31 665.16,252.23 666.13,252.16 667.11,252.08 668.08,252.01 669.06,251.93 670.03,251.86 671.00,251.78 671.98,251.70 672.95,251.63 673.92,251.55 674.90,251.47 675.87,251.40 676.84,251.32 677.82,251.24 678.79,251.16 679.76,251.08 680.74,251.01 681.71,250.93 682.69,250.85 683.66,250.77 684.63,250.69 685.61,250.61 686.58,250.53 687.55,250.45 688.53,250.37 689.50,250.29 690.47,250.21 691.45,250.13 692.42,250.04 693.39,249.96 694.37,249.88 695.34,249.80 696.31,249.72 697.29,249.63 698.26,249.55 699.24,249.47 700.21,249.38 701.18,249.30 702.16,249.21 703.13,249.13 704.10,249.04 705.08,248.96 706.05,248.87 707.02,248.78 708.00,248.70 708.97,248.61 709.94,248.52 710.92,248.44 711.89,248.35 712.87,248.26 713.84,248.17 714.81,248.08 715.79,247.99 716.76,247.90 717.73,247.81 718.71,247.72 719.68,247.63 720.65,247.54 721.63,247.45 722.60,247.35 723.57,247.26 724.55,247.17 725.52,247.07 726.50,246.98 727.47,246.89 728.44,246.79 729.42,246.69 730.39,246.60 731.36,246.50 732.34,246.41 733.31,246.31 734.28,246.21 735.26,246.11 736.23,246.01 737.20,245.91 738.18,245.81 739.15,245.71 740.12,245.61 741.10,245.51 742.07,245.41 743.05,245.30 744.02,245.20 744.99,245.10 745.97,244.99 746.94,244.89 747.91,244.78 748.89,244.67 749.86,244.57 750.83,244.46 751.81,244.35 752.78,244.24 753.75,244.13 754.73,244.02 755.70,243.91 756.68,243.80 757.65,243.69 758.62,243.57 759.60,243.46 760.57,243.34 761.54,243.23 762.52,243.11 763.49,242.99 764.46,242.87 765.44,242.76 766.41,242.64 767.38,242.51 768.36,242.39 769.33,242.27 770.31,242.15 771.28,242.02 772.25,241.90 773.23,241.77 774.20,241.64 775.17,241.51 776.15,241.38 777.12,241.25 778.09,241.12 779.07,240.99 780.04,240.86 781.01,240.72 781.99,240.58 782.96,240.45 783.94,240.31 784.91,240.17 785.88,240.03 786.86,239.88 787.83,239.74 788.80,239.59 789.78,239.45 790.75,239.30 791.72,239.15 792.70,239.00 793.67,238.84 794.64,238.69 795.62,238.53 796.59,238.38 797.56,238.22 798.54,238.06 799.51,237.89 800.49,237.73 801.46,237.56 802.43,237.39 803.41,237.22 804.38,237.05 805.35,236.87 806.33,236.70 807.30,236.52 808.27,236.34 809.25,236.15 810.22,235.97 811.19,235.78 812.17,235.59 813.14,235.39 814.12,235.19 815.09,234.99 816.06,234.79 817.04,234.59 818.01,234.38 818.98,234.16 819.96,233.95 820.93,233.73 821.90,233.51 822.88,233.28 823.85,233.05 824.82,232.81 825.80,232.58 826.77,232.33 827.75,232.09 828.72,231.83 829.69,231.58 830.67,231.31 831.64,231.05 832.61,230.77 833.59,230.49 834.56,230.21 835.53,229.92 836.51,229.62 837.48,229.31 838.45,229.00 839.43,228.68 840.40,228.35 841.37,228.01 842.35,227.66 843.32,227.31 844.30,226.94 845.27,226.56 846.24,226.17 847.22,225.77 848.19,225.35 849.16,224.92 850.14,224.48 851.11,224.02 852.08,223.54 853.06,223.04 854.03,222.52 855.00,221.97 855.98,221.40 856.95,220.81 857.93,220.18 858.90,219.52 859.87,218.82 860.85,218.08 861.82,217.29 862.79,216.45 863.77,215.54 864.74,214.56 865.71,213.50 866.69,212.33 867.66,211.04 868.63,209.59 869.61,207.94 870.58,206.04 871.56,203.77 872.53,200.99 873.50,197.39 874.48,192.26 875.45,183.37 876.42,80.48"/>
<line x1="94" y1="72" x2="122" y2="72" stroke="#2962ff" stroke-width="3"/>
<text x="130.00" y="76.00" font-size="12" font-family="Arial, Helvetica, sans-serif" text-anchor="start" fill="#263238">fitted raw P(q)</text>
<text x="487.00" y="492.00" font-size="14" font-family="Arial, Helvetica, sans-serif" text-anchor="middle" fill="#263238">q = Delta k_x / k</text>
<text x="22.00" y="246.00" font-size="14" font-family="Arial, Helvetica, sans-serif" text-anchor="middle" fill="#263238" transform="rotate(-90 22.00 246.00)">density</text>
</svg>
