<svg xmlns="http://www.w3.org/2000/svg" width="920" height="520" viewBox="0 0 920 520">
<rect width="100%" height="100%" fill="#ffffff"/>
<text x="460.00" y="28.00" font-size="20" font-family="Arial, Helvetica, sans-serif" text-anchor="middle" fill="#17212b">Chapman Accepted Momentum Windows</text>
<rect x="82" y="54" width="810" height="384" fill="#fafafa" stroke="#cfd8dc"/>
<line x1="82.00" y1="54" x2="82.00" y2="438" stroke="#eceff1"/>
<text x="82.00" y="462.00" font-size="11" font-family="Arial, Helvetica, sans-serif" text-anchor="middle" fill="#263238">-0.04</text>
<line x1="244.00" y1="54" x2="244.00" y2="438" stroke="#eceff1"/>
<text x="244.00" y="462.00" font-size="11" font-family="Arial, Helvetica, sans-serif" text-anchor="middle" fill="#263238">0.38</text>
<line x1="406.00" y1="54" x2="406.00" y2="438" stroke="#eceff1"/>
<text x="406.00" y="462.00" font-size="11" font-family="Arial, Helvetica, sans-serif" text-anchor="middle" fill="#263238">0.79</text>
<line x1="568.00" y1="54" x2="568.00" y2="438" stroke="#eceff1"/>
<text x="568.00" y="462.00" font-size="11" font-family="Arial, Helvetica, sans-serif" text-anchor="middle" fill="#263238">1.2</text>
<line x1="730.00" y1="54" x2="730.00" y2="438" stroke="#eceff1"/>
<text x="730.00" y="462.00" font-size="11" font-family="Arial, Helvetica, sans-serif" text-anchor="middle" fill="#263238">1.6</text>
<line x1="892.00" y1="54" x2="892.00" y2="438" stroke="#eceff1"/>
<text x="892.00" y="462.00" font-size="11" font-family="Arial, Helvetica, sans-serif" text-anchor="middle" fill="#263238">2</text>
<line x1="82" y1="438.00" x2="892" y2="438.00" stroke="#eceff1"/>
<text x="72.00" y="442.00" font-size="11" font-family="Arial, Helvetica, sans-serif" text-anchor="end" fill="#263238">-0.1</text>
<line x1="82" y1="361.20" x2="892" y2="361.20" stroke="#eceff1"/>
<text x="72.00" y="365.20" font-size="11" font-family="Arial, Helvetica, sans-serif" text-anchor="end" fill="#263238">0.2</text>
<line x1="82" y1="284.40" x2="892" y2="284.40" stroke="#eceff1"/>
<text x="72.00" y="288.40" font-size="11" font-family="Arial, Helvetica, sans-serif" text-anchor="end" fill="#263238">0.5</text>
<line x1="82" y1="207.60" x2="892" y2="207.60" stroke="#eceff1"/>
<text x="72.00" y="211.60" font-size="11" font-family="Arial, Helvetica, sans-serif" text-anchor="end" fill="#263238">0.81</text>
<line x1="82" y1="130.80" x2="892" y2="130.80" stroke="#eceff1"/>
<text x="72.00" y="134.80" font-size="11" font-family="Arial, Helvetica, sans-serif" text-anchor="end" fill="#263238">1.1</text>
<line x1="82" y1="54.00" x2="892" y2="54.00" stroke="#eceff1"/>
<text x="72.00" y="58.00" font-size="11" font-family="Arial, Helvetica, sans-serif" text-anchor="end" fill="#263238">1.4</text>
<polyline fill="none" stroke="#00897b" stroke-width="2.5" points="97.58,411.52 98.55,411.50 99.52,411.49 100.50,411.49 101.47,411.49 102.44,411.48 103.42,411.48 104.39,411.48 105.37,411.47 106.34,411.47 107.31,411.47 108.29,411.46 109.26,411.46 110.23,411.46 111.21,411.45 112.18,411.45 113.15,411.45 114.13,411.44 115.10,411.44 116.07,411.44 117.05,411.43 118.02,411.43 119.00,411.42 119.97,411.42 120.94,411.42 121.92,411.41 122.89,411.41 123.86,411.40 124.84,411.40 125.81,411.39 126.78,411.39 127.76,411.38 128.73,411.38 129.70,411.37 130.68,411.37 131.65,411.36 132.62,411.36 133.60,411.35 134.57,411.34 135.55,411.34 136.52,411.33 137.49,411.33 138.47,411.32 139.44,411.31 140.41,411.31 141.39,411.30 142.36,411.29 143.33,411.29 144.31,411.28 145.28,411.27 146.25,411.26 147.23,411.25 148.20,411.25 149.18,411.24 150.15,411.23 151.12,411.22 152.10,411.21 153.07,411.20 154.04,411.19 155.02,411.18 155.99,411.17 156.96,411.16 157.94,411.15 158.91,411.14 159.88,411.13 160.86,411.12 161.83,411.11 162.81,411.10 163.78,411.09 164.75,411.08 165.73,411.06 166.70,411.05 167.67,411.04 168.65,411.03 169.62,411.01 170.59,411.00 171.57,410.99 172.54,410.97 173.51,410.96 174.49,410.94 175.46,410.93 176.44,410.91 177.41,410.90 178.38,410.88 179.36,410.86 180.33,410.85 181.30,410.83 182.28,410.81 183.25,410.79 184.22,410.78 185.20,410.76 186.17,410.74 187.14,410.72 188.12,410.70 189.09,410.68 190.06,410.66 191.04,410.64 192.01,410.61 192.99,410.59 193.96,410.57 194.93,410.55 195.91,410.52 196.88,410.50 197.85,410.47 198.83,410.45 199.80,410.42 200.77,410.40 201.75,410.37 202.72,410.34 203.69,410.32 204.67,410.29 205.64,410.26 206.62,410.23 207.59,410.20 208.56,410.17 209.54,410.14 210.51,410.11 211.48,410.07 212.46,410.04 213.43,410.01 214.40,409.97 215.38,409.94 216.35,409.90 217.32,409.87 218.30,409.83 219.27,409.79 220.25,409.75 221.22,409.71 222.19,409.67 223.17,409.63 224.14,409.59 225.11,409.55 226.09,409.50 227.06,409.46 228.03,409.41 229.01,409.37 229.98,409.32 230.95,409.27 231.93,409.23 232.90,409.18 233.87,409.13 234.85,409.07 235.82,409.02 236.80,408.97 237.77,408.91 238.74,408.86 239.72,408.80 240.69,408.75 241.66,408.69 242.64,408.63 243.61,408.57 244.58,408.51 245.56,408.44 246.53,408.38 247.50,408.31 248.48,408.25 249.45,408.18 250.43,408.11 251.40,408.04 252.37,407.97 253.35,407.90 254.32,407.83 255.29,407.75 256.27,407.67 257.24,407.60 258.21,407.52 259.19,407.44 260.16,407.36 261.13,407.27 262.11,407.19 263.08,407.10 264.06,407.02 265.03,406.93 266.00,406.84 266.98,406.74 267.95,406.65 268.92,406.56 269.90,406.46 270.87,406.36 271.84,406.26 272.82,406.16 273.79,406.06 274.76,405.95 275.74,405.84 276.71,405.74 277.69,405.62 278.66,405.51 279.63,405.40 280.61,405.28 281.58,405.16 282.55,405.05 283.53,404.92 284.50,404.80 285.47,404.67 286.45,404.55 287.42,404.42 288.39,404.29 289.37,404.15 290.34,404.02 291.31,403.88 292.29,403.74 293.26,403.60 294.24,403.45 295.21,403.30 296.18,403.15 297.16,403.00 298.13,402.85 299.10,402.69 300.08,402.54 301.05,402.37 302.02,402.21 303.00,402.05 303.97,401.88 304.94,401.71 305.92,401.53 306.89,401.36 307.87,401.18 308.84,401.00 309.81,400.81 310.79,400.63 311.76,400.44 312.73,400.25 313.71,400.05 314.68,399.85 315.65,399.65 316.63,399.45 317.60,399.24 318.57,399.03 319.55,398.82 320.52,398.61 321.50,398.39 322.47,398.17 323.44,397.94 324.42,397.71 325.39,397.48 326.36,397.25 327.34,397.01 328.31,396.77 329.28,396.53 330.26,396.28 331.23,396.03 332.20,395.78 333.18,395.52 334.15,395.26 335.12,395.00 336.10,394.73 337.07,394.46 338.05,394.18 339.02,393.90 339.99,393.62 340.97,393.34 341.94,393.05 342.91,392.75 343.89,392.46 344.86,392.16 345.83,391.85 346.81,391.54 347.78,391.23 348.75,390.91 349.73,390.59 350.70,390.27 351.68,389.94 352.65,389.61 353.62,389.27 354.60,388.93 355.57,388.59 356.54,388.24 357.52,387.88 358.49,387.52 359.46,387.16 360.44,386.80 361.41,386.43 362.38,386.05 363.36,385.67 364.33,385.29 365.31,384.90 366.28,384.51 367.25,384.11 368.23,383.71 369.20,383.30 370.17,382.89 371.15,382.47 372.12,382.05 373.09,381.63 374.07,381.20 375.04,380.76 376.01,380.32 376.99,379.88 377.96,379.43 378.94,378.97 379.91,378.51 380.88,378.05 381.86,377.58 382.83,377.10 383.80,376.62 384.78,376.14 385.75,375.65 386.72,375.16 387.70,374.65 388.67,374.15 389.64,373.64 390.62,373.12 391.59,372.60 392.56,372.08 393.54,371.54 394.51,371.01 395.49,370.47 396.46,369.92 397.43,369.36 398.41,368.81 399.38,368.24 400.35,367.67 401.33,367.10 402.30,366.52 403.27,365.93 404.25,365.34 405.22,364.74 406.19,364.14 407.17,363.53 408.14,362.92 409.12,362.30 410.09,361.67 411.06,361.04 412.04,360.40 413.01,359.76 413.98,359.11 414.96,358.46 415.93,357.80 416.90,357.14 417.88,356.46 418.85,355.79 419.82,355.11 420.80,354.42 421.77,353.72 422.75,353.02 423.72,352.32 424.69,351.60 425.67,350.89 426.64,350.16 427.61,349.43 428.59,348.70 429.56,347.96 430.53,347.21 431.51,346.46 432.48,345.70 433.45,344.94 434.43,344.17 435.40,343.39 436.37,342.61 437.35,341.82 438.32,341.03 439.30,340.23 440.27,339.42 441.24,338.61 442.22,337.79 443.19,336.97 444.16,336.14 445.14,335.31 446.11,334.47 447.08,333.62 448.06,332.77 449.03,331.91 450.00,331.05 450.98,330.18 451.95,329.30 452.93,328.42 453.90,327.54 454.87,326.65 455.85,325.75 456.82,324.85 457.79,323.94 458.77,323.02 459.74,322.10 460.71,321.18 461.69,320.25 462.66,319.31 463.63,318.37 464.61,317.42 465.58,316.47 466.56,315.51 467.53,314.55 468.50,313.58 469.48,312.61 470.45,311.63 471.42,310.64 472.40,309.65 473.37,308.66 474.34,307.66 475.32,306.65 476.29,305.65 477.26,304.63 478.24,303.61 479.21,302.59 480.19,301.56 481.16,300.52 482.13,299.49 483.11,298.44 484.08,297.39 485.05,296.34 486.03,295.29 487.00,294.22 487.97,293.16 488.95,292.09 489.92,291.01 490.89,289.93 491.87,288.85 492.84,287.76 493.81,286.67 494.79,285.58 495.76,284.48 496.74,283.38 497.71,282.27 498.68,281.16 499.66,280.04 500.63,278.93 501.60,277.81 502.58,276.68 503.55,275.55 504.52,274.42 505.50,273.29 506.47,272.15 507.44,271.01 508.42,269.86 509.39,268.71 510.37,267.56 511.34,266.41 512.31,265.26 513.29,264.10 514.26,262.94 515.23,261.77 516.21,260.61 517.18,259.44 518.15,258.27 519.13,257.10 520.10,255.92 521.07,254.75 522.05,253.57 523.02,252.39 524.00,251.21 524.97,250.02 525.94,248.84 526.92,247.65 527.89,246.46 528.86,245.28 529.84,244.09 530.81,242.89 531.78,241.70 532.76,240.51 533.73,239.32 534.70,238.12 535.68,236.93 536.65,235.73 537.62,234.54 538.60,233.34 539.57,232.15 540.55,230.95 541.52,229.76 542.49,228.56 543.47,227.36 544.44,226.17 545.41,224.98 546.39,223.78 547.36,222.59 548.33,221.40 549.31,220.21 550.28,219.02 551.25,217.83 552.23,216.64 553.20,215.46 554.18,214.27 555.15,213.09 556.12,211.91 557.10,210.73 558.07,209.55 559.04,208.38 560.02,207.21 560.99,206.04 561.96,204.87 562.94,203.70 563.91,202.54 564.88,201.38 565.86,200.22 566.83,199.07 567.81,197.92 568.78,196.77 569.75,195.63 570.73,194.49 571.70,193.35 572.67,192.22 573.65,191.09 574.62,189.96 575.59,188.84 576.57,187.73 577.54,186.61 578.51,185.51 579.49,184.40 580.46,183.30 581.44,182.21 582.41,181.12 583.38,180.04 584.36,178.96 585.33,177.89 586.30,176.82 587.28,175.76 588.25,174.70 589.22,173.65 590.20,172.61 591.17,171.57 592.14,170.54 593.12,169.51 594.09,168.49 595.06,167.48 596.04,166.47 597.01,165.47 597.99,164.48 598.96,163.49 599.93,162.51 600.91,161.54 601.88,160.58 602.85,159.62 603.83,158.67 604.80,157.73 605.77,156.79 606.75,155.87 607.72,154.95 608.69,154.04 609.67,153.14 610.64,152.24 611.62,151.36 612.59,150.48 613.56,149.61 614.54,148.75 615.51,147.90 616.48,147.06 617.46,146.23 618.43,145.40 619.40,144.59 620.38,143.78 621.35,142.99 622.32,142.20 623.30,141.43 624.27,140.66 625.25,139.90 626.22,139.16 627.19,138.42 628.17,137.69 629.14,136.97 630.11,136.27 631.09,135.57 632.06,134.89 633.03,134.21 634.01,133.55 634.98,132.89 635.95,132.25 636.93,131.62 637.90,131.00 638.87,130.39 639.85,129.79 640.82,129.20 641.80,128.62 642.77,128.06 643.74,127.50 644.72,126.96 645.69,126.43 646.66,125.91 647.64,125.40 648.61,124.91 649.58,124.42 650.56,123.95 651.53,123.49 652.50,123.04 653.48,122.60 654.45,122.18 655.43,121.77 656.40,121.37 657.37,120.98 658.35,120.60 659.32,120.24 660.29,119.89 661.27,119.55 662.24,119.22 663.21,118.91 664.19,118.61 665.16,118.32 666.13,118.05 667.11,117.78 668.08,117.53 669.06,117.29 670.03,117.07 671.00,116.86 671.98,116.66 672.95,116.47 673.92,116.30 674.90,116.13 675.87,115.99 676.84,115.85 677.82,115.73 678.79,115.62 679.76,115.52 680.74,115.44 681.71,115.37 682.69,115.31 683.66,115.27 684.63,115.23 685.61,115.22 686.58,115.21 687.55,115.22 688.53,115.24 689.50,115.27 690.47,115.32 691.45,115.37 692.42,115.45 693.39,115.53 694.37,115.63 695.34,115.74 696.31,115.86 697.29,116.00 698.26,116.15 699.24,116.31 700.21,116.49 701.18,116.67 702.16,116.87 703.13,117.09 704.10,117.31 705.08,117.55 706.05,117.80 707.02,118.07 708.00,118.34 708.97,118.63 709.94,118.93 710.92,119.24 711.89,119.57 712.87,119.91 713.84,120.26 714.81,120.62 715.79,121.00 716.76,121.38 717.73,121.78 718.71,122.19 719.68,122.62 720.65,123.05 721.63,123.50 722.60,123.96 723.57,124.43 724.55,124.91 725.52,125.40 726.50,125.91 727.47,126.42 728.44,126.95 729.42,127.49 730.39,128.04 731.36,128.60 732.34,129.17 733.31,129.76 734.28,130.35 735.26,130.96 736.23,131.57 737.20,132.20 738.18,132.84 739.15,133.49 740.12,134.14 741.10,134.81 742.07,135.49 743.05,136.18 744.02,136.88 744.99,137.59 745.97,138.31 746.94,139.04 747.91,139.78 748.89,140.52 749.86,141.28 750.83,142.05 751.81,142.83 752.78,143.61 753.75,144.41 754.73,145.21 755.70,146.02 756.68,146.84 757.65,147.67 758.62,148.51 759.60,149.36 760.57,150.21 761.54,151.08 762.52,151.95 763.49,152.83 764.46,153.72 765.44,154.61 766.41,155.52 767.38,156.43 768.36,157.35 769.33,158.27 770.31,159.21 771.28,160.15 772.25,161.09 773.23,162.05 774.20,163.01 775.17,163.98 776.15,164.95 777.12,165.93 778.09,166.92 779.07,167.91 780.04,168.91 781.01,169.91 781.99,170.92 782.96,171.94 783.94,172.96 784.91,173.99 785.88,175.02 786.86,176.06 787.83,177.10 788.80,178.15 789.78,179.20 790.75,180.26 791.72,181.32 792.70,182.39 793.67,183.46 794.64,184.53 795.62,185.61 796.59,186.69 797.56,187.78 798.54,188.87 799.51,189.96 800.49,191.06 801.46,192.16 802.43,193.27 803.41,194.37 804.38,195.48 805.35,196.59 806.33,197.71 807.30,198.82 808.27,199.94 809.25,201.07 810.22,202.19 811.19,203.31 812.17,204.44 813.14,205.57 814.12,206.70 815.09,207.83 816.06,208.97 817.04,210.10 818.01,211.24 818.98,212.37 819.96,213.51 820.93,214.65 821.90,215.78 822.88,216.92 823.85,218.06 824.82,219.20 825.80,220.33 826.77,221.47 827.75,222.61 828.72,223.74 829.69,224.88 830.67,226.01 831.64,227.15 832.61,228.28 833.59,229.41 834.56,230.53 835.53,231.66 836.51,232.79 837.48,233.91 838.45,235.03 839.43,236.14 840.40,237.26 841.37,238.37 842.35,239.48 843.32,240.58 844.30,241.68 845.27,242.77 846.24,243.87 847.22,244.95 848.19,246.03 849.16,247.11 850.14,248.18 851.11,249.24 852.08,250.30 853.06,251.35 854.03,252.39 855.00,253.42 855.98,254.44 856.95,255.45 857.93,256.45 858.90,257.44 859.87,258.42 860.85,259.38 861.82,260.32 862.79,261.24 863.77,262.14 864.74,263.02 865.71,263.87 866.69,264.68 867.66,265.45 868.63,266.17 869.61,266.82 870.58,267.39 871.56,267.84 872.53,268.12 873.50,268.12 874.48,267.63 875.45,265.89 876.42,232.72"/>
<polyline fill="none" stroke="#d84315" stroke-width="2.5" stroke-dasharray="7 5" points="97.58,400.45 98.55,396.68 99.52,396.16 100.50,395.81 101.47,395.53 102.44,395.29 103.42,395.07 104.39,394.86 105.37,394.67 106.34,394.48 107.31,394.30 108.29,394.13 109.26,393.96 110.23,393.79 111.21,393.63 112.18,393.47 113.15,393.31 114.13,393.16 115.10,393.00 116.07,392.85 117.05,392.69 118.02,392.54 119.00,392.39 119.97,392.24 120.94,392.08 121.92,391.93 122.89,391.78 123.86,391.63 124.84,391.48 125.81,391.33 126.78,391.18 127.76,391.03 128.73,390.88 129.70,390.73 130.68,390.58 131.65,390.43 132.62,390.28 133.60,390.13 134.57,389.98 135.55,389.83 136.52,389.68 137.49,389.52 138.47,389.37 139.44,389.22 140.41,389.06 141.39,388.91 142.36,388.76 143.33,388.60 144.31,388.45 145.28,388.29 146.25,388.14 147.23,387.98 148.20,387.82 149.18,387.66 150.15,387.51 151.12,387.35 152.10,387.19 153.07,387.03 154.04,386.87 155.02,386.71 155.99,386.55 156.96,386.39 157.94,386.22 158.91,386.06 159.88,385.90 160.86,385.73 161.83,385.57 162.81,385.40 163.78,385.24 164.75,385.07 165.73,384.90 166.70,384.74 167.67,384.57 168.65,384.40 169.62,384.23 170.59,384.06 171.57,383.89 172.54,383.72 173.51,383.54 174.49,383.37 175.46,383.20 176.44,383.02 177.41,382.85 178.38,382.67 179.36,382.50 180.33,382.32 181.30,382.14 182.28,381.96 183.25,381.78 184.22,381.61 185.20,381.42 186.17,381.24 187.14,381.06 188.12,380.88 189.09,380.70 190.06,380.51 191.04,380.33 192.01,380.14 192.99,379.96 193.96,379.77 194.93,379.58 195.91,379.39 196.88,379.21 197.85,379.02 198.83,378.83 199.80,378.64 200.77,378.44 201.75,378.25 202.72,378.06 203.69,377.86 204.67,377.67 205.64,377.47 206.62,377.28 207.59,377.08 208.56,376.88 209.54,376.68 210.51,376.49 211.48,376.29 212.46,376.08 213.43,375.88 214.40,375.68 215.38,375.48 216.35,375.27 217.32,375.07 218.30,374.86 219.27,374.66 220.25,374.45 221.22,374.24 222.19,374.04 223.17,373.83 224.14,373.62 225.11,373.41 226.09,373.19 227.06,372.98 228.03,372.77 229.01,372.56 229.98,372.34 230.95,372.13 231.93,371.91 232.90,371.69 233.87,371.48 234.85,371.26 235.82,371.04 236.80,370.82 237.77,370.60 238.74,370.38 239.72,370.15 240.69,369.93 241.66,369.71 242.64,369.48 243.61,369.26 244.58,369.03 245.56,368.80 246.53,368.57 247.50,368.35 248.48,368.12 249.45,367.89 250.43,367.65 251.40,367.42 252.37,367.19 253.35,366.96 254.32,366.72 255.29,366.49 256.27,366.25 257.24,366.01 258.21,365.78 259.19,365.54 260.16,365.30 261.13,365.06 262.11,364.82 263.08,364.58 264.06,364.33 265.03,364.09 266.00,363.85 266.98,363.60 267.95,363.36 268.92,363.11 269.90,362.86 270.87,362.61 271.84,362.36 272.82,362.11 273.79,361.86 274.76,361.61 275.74,361.36 276.71,361.11 277.69,360.85 278.66,360.60 279.63,360.34 280.61,360.09 281.58,359.83 282.55,359.57 283.53,359.31 284.50,359.05 285.47,358.79 286.45,358.53 287.42,358.27 288.39,358.01 289.37,357.74 290.34,357.48 291.31,357.21 292.29,356.95 293.26,356.68 294.24,356.41 295.21,356.14 296.18,355.88 297.16,355.61 298.13,355.33 299.10,355.06 300.08,354.79 301.05,354.52 302.02,354.24 303.00,353.97 303.97,353.69 304.94,353.41 305.92,353.14 306.89,352.86 307.87,352.58 308.84,352.30 309.81,352.02 310.79,351.74 311.76,351.46 312.73,351.17 313.71,350.89 314.68,350.60 315.65,350.32 316.63,350.03 317.60,349.75 318.57,349.46 319.55,349.17 320.52,348.88 321.50,348.59 322.47,348.30 323.44,348.01 324.42,347.71 325.39,347.42 326.36,347.13 327.34,346.83 328.31,346.53 329.28,346.24 330.26,345.94 331.23,345.64 332.20,345.34 333.18,345.04 334.15,344.74 335.12,344.44 336.10,344.14 337.07,343.84 338.05,343.53 339.02,343.23 339.99,342.92 340.97,342.62 341.94,342.31 342.91,342.00 343.89,341.69 344.86,341.38 345.83,341.07 346.81,340.76 347.78,340.45 348.75,340.14 349.73,339.83 350.70,339.51 351.68,339.20 352.65,338.88 353.62,338.57 354.60,338.25 355.57,337.93 356.54,337.62 357.52,337.30 358.49,336.98 359.46,336.66 360.44,336.34 361.41,336.01 362.38,335.69 363.36,335.37 364.33,335.04 365.31,334.72 366.28,334.39 367.25,334.07 368.23,333.74 369.20,333.41 370.17,333.08 371.15,332.75 372.12,332.42 373.09,332.09 374.07,331.76 375.04,331.43 376.01,331.10 376.99,330.76 377.96,330.43 378.94,330.09 379.91,329.76 380.88,329.42 381.86,329.08 382.83,328.75 383.80,328.41 384.78,328.07 385.75,327.73 386.72,327.39 387.70,327.05 388.67,326.71 389.64,326.36 390.62,326.02 391.59,325.68 392.56,325.33 393.54,324.99 394.51,324.64 395.49,324.29 396.46,323.95 397.43,323.60 398.41,323.25 399.38,322.90 400.35,322.55 401.33,322.20 402.30,321.85 403.27,321.50 404.25,321.15 405.22,320.79 406.19,320.44 407.17,320.09 408.14,319.73 409.12,319.38 410.09,319.02 411.06,318.66 412.04,318.31 413.01,317.95 413.98,317.59 414.96,317.23 415.93,316.87 416.90,316.51 417.88,316.15 418.85,315.79 419.82,315.43 420.80,315.06 421.77,314.70 422.75,314.34 423.72,313.97 424.69,313.61 425.67,313.24 426.64,312.88 427.61,312.51 428.59,312.14 429.56,311.78 430.53,311.41 431.51,311.04 432.48,310.67 433.45,310.30 434.43,309.93 435.40,309.56 436.37,309.19 437.35,308.82 438.32,308.44 439.30,308.07 440.27,307.70 441.24,307.32 442.22,306.95 443.19,306.57 444.16,306.20 445.14,305.82 446.11,305.45 447.08,305.07 448.06,304.69 449.03,304.32 450.00,303.94 450.98,303.56 451.95,303.18 452.93,302.80 453.90,302.42 454.87,302.04 455.85,301.66 456.82,301.28 457.79,300.90 458.77,300.52 459.74,300.13 460.71,299.75 461.69,299.37 462.66,298.98 463.63,298.60 464.61,298.22 465.58,297.83 466.56,297.45 467.53,297.06 468.50,296.67 469.48,296.29 470.45,295.90 471.42,295.51 472.40,295.13 473.37,294.74 474.34,294.35 475.32,293.96 476.29,293.57 477.26,293.18 478.24,292.80 479.21,292.41 480.19,292.02 481.16,291.62 482.13,291.23 483.11,290.84 484.08,290.45 485.05,290.06 486.03,289.67 487.00,289.28 487.97,288.88 488.95,288.49 489.92,288.10 490.89,287.71 491.87,287.31 492.84,286.92 493.81,286.52 494.79,286.13 495.76,285.74 496.74,285.34 497.71,284.95 498.68,284.55 499.66,284.16 500.63,283.76 501.60,283.36 502.58,282.97 503.55,282.57 504.52,282.18 505.50,281.78 506.47,281.38 507.44,280.99 508.42,280.59 509.39,280.19 510.37,279.80 511.34,279.40 512.31,279.00 513.29,278.60 514.26,278.21 515.23,277.81 516.21,277.41 517.18,277.01 518.15,276.61 519.13,276.21 520.10,275.82 521.07,275.42 522.05,275.02 523.02,274.62 524.00,274.22 524.97,273.82 525.94,273.42 526.92,273.03 527.89,272.63 528.86,272.23 529.84,271.83 530.81,271.43 531.78,271.03 532.76,270.63 533.73,270.23 534.70,269.83 535.68,269.43 536.65,269.03 537.62,268.64 538.60,268.24 539.57,267.84 540.55,267.44 541.52,267.04 542.49,266.64 543.47,266.24 544.44,265.84 545.41,265.44 546.39,265.05 547.36,264.65 548.33,264.25 549.31,263.85 550.28,263.45 551.25,263.05 552.23,262.65 553.20,262.26 554.18,261.86 555.15,261.46 556.12,261.06 557.10,260.67 558.07,260.27 559.04,259.87 560.02,259.47 560.99,259.08 561.96,258.68 562.94,258.28 563.91,257.89 564.88,257.49 565.86,257.09 566.83,256.70 567.81,256.30 568.78,255.91 569.75,255.51 570.73,255.12 571.70,254.72 572.67,254.33 573.65,253.93 574.62,253.54 575.59,253.15 576.57,252.75 577.54,252.36 578.51,251.97 579.49,251.57 580.46,251.18 581.44,250.79 582.41,250.40 583.38,250.01 584.36,249.61 585.33,249.22 586.30,248.83 587.28,248.44 588.25,248.05 589.22,247.66 590.20,247.27 591.17,246.89 592.14,246.50 593.12,246.11 594.09,245.72 595.06,245.33 596.04,244.95 597.01,244.56 597.99,244.17 598.96,243.79 599.93,243.40 600.91,243.02 601.88,242.63 602.85,242.25 603.83,241.87 604.80,241.48 605.77,241.10 606.75,240.72 607.72,240.34 608.69,239.96 609.67,239.58 610.64,239.19 611.62,238.82 612.59,238.44 613.56,238.06 614.54,237.68 615.51,237.30 616.48,236.92 617.46,236.55 618.43,236.17 619.40,235.80 620.38,235.42 621.35,235.05 622.32,234.67 623.30,234.30 624.27,233.93 625.25,233.55 626.22,233.18 627.19,232.81 628.17,232.44 629.14,232.07 630.11,231.70 631.09,231.33 632.06,230.96 633.03,230.60 634.01,230.23 634.98,229.86 635.95,229.50 636.93,229.13 637.90,228.77 638.87,228.41 639.85,228.04 640.82,227.68 641.80,227.32 642.77,226.96 643.74,226.60 644.72,226.24 645.69,225.88 646.66,225.52 647.64,225.17 648.61,224.81 649.58,224.45 650.56,224.10 651.53,223.75 652.50,223.39 653.48,223.04 654.45,222.69 655.43,222.34 656.40,221.99 657.37,221.64 658.35,221.29 659.32,220.94 660.29,220.59 661.27,220.25 662.24,219.90 663.21,219.55 664.19,219.21 665.16,218.87 666.13,218.53 667.11,218.18 668.08,217.84 669.06,217.50 670.03,217.16 671.00,216.83 671.98,216.49 672.95,216.15 673.92,215.82 674.90,215.48 675.87,215.15 676.84,214.82 677.82,214.48 678.79,214.15 679.76,213.82 680.74,213.49 681.71,213.16 682.69,212.84 683.66,212.51 684.63,212.18 685.61,211.86 686.58,211.54 687.55,211.21 688.53,210.89 689.50,210.57 690.47,210.25 691.45,209.93 692.42,209.61 693.39,209.30 694.37,208.98 695.34,208.66 696.31,208.35 697.29,208.04 698.26,207.72 699.24,207.41 700.21,207.10 701.18,206.79 702.16,206.49 703.13,206.18 704.10,205.87 705.08,205.57 706.05,205.26 707.02,204.96 708.00,204.66 708.97,204.36 709.94,204.06 710.92,203.76 711.89,203.46 712.87,203.16 713.84,202.86 714.81,202.57 715.79,202.28 716.76,201.98 717.73,201.69 718.71,201.40 719.68,201.11 720.65,200.82 721.63,200.53 722.60,200.25 723.57,199.96 724.55,199.68 725.52,199.39 726.50,199.11 727.47,198.83 728.44,198.55 729.42,198.27 730.39,197.99 731.36,197.72 732.34,197.44 733.31,197.17 734.28,196.89 735.26,196.62 736.23,196.35 737.20,196.08 738.18,195.81 739.15,195.54 740.12,195.27 741.10,195.01 742.07,194.74 743.05,194.48 744.02,194.22 744.99,193.95 745.97,193.69 746.94,193.43 747.91,193.18 748.89,192.92 749.86,192.66 750.83,192.41 751.81,192.15 752.78,191.90 753.75,191.65 754.73,191.40 755.70,191.15 756.68,190.90 757.65,190.65 758.62,190.40 759.60,190.16 760.57,189.91 761.54,189.67 762.52,189.43 763.49,189.19 764.46,188.95 765.44,188.71 766.41,188.47 767.38,188.23 768.36,188.00 769.33,187.76 770.31,187.53 771.28,187.29 772.25,187.06 773.23,186.83 774.20,186.60 775.17,186.37 776.15,186.14 777.12,185.91 778.09,185.69 779.07,185.46 780.04,185.24 781.01,185.01 781.99,184.79 782.96,184.57 783.94,184.35 784.91,184.13 785.88,183.91 786.86,183.69 787.83,183.47 788.80,183.25 789.78,183.04 790.75,182.82 791.72,182.61 792.70,182.39 793.67,182.18 794.64,181.97 795.62,181.76 796.59,181.55 797.56,181.34 798.54,181.13 799.51,180.92 800.49,180.71 801.46,180.50 802.43,180.29 803.41,180.08 804.38,179.88 805.35,179.67 806.33,179.47 807.30,179.26 808.27,179.05 809.25,178.85 810.22,178.65 811.19,178.44 812.17,178.24 813.14,178.03 814.12,177.83 815.09,177.62 816.06,177.42 817.04,177.21 818.01,177.01 818.98,176.80 819.96,176.60 820.93,176.39 821.90,176.19 822.88,175.98 823.85,175.77 824.82,175.57 825.80,175.36 826.77,175.15 827.75,174.94 828.72,174.72 829.69,174.51 830.67,174.30 831.64,174.08 832.61,173.86 833.59,173.64 834.56,173.42 835.53,173.20 836.51,172.97 837.48,172.74 838.45,172.51 839.43,172.28 840.40,172.04 841.37,171.80 842.35,171.56 843.32,171.31 844.30,171.05 845.27,170.79 846.24,170.53 847.22,170.26 848.19,169.98 849.16,169.70 850.14,169.41 851.11,169.11 852.08,168.80 853.06,168.48 854.03,168.15 855.00,167.81 855.98,167.45 856.95,167.08 857.93,166.69 858.90,166.29 859.87,165.86 860.85,165.41 861.82,164.93 862.79,164.41 863.77,163.86 864.74,163.27 865.71,162.62 866.69,161.92 867.66,161.14 868.63,160.26 869.61,159.26 870.58,158.11 871.56,156.73 872.53,155.04 873.50,152.84 874.48,149.70 875.45,144.22 876.42,80.48"/>
<line x1="94" y1="72" x2="122" y2="72" stroke="#00897b" stroke-width="3"/>
<text x="130.00" y="76.00" font-size="12" font-family="Arial, Helvetica, sans-serif" text-anchor="start" fill="#263238">case_I_forward</text>
<line x1="94" y1="94" x2="122" y2="94" stroke="#d84315" stroke-width="3" stroke-dasharray="7 5"/>
<text x="130.00" y="98.00" font-size="12" font-family="Arial, Helvetica, sans-serif" text-anchor="start" fill="#263238">case_III_backward</text>
<text x="487.00" y="492.00" font-size="14" font-family="Arial, Helvetica, sans-serif" text-anchor="middle" fill="#263238">q = Delta k_x / k</text>
<text x="22.00" y="246.00" font-size="14" font-family="Arial, Helvetica, sans-serif" text-anchor="middle" fill="#263238" transform="rotate(-90 22.00 246.00)">effective density</text>
</svg>
