<svg xmlns="http://www.w3.org/2000/svg" width="820" height="500" viewBox="0 0 820 500">
<rect width="100%" height="100%" fill="#ffffff"/>
<text x="410.00" y="28.00" font-size="20" font-family="Arial, Helvetica, sans-serif" text-anchor="middle" fill="#17212b">Kokorowski Fig. 4 Model RMSE</text>
<rect x="86" y="54" width="710" height="318" fill="#fafafa" stroke="#cfd8dc"/>
<line x1="86" y1="372.00" x2="796" y2="372.00" stroke="#eceff1"/>
<text x="76.00" y="376.00" font-size="11" font-family="Arial, Helvetica, sans-serif" text-anchor="end" fill="#263238">0</text>
<line x1="86" y1="308.40" x2="796" y2="308.40" stroke="#eceff1"/>
<text x="76.00" y="312.40" font-size="11" font-family="Arial, Helvetica, sans-serif" text-anchor="end" fill="#263238">0.2</text>
<line x1="86" y1="244.80" x2="796" y2="244.80" stroke="#eceff1"/>
<text x="76.00" y="248.80" font-size="11" font-family="Arial, Helvetica, sans-serif" text-anchor="end" fill="#263238">0.4</text>
<line x1="86" y1="181.20" x2="796" y2="181.20" stroke="#eceff1"/>
<text x="76.00" y="185.20" font-size="11" font-family="Arial, Helvetica, sans-serif" text-anchor="end" fill="#263238">0.6</text>
<line x1="86" y1="117.60" x2="796" y2="117.60" stroke="#eceff1"/>
<text x="76.00" y="121.60" font-size="11" font-family="Arial, Helvetica, sans-serif" text-anchor="end" fill="#263238">0.8</text>
<line x1="86" y1="54.00" x2="796" y2="54.00" stroke="#eceff1"/>
<text x="76.00" y="58.00" font-size="11" font-family="Arial, Helvetica, sans-serif" text-anchor="end" fill="#263238">1</text>
<rect x="107.30" y="364.22" width="75.73" height="7.78" fill="#2962ff" fill-opacity="0.82"/>
<text x="145.17" y="390.00" font-size="10" font-family="Arial, Helvetica, sans-serif" text-anchor="middle" fill="#263238" transform="rotate(-28 145.17 390.00)">bullet_lower_intensity / calculated_independent_kappa</text>
<rect x="225.63" y="362.85" width="75.73" height="9.15" fill="#00897b" fill-opacity="0.82"/>
<text x="263.50" y="390.00" font-size="10" font-family="Arial, Helvetica, sans-serif" text-anchor="middle" fill="#263238" transform="rotate(-28 263.50 390.00)">bullet_lower_intensity / reported_visibility_fit_kappa</text>
<rect x="343.97" y="364.58" width="75.73" height="7.42" fill="#d84315" fill-opacity="0.82"/>
<text x="381.83" y="390.00" font-size="10" font-family="Arial, Helvetica, sans-serif" text-anchor="middle" fill="#263238" transform="rotate(-28 381.83 390.00)">bullet_lower_intensity / refit_kappa_from_digitized_points</text>
<rect x="462.30" y="364.58" width="75.73" height="7.42" fill="#6a1b9a" fill-opacity="0.82"/>
<text x="500.17" y="390.00" font-size="10" font-family="Arial, Helvetica, sans-serif" text-anchor="middle" fill="#263238" transform="rotate(-28 500.17 390.00)">circle_high_intensity / calculated_independent_kappa</text>
<rect x="580.63" y="368.08" width="75.73" height="3.92" fill="#f9a825" fill-opacity="0.82"/>
<text x="618.50" y="390.00" font-size="10" font-family="Arial, Helvetica, sans-serif" text-anchor="middle" fill="#263238" transform="rotate(-28 618.50 390.00)">circle_high_intensity / reported_visibility_fit_kappa</text>
<rect x="698.97" y="368.10" width="75.73" height="3.90" fill="#455a64" fill-opacity="0.82"/>
<text x="736.83" y="390.00" font-size="10" font-family="Arial, Helvetica, sans-serif" text-anchor="middle" fill="#263238" transform="rotate(-28 736.83 390.00)">circle_high_intensity / refit_kappa_from_digitized_points</text>
<text x="22.00" y="213.00" font-size="14" font-family="Arial, Helvetica, sans-serif" text-anchor="middle" fill="#263238" transform="rotate(-90 22.00 213.00)">visibility RMSE</text>
</svg>
