<svg xmlns="http://www.w3.org/2000/svg" width="920" height="520" viewBox="0 0 920 520">
<rect width="100%" height="100%" fill="#ffffff"/>
<text x="460.00" y="28.00" font-size="20" font-family="Arial, Helvetica, sans-serif" text-anchor="middle" fill="#17212b">Eibenberger Recoil Kernel Curves</text>
<rect x="82" y="54" width="810" height="384" fill="#fafafa" stroke="#cfd8dc"/>
<line x1="82.00" y1="54" x2="82.00" y2="438" stroke="#eceff1"/>
<text x="82.00" y="462.00" font-size="11" font-family="Arial, Helvetica, sans-serif" text-anchor="middle" fill="#263238">0</text>
<line x1="244.00" y1="54" x2="244.00" y2="438" stroke="#eceff1"/>
<text x="244.00" y="462.00" font-size="11" font-family="Arial, Helvetica, sans-serif" text-anchor="middle" fill="#263238">0.02</text>
<line x1="406.00" y1="54" x2="406.00" y2="438" stroke="#eceff1"/>
<text x="406.00" y="462.00" font-size="11" font-family="Arial, Helvetica, sans-serif" text-anchor="middle" fill="#263238">0.04</text>
<line x1="568.00" y1="54" x2="568.00" y2="438" stroke="#eceff1"/>
<text x="568.00" y="462.00" font-size="11" font-family="Arial, Helvetica, sans-serif" text-anchor="middle" fill="#263238">0.06</text>
<line x1="730.00" y1="54" x2="730.00" y2="438" stroke="#eceff1"/>
<text x="730.00" y="462.00" font-size="11" font-family="Arial, Helvetica, sans-serif" text-anchor="middle" fill="#263238">0.08</text>
<line x1="892.00" y1="54" x2="892.00" y2="438" stroke="#eceff1"/>
<text x="892.00" y="462.00" font-size="11" font-family="Arial, Helvetica, sans-serif" text-anchor="middle" fill="#263238">0.1</text>
<line x1="82" y1="438.00" x2="892" y2="438.00" stroke="#eceff1"/>
<text x="72.00" y="442.00" font-size="11" font-family="Arial, Helvetica, sans-serif" text-anchor="end" fill="#263238">0.45</text>
<line x1="82" y1="361.20" x2="892" y2="361.20" stroke="#eceff1"/>
<text x="72.00" y="365.20" font-size="11" font-family="Arial, Helvetica, sans-serif" text-anchor="end" fill="#263238">0.56</text>
<line x1="82" y1="284.40" x2="892" y2="284.40" stroke="#eceff1"/>
<text x="72.00" y="288.40" font-size="11" font-family="Arial, Helvetica, sans-serif" text-anchor="end" fill="#263238">0.68</text>
<line x1="82" y1="207.60" x2="892" y2="207.60" stroke="#eceff1"/>
<text x="72.00" y="211.60" font-size="11" font-family="Arial, Helvetica, sans-serif" text-anchor="end" fill="#263238">0.79</text>
<line x1="82" y1="130.80" x2="892" y2="130.80" stroke="#eceff1"/>
<text x="72.00" y="134.80" font-size="11" font-family="Arial, Helvetica, sans-serif" text-anchor="end" fill="#263238">0.91</text>
<line x1="82" y1="54.00" x2="892" y2="54.00" stroke="#eceff1"/>
<text x="72.00" y="58.00" font-size="11" font-family="Arial, Helvetica, sans-serif" text-anchor="end" fill="#263238">1</text>
<polyline fill="none" stroke="#2962ff" stroke-width="2.5" points="122.50,97.21 127.34,104.02 132.18,111.32 137.02,119.04 141.86,127.12 146.70,135.50 151.54,144.12 156.38,152.93 161.22,161.88 166.06,170.91 170.90,179.99 175.74,189.07 180.58,198.12 185.42,207.09 190.25,215.96 195.09,224.70 199.93,233.28 204.77,241.67 209.61,249.85 214.45,257.81 219.29,265.52 224.13,272.96 228.97,280.12 233.81,286.99 238.65,293.55 243.49,299.79 248.33,305.69 253.17,311.24 258.01,316.44 262.85,321.28 267.69,325.73 272.53,329.80 277.37,333.48 282.21,336.75 287.05,339.62 291.89,342.07 296.73,344.10 301.57,345.71 306.41,346.88 311.25,347.64 316.08,347.96 320.92,347.86 325.76,347.33 330.60,346.39 335.44,345.04 340.28,343.29 345.12,341.16 349.96,338.65 354.80,335.78 359.64,332.56 364.48,329.02 369.32,325.18 374.16,321.05 379.00,316.65 383.84,312.02 388.68,307.17 393.52,302.13 398.36,296.92 403.20,291.56 408.04,286.09 412.88,280.52 417.72,274.88 422.56,269.19 427.40,263.48 432.24,257.77 437.08,252.09 441.92,246.44 446.75,240.86 451.59,235.37 456.43,229.97 461.27,224.70 466.11,219.57 470.95,214.58 475.79,209.77 480.63,205.14 485.47,200.70 490.31,196.46 495.15,192.45 499.99,188.65 504.83,185.09 509.67,181.77 514.51,178.70 519.35,175.88 524.19,173.31 529.03,171.01 533.87,168.96 538.71,167.17 543.55,165.65 548.39,164.38 553.23,163.38 558.07,162.63 562.91,162.13 567.75,161.88 572.58,161.88 577.42,162.11 582.26,162.58 587.10,163.28 591.94,164.19 596.78,165.32 601.62,166.65 606.46,168.17 611.30,169.88 616.14,171.76 620.98,173.81 625.82,176.02 630.66,178.37 635.50,180.86 640.34,183.47 645.18,186.19 650.02,189.02 654.86,191.93 659.70,194.93 664.54,197.99 669.38,201.12 674.22,204.28 679.06,207.49 683.90,210.72 688.74,213.96 693.58,217.20 698.42,220.43 703.25,223.65 708.09,226.83 712.93,229.98 717.77,233.08 722.61,236.13 727.45,239.11 732.29,242.01 737.13,244.83 741.97,247.57 746.81,250.20 751.65,252.74 756.49,255.16 761.33,257.47 766.17,259.66 771.01,261.73 775.85,263.67 780.69,265.47 785.53,267.15 790.37,268.68 795.21,270.08 800.05,271.35 804.89,272.47 809.73,273.45 814.57,274.29 819.41,275.00 824.25,275.57 829.08,276.01 833.92,276.31 838.76,276.48 843.60,276.53 848.44,276.46 853.28,276.27 858.12,275.97 862.96,275.55 867.80,275.03 872.64,274.42 877.48,273.70 882.32,272.90 887.16,272.02 892.00,271.05"/>
<polyline fill="none" stroke="#c62828" stroke-width="2.5" stroke-dasharray="7 5" points="122.50,96.68 127.34,103.37 132.18,110.55 137.02,118.14 141.86,126.09 146.70,134.34 151.54,142.83 156.38,151.51 161.22,160.33 166.06,169.23 170.90,178.18 175.74,187.14 180.58,196.07 185.42,204.92 190.25,213.68 195.09,222.31 199.93,230.78 204.77,239.07 209.61,247.15 214.45,255.02 219.29,262.63 224.13,269.99 228.97,277.08 233.81,283.87 238.65,290.35 243.49,296.52 248.33,302.35 253.17,307.85 258.01,312.99 262.85,317.77 267.69,322.17 272.53,326.19 277.37,329.83 282.21,333.06 287.05,335.89 291.89,338.30 296.73,340.31 301.57,341.89 306.41,343.05 311.25,343.78 316.08,344.09 320.92,343.98 325.76,343.46 330.60,342.52 335.44,341.18 340.28,339.45 345.12,337.33 349.96,334.84 354.80,332.00 359.64,328.81 364.48,325.31 369.32,321.51 374.16,317.42 379.00,313.08 383.84,308.49 388.68,303.70 393.52,298.72 398.36,293.56 403.20,288.27 408.04,282.86 412.88,277.36 417.72,271.79 422.56,266.17 427.40,260.53 432.24,254.89 437.08,249.28 441.92,243.70 446.75,238.19 451.59,232.76 456.43,227.44 461.27,222.23 466.11,217.16 470.95,212.24 475.79,207.49 480.63,202.92 485.47,198.54 490.31,194.36 495.15,190.40 499.99,186.65 504.83,183.14 509.67,179.87 514.51,176.84 519.35,174.06 524.19,171.53 529.03,169.25 533.87,167.24 538.71,165.48 543.55,163.97 548.39,162.73 553.23,161.74 558.07,161.01 562.91,160.52 567.75,160.28 572.58,160.28 577.42,160.52 582.26,160.99 587.10,161.68 591.94,162.59 596.78,163.70 601.62,165.02 606.46,166.53 611.30,168.22 616.14,170.08 620.98,172.11 625.82,174.29 630.66,176.61 635.50,179.07 640.34,181.65 645.18,184.34 650.02,187.13 654.86,190.01 659.70,192.97 664.54,196.00 669.38,199.08 674.22,202.21 679.06,205.37 683.90,208.55 688.74,211.75 693.58,214.95 698.42,218.14 703.25,221.31 708.09,224.45 712.93,227.56 717.77,230.61 722.61,233.61 727.45,236.55 732.29,239.41 737.13,242.19 741.97,244.89 746.81,247.48 751.65,249.98 756.49,252.37 761.33,254.64 766.17,256.80 771.01,258.84 775.85,260.74 780.69,262.52 785.53,264.17 790.37,265.68 795.21,267.06 800.05,268.30 804.89,269.40 809.73,270.37 814.57,271.20 819.41,271.89 824.25,272.45 829.08,272.88 833.92,273.17 838.76,273.34 843.60,273.39 848.44,273.32 853.28,273.13 858.12,272.82 862.96,272.41 867.80,271.90 872.64,271.29 877.48,270.59 882.32,269.80 887.16,268.92 892.00,267.97"/>
<line x1="94" y1="72" x2="122" y2="72" stroke="#2962ff" stroke-width="3"/>
<text x="130.00" y="76.00" font-size="12" font-family="Arial, Helvetica, sans-serif" text-anchor="start" fill="#263238">paper sigma</text>
<line x1="94" y1="94" x2="122" y2="94" stroke="#c62828" stroke-width="3" stroke-dasharray="7 5"/>
<text x="130.00" y="98.00" font-size="12" font-family="Arial, Helvetica, sans-serif" text-anchor="start" fill="#263238">visibility-fit sigma</text>
<text x="487.00" y="492.00" font-size="14" font-family="Arial, Helvetica, sans-serif" text-anchor="middle" fill="#263238">distance from G1 (m)</text>
<text x="22.00" y="246.00" font-size="14" font-family="Arial, Helvetica, sans-serif" text-anchor="middle" fill="#263238" transform="rotate(-90 22.00 246.00)">V&#x27; / V</text>
</svg>
