<svg xmlns="http://www.w3.org/2000/svg" width="720" height="560" viewBox="0 0 720 560">
<rect width="100%" height="100%" fill="#ffffff"/>
<text x="360.00" y="28.00" font-size="20" font-family="Arial, Helvetica, sans-serif" text-anchor="middle" fill="#17212b">Product-Law Master Curve</text>
<rect x="82" y="54" width="606" height="424" fill="#fafafa" stroke="#cfd8dc"/>
<line x1="82.00" y1="54" x2="82.00" y2="478" stroke="#eceff1"/>
<text x="82.00" y="502.00" font-size="11" font-family="Arial, Helvetica, sans-serif" text-anchor="middle" fill="#263238">-0.043</text>
<line x1="203.20" y1="54" x2="203.20" y2="478" stroke="#eceff1"/>
<text x="203.20" y="502.00" font-size="11" font-family="Arial, Helvetica, sans-serif" text-anchor="middle" fill="#263238">0.12</text>
<line x1="324.40" y1="54" x2="324.40" y2="478" stroke="#eceff1"/>
<text x="324.40" y="502.00" font-size="11" font-family="Arial, Helvetica, sans-serif" text-anchor="middle" fill="#263238">0.28</text>
<line x1="445.60" y1="54" x2="445.60" y2="478" stroke="#eceff1"/>
<text x="445.60" y="502.00" font-size="11" font-family="Arial, Helvetica, sans-serif" text-anchor="middle" fill="#263238">0.44</text>
<line x1="566.80" y1="54" x2="566.80" y2="478" stroke="#eceff1"/>
<text x="566.80" y="502.00" font-size="11" font-family="Arial, Helvetica, sans-serif" text-anchor="middle" fill="#263238">0.6</text>
<line x1="688.00" y1="54" x2="688.00" y2="478" stroke="#eceff1"/>
<text x="688.00" y="502.00" font-size="11" font-family="Arial, Helvetica, sans-serif" text-anchor="middle" fill="#263238">0.76</text>
<line x1="82" y1="478.00" x2="688" y2="478.00" stroke="#eceff1"/>
<text x="72.00" y="482.00" font-size="11" font-family="Arial, Helvetica, sans-serif" text-anchor="end" fill="#263238">0.11</text>
<line x1="82" y1="393.20" x2="688" y2="393.20" stroke="#eceff1"/>
<text x="72.00" y="397.20" font-size="11" font-family="Arial, Helvetica, sans-serif" text-anchor="end" fill="#263238">0.17</text>
<line x1="82" y1="308.40" x2="688" y2="308.40" stroke="#eceff1"/>
<text x="72.00" y="312.40" font-size="11" font-family="Arial, Helvetica, sans-serif" text-anchor="end" fill="#263238">0.22</text>
<line x1="82" y1="223.60" x2="688" y2="223.60" stroke="#eceff1"/>
<text x="72.00" y="227.60" font-size="11" font-family="Arial, Helvetica, sans-serif" text-anchor="end" fill="#263238">0.27</text>
<line x1="82" y1="138.80" x2="688" y2="138.80" stroke="#eceff1"/>
<text x="72.00" y="142.80" font-size="11" font-family="Arial, Helvetica, sans-serif" text-anchor="end" fill="#263238">0.33</text>
<line x1="82" y1="54.00" x2="688" y2="54.00" stroke="#eceff1"/>
<text x="72.00" y="58.00" font-size="11" font-family="Arial, Helvetica, sans-serif" text-anchor="end" fill="#263238">0.38</text>
<circle cx="114.46" cy="82.68" r="3.4" fill="#2962ff" fill-opacity="0.62"/>
<circle cx="285.24" cy="241.09" r="3.4" fill="#2962ff" fill-opacity="0.62"/>
<circle cx="416.66" cy="334.79" r="3.4" fill="#2962ff" fill-opacity="0.62"/>
<circle cx="517.80" cy="393.39" r="3.4" fill="#2962ff" fill-opacity="0.62"/>
<circle cx="595.63" cy="428.77" r="3.4" fill="#2962ff" fill-opacity="0.62"/>
<circle cx="655.54" cy="455.29" r="3.4" fill="#2962ff" fill-opacity="0.62"/>
<circle cx="114.46" cy="82.49" r="3.4" fill="#2962ff" fill-opacity="0.62"/>
<circle cx="268.04" cy="223.97" r="3.4" fill="#2962ff" fill-opacity="0.62"/>
<circle cx="386.23" cy="316.20" r="3.4" fill="#2962ff" fill-opacity="0.62"/>
<circle cx="477.19" cy="371.09" r="3.4" fill="#2962ff" fill-opacity="0.62"/>
<circle cx="547.18" cy="403.53" r="3.4" fill="#2962ff" fill-opacity="0.62"/>
<circle cx="601.05" cy="428.55" r="3.4" fill="#2962ff" fill-opacity="0.62"/>
<circle cx="114.46" cy="82.35" r="3.4" fill="#2962ff" fill-opacity="0.62"/>
<circle cx="213.94" cy="184.67" r="3.4" fill="#2962ff" fill-opacity="0.62"/>
<circle cx="290.49" cy="246.26" r="3.4" fill="#2962ff" fill-opacity="0.62"/>
<circle cx="349.40" cy="287.55" r="3.4" fill="#2962ff" fill-opacity="0.62"/>
<circle cx="394.74" cy="324.41" r="3.4" fill="#2962ff" fill-opacity="0.62"/>
<circle cx="429.63" cy="343.26" r="3.4" fill="#2962ff" fill-opacity="0.62"/>
<circle cx="114.46" cy="88.72" r="3.4" fill="#2962ff" fill-opacity="0.62"/>
<circle cx="177.06" cy="151.26" r="3.4" fill="#2962ff" fill-opacity="0.62"/>
<circle cx="225.23" cy="197.67" r="3.4" fill="#2962ff" fill-opacity="0.62"/>
<circle cx="262.30" cy="224.26" r="3.4" fill="#2962ff" fill-opacity="0.62"/>
<circle cx="290.83" cy="250.45" r="3.4" fill="#2962ff" fill-opacity="0.62"/>
<circle cx="312.78" cy="262.38" r="3.4" fill="#2962ff" fill-opacity="0.62"/>
<circle cx="114.46" cy="82.18" r="3.4" fill="#2962ff" fill-opacity="0.62"/>
<circle cx="156.16" cy="127.08" r="3.4" fill="#2962ff" fill-opacity="0.62"/>
<circle cx="188.25" cy="165.90" r="3.4" fill="#2962ff" fill-opacity="0.62"/>
<circle cx="212.95" cy="182.53" r="3.4" fill="#2962ff" fill-opacity="0.62"/>
<circle cx="231.95" cy="197.89" r="3.4" fill="#2962ff" fill-opacity="0.62"/>
<circle cx="246.58" cy="209.99" r="3.4" fill="#2962ff" fill-opacity="0.62"/>
<circle cx="114.46" cy="87.54" r="3.4" fill="#2962ff" fill-opacity="0.62"/>
<circle cx="143.88" cy="115.46" r="3.4" fill="#2962ff" fill-opacity="0.62"/>
<circle cx="166.52" cy="139.94" r="3.4" fill="#2962ff" fill-opacity="0.62"/>
<circle cx="183.94" cy="156.36" r="3.4" fill="#2962ff" fill-opacity="0.62"/>
<circle cx="197.34" cy="163.10" r="3.4" fill="#2962ff" fill-opacity="0.62"/>
<circle cx="207.66" cy="178.57" r="3.4" fill="#2962ff" fill-opacity="0.62"/>
<circle cx="114.46" cy="82.79" r="3.4" fill="#2962ff" fill-opacity="0.62"/>
<circle cx="221.96" cy="186.11" r="3.4" fill="#2962ff" fill-opacity="0.62"/>
<circle cx="304.68" cy="258.97" r="3.4" fill="#2962ff" fill-opacity="0.62"/>
<circle cx="368.35" cy="303.13" r="3.4" fill="#2962ff" fill-opacity="0.62"/>
<circle cx="417.34" cy="333.99" r="3.4" fill="#2962ff" fill-opacity="0.62"/>
<circle cx="455.04" cy="356.51" r="3.4" fill="#2962ff" fill-opacity="0.62"/>
<circle cx="114.46" cy="86.57" r="3.4" fill="#2962ff" fill-opacity="0.62"/>
<circle cx="211.13" cy="178.93" r="3.4" fill="#2962ff" fill-opacity="0.62"/>
<circle cx="285.53" cy="237.95" r="3.4" fill="#2962ff" fill-opacity="0.62"/>
<circle cx="342.78" cy="290.01" r="3.4" fill="#2962ff" fill-opacity="0.62"/>
<circle cx="386.84" cy="312.31" r="3.4" fill="#2962ff" fill-opacity="0.62"/>
<circle cx="420.75" cy="336.05" r="3.4" fill="#2962ff" fill-opacity="0.62"/>
<circle cx="114.46" cy="84.72" r="3.4" fill="#2962ff" fill-opacity="0.62"/>
<circle cx="177.08" cy="140.83" r="3.4" fill="#2962ff" fill-opacity="0.62"/>
<circle cx="225.26" cy="189.43" r="3.4" fill="#2962ff" fill-opacity="0.62"/>
<circle cx="262.35" cy="227.36" r="3.4" fill="#2962ff" fill-opacity="0.62"/>
<circle cx="290.88" cy="246.24" r="3.4" fill="#2962ff" fill-opacity="0.62"/>
<circle cx="312.85" cy="261.45" r="3.4" fill="#2962ff" fill-opacity="0.62"/>
<circle cx="114.46" cy="83.28" r="3.4" fill="#2962ff" fill-opacity="0.62"/>
<circle cx="153.86" cy="121.99" r="3.4" fill="#2962ff" fill-opacity="0.62"/>
<circle cx="184.18" cy="154.24" r="3.4" fill="#2962ff" fill-opacity="0.62"/>
<circle cx="207.52" cy="173.76" r="3.4" fill="#2962ff" fill-opacity="0.62"/>
<circle cx="225.48" cy="187.47" r="3.4" fill="#2962ff" fill-opacity="0.62"/>
<circle cx="239.30" cy="206.26" r="3.4" fill="#2962ff" fill-opacity="0.62"/>
<circle cx="114.46" cy="82.04" r="3.4" fill="#2962ff" fill-opacity="0.62"/>
<circle cx="140.71" cy="112.13" r="3.4" fill="#2962ff" fill-opacity="0.62"/>
<circle cx="160.91" cy="130.85" r="3.4" fill="#2962ff" fill-opacity="0.62"/>
<circle cx="176.46" cy="150.35" r="3.4" fill="#2962ff" fill-opacity="0.62"/>
<circle cx="188.42" cy="159.91" r="3.4" fill="#2962ff" fill-opacity="0.62"/>
<circle cx="197.63" cy="167.36" r="3.4" fill="#2962ff" fill-opacity="0.62"/>
<circle cx="114.46" cy="79.83" r="3.4" fill="#2962ff" fill-opacity="0.62"/>
<circle cx="132.98" cy="98.92" r="3.4" fill="#2962ff" fill-opacity="0.62"/>
<circle cx="147.23" cy="121.59" r="3.4" fill="#2962ff" fill-opacity="0.62"/>
<circle cx="158.19" cy="131.05" r="3.4" fill="#2962ff" fill-opacity="0.62"/>
<circle cx="166.63" cy="134.89" r="3.4" fill="#2962ff" fill-opacity="0.62"/>
<circle cx="173.13" cy="149.66" r="3.4" fill="#2962ff" fill-opacity="0.62"/>
<circle cx="114.46" cy="84.15" r="3.4" fill="#2962ff" fill-opacity="0.62"/>
<circle cx="174.13" cy="144.63" r="3.4" fill="#2962ff" fill-opacity="0.62"/>
<circle cx="220.05" cy="183.22" r="3.4" fill="#2962ff" fill-opacity="0.62"/>
<circle cx="255.39" cy="215.59" r="3.4" fill="#2962ff" fill-opacity="0.62"/>
<circle cx="282.59" cy="240.98" r="3.4" fill="#2962ff" fill-opacity="0.62"/>
<circle cx="303.52" cy="257.40" r="3.4" fill="#2962ff" fill-opacity="0.62"/>
<circle cx="114.46" cy="83.48" r="3.4" fill="#2962ff" fill-opacity="0.62"/>
<circle cx="168.12" cy="133.58" r="3.4" fill="#2962ff" fill-opacity="0.62"/>
<circle cx="209.42" cy="178.97" r="3.4" fill="#2962ff" fill-opacity="0.62"/>
<circle cx="241.20" cy="206.71" r="3.4" fill="#2962ff" fill-opacity="0.62"/>
<circle cx="265.66" cy="225.16" r="3.4" fill="#2962ff" fill-opacity="0.62"/>
<circle cx="284.48" cy="241.82" r="3.4" fill="#2962ff" fill-opacity="0.62"/>
<circle cx="114.46" cy="83.31" r="3.4" fill="#2962ff" fill-opacity="0.62"/>
<circle cx="149.22" cy="122.97" r="3.4" fill="#2962ff" fill-opacity="0.62"/>
<circle cx="175.97" cy="146.14" r="3.4" fill="#2962ff" fill-opacity="0.62"/>
<circle cx="196.55" cy="167.14" r="3.4" fill="#2962ff" fill-opacity="0.62"/>
<circle cx="212.39" cy="176.61" r="3.4" fill="#2962ff" fill-opacity="0.62"/>
<circle cx="224.58" cy="189.18" r="3.4" fill="#2962ff" fill-opacity="0.62"/>
<circle cx="114.46" cy="82.76" r="3.4" fill="#2962ff" fill-opacity="0.62"/>
<circle cx="136.33" cy="103.96" r="3.4" fill="#2962ff" fill-opacity="0.62"/>
<circle cx="153.16" cy="124.53" r="3.4" fill="#2962ff" fill-opacity="0.62"/>
<circle cx="166.12" cy="133.10" r="3.4" fill="#2962ff" fill-opacity="0.62"/>
<circle cx="176.09" cy="146.24" r="3.4" fill="#2962ff" fill-opacity="0.62"/>
<circle cx="183.76" cy="151.77" r="3.4" fill="#2962ff" fill-opacity="0.62"/>
<circle cx="114.46" cy="86.78" r="3.4" fill="#2962ff" fill-opacity="0.62"/>
<circle cx="129.03" cy="97.28" r="3.4" fill="#2962ff" fill-opacity="0.62"/>
<circle cx="140.25" cy="115.53" r="3.4" fill="#2962ff" fill-opacity="0.62"/>
<circle cx="148.88" cy="125.54" r="3.4" fill="#2962ff" fill-opacity="0.62"/>
<circle cx="155.52" cy="126.80" r="3.4" fill="#2962ff" fill-opacity="0.62"/>
<circle cx="160.63" cy="133.83" r="3.4" fill="#2962ff" fill-opacity="0.62"/>
<circle cx="114.46" cy="82.16" r="3.4" fill="#2962ff" fill-opacity="0.62"/>
<circle cx="124.74" cy="86.67" r="3.4" fill="#2962ff" fill-opacity="0.62"/>
<circle cx="132.65" cy="104.86" r="3.4" fill="#2962ff" fill-opacity="0.62"/>
<circle cx="138.74" cy="110.58" r="3.4" fill="#2962ff" fill-opacity="0.62"/>
<circle cx="143.42" cy="112.81" r="3.4" fill="#2962ff" fill-opacity="0.62"/>
<circle cx="147.03" cy="115.62" r="3.4" fill="#2962ff" fill-opacity="0.62"/>
<circle cx="114.46" cy="83.24" r="3.4" fill="#2962ff" fill-opacity="0.62"/>
<circle cx="150.78" cy="121.68" r="3.4" fill="#2962ff" fill-opacity="0.62"/>
<circle cx="178.73" cy="146.55" r="3.4" fill="#2962ff" fill-opacity="0.62"/>
<circle cx="200.24" cy="167.52" r="3.4" fill="#2962ff" fill-opacity="0.62"/>
<circle cx="216.80" cy="187.58" r="3.4" fill="#2962ff" fill-opacity="0.62"/>
<circle cx="229.54" cy="195.87" r="3.4" fill="#2962ff" fill-opacity="0.62"/>
<circle cx="114.46" cy="82.57" r="3.4" fill="#2962ff" fill-opacity="0.62"/>
<circle cx="147.13" cy="120.63" r="3.4" fill="#2962ff" fill-opacity="0.62"/>
<circle cx="172.26" cy="141.66" r="3.4" fill="#2962ff" fill-opacity="0.62"/>
<circle cx="191.61" cy="163.81" r="3.4" fill="#2962ff" fill-opacity="0.62"/>
<circle cx="206.49" cy="171.85" r="3.4" fill="#2962ff" fill-opacity="0.62"/>
<circle cx="217.95" cy="184.72" r="3.4" fill="#2962ff" fill-opacity="0.62"/>
<circle cx="114.46" cy="82.40" r="3.4" fill="#2962ff" fill-opacity="0.62"/>
<circle cx="135.62" cy="107.22" r="3.4" fill="#2962ff" fill-opacity="0.62"/>
<circle cx="151.90" cy="122.54" r="3.4" fill="#2962ff" fill-opacity="0.62"/>
<circle cx="164.43" cy="141.11" r="3.4" fill="#2962ff" fill-opacity="0.62"/>
<circle cx="174.07" cy="147.85" r="3.4" fill="#2962ff" fill-opacity="0.62"/>
<circle cx="181.49" cy="150.29" r="3.4" fill="#2962ff" fill-opacity="0.62"/>
<circle cx="114.46" cy="89.44" r="3.4" fill="#2962ff" fill-opacity="0.62"/>
<circle cx="127.78" cy="94.36" r="3.4" fill="#2962ff" fill-opacity="0.62"/>
<circle cx="138.02" cy="113.40" r="3.4" fill="#2962ff" fill-opacity="0.62"/>
<circle cx="145.90" cy="113.62" r="3.4" fill="#2962ff" fill-opacity="0.62"/>
<circle cx="151.97" cy="124.92" r="3.4" fill="#2962ff" fill-opacity="0.62"/>
<circle cx="156.64" cy="124.49" r="3.4" fill="#2962ff" fill-opacity="0.62"/>
<circle cx="114.46" cy="82.27" r="3.4" fill="#2962ff" fill-opacity="0.62"/>
<circle cx="123.33" cy="97.17" r="3.4" fill="#2962ff" fill-opacity="0.62"/>
<circle cx="130.16" cy="95.61" r="3.4" fill="#2962ff" fill-opacity="0.62"/>
<circle cx="135.41" cy="100.54" r="3.4" fill="#2962ff" fill-opacity="0.62"/>
<circle cx="139.45" cy="109.55" r="3.4" fill="#2962ff" fill-opacity="0.62"/>
<circle cx="142.56" cy="113.45" r="3.4" fill="#2962ff" fill-opacity="0.62"/>
<circle cx="114.46" cy="83.19" r="3.4" fill="#2962ff" fill-opacity="0.62"/>
<circle cx="120.72" cy="92.57" r="3.4" fill="#2962ff" fill-opacity="0.62"/>
<circle cx="125.53" cy="91.16" r="3.4" fill="#2962ff" fill-opacity="0.62"/>
<circle cx="129.24" cy="100.32" r="3.4" fill="#2962ff" fill-opacity="0.62"/>
<circle cx="132.09" cy="101.78" r="3.4" fill="#2962ff" fill-opacity="0.62"/>
<circle cx="134.28" cy="106.45" r="3.4" fill="#2962ff" fill-opacity="0.62"/>
<circle cx="114.46" cy="84.67" r="3.4" fill="#2962ff" fill-opacity="0.62"/>
<circle cx="138.56" cy="112.47" r="3.4" fill="#2962ff" fill-opacity="0.62"/>
<circle cx="157.10" cy="123.43" r="3.4" fill="#2962ff" fill-opacity="0.62"/>
<circle cx="171.36" cy="142.10" r="3.4" fill="#2962ff" fill-opacity="0.62"/>
<circle cx="182.34" cy="149.20" r="3.4" fill="#2962ff" fill-opacity="0.62"/>
<circle cx="190.79" cy="160.27" r="3.4" fill="#2962ff" fill-opacity="0.62"/>
<circle cx="114.46" cy="84.89" r="3.4" fill="#2962ff" fill-opacity="0.62"/>
<circle cx="136.13" cy="106.91" r="3.4" fill="#2962ff" fill-opacity="0.62"/>
<circle cx="152.80" cy="124.86" r="3.4" fill="#2962ff" fill-opacity="0.62"/>
<circle cx="165.63" cy="135.93" r="3.4" fill="#2962ff" fill-opacity="0.62"/>
<circle cx="175.51" cy="146.85" r="3.4" fill="#2962ff" fill-opacity="0.62"/>
<circle cx="183.11" cy="153.95" r="3.4" fill="#2962ff" fill-opacity="0.62"/>
<circle cx="114.46" cy="87.06" r="3.4" fill="#2962ff" fill-opacity="0.62"/>
<circle cx="128.50" cy="100.37" r="3.4" fill="#2962ff" fill-opacity="0.62"/>
<circle cx="139.30" cy="103.93" r="3.4" fill="#2962ff" fill-opacity="0.62"/>
<circle cx="147.61" cy="119.91" r="3.4" fill="#2962ff" fill-opacity="0.62"/>
<circle cx="154.00" cy="127.65" r="3.4" fill="#2962ff" fill-opacity="0.62"/>
<circle cx="158.93" cy="128.19" r="3.4" fill="#2962ff" fill-opacity="0.62"/>
<circle cx="114.46" cy="78.21" r="3.4" fill="#2962ff" fill-opacity="0.62"/>
<circle cx="123.29" cy="96.87" r="3.4" fill="#2962ff" fill-opacity="0.62"/>
<circle cx="130.09" cy="100.17" r="3.4" fill="#2962ff" fill-opacity="0.62"/>
<circle cx="135.32" cy="107.03" r="3.4" fill="#2962ff" fill-opacity="0.62"/>
<circle cx="139.34" cy="114.83" r="3.4" fill="#2962ff" fill-opacity="0.62"/>
<circle cx="142.44" cy="110.12" r="3.4" fill="#2962ff" fill-opacity="0.62"/>
<circle cx="114.46" cy="82.76" r="3.4" fill="#2962ff" fill-opacity="0.62"/>
<circle cx="120.35" cy="88.85" r="3.4" fill="#2962ff" fill-opacity="0.62"/>
<circle cx="124.87" cy="96.33" r="3.4" fill="#2962ff" fill-opacity="0.62"/>
<circle cx="128.36" cy="96.22" r="3.4" fill="#2962ff" fill-opacity="0.62"/>
<circle cx="131.04" cy="102.22" r="3.4" fill="#2962ff" fill-opacity="0.62"/>
<circle cx="133.10" cy="103.14" r="3.4" fill="#2962ff" fill-opacity="0.62"/>
<circle cx="114.46" cy="86.20" r="3.4" fill="#2962ff" fill-opacity="0.62"/>
<circle cx="118.61" cy="91.06" r="3.4" fill="#2962ff" fill-opacity="0.62"/>
<circle cx="121.81" cy="86.41" r="3.4" fill="#2962ff" fill-opacity="0.62"/>
<circle cx="124.26" cy="94.90" r="3.4" fill="#2962ff" fill-opacity="0.62"/>
<circle cx="126.16" cy="94.39" r="3.4" fill="#2962ff" fill-opacity="0.62"/>
<circle cx="127.61" cy="96.98" r="3.4" fill="#2962ff" fill-opacity="0.62"/>
<circle cx="114.46" cy="84.08" r="3.4" fill="#2962ff" fill-opacity="0.62"/>
<circle cx="131.51" cy="102.62" r="3.4" fill="#2962ff" fill-opacity="0.62"/>
<circle cx="144.63" cy="112.72" r="3.4" fill="#2962ff" fill-opacity="0.62"/>
<circle cx="154.73" cy="126.00" r="3.4" fill="#2962ff" fill-opacity="0.62"/>
<circle cx="162.50" cy="133.32" r="3.4" fill="#2962ff" fill-opacity="0.62"/>
<circle cx="168.48" cy="138.70" r="3.4" fill="#2962ff" fill-opacity="0.62"/>
<circle cx="114.46" cy="78.95" r="3.4" fill="#2962ff" fill-opacity="0.62"/>
<circle cx="129.80" cy="97.03" r="3.4" fill="#2962ff" fill-opacity="0.62"/>
<circle cx="141.60" cy="110.36" r="3.4" fill="#2962ff" fill-opacity="0.62"/>
<circle cx="150.68" cy="122.71" r="3.4" fill="#2962ff" fill-opacity="0.62"/>
<circle cx="157.66" cy="132.39" r="3.4" fill="#2962ff" fill-opacity="0.62"/>
<circle cx="163.04" cy="130.37" r="3.4" fill="#2962ff" fill-opacity="0.62"/>
<circle cx="114.46" cy="79.61" r="3.4" fill="#2962ff" fill-opacity="0.62"/>
<circle cx="124.40" cy="93.88" r="3.4" fill="#2962ff" fill-opacity="0.62"/>
<circle cx="132.04" cy="99.84" r="3.4" fill="#2962ff" fill-opacity="0.62"/>
<circle cx="137.92" cy="105.26" r="3.4" fill="#2962ff" fill-opacity="0.62"/>
<circle cx="142.45" cy="109.82" r="3.4" fill="#2962ff" fill-opacity="0.62"/>
<circle cx="145.93" cy="113.13" r="3.4" fill="#2962ff" fill-opacity="0.62"/>
<circle cx="114.46" cy="84.13" r="3.4" fill="#2962ff" fill-opacity="0.62"/>
<circle cx="120.71" cy="84.66" r="3.4" fill="#2962ff" fill-opacity="0.62"/>
<circle cx="125.52" cy="98.60" r="3.4" fill="#2962ff" fill-opacity="0.62"/>
<circle cx="129.22" cy="95.85" r="3.4" fill="#2962ff" fill-opacity="0.62"/>
<circle cx="132.07" cy="100.03" r="3.4" fill="#2962ff" fill-opacity="0.62"/>
<circle cx="134.26" cy="101.14" r="3.4" fill="#2962ff" fill-opacity="0.62"/>
<circle cx="114.46" cy="76.71" r="3.4" fill="#2962ff" fill-opacity="0.62"/>
<circle cx="118.63" cy="82.50" r="3.4" fill="#2962ff" fill-opacity="0.62"/>
<circle cx="121.83" cy="94.31" r="3.4" fill="#2962ff" fill-opacity="0.62"/>
<circle cx="124.30" cy="98.69" r="3.4" fill="#2962ff" fill-opacity="0.62"/>
<circle cx="126.19" cy="92.76" r="3.4" fill="#2962ff" fill-opacity="0.62"/>
<circle cx="127.65" cy="100.14" r="3.4" fill="#2962ff" fill-opacity="0.62"/>
<circle cx="114.46" cy="82.72" r="3.4" fill="#2962ff" fill-opacity="0.62"/>
<circle cx="117.40" cy="83.21" r="3.4" fill="#2962ff" fill-opacity="0.62"/>
<circle cx="119.66" cy="93.55" r="3.4" fill="#2962ff" fill-opacity="0.62"/>
<circle cx="121.40" cy="96.91" r="3.4" fill="#2962ff" fill-opacity="0.62"/>
<circle cx="122.74" cy="90.83" r="3.4" fill="#2962ff" fill-opacity="0.62"/>
<circle cx="123.77" cy="92.62" r="3.4" fill="#2962ff" fill-opacity="0.62"/>
<polyline fill="none" stroke="#d84315" stroke-width="2.5" points="114.46,82.68 114.46,82.68 114.46,82.68 114.46,82.68 114.46,82.68 114.46,82.68 114.46,82.68 114.46,82.68 114.46,82.68 114.46,82.68 114.46,82.68 114.46,82.68 114.46,82.68 114.46,82.68 114.46,82.68 114.46,82.68 114.46,82.68 114.46,82.68 114.46,82.68 114.46,82.68 114.46,82.68 114.46,82.68 114.46,82.68 114.46,82.68 114.46,82.68 114.46,82.68 114.46,82.68 114.46,82.68 114.46,82.68 114.46,82.68 114.46,82.68 114.46,82.68 114.46,82.68 114.46,82.68 114.46,82.68 114.46,82.68 117.40,85.89 118.61,87.21 118.63,87.23 119.66,88.35 120.35,89.09 120.71,89.49 120.72,89.50 121.40,90.23 121.81,90.67 121.83,90.70 122.74,91.68 123.29,92.28 123.33,92.32 123.77,92.79 124.26,93.32 124.30,93.36 124.40,93.46 124.74,93.83 124.87,93.98 125.52,94.67 125.53,94.69 126.16,95.35 126.19,95.39 127.61,96.91 127.65,96.96 127.78,97.09 128.36,97.71 128.50,97.86 129.03,98.43 129.22,98.63 129.24,98.65 129.80,99.24 130.09,99.55 130.16,99.62 131.04,100.56 131.51,101.06 132.04,101.62 132.07,101.66 132.09,101.68 132.65,102.27 132.98,102.62 133.10,102.75 134.26,103.97 134.28,104.00 135.32,105.09 135.41,105.18 135.62,105.40 136.13,105.94 136.33,106.16 137.92,107.82 138.02,107.92 138.56,108.49 138.74,108.68 139.30,109.26 139.34,109.31 139.45,109.42 140.25,110.25 140.71,110.74 141.60,111.66 142.44,112.54 142.45,112.54 142.56,112.66 143.42,113.56 143.88,114.03 144.63,114.81 145.90,116.12 145.93,116.15 147.03,117.28 147.13,117.38 147.23,117.49 147.61,117.88 148.88,119.18 149.22,119.53 150.68,121.03 150.78,121.14 151.90,122.28 151.97,122.35 152.80,123.20 153.16,123.57 153.86,124.28 154.00,124.42 154.73,125.16 155.52,125.95 156.16,126.61 156.64,127.09 157.10,127.55 157.66,128.13 158.19,128.66 158.93,129.40 160.63,131.11 160.91,131.39 162.50,132.99 163.04,133.53 164.43,134.91 165.63,136.11 166.12,136.59 166.52,136.98 166.63,137.10 168.12,138.58 168.48,138.93 171.36,141.77 172.26,142.66 173.13,143.50 174.07,144.43 174.13,144.49 175.51,145.83 175.97,146.28 176.09,146.40 176.46,146.76 177.06,147.34 177.08,147.36 178.73,148.97 181.49,151.64 182.34,152.46 183.11,153.19 183.76,153.82 183.94,153.99 184.18,154.23 188.25,158.12 188.42,158.27 190.79,160.53 191.61,161.30 196.55,165.96 197.34,166.70 197.63,166.96 200.24,169.40 206.49,175.19 207.52,176.13 207.66,176.26 209.42,177.87 211.13,179.43 212.39,180.58 212.95,181.09 213.94,181.98 216.80,184.57 217.95,185.61 220.05,187.49 221.96,189.20 224.58,191.54 225.23,192.11 225.26,192.14 225.48,192.33 229.54,195.92 231.95,198.04 239.30,204.43 241.20,206.07 246.58,210.68 255.39,218.12 262.30,223.87 262.35,223.91 265.66,226.64 268.04,228.60 282.59,240.33 284.48,241.83 285.24,242.43 285.53,242.66 290.49,246.57 290.83,246.83 290.88,246.88 303.52,256.65 304.68,257.54 312.78,263.68 312.85,263.73 342.78,285.58 349.40,290.25 368.35,303.28 386.23,315.16 386.84,315.56 394.74,320.67 416.66,334.47 417.34,334.89 420.75,336.98 429.63,342.37 455.04,357.28 477.19,369.71 517.80,391.17 547.18,405.70 595.63,427.95 601.05,430.31 655.54,452.76"/>
<text x="100.00" y="74.00" font-size="12" font-family="Arial, Helvetica, sans-serif" text-anchor="start" fill="#d84315">product fit</text>
<text x="385.00" y="532.00" font-size="14" font-family="Arial, Helvetica, sans-serif" text-anchor="middle" fill="#263238">Lambda * Gamma * Theta</text>
<text x="22.00" y="266.00" font-size="14" font-family="Arial, Helvetica, sans-serif" text-anchor="middle" fill="#263238" transform="rotate(-90 22.00 266.00)">visibility</text>
</svg>
