<svg xmlns="http://www.w3.org/2000/svg" width="920" height="520" viewBox="0 0 920 520">
<rect width="100%" height="100%" fill="#ffffff"/>
<text x="460.00" y="28.00" font-size="20" font-family="Arial, Helvetica, sans-serif" text-anchor="middle" fill="#17212b">Delayed-Choice Eraser: Timing Matters Only Through Irreversibility</text>
<rect x="82" y="54" width="810" height="384" fill="#fafafa" stroke="#cfd8dc"/>
<line x1="82.00" y1="54" x2="82.00" y2="438" stroke="#eceff1"/>
<text x="82.00" y="462.00" font-size="11" font-family="Arial, Helvetica, sans-serif" text-anchor="middle" fill="#263238">-0.025</text>
<line x1="244.00" y1="54" x2="244.00" y2="438" stroke="#eceff1"/>
<text x="244.00" y="462.00" font-size="11" font-family="Arial, Helvetica, sans-serif" text-anchor="middle" fill="#263238">0.23</text>
<line x1="406.00" y1="54" x2="406.00" y2="438" stroke="#eceff1"/>
<text x="406.00" y="462.00" font-size="11" font-family="Arial, Helvetica, sans-serif" text-anchor="middle" fill="#263238">0.49</text>
<line x1="568.00" y1="54" x2="568.00" y2="438" stroke="#eceff1"/>
<text x="568.00" y="462.00" font-size="11" font-family="Arial, Helvetica, sans-serif" text-anchor="middle" fill="#263238">0.75</text>
<line x1="730.00" y1="54" x2="730.00" y2="438" stroke="#eceff1"/>
<text x="730.00" y="462.00" font-size="11" font-family="Arial, Helvetica, sans-serif" text-anchor="middle" fill="#263238">1</text>
<line x1="892.00" y1="54" x2="892.00" y2="438" stroke="#eceff1"/>
<text x="892.00" y="462.00" font-size="11" font-family="Arial, Helvetica, sans-serif" text-anchor="middle" fill="#263238">1.3</text>
<line x1="82" y1="438.00" x2="892" y2="438.00" stroke="#eceff1"/>
<text x="72.00" y="442.00" font-size="11" font-family="Arial, Helvetica, sans-serif" text-anchor="end" fill="#263238">0</text>
<line x1="82" y1="361.20" x2="892" y2="361.20" stroke="#eceff1"/>
<text x="72.00" y="365.20" font-size="11" font-family="Arial, Helvetica, sans-serif" text-anchor="end" fill="#263238">0.21</text>
<line x1="82" y1="284.40" x2="892" y2="284.40" stroke="#eceff1"/>
<text x="72.00" y="288.40" font-size="11" font-family="Arial, Helvetica, sans-serif" text-anchor="end" fill="#263238">0.42</text>
<line x1="82" y1="207.60" x2="892" y2="207.60" stroke="#eceff1"/>
<text x="72.00" y="211.60" font-size="11" font-family="Arial, Helvetica, sans-serif" text-anchor="end" fill="#263238">0.63</text>
<line x1="82" y1="130.80" x2="892" y2="130.80" stroke="#eceff1"/>
<text x="72.00" y="134.80" font-size="11" font-family="Arial, Helvetica, sans-serif" text-anchor="end" fill="#263238">0.84</text>
<line x1="82" y1="54.00" x2="892" y2="54.00" stroke="#eceff1"/>
<text x="72.00" y="58.00" font-size="11" font-family="Arial, Helvetica, sans-serif" text-anchor="end" fill="#263238">1.1</text>
<line x1="247.12" y1="54" x2="247.12" y2="438" stroke="#455a64" stroke-width="1.8" stroke-dasharray="6 5"/>
<text x="253.12" y="70.00" font-size="11" font-family="Arial, Helvetica, sans-serif" text-anchor="start" fill="#455a64">record onset</text>
<line x1="720.65" y1="54" x2="720.65" y2="438" stroke="#6a1b9a" stroke-width="1.8" stroke-dasharray="6 5"/>
<text x="726.65" y="70.00" font-size="11" font-family="Arial, Helvetica, sans-serif" text-anchor="start" fill="#6a1b9a">screen</text>
<polyline fill="none" stroke="#00897b" stroke-width="2.5" points="97.58,72.29 103.18,72.29 108.78,72.29 114.39,72.29 119.99,72.29 125.59,72.29 131.20,72.29 136.80,72.29 142.40,72.29 148.01,72.29 153.61,72.29 159.21,72.29 164.82,72.29 170.42,72.29 176.02,72.29 181.63,72.29 187.23,72.29 192.83,72.29 198.43,72.29 204.04,72.29 209.64,72.29 215.24,72.29 220.85,72.29 226.45,72.29 232.05,72.29 237.66,72.29 243.26,72.29 248.86,72.29 254.47,72.31 260.07,72.37 265.67,72.47 271.28,72.59 276.88,72.74 282.48,72.92 288.09,73.12 293.69,73.36 299.29,73.61 304.90,73.89 310.50,74.20 316.10,74.52 321.71,74.87 327.31,75.24 332.91,75.62 338.51,76.03 344.12,76.45 349.72,76.89 355.32,77.35 360.93,77.82 366.53,78.31 372.13,78.81 377.74,79.33 383.34,79.86 388.94,80.40 394.55,80.96 400.15,81.52 405.75,82.10 411.36,82.69 416.96,83.28 422.56,83.89 428.17,84.51 433.77,85.14 439.37,85.77 444.98,86.41 450.58,87.06 456.18,87.72 461.79,88.38 467.39,89.05 472.99,89.73 478.60,90.41 484.20,91.10 489.80,91.79 495.40,92.49 501.01,93.19 506.61,93.90 512.21,94.61 517.82,95.33 523.42,96.05 529.02,96.77 534.63,97.50 540.23,98.23 545.83,98.96 551.44,99.69 557.04,100.43 562.64,101.17 568.25,101.91 573.85,102.66 579.45,103.40 585.06,104.15 590.66,104.90 596.26,105.65 601.87,106.41 607.47,107.16 613.07,107.91 618.68,108.67 624.28,109.43 629.88,110.18 635.49,110.94 641.09,111.70 646.69,112.46 652.29,113.22 657.90,113.97 663.50,114.73 669.10,115.49 674.71,116.25 680.31,117.01 685.91,117.77 691.52,118.53 697.12,119.29 702.72,120.05 708.33,120.81 713.93,121.56 719.53,122.32 725.14,122.47 730.74,122.47 736.34,122.47 741.95,122.47 747.55,122.47 753.15,122.47 758.76,122.47 764.36,122.47 769.96,122.47 775.57,122.47 781.17,122.47 786.77,122.47 792.37,122.47 797.98,122.47 803.58,122.47 809.18,122.47 814.79,122.47 820.39,122.47 825.99,122.47 831.60,122.47 837.20,122.47 842.80,122.47 848.41,122.47 854.01,122.47 859.61,122.47 865.22,122.47 870.82,122.47 876.42,122.47"/>
<polyline fill="none" stroke="#d84315" stroke-width="2.5" points="97.58,72.29 103.18,72.29 108.78,72.29 114.39,72.29 119.99,72.29 125.59,72.29 131.20,72.29 136.80,72.29 142.40,72.29 148.01,72.29 153.61,72.29 159.21,72.29 164.82,72.29 170.42,72.29 176.02,72.29 181.63,72.29 187.23,72.29 192.83,72.29 198.43,72.29 204.04,72.29 209.64,72.29 215.24,72.29 220.85,72.29 226.45,72.29 232.05,72.29 237.66,72.29 243.26,72.29 248.86,72.29 254.47,72.35 260.07,72.48 265.67,72.69 271.28,72.96 276.88,73.29 282.48,73.69 288.09,74.15 293.69,74.66 299.29,75.23 304.90,75.85 310.50,76.52 316.10,77.24 321.71,78.01 327.31,78.82 332.91,79.67 338.51,80.56 344.12,81.49 349.72,82.45 355.32,83.45 360.93,84.49 366.53,85.55 372.13,86.65 377.74,87.77 383.34,88.92 388.94,90.09 394.55,91.29 400.15,92.51 405.75,93.76 411.36,95.02 416.96,96.30 422.56,97.61 428.17,98.92 433.77,100.26 439.37,101.61 444.98,102.97 450.58,104.34 456.18,105.73 461.79,107.13 467.39,108.54 472.99,109.96 478.60,111.39 484.20,112.82 489.80,114.27 495.40,115.72 501.01,117.18 506.61,118.64 512.21,120.11 517.82,121.58 523.42,123.06 529.02,124.53 534.63,126.02 540.23,127.50 545.83,128.99 551.44,130.48 557.04,131.97 562.64,133.46 568.25,134.95 573.85,136.44 579.45,137.93 585.06,139.42 590.66,140.91 596.26,142.40 601.87,143.88 607.47,145.37 613.07,146.85 618.68,148.33 624.28,149.81 629.88,151.28 635.49,152.76 641.09,154.23 646.69,155.69 652.29,157.15 657.90,158.61 663.50,160.07 669.10,161.52 674.71,162.96 680.31,164.40 685.91,165.84 691.52,167.28 697.12,168.70 702.72,170.13 708.33,171.55 713.93,172.96 719.53,174.37 725.14,174.65 730.74,174.65 736.34,174.65 741.95,174.65 747.55,174.65 753.15,174.65 758.76,174.65 764.36,174.65 769.96,174.65 775.57,174.65 781.17,174.65 786.77,174.65 792.37,174.65 797.98,174.65 803.58,174.65 809.18,174.65 814.79,174.65 820.39,174.65 825.99,174.65 831.60,174.65 837.20,174.65 842.80,174.65 848.41,174.65 854.01,174.65 859.61,174.65 865.22,174.65 870.82,174.65 876.42,174.65"/>
<line x1="94" y1="72" x2="122" y2="72" stroke="#00897b" stroke-width="3"/>
<text x="130.00" y="76.00" font-size="12" font-family="Arial, Helvetica, sans-serif" text-anchor="start" fill="#263238">weak irreversible record</text>
<line x1="94" y1="94" x2="122" y2="94" stroke="#d84315" stroke-width="3"/>
<text x="130.00" y="98.00" font-size="12" font-family="Arial, Helvetica, sans-serif" text-anchor="start" fill="#263238">strong irreversible record</text>
<text x="487.00" y="492.00" font-size="14" font-family="Arial, Helvetica, sans-serif" text-anchor="middle" fill="#263238">eraser time</text>
<text x="22.00" y="246.00" font-size="14" font-family="Arial, Helvetica, sans-serif" text-anchor="middle" fill="#263238" transform="rotate(-90 22.00 246.00)">optimal conditioned visibility</text>
</svg>
