<svg xmlns="http://www.w3.org/2000/svg" width="720" height="560" viewBox="0 0 720 560">
<rect width="100%" height="100%" fill="#ffffff"/>
<text x="360.00" y="28.00" font-size="20" font-family="Arial, Helvetica, sans-serif" text-anchor="middle" fill="#17212b">Observed vs Predicted Visibility (product)</text>
<rect x="82" y="54" width="606" height="424" fill="#fafafa" stroke="#cfd8dc"/>
<line x1="82.00" y1="54" x2="82.00" y2="478" stroke="#eceff1"/>
<text x="82.00" y="502.00" font-size="11" font-family="Arial, Helvetica, sans-serif" text-anchor="middle" fill="#263238">0.11</text>
<line x1="203.20" y1="54" x2="203.20" y2="478" stroke="#eceff1"/>
<text x="203.20" y="502.00" font-size="11" font-family="Arial, Helvetica, sans-serif" text-anchor="middle" fill="#263238">0.17</text>
<line x1="324.40" y1="54" x2="324.40" y2="478" stroke="#eceff1"/>
<text x="324.40" y="502.00" font-size="11" font-family="Arial, Helvetica, sans-serif" text-anchor="middle" fill="#263238">0.22</text>
<line x1="445.60" y1="54" x2="445.60" y2="478" stroke="#eceff1"/>
<text x="445.60" y="502.00" font-size="11" font-family="Arial, Helvetica, sans-serif" text-anchor="middle" fill="#263238">0.27</text>
<line x1="566.80" y1="54" x2="566.80" y2="478" stroke="#eceff1"/>
<text x="566.80" y="502.00" font-size="11" font-family="Arial, Helvetica, sans-serif" text-anchor="middle" fill="#263238">0.33</text>
<line x1="688.00" y1="54" x2="688.00" y2="478" stroke="#eceff1"/>
<text x="688.00" y="502.00" font-size="11" font-family="Arial, Helvetica, sans-serif" text-anchor="middle" fill="#263238">0.38</text>
<line x1="82" y1="478.00" x2="688" y2="478.00" stroke="#eceff1"/>
<text x="72.00" y="482.00" font-size="11" font-family="Arial, Helvetica, sans-serif" text-anchor="end" fill="#263238">0.11</text>
<line x1="82" y1="393.20" x2="688" y2="393.20" stroke="#eceff1"/>
<text x="72.00" y="397.20" font-size="11" font-family="Arial, Helvetica, sans-serif" text-anchor="end" fill="#263238">0.17</text>
<line x1="82" y1="308.40" x2="688" y2="308.40" stroke="#eceff1"/>
<text x="72.00" y="312.40" font-size="11" font-family="Arial, Helvetica, sans-serif" text-anchor="end" fill="#263238">0.22</text>
<line x1="82" y1="223.60" x2="688" y2="223.60" stroke="#eceff1"/>
<text x="72.00" y="227.60" font-size="11" font-family="Arial, Helvetica, sans-serif" text-anchor="end" fill="#263238">0.27</text>
<line x1="82" y1="138.80" x2="688" y2="138.80" stroke="#eceff1"/>
<text x="72.00" y="142.80" font-size="11" font-family="Arial, Helvetica, sans-serif" text-anchor="end" fill="#263238">0.33</text>
<line x1="82" y1="54.00" x2="688" y2="54.00" stroke="#eceff1"/>
<text x="72.00" y="58.00" font-size="11" font-family="Arial, Helvetica, sans-serif" text-anchor="end" fill="#263238">0.38</text>
<circle cx="647.01" cy="82.68" r="3.4" fill="#2962ff" fill-opacity="0.62"/>
<circle cx="420.61" cy="242.43" r="3.4" fill="#2962ff" fill-opacity="0.62"/>
<circle cx="286.68" cy="334.47" r="3.4" fill="#2962ff" fill-opacity="0.62"/>
<circle cx="202.92" cy="391.17" r="3.4" fill="#2962ff" fill-opacity="0.62"/>
<circle cx="152.36" cy="427.95" r="3.4" fill="#2962ff" fill-opacity="0.62"/>
<circle cx="114.46" cy="452.76" r="3.4" fill="#2962ff" fill-opacity="0.62"/>
<circle cx="647.28" cy="82.68" r="3.4" fill="#2962ff" fill-opacity="0.62"/>
<circle cx="445.07" cy="228.60" r="3.4" fill="#2962ff" fill-opacity="0.62"/>
<circle cx="313.25" cy="315.16" r="3.4" fill="#2962ff" fill-opacity="0.62"/>
<circle cx="234.80" cy="369.71" r="3.4" fill="#2962ff" fill-opacity="0.62"/>
<circle cx="188.44" cy="405.70" r="3.4" fill="#2962ff" fill-opacity="0.62"/>
<circle cx="152.67" cy="430.31" r="3.4" fill="#2962ff" fill-opacity="0.62"/>
<circle cx="647.48" cy="82.68" r="3.4" fill="#2962ff" fill-opacity="0.62"/>
<circle cx="501.24" cy="181.98" r="3.4" fill="#2962ff" fill-opacity="0.62"/>
<circle cx="413.22" cy="246.57" r="3.4" fill="#2962ff" fill-opacity="0.62"/>
<circle cx="354.20" cy="290.25" r="3.4" fill="#2962ff" fill-opacity="0.62"/>
<circle cx="301.51" cy="320.67" r="3.4" fill="#2962ff" fill-opacity="0.62"/>
<circle cx="274.57" cy="342.37" r="3.4" fill="#2962ff" fill-opacity="0.62"/>
<circle cx="638.38" cy="82.68" r="3.4" fill="#2962ff" fill-opacity="0.62"/>
<circle cx="549.00" cy="147.34" r="3.4" fill="#2962ff" fill-opacity="0.62"/>
<circle cx="482.66" cy="192.11" r="3.4" fill="#2962ff" fill-opacity="0.62"/>
<circle cx="444.66" cy="223.87" r="3.4" fill="#2962ff" fill-opacity="0.62"/>
<circle cx="407.22" cy="246.83" r="3.4" fill="#2962ff" fill-opacity="0.62"/>
<circle cx="390.18" cy="263.68" r="3.4" fill="#2962ff" fill-opacity="0.62"/>
<circle cx="647.72" cy="82.68" r="3.4" fill="#2962ff" fill-opacity="0.62"/>
<circle cx="583.55" cy="126.61" r="3.4" fill="#2962ff" fill-opacity="0.62"/>
<circle cx="528.06" cy="158.12" r="3.4" fill="#2962ff" fill-opacity="0.62"/>
<circle cx="504.29" cy="181.09" r="3.4" fill="#2962ff" fill-opacity="0.62"/>
<circle cx="482.34" cy="198.04" r="3.4" fill="#2962ff" fill-opacity="0.62"/>
<circle cx="465.05" cy="210.68" r="3.4" fill="#2962ff" fill-opacity="0.62"/>
<circle cx="640.06" cy="82.68" r="3.4" fill="#2962ff" fill-opacity="0.62"/>
<circle cx="600.16" cy="114.03" r="3.4" fill="#2962ff" fill-opacity="0.62"/>
<circle cx="565.17" cy="136.98" r="3.4" fill="#2962ff" fill-opacity="0.62"/>
<circle cx="541.70" cy="153.99" r="3.4" fill="#2962ff" fill-opacity="0.62"/>
<circle cx="532.07" cy="166.70" r="3.4" fill="#2962ff" fill-opacity="0.62"/>
<circle cx="509.96" cy="176.26" r="3.4" fill="#2962ff" fill-opacity="0.62"/>
<circle cx="646.86" cy="82.68" r="3.4" fill="#2962ff" fill-opacity="0.62"/>
<circle cx="499.19" cy="189.20" r="3.4" fill="#2962ff" fill-opacity="0.62"/>
<circle cx="395.05" cy="257.54" r="3.4" fill="#2962ff" fill-opacity="0.62"/>
<circle cx="331.93" cy="303.28" r="3.4" fill="#2962ff" fill-opacity="0.62"/>
<circle cx="287.83" cy="334.89" r="3.4" fill="#2962ff" fill-opacity="0.62"/>
<circle cx="255.64" cy="357.28" r="3.4" fill="#2962ff" fill-opacity="0.62"/>
<circle cx="641.44" cy="82.68" r="3.4" fill="#2962ff" fill-opacity="0.62"/>
<circle cx="509.44" cy="179.43" r="3.4" fill="#2962ff" fill-opacity="0.62"/>
<circle cx="425.09" cy="242.66" r="3.4" fill="#2962ff" fill-opacity="0.62"/>
<circle cx="350.68" cy="285.58" r="3.4" fill="#2962ff" fill-opacity="0.62"/>
<circle cx="318.81" cy="315.56" r="3.4" fill="#2962ff" fill-opacity="0.62"/>
<circle cx="284.88" cy="336.98" r="3.4" fill="#2962ff" fill-opacity="0.62"/>
<circle cx="644.09" cy="82.68" r="3.4" fill="#2962ff" fill-opacity="0.62"/>
<circle cx="563.90" cy="147.36" r="3.4" fill="#2962ff" fill-opacity="0.62"/>
<circle cx="494.43" cy="192.14" r="3.4" fill="#2962ff" fill-opacity="0.62"/>
<circle cx="440.22" cy="223.91" r="3.4" fill="#2962ff" fill-opacity="0.62"/>
<circle cx="413.25" cy="246.88" r="3.4" fill="#2962ff" fill-opacity="0.62"/>
<circle cx="391.50" cy="263.73" r="3.4" fill="#2962ff" fill-opacity="0.62"/>
<circle cx="646.15" cy="82.68" r="3.4" fill="#2962ff" fill-opacity="0.62"/>
<circle cx="590.83" cy="124.28" r="3.4" fill="#2962ff" fill-opacity="0.62"/>
<circle cx="544.73" cy="154.23" r="3.4" fill="#2962ff" fill-opacity="0.62"/>
<circle cx="516.84" cy="176.13" r="3.4" fill="#2962ff" fill-opacity="0.62"/>
<circle cx="497.24" cy="192.33" r="3.4" fill="#2962ff" fill-opacity="0.62"/>
<circle cx="470.39" cy="204.43" r="3.4" fill="#2962ff" fill-opacity="0.62"/>
<circle cx="647.93" cy="82.68" r="3.4" fill="#2962ff" fill-opacity="0.62"/>
<circle cx="604.92" cy="110.74" r="3.4" fill="#2962ff" fill-opacity="0.62"/>
<circle cx="578.16" cy="131.39" r="3.4" fill="#2962ff" fill-opacity="0.62"/>
<circle cx="550.29" cy="146.76" r="3.4" fill="#2962ff" fill-opacity="0.62"/>
<circle cx="536.63" cy="158.27" r="3.4" fill="#2962ff" fill-opacity="0.62"/>
<circle cx="525.99" cy="166.96" r="3.4" fill="#2962ff" fill-opacity="0.62"/>
<circle cx="651.09" cy="82.68" r="3.4" fill="#2962ff" fill-opacity="0.62"/>
<circle cx="623.79" cy="102.62" r="3.4" fill="#2962ff" fill-opacity="0.62"/>
<circle cx="591.39" cy="117.49" r="3.4" fill="#2962ff" fill-opacity="0.62"/>
<circle cx="577.87" cy="128.66" r="3.4" fill="#2962ff" fill-opacity="0.62"/>
<circle cx="572.38" cy="137.10" r="3.4" fill="#2962ff" fill-opacity="0.62"/>
<circle cx="551.27" cy="143.50" r="3.4" fill="#2962ff" fill-opacity="0.62"/>
<circle cx="644.90" cy="82.68" r="3.4" fill="#2962ff" fill-opacity="0.62"/>
<circle cx="558.47" cy="144.49" r="3.4" fill="#2962ff" fill-opacity="0.62"/>
<circle cx="503.31" cy="187.49" r="3.4" fill="#2962ff" fill-opacity="0.62"/>
<circle cx="457.05" cy="218.12" r="3.4" fill="#2962ff" fill-opacity="0.62"/>
<circle cx="420.77" cy="240.33" r="3.4" fill="#2962ff" fill-opacity="0.62"/>
<circle cx="397.29" cy="256.65" r="3.4" fill="#2962ff" fill-opacity="0.62"/>
<circle cx="645.87" cy="82.68" r="3.4" fill="#2962ff" fill-opacity="0.62"/>
<circle cx="574.26" cy="138.58" r="3.4" fill="#2962ff" fill-opacity="0.62"/>
<circle cx="509.38" cy="177.87" r="3.4" fill="#2962ff" fill-opacity="0.62"/>
<circle cx="469.73" cy="206.07" r="3.4" fill="#2962ff" fill-opacity="0.62"/>
<circle cx="443.37" cy="226.64" r="3.4" fill="#2962ff" fill-opacity="0.62"/>
<circle cx="419.56" cy="241.83" r="3.4" fill="#2962ff" fill-opacity="0.62"/>
<circle cx="646.11" cy="82.68" r="3.4" fill="#2962ff" fill-opacity="0.62"/>
<circle cx="589.43" cy="119.53" r="3.4" fill="#2962ff" fill-opacity="0.62"/>
<circle cx="556.31" cy="146.28" r="3.4" fill="#2962ff" fill-opacity="0.62"/>
<circle cx="526.30" cy="165.96" r="3.4" fill="#2962ff" fill-opacity="0.62"/>
<circle cx="512.75" cy="180.58" r="3.4" fill="#2962ff" fill-opacity="0.62"/>
<circle cx="494.80" cy="191.54" r="3.4" fill="#2962ff" fill-opacity="0.62"/>
<circle cx="646.90" cy="82.68" r="3.4" fill="#2962ff" fill-opacity="0.62"/>
<circle cx="616.59" cy="106.16" r="3.4" fill="#2962ff" fill-opacity="0.62"/>
<circle cx="587.20" cy="123.57" r="3.4" fill="#2962ff" fill-opacity="0.62"/>
<circle cx="574.95" cy="136.59" r="3.4" fill="#2962ff" fill-opacity="0.62"/>
<circle cx="556.17" cy="146.40" r="3.4" fill="#2962ff" fill-opacity="0.62"/>
<circle cx="548.27" cy="153.82" r="3.4" fill="#2962ff" fill-opacity="0.62"/>
<circle cx="641.15" cy="82.68" r="3.4" fill="#2962ff" fill-opacity="0.62"/>
<circle cx="626.14" cy="98.43" r="3.4" fill="#2962ff" fill-opacity="0.62"/>
<circle cx="600.05" cy="110.25" r="3.4" fill="#2962ff" fill-opacity="0.62"/>
<circle cx="585.75" cy="119.18" r="3.4" fill="#2962ff" fill-opacity="0.62"/>
<circle cx="583.95" cy="125.95" r="3.4" fill="#2962ff" fill-opacity="0.62"/>
<circle cx="573.91" cy="131.11" r="3.4" fill="#2962ff" fill-opacity="0.62"/>
<circle cx="647.75" cy="82.68" r="3.4" fill="#2962ff" fill-opacity="0.62"/>
<circle cx="641.30" cy="93.83" r="3.4" fill="#2962ff" fill-opacity="0.62"/>
<circle cx="615.32" cy="102.27" r="3.4" fill="#2962ff" fill-opacity="0.62"/>
<circle cx="607.13" cy="108.68" r="3.4" fill="#2962ff" fill-opacity="0.62"/>
<circle cx="603.94" cy="113.56" r="3.4" fill="#2962ff" fill-opacity="0.62"/>
<circle cx="599.94" cy="117.28" r="3.4" fill="#2962ff" fill-opacity="0.62"/>
<circle cx="646.21" cy="82.68" r="3.4" fill="#2962ff" fill-opacity="0.62"/>
<circle cx="591.27" cy="121.14" r="3.4" fill="#2962ff" fill-opacity="0.62"/>
<circle cx="555.72" cy="148.97" r="3.4" fill="#2962ff" fill-opacity="0.62"/>
<circle cx="525.76" cy="169.40" r="3.4" fill="#2962ff" fill-opacity="0.62"/>
<circle cx="497.08" cy="184.57" r="3.4" fill="#2962ff" fill-opacity="0.62"/>
<circle cx="485.23" cy="195.92" r="3.4" fill="#2962ff" fill-opacity="0.62"/>
<circle cx="647.17" cy="82.68" r="3.4" fill="#2962ff" fill-opacity="0.62"/>
<circle cx="592.77" cy="117.38" r="3.4" fill="#2962ff" fill-opacity="0.62"/>
<circle cx="562.71" cy="142.66" r="3.4" fill="#2962ff" fill-opacity="0.62"/>
<circle cx="531.06" cy="161.30" r="3.4" fill="#2962ff" fill-opacity="0.62"/>
<circle cx="519.57" cy="175.19" r="3.4" fill="#2962ff" fill-opacity="0.62"/>
<circle cx="501.17" cy="185.61" r="3.4" fill="#2962ff" fill-opacity="0.62"/>
<circle cx="647.41" cy="82.68" r="3.4" fill="#2962ff" fill-opacity="0.62"/>
<circle cx="611.94" cy="105.40" r="3.4" fill="#2962ff" fill-opacity="0.62"/>
<circle cx="590.04" cy="122.28" r="3.4" fill="#2962ff" fill-opacity="0.62"/>
<circle cx="563.50" cy="134.91" r="3.4" fill="#2962ff" fill-opacity="0.62"/>
<circle cx="553.86" cy="144.43" r="3.4" fill="#2962ff" fill-opacity="0.62"/>
<circle cx="550.37" cy="151.64" r="3.4" fill="#2962ff" fill-opacity="0.62"/>
<circle cx="637.34" cy="82.68" r="3.4" fill="#2962ff" fill-opacity="0.62"/>
<circle cx="630.32" cy="97.09" r="3.4" fill="#2962ff" fill-opacity="0.62"/>
<circle cx="603.11" cy="107.92" r="3.4" fill="#2962ff" fill-opacity="0.62"/>
<circle cx="602.78" cy="116.12" r="3.4" fill="#2962ff" fill-opacity="0.62"/>
<circle cx="586.63" cy="122.35" r="3.4" fill="#2962ff" fill-opacity="0.62"/>
<circle cx="587.25" cy="127.09" r="3.4" fill="#2962ff" fill-opacity="0.62"/>
<circle cx="647.60" cy="82.68" r="3.4" fill="#2962ff" fill-opacity="0.62"/>
<circle cx="626.30" cy="92.32" r="3.4" fill="#2962ff" fill-opacity="0.62"/>
<circle cx="628.53" cy="99.62" r="3.4" fill="#2962ff" fill-opacity="0.62"/>
<circle cx="621.49" cy="105.18" r="3.4" fill="#2962ff" fill-opacity="0.62"/>
<circle cx="608.60" cy="109.42" r="3.4" fill="#2962ff" fill-opacity="0.62"/>
<circle cx="603.04" cy="112.66" r="3.4" fill="#2962ff" fill-opacity="0.62"/>
<circle cx="646.28" cy="82.68" r="3.4" fill="#2962ff" fill-opacity="0.62"/>
<circle cx="632.87" cy="89.50" r="3.4" fill="#2962ff" fill-opacity="0.62"/>
<circle cx="634.89" cy="94.69" r="3.4" fill="#2962ff" fill-opacity="0.62"/>
<circle cx="621.79" cy="98.65" r="3.4" fill="#2962ff" fill-opacity="0.62"/>
<circle cx="619.70" cy="101.68" r="3.4" fill="#2962ff" fill-opacity="0.62"/>
<circle cx="613.03" cy="104.00" r="3.4" fill="#2962ff" fill-opacity="0.62"/>
<circle cx="644.16" cy="82.68" r="3.4" fill="#2962ff" fill-opacity="0.62"/>
<circle cx="604.43" cy="108.49" r="3.4" fill="#2962ff" fill-opacity="0.62"/>
<circle cx="588.76" cy="127.55" r="3.4" fill="#2962ff" fill-opacity="0.62"/>
<circle cx="562.09" cy="141.77" r="3.4" fill="#2962ff" fill-opacity="0.62"/>
<circle cx="551.94" cy="152.46" r="3.4" fill="#2962ff" fill-opacity="0.62"/>
<circle cx="536.11" cy="160.53" r="3.4" fill="#2962ff" fill-opacity="0.62"/>
<circle cx="643.85" cy="82.68" r="3.4" fill="#2962ff" fill-opacity="0.62"/>
<circle cx="612.38" cy="105.94" r="3.4" fill="#2962ff" fill-opacity="0.62"/>
<circle cx="586.72" cy="123.20" r="3.4" fill="#2962ff" fill-opacity="0.62"/>
<circle cx="570.90" cy="136.11" r="3.4" fill="#2962ff" fill-opacity="0.62"/>
<circle cx="555.29" cy="145.83" r="3.4" fill="#2962ff" fill-opacity="0.62"/>
<circle cx="545.14" cy="153.19" r="3.4" fill="#2962ff" fill-opacity="0.62"/>
<circle cx="640.75" cy="82.68" r="3.4" fill="#2962ff" fill-opacity="0.62"/>
<circle cx="621.72" cy="97.86" r="3.4" fill="#2962ff" fill-opacity="0.62"/>
<circle cx="616.64" cy="109.26" r="3.4" fill="#2962ff" fill-opacity="0.62"/>
<circle cx="593.80" cy="117.88" r="3.4" fill="#2962ff" fill-opacity="0.62"/>
<circle cx="582.74" cy="124.42" r="3.4" fill="#2962ff" fill-opacity="0.62"/>
<circle cx="581.96" cy="129.40" r="3.4" fill="#2962ff" fill-opacity="0.62"/>
<circle cx="653.39" cy="82.68" r="3.4" fill="#2962ff" fill-opacity="0.62"/>
<circle cx="626.73" cy="92.28" r="3.4" fill="#2962ff" fill-opacity="0.62"/>
<circle cx="622.02" cy="99.55" r="3.4" fill="#2962ff" fill-opacity="0.62"/>
<circle cx="612.21" cy="105.09" r="3.4" fill="#2962ff" fill-opacity="0.62"/>
<circle cx="601.06" cy="109.31" r="3.4" fill="#2962ff" fill-opacity="0.62"/>
<circle cx="607.79" cy="112.54" r="3.4" fill="#2962ff" fill-opacity="0.62"/>
<circle cx="646.90" cy="82.68" r="3.4" fill="#2962ff" fill-opacity="0.62"/>
<circle cx="638.20" cy="89.09" r="3.4" fill="#2962ff" fill-opacity="0.62"/>
<circle cx="627.50" cy="93.98" r="3.4" fill="#2962ff" fill-opacity="0.62"/>
<circle cx="627.66" cy="97.71" r="3.4" fill="#2962ff" fill-opacity="0.62"/>
<circle cx="619.08" cy="100.56" r="3.4" fill="#2962ff" fill-opacity="0.62"/>
<circle cx="617.76" cy="102.75" r="3.4" fill="#2962ff" fill-opacity="0.62"/>
<circle cx="641.98" cy="82.68" r="3.4" fill="#2962ff" fill-opacity="0.62"/>
<circle cx="635.03" cy="87.21" r="3.4" fill="#2962ff" fill-opacity="0.62"/>
<circle cx="641.68" cy="90.67" r="3.4" fill="#2962ff" fill-opacity="0.62"/>
<circle cx="629.54" cy="93.32" r="3.4" fill="#2962ff" fill-opacity="0.62"/>
<circle cx="630.27" cy="95.35" r="3.4" fill="#2962ff" fill-opacity="0.62"/>
<circle cx="626.58" cy="96.91" r="3.4" fill="#2962ff" fill-opacity="0.62"/>
<circle cx="645.00" cy="82.68" r="3.4" fill="#2962ff" fill-opacity="0.62"/>
<circle cx="618.50" cy="101.06" r="3.4" fill="#2962ff" fill-opacity="0.62"/>
<circle cx="604.08" cy="114.81" r="3.4" fill="#2962ff" fill-opacity="0.62"/>
<circle cx="585.10" cy="125.16" r="3.4" fill="#2962ff" fill-opacity="0.62"/>
<circle cx="574.63" cy="132.99" r="3.4" fill="#2962ff" fill-opacity="0.62"/>
<circle cx="566.94" cy="138.93" r="3.4" fill="#2962ff" fill-opacity="0.62"/>
<circle cx="652.35" cy="82.68" r="3.4" fill="#2962ff" fill-opacity="0.62"/>
<circle cx="626.50" cy="99.24" r="3.4" fill="#2962ff" fill-opacity="0.62"/>
<circle cx="607.45" cy="111.66" r="3.4" fill="#2962ff" fill-opacity="0.62"/>
<circle cx="589.80" cy="121.03" r="3.4" fill="#2962ff" fill-opacity="0.62"/>
<circle cx="575.97" cy="128.13" r="3.4" fill="#2962ff" fill-opacity="0.62"/>
<circle cx="578.85" cy="133.53" r="3.4" fill="#2962ff" fill-opacity="0.62"/>
<circle cx="651.39" cy="82.68" r="3.4" fill="#2962ff" fill-opacity="0.62"/>
<circle cx="631.01" cy="93.46" r="3.4" fill="#2962ff" fill-opacity="0.62"/>
<circle cx="622.48" cy="101.62" r="3.4" fill="#2962ff" fill-opacity="0.62"/>
<circle cx="614.73" cy="107.82" r="3.4" fill="#2962ff" fill-opacity="0.62"/>
<circle cx="608.23" cy="112.54" r="3.4" fill="#2962ff" fill-opacity="0.62"/>
<circle cx="603.49" cy="116.15" r="3.4" fill="#2962ff" fill-opacity="0.62"/>
<circle cx="644.94" cy="82.68" r="3.4" fill="#2962ff" fill-opacity="0.62"/>
<circle cx="644.18" cy="89.49" r="3.4" fill="#2962ff" fill-opacity="0.62"/>
<circle cx="624.26" cy="94.67" r="3.4" fill="#2962ff" fill-opacity="0.62"/>
<circle cx="628.19" cy="98.63" r="3.4" fill="#2962ff" fill-opacity="0.62"/>
<circle cx="622.21" cy="101.66" r="3.4" fill="#2962ff" fill-opacity="0.62"/>
<circle cx="620.63" cy="103.97" r="3.4" fill="#2962ff" fill-opacity="0.62"/>
<circle cx="655.54" cy="82.68" r="3.4" fill="#2962ff" fill-opacity="0.62"/>
<circle cx="647.27" cy="87.23" r="3.4" fill="#2962ff" fill-opacity="0.62"/>
<circle cx="630.38" cy="90.70" r="3.4" fill="#2962ff" fill-opacity="0.62"/>
<circle cx="624.13" cy="93.36" r="3.4" fill="#2962ff" fill-opacity="0.62"/>
<circle cx="632.60" cy="95.39" r="3.4" fill="#2962ff" fill-opacity="0.62"/>
<circle cx="622.06" cy="96.96" r="3.4" fill="#2962ff" fill-opacity="0.62"/>
<circle cx="646.95" cy="82.68" r="3.4" fill="#2962ff" fill-opacity="0.62"/>
<circle cx="646.25" cy="85.89" r="3.4" fill="#2962ff" fill-opacity="0.62"/>
<circle cx="631.47" cy="88.35" r="3.4" fill="#2962ff" fill-opacity="0.62"/>
<circle cx="626.67" cy="90.23" r="3.4" fill="#2962ff" fill-opacity="0.62"/>
<circle cx="635.36" cy="91.68" r="3.4" fill="#2962ff" fill-opacity="0.62"/>
<circle cx="632.81" cy="92.79" r="3.4" fill="#2962ff" fill-opacity="0.62"/>
<line x1="82" y1="478" x2="688" y2="54" stroke="#455a64" stroke-width="2"/>
<text x="385.00" y="532.00" font-size="14" font-family="Arial, Helvetica, sans-serif" text-anchor="middle" fill="#263238">observed visibility</text>
<text x="22.00" y="266.00" font-size="14" font-family="Arial, Helvetica, sans-serif" text-anchor="middle" fill="#263238" transform="rotate(-90 22.00 266.00)">predicted visibility</text>
</svg>
