<svg xmlns="http://www.w3.org/2000/svg" width="920" height="520" viewBox="0 0 920 520">
<rect width="100%" height="100%" fill="#ffffff"/>
<text x="460.00" y="28.00" font-size="20" font-family="Arial, Helvetica, sans-serif" text-anchor="middle" fill="#17212b">Delayed-Choice Eraser: Timing Matters Only Through Irreversibility</text>
<rect x="82" y="54" width="810" height="384" fill="#fafafa" stroke="#cfd8dc"/>
<line x1="82.00" y1="54" x2="82.00" y2="438" stroke="#eceff1"/>
<text x="82.00" y="462.00" font-size="11" font-family="Arial, Helvetica, sans-serif" text-anchor="middle" fill="#263238">-0.025</text>
<line x1="244.00" y1="54" x2="244.00" y2="438" stroke="#eceff1"/>
<text x="244.00" y="462.00" font-size="11" font-family="Arial, Helvetica, sans-serif" text-anchor="middle" fill="#263238">0.23</text>
<line x1="406.00" y1="54" x2="406.00" y2="438" stroke="#eceff1"/>
<text x="406.00" y="462.00" font-size="11" font-family="Arial, Helvetica, sans-serif" text-anchor="middle" fill="#263238">0.49</text>
<line x1="568.00" y1="54" x2="568.00" y2="438" stroke="#eceff1"/>
<text x="568.00" y="462.00" font-size="11" font-family="Arial, Helvetica, sans-serif" text-anchor="middle" fill="#263238">0.75</text>
<line x1="730.00" y1="54" x2="730.00" y2="438" stroke="#eceff1"/>
<text x="730.00" y="462.00" font-size="11" font-family="Arial, Helvetica, sans-serif" text-anchor="middle" fill="#263238">1</text>
<line x1="892.00" y1="54" x2="892.00" y2="438" stroke="#eceff1"/>
<text x="892.00" y="462.00" font-size="11" font-family="Arial, Helvetica, sans-serif" text-anchor="middle" fill="#263238">1.3</text>
<line x1="82" y1="438.00" x2="892" y2="438.00" stroke="#eceff1"/>
<text x="72.00" y="442.00" font-size="11" font-family="Arial, Helvetica, sans-serif" text-anchor="end" fill="#263238">0</text>
<line x1="82" y1="361.20" x2="892" y2="361.20" stroke="#eceff1"/>
<text x="72.00" y="365.20" font-size="11" font-family="Arial, Helvetica, sans-serif" text-anchor="end" fill="#263238">0.21</text>
<line x1="82" y1="284.40" x2="892" y2="284.40" stroke="#eceff1"/>
<text x="72.00" y="288.40" font-size="11" font-family="Arial, Helvetica, sans-serif" text-anchor="end" fill="#263238">0.42</text>
<line x1="82" y1="207.60" x2="892" y2="207.60" stroke="#eceff1"/>
<text x="72.00" y="211.60" font-size="11" font-family="Arial, Helvetica, sans-serif" text-anchor="end" fill="#263238">0.63</text>
<line x1="82" y1="130.80" x2="892" y2="130.80" stroke="#eceff1"/>
<text x="72.00" y="134.80" font-size="11" font-family="Arial, Helvetica, sans-serif" text-anchor="end" fill="#263238">0.84</text>
<line x1="82" y1="54.00" x2="892" y2="54.00" stroke="#eceff1"/>
<text x="72.00" y="58.00" font-size="11" font-family="Arial, Helvetica, sans-serif" text-anchor="end" fill="#263238">1.1</text>
<line x1="247.12" y1="54" x2="247.12" y2="438" stroke="#455a64" stroke-width="1.8" stroke-dasharray="6 5"/>
<text x="253.12" y="70.00" font-size="11" font-family="Arial, Helvetica, sans-serif" text-anchor="start" fill="#455a64">record onset</text>
<line x1="720.65" y1="54" x2="720.65" y2="438" stroke="#6a1b9a" stroke-width="1.8" stroke-dasharray="6 5"/>
<text x="726.65" y="70.00" font-size="11" font-family="Arial, Helvetica, sans-serif" text-anchor="start" fill="#6a1b9a">screen</text>
<polyline fill="none" stroke="#00897b" stroke-width="2.5" points="97.58,84.13 103.18,84.13 108.78,84.13 114.39,84.13 119.99,84.13 125.59,84.13 131.20,84.13 136.80,84.13 142.40,84.13 148.01,84.13 153.61,84.13 159.21,84.13 164.82,84.13 170.42,84.13 176.02,84.13 181.63,84.13 187.23,84.13 192.83,84.13 198.43,84.13 204.04,84.13 209.64,84.13 215.24,84.13 220.85,84.13 226.45,84.13 232.05,84.13 237.66,84.13 243.26,84.13 248.86,84.13 254.47,84.16 260.07,84.22 265.67,84.31 271.28,84.43 276.88,84.57 282.48,84.74 288.09,84.94 293.69,85.17 299.29,85.42 304.90,85.69 310.50,85.98 316.10,86.30 321.71,86.63 327.31,86.99 332.91,87.36 338.51,87.75 344.12,88.16 349.72,88.59 355.32,89.03 360.93,89.49 366.53,89.96 372.13,90.45 377.74,90.95 383.34,91.46 388.94,91.98 394.55,92.52 400.15,93.07 405.75,93.63 411.36,94.20 416.96,94.78 422.56,95.36 428.17,95.96 433.77,96.57 439.37,97.18 444.98,97.80 450.58,98.43 456.18,99.06 461.79,99.71 467.39,100.36 472.99,101.01 478.60,101.67 484.20,102.34 489.80,103.01 495.40,103.68 501.01,104.36 506.61,105.05 512.21,105.74 517.82,106.43 523.42,107.13 529.02,107.82 534.63,108.53 540.23,109.23 545.83,109.94 551.44,110.65 557.04,111.37 562.64,112.08 568.25,112.80 573.85,113.52 579.45,114.24 585.06,114.97 590.66,115.69 596.26,116.42 601.87,117.15 607.47,117.88 613.07,118.61 618.68,119.34 624.28,120.07 629.88,120.80 635.49,121.53 641.09,122.27 646.69,123.00 652.29,123.74 657.90,124.47 663.50,125.21 669.10,125.94 674.71,126.68 680.31,127.41 685.91,128.15 691.52,128.88 697.12,129.61 702.72,130.35 708.33,131.08 713.93,131.82 719.53,132.55 725.14,132.69 730.74,132.69 736.34,132.69 741.95,132.69 747.55,132.69 753.15,132.69 758.76,132.69 764.36,132.69 769.96,132.69 775.57,132.69 781.17,132.69 786.77,132.69 792.37,132.69 797.98,132.69 803.58,132.69 809.18,132.69 814.79,132.69 820.39,132.69 825.99,132.69 831.60,132.69 837.20,132.69 842.80,132.69 848.41,132.69 854.01,132.69 859.61,132.69 865.22,132.69 870.82,132.69 876.42,132.69"/>
<polyline fill="none" stroke="#d84315" stroke-width="2.5" points="97.58,84.13 103.18,84.13 108.78,84.13 114.39,84.13 119.99,84.13 125.59,84.13 131.20,84.13 136.80,84.13 142.40,84.13 148.01,84.13 153.61,84.13 159.21,84.13 164.82,84.13 170.42,84.13 176.02,84.13 181.63,84.13 187.23,84.13 192.83,84.13 198.43,84.13 204.04,84.13 209.64,84.13 215.24,84.13 220.85,84.13 226.45,84.13 232.05,84.13 237.66,84.13 243.26,84.13 248.86,84.14 254.47,84.20 260.07,84.32 265.67,84.52 271.28,84.78 276.88,85.11 282.48,85.49 288.09,85.93 293.69,86.43 299.29,86.98 304.90,87.58 310.50,88.23 316.10,88.93 321.71,89.67 327.31,90.45 332.91,91.28 338.51,92.14 344.12,93.04 349.72,93.97 355.32,94.94 360.93,95.94 366.53,96.97 372.13,98.03 377.74,99.11 383.34,100.23 388.94,101.36 394.55,102.52 400.15,103.71 405.75,104.91 411.36,106.13 416.96,107.37 422.56,108.63 428.17,109.91 433.77,111.20 439.37,112.50 444.98,113.82 450.58,115.15 456.18,116.50 461.79,117.85 467.39,119.21 472.99,120.59 478.60,121.97 484.20,123.36 489.80,124.76 495.40,126.16 501.01,127.57 506.61,128.98 512.21,130.40 517.82,131.83 523.42,133.26 529.02,134.69 534.63,136.12 540.23,137.56 545.83,139.00 551.44,140.44 557.04,141.88 562.64,143.32 568.25,144.77 573.85,146.21 579.45,147.65 585.06,149.09 590.66,150.53 596.26,151.97 601.87,153.41 607.47,154.85 613.07,156.28 618.68,157.71 624.28,159.14 629.88,160.57 635.49,162.00 641.09,163.42 646.69,164.84 652.29,166.25 657.90,167.66 663.50,169.07 669.10,170.47 674.71,171.87 680.31,173.27 685.91,174.66 691.52,176.05 697.12,177.43 702.72,178.81 708.33,180.18 713.93,181.55 719.53,182.91 725.14,183.18 730.74,183.18 736.34,183.18 741.95,183.18 747.55,183.18 753.15,183.18 758.76,183.18 764.36,183.18 769.96,183.18 775.57,183.18 781.17,183.18 786.77,183.18 792.37,183.18 797.98,183.18 803.58,183.18 809.18,183.18 814.79,183.18 820.39,183.18 825.99,183.18 831.60,183.18 837.20,183.18 842.80,183.18 848.41,183.18 854.01,183.18 859.61,183.18 865.22,183.18 870.82,183.18 876.42,183.18"/>
<line x1="94" y1="72" x2="122" y2="72" stroke="#00897b" stroke-width="3"/>
<text x="130.00" y="76.00" font-size="12" font-family="Arial, Helvetica, sans-serif" text-anchor="start" fill="#263238">weak irreversible record</text>
<line x1="94" y1="94" x2="122" y2="94" stroke="#d84315" stroke-width="3"/>
<text x="130.00" y="98.00" font-size="12" font-family="Arial, Helvetica, sans-serif" text-anchor="start" fill="#263238">strong irreversible record</text>
<text x="487.00" y="492.00" font-size="14" font-family="Arial, Helvetica, sans-serif" text-anchor="middle" fill="#263238">eraser time</text>
<text x="22.00" y="246.00" font-size="14" font-family="Arial, Helvetica, sans-serif" text-anchor="middle" fill="#263238" transform="rotate(-90 22.00 246.00)">conditioned visibility</text>
</svg>
