<svg xmlns="http://www.w3.org/2000/svg" width="920" height="520" viewBox="0 0 920 520">
<rect width="100%" height="100%" fill="#ffffff"/>
<text x="460.00" y="28.00" font-size="20" font-family="Arial, Helvetica, sans-serif" text-anchor="middle" fill="#17212b">Raw and Conditioned Eraser Patterns</text>
<rect x="82" y="54" width="810" height="384" fill="#fafafa" stroke="#cfd8dc"/>
<line x1="82.00" y1="54" x2="82.00" y2="438" stroke="#eceff1"/>
<text x="82.00" y="462.00" font-size="11" font-family="Arial, Helvetica, sans-serif" text-anchor="middle" fill="#263238">-1.6</text>
<line x1="244.00" y1="54" x2="244.00" y2="438" stroke="#eceff1"/>
<text x="244.00" y="462.00" font-size="11" font-family="Arial, Helvetica, sans-serif" text-anchor="middle" fill="#263238">-0.94</text>
<line x1="406.00" y1="54" x2="406.00" y2="438" stroke="#eceff1"/>
<text x="406.00" y="462.00" font-size="11" font-family="Arial, Helvetica, sans-serif" text-anchor="middle" fill="#263238">-0.31</text>
<line x1="568.00" y1="54" x2="568.00" y2="438" stroke="#eceff1"/>
<text x="568.00" y="462.00" font-size="11" font-family="Arial, Helvetica, sans-serif" text-anchor="middle" fill="#263238">0.31</text>
<line x1="730.00" y1="54" x2="730.00" y2="438" stroke="#eceff1"/>
<text x="730.00" y="462.00" font-size="11" font-family="Arial, Helvetica, sans-serif" text-anchor="middle" fill="#263238">0.94</text>
<line x1="892.00" y1="54" x2="892.00" y2="438" stroke="#eceff1"/>
<text x="892.00" y="462.00" font-size="11" font-family="Arial, Helvetica, sans-serif" text-anchor="middle" fill="#263238">1.6</text>
<line x1="82" y1="438.00" x2="892" y2="438.00" stroke="#eceff1"/>
<text x="72.00" y="442.00" font-size="11" font-family="Arial, Helvetica, sans-serif" text-anchor="end" fill="#263238">-0.037</text>
<line x1="82" y1="361.20" x2="892" y2="361.20" stroke="#eceff1"/>
<text x="72.00" y="365.20" font-size="11" font-family="Arial, Helvetica, sans-serif" text-anchor="end" fill="#263238">0.18</text>
<line x1="82" y1="284.40" x2="892" y2="284.40" stroke="#eceff1"/>
<text x="72.00" y="288.40" font-size="11" font-family="Arial, Helvetica, sans-serif" text-anchor="end" fill="#263238">0.4</text>
<line x1="82" y1="207.60" x2="892" y2="207.60" stroke="#eceff1"/>
<text x="72.00" y="211.60" font-size="11" font-family="Arial, Helvetica, sans-serif" text-anchor="end" fill="#263238">0.61</text>
<line x1="82" y1="130.80" x2="892" y2="130.80" stroke="#eceff1"/>
<text x="72.00" y="134.80" font-size="11" font-family="Arial, Helvetica, sans-serif" text-anchor="end" fill="#263238">0.83</text>
<line x1="82" y1="54.00" x2="892" y2="54.00" stroke="#eceff1"/>
<text x="72.00" y="58.00" font-size="11" font-family="Arial, Helvetica, sans-serif" text-anchor="end" fill="#263238">1</text>
<polyline fill="none" stroke="#2962ff" stroke-width="2.5" points="97.58,405.03 98.23,404.71 98.88,404.37 99.53,404.03 100.18,403.69 100.82,403.33 101.47,402.97 102.12,402.60 102.77,402.23 103.42,401.85 104.07,401.46 104.72,401.07 105.37,400.67 106.02,400.26 106.67,399.86 107.32,399.44 107.97,399.02 108.62,398.60 109.27,398.17 109.92,397.74 110.57,397.30 111.22,396.87 111.87,396.42 112.52,395.98 113.17,395.53 113.82,395.08 114.47,394.63 115.12,394.18 115.77,393.72 116.41,393.27 117.06,392.81 117.71,392.36 118.36,391.90 119.01,391.45 119.66,391.00 120.31,390.54 120.96,390.09 121.61,389.64 122.26,389.20 122.91,388.75 123.56,388.31 124.21,387.87 124.86,387.44 125.51,387.01 126.16,386.58 126.81,386.16 127.46,385.75 128.11,385.34 128.76,384.94 129.41,384.54 130.06,384.15 130.71,383.76 131.36,383.39 132.00,383.02 132.65,382.65 133.30,382.30 133.95,381.95 134.60,381.62 135.25,381.29 135.90,380.97 136.55,380.66 137.20,380.36 137.85,380.07 138.50,379.79 139.15,379.52 139.80,379.27 140.45,379.02 141.10,378.78 141.75,378.56 142.40,378.34 143.05,378.14 143.70,377.95 144.35,377.76 145.00,377.60 145.65,377.44 146.30,377.29 146.94,377.16 147.59,377.04 148.24,376.93 148.89,376.83 149.54,376.74 150.19,376.67 150.84,376.60 151.49,376.55 152.14,376.51 152.79,376.48 153.44,376.46 154.09,376.45 154.74,376.46 155.39,376.47 156.04,376.49 156.69,376.53 157.34,376.57 157.99,376.63 158.64,376.69 159.29,376.76 159.94,376.84 160.59,376.93 161.24,377.03 161.89,377.13 162.53,377.24 163.18,377.36 163.83,377.49 164.48,377.62 165.13,377.75 165.78,377.90 166.43,378.04 167.08,378.19 167.73,378.35 168.38,378.50 169.03,378.66 169.68,378.82 170.33,378.99 170.98,379.15 171.63,379.32 172.28,379.48 172.93,379.64 173.58,379.81 174.23,379.97 174.88,380.13 175.53,380.28 176.18,380.43 176.83,380.58 177.48,380.72 178.12,380.86 178.77,380.99 179.42,381.11 180.07,381.22 180.72,381.33 181.37,381.43 182.02,381.52 182.67,381.60 183.32,381.67 183.97,381.73 184.62,381.77 185.27,381.81 185.92,381.83 186.57,381.84 187.22,381.83 187.87,381.81 188.52,381.78 189.17,381.73 189.82,381.66 190.47,381.58 191.12,381.48 191.77,381.36 192.42,381.22 193.07,381.07 193.71,380.90 194.36,380.71 195.01,380.50 195.66,380.27 196.31,380.01 196.96,379.74 197.61,379.45 198.26,379.14 198.91,378.80 199.56,378.45 200.21,378.07 200.86,377.67 201.51,377.25 202.16,376.81 202.81,376.34 203.46,375.86 204.11,375.35 204.76,374.82 205.41,374.26 206.06,373.69 206.71,373.09 207.36,372.47 208.01,371.83 208.66,371.17 209.30,370.48 209.95,369.78 210.60,369.05 211.25,368.30 211.90,367.54 212.55,366.75 213.20,365.94 213.85,365.12 214.50,364.27 215.15,363.41 215.80,362.53 216.45,361.63 217.10,360.72 217.75,359.79 218.40,358.84 219.05,357.88 219.70,356.90 220.35,355.91 221.00,354.91 221.65,353.90 222.30,352.87 222.95,351.83 223.60,350.79 224.24,349.73 224.89,348.66 225.54,347.59 226.19,346.51 226.84,345.43 227.49,344.34 228.14,343.24 228.79,342.15 229.44,341.05 230.09,339.94 230.74,338.84 231.39,337.74 232.04,336.64 232.69,335.54 233.34,334.45 233.99,333.36 234.64,332.27 235.29,331.20 235.94,330.13 236.59,329.06 237.24,328.01 237.89,326.96 238.54,325.93 239.19,324.91 239.83,323.90 240.48,322.91 241.13,321.93 241.78,320.97 242.43,320.02 243.08,319.09 243.73,318.18 244.38,317.29 245.03,316.41 245.68,315.56 246.33,314.73 246.98,313.93 247.63,313.14 248.28,312.38 248.93,311.64 249.58,310.93 250.23,310.25 250.88,309.59 251.53,308.96 252.18,308.35 252.83,307.77 253.48,307.23 254.13,306.71 254.78,306.22 255.42,305.76 256.07,305.33 256.72,304.93 257.37,304.56 258.02,304.22 258.67,303.91 259.32,303.63 259.97,303.39 260.62,303.17 261.27,302.99 261.92,302.84 262.57,302.72 263.22,302.63 263.87,302.57 264.52,302.54 265.17,302.55 265.82,302.58 266.47,302.64 267.12,302.74 267.77,302.86 268.42,303.01 269.07,303.19 269.72,303.39 270.37,303.63 271.01,303.89 271.66,304.17 272.31,304.49 272.96,304.82 273.61,305.18 274.26,305.56 274.91,305.97 275.56,306.40 276.21,306.84 276.86,307.31 277.51,307.79 278.16,308.29 278.81,308.81 279.46,309.34 280.11,309.89 280.76,310.45 281.41,311.02 282.06,311.61 282.71,312.20 283.36,312.80 284.01,313.41 284.66,314.02 285.31,314.64 285.96,315.26 286.60,315.88 287.25,316.51 287.90,317.13 288.55,317.75 289.20,318.37 289.85,318.98 290.50,319.58 291.15,320.18 291.80,320.77 292.45,321.35 293.10,321.92 293.75,322.48 294.40,323.02 295.05,323.54 295.70,324.05 296.35,324.54 297.00,325.01 297.65,325.46 298.30,325.89 298.95,326.29 299.60,326.67 300.25,327.03 300.90,327.35 301.54,327.65 302.19,327.92 302.84,328.16 303.49,328.37 304.14,328.55 304.79,328.69 305.44,328.80 306.09,328.87 306.74,328.91 307.39,328.91 308.04,328.87 308.69,328.80 309.34,328.68 309.99,328.53 310.64,328.33 311.29,328.10 311.94,327.82 312.59,327.50 313.24,327.14 313.89,326.74 314.54,326.29 315.19,325.81 315.84,325.27 316.49,324.70 317.13,324.08 317.78,323.41 318.43,322.71 319.08,321.96 319.73,321.17 320.38,320.33 321.03,319.45 321.68,318.53 322.33,317.57 322.98,316.56 323.63,315.52 324.28,314.43 324.93,313.31 325.58,312.14 326.23,310.94 326.88,309.70 327.53,308.42 328.18,307.10 328.83,305.75 329.48,304.37 330.13,302.95 330.78,301.50 331.43,300.02 332.08,298.52 332.72,296.98 333.37,295.41 334.02,293.82 334.67,292.21 335.32,290.57 335.97,288.91 336.62,287.23 337.27,285.53 337.92,283.82 338.57,282.09 339.22,280.34 339.87,278.58 340.52,276.82 341.17,275.04 341.82,273.26 342.47,271.47 343.12,269.67 343.77,267.88 344.42,266.08 345.07,264.29 345.72,262.50 346.37,260.71 347.02,258.94 347.67,257.17 348.31,255.41 348.96,253.66 349.61,251.93 350.26,250.21 350.91,248.51 351.56,246.83 352.21,245.17 352.86,243.54 353.51,241.92 354.16,240.34 354.81,238.78 355.46,237.25 356.11,235.76 356.76,234.29 357.41,232.86 358.06,231.47 358.71,230.11 359.36,228.79 360.01,227.51 360.66,226.28 361.31,225.08 361.96,223.93 362.61,222.83 363.26,221.77 363.90,220.75 364.55,219.79 365.20,218.88 365.85,218.01 366.50,217.20 367.15,216.44 367.80,215.73 368.45,215.07 369.10,214.47 369.75,213.92 370.40,213.43 371.05,212.99 371.70,212.61 372.35,212.28 373.00,212.01 373.65,211.79 374.30,211.64 374.95,211.54 375.60,211.49 376.25,211.50 376.90,211.57 377.55,211.69 378.20,211.86 378.84,212.10 379.49,212.38 380.14,212.72 380.79,213.11 381.44,213.56 382.09,214.05 382.74,214.60 383.39,215.19 384.04,215.84 384.69,216.53 385.34,217.27 385.99,218.05 386.64,218.88 387.29,219.75 387.94,220.66 388.59,221.61 389.24,222.60 389.89,223.63 390.54,224.70 391.19,225.79 391.84,226.92 392.49,228.08 393.14,229.27 393.79,230.48 394.43,231.72 395.08,232.98 395.73,234.27 396.38,235.57 397.03,236.89 397.68,238.23 398.33,239.58 398.98,240.94 399.63,242.31 400.28,243.68 400.93,245.06 401.58,246.45 402.23,247.83 402.88,249.22 403.53,250.60 404.18,251.97 404.83,253.34 405.48,254.70 406.13,256.04 406.78,257.37 407.43,258.69 408.08,259.99 408.73,261.26 409.38,262.52 410.02,263.75 410.67,264.95 411.32,266.13 411.97,267.28 412.62,268.39 413.27,269.47 413.92,270.52 414.57,271.53 415.22,272.50 415.87,273.42 416.52,274.31 417.17,275.15 417.82,275.95 418.47,276.70 419.12,277.41 419.77,278.06 420.42,278.66 421.07,279.22 421.72,279.71 422.37,280.16 423.02,280.55 423.67,280.88 424.32,281.16 424.97,281.38 425.61,281.54 426.26,281.65 426.91,281.69 427.56,281.67 428.21,281.60 428.86,281.46 429.51,281.26 430.16,281.01 430.81,280.69 431.46,280.31 432.11,279.87 432.76,279.37 433.41,278.81 434.06,278.19 434.71,277.51 435.36,276.77 436.01,275.97 436.66,275.11 437.31,274.20 437.96,273.23 438.61,272.21 439.26,271.13 439.91,270.00 440.56,268.82 441.20,267.58 441.85,266.30 442.50,264.97 443.15,263.59 443.80,262.16 444.45,260.69 445.10,259.18 445.75,257.63 446.40,256.04 447.05,254.41 447.70,252.75 448.35,251.05 449.00,249.32 449.65,247.56 450.30,245.78 450.95,243.96 451.60,242.13 452.25,240.27 452.90,238.40 453.55,236.50 454.20,234.60 454.85,232.67 455.50,230.74 456.14,228.81 456.79,226.86 457.44,224.91 458.09,222.96 458.74,221.01 459.39,219.07 460.04,217.13 460.69,215.20 461.34,213.28 461.99,211.37 462.64,209.48 463.29,207.61 463.94,205.75 464.59,203.92 465.24,202.11 465.89,200.33 466.54,198.57 467.19,196.85 467.84,195.16 468.49,193.50 469.14,191.88 469.79,190.30 470.44,188.76 471.09,187.27 471.73,185.81 472.38,184.41 473.03,183.05 473.68,181.74 474.33,180.49 474.98,179.28 475.63,178.13 476.28,177.04 476.93,176.00 477.58,175.02 478.23,174.10 478.88,173.25 479.53,172.45 480.18,171.72 480.83,171.05 481.48,170.44 482.13,169.90 482.78,169.43 483.43,169.02 484.08,168.68 484.73,168.41 485.38,168.21 486.03,168.07 486.68,168.00 487.32,168.00 487.97,168.07 488.62,168.21 489.27,168.41 489.92,168.68 490.57,169.02 491.22,169.43 491.87,169.90 492.52,170.44 493.17,171.05 493.82,171.72 494.47,172.45 495.12,173.25 495.77,174.10 496.42,175.02 497.07,176.00 497.72,177.04 498.37,178.13 499.02,179.28 499.67,180.49 500.32,181.74 500.97,183.05 501.62,184.41 502.27,185.81 502.91,187.27 503.56,188.76 504.21,190.30 504.86,191.88 505.51,193.50 506.16,195.16 506.81,196.85 507.46,198.57 508.11,200.33 508.76,202.11 509.41,203.92 510.06,205.75 510.71,207.61 511.36,209.48 512.01,211.37 512.66,213.28 513.31,215.20 513.96,217.13 514.61,219.07 515.26,221.01 515.91,222.96 516.56,224.91 517.21,226.86 517.86,228.81 518.50,230.74 519.15,232.67 519.80,234.60 520.45,236.50 521.10,238.40 521.75,240.27 522.40,242.13 523.05,243.96 523.70,245.78 524.35,247.56 525.00,249.32 525.65,251.05 526.30,252.75 526.95,254.41 527.60,256.04 528.25,257.63 528.90,259.18 529.55,260.69 530.20,262.16 530.85,263.59 531.50,264.97 532.15,266.30 532.80,267.58 533.44,268.82 534.09,270.00 534.74,271.13 535.39,272.21 536.04,273.23 536.69,274.20 537.34,275.11 537.99,275.97 538.64,276.77 539.29,277.51 539.94,278.19 540.59,278.81 541.24,279.37 541.89,279.87 542.54,280.31 543.19,280.69 543.84,281.01 544.49,281.26 545.14,281.46 545.79,281.60 546.44,281.67 547.09,281.69 547.74,281.65 548.39,281.54 549.03,281.38 549.68,281.16 550.33,280.88 550.98,280.55 551.63,280.16 552.28,279.71 552.93,279.22 553.58,278.66 554.23,278.06 554.88,277.41 555.53,276.70 556.18,275.95 556.83,275.15 557.48,274.31 558.13,273.42 558.78,272.50 559.43,271.53 560.08,270.52 560.73,269.47 561.38,268.39 562.03,267.28 562.68,266.13 563.33,264.95 563.98,263.75 564.62,262.52 565.27,261.26 565.92,259.99 566.57,258.69 567.22,257.37 567.87,256.04 568.52,254.70 569.17,253.34 569.82,251.97 570.47,250.60 571.12,249.22 571.77,247.83 572.42,246.45 573.07,245.06 573.72,243.68 574.37,242.31 575.02,240.94 575.67,239.58 576.32,238.23 576.97,236.89 577.62,235.57 578.27,234.27 578.92,232.98 579.57,231.72 580.21,230.48 580.86,229.27 581.51,228.08 582.16,226.92 582.81,225.79 583.46,224.70 584.11,223.63 584.76,222.60 585.41,221.61 586.06,220.66 586.71,219.75 587.36,218.88 588.01,218.05 588.66,217.27 589.31,216.53 589.96,215.84 590.61,215.19 591.26,214.60 591.91,214.05 592.56,213.56 593.21,213.11 593.86,212.72 594.51,212.38 595.16,212.10 595.80,211.86 596.45,211.69 597.10,211.57 597.75,211.50 598.40,211.49 599.05,211.54 599.70,211.64 600.35,211.79 601.00,212.01 601.65,212.28 602.30,212.61 602.95,212.99 603.60,213.43 604.25,213.92 604.90,214.47 605.55,215.07 606.20,215.73 606.85,216.44 607.50,217.20 608.15,218.01 608.80,218.88 609.45,219.79 610.10,220.75 610.74,221.77 611.39,222.83 612.04,223.93 612.69,225.08 613.34,226.28 613.99,227.51 614.64,228.79 615.29,230.11 615.94,231.47 616.59,232.86 617.24,234.29 617.89,235.76 618.54,237.25 619.19,238.78 619.84,240.34 620.49,241.92 621.14,243.54 621.79,245.17 622.44,246.83 623.09,248.51 623.74,250.21 624.39,251.93 625.04,253.66 625.69,255.41 626.33,257.17 626.98,258.94 627.63,260.71 628.28,262.50 628.93,264.29 629.58,266.08 630.23,267.88 630.88,269.67 631.53,271.47 632.18,273.26 632.83,275.04 633.48,276.82 634.13,278.58 634.78,280.34 635.43,282.09 636.08,283.82 636.73,285.53 637.38,287.23 638.03,288.91 638.68,290.57 639.33,292.21 639.98,293.82 640.63,295.41 641.28,296.98 641.92,298.52 642.57,300.02 643.22,301.50 643.87,302.95 644.52,304.37 645.17,305.75 645.82,307.10 646.47,308.42 647.12,309.70 647.77,310.94 648.42,312.14 649.07,313.31 649.72,314.43 650.37,315.52 651.02,316.56 651.67,317.57 652.32,318.53 652.97,319.45 653.62,320.33 654.27,321.17 654.92,321.96 655.57,322.71 656.22,323.41 656.87,324.08 657.51,324.70 658.16,325.27 658.81,325.81 659.46,326.29 660.11,326.74 660.76,327.14 661.41,327.50 662.06,327.82 662.71,328.10 663.36,328.33 664.01,328.53 664.66,328.68 665.31,328.80 665.96,328.87 666.61,328.91 667.26,328.91 667.91,328.87 668.56,328.80 669.21,328.69 669.86,328.55 670.51,328.37 671.16,328.16 671.81,327.92 672.46,327.65 673.10,327.35 673.75,327.03 674.40,326.67 675.05,326.29 675.70,325.89 676.35,325.46 677.00,325.01 677.65,324.54 678.30,324.05 678.95,323.54 679.60,323.02 680.25,322.48 680.90,321.92 681.55,321.35 682.20,320.77 682.85,320.18 683.50,319.58 684.15,318.98 684.80,318.37 685.45,317.75 686.10,317.13 686.75,316.51 687.40,315.88 688.04,315.26 688.69,314.64 689.34,314.02 689.99,313.41 690.64,312.80 691.29,312.20 691.94,311.61 692.59,311.02 693.24,310.45 693.89,309.89 694.54,309.34 695.19,308.81 695.84,308.29 696.49,307.79 697.14,307.31 697.79,306.84 698.44,306.40 699.09,305.97 699.74,305.56 700.39,305.18 701.04,304.82 701.69,304.49 702.34,304.17 702.99,303.89 703.63,303.63 704.28,303.39 704.93,303.19 705.58,303.01 706.23,302.86 706.88,302.74 707.53,302.64 708.18,302.58 708.83,302.55 709.48,302.54 710.13,302.57 710.78,302.63 711.43,302.72 712.08,302.84 712.73,302.99 713.38,303.17 714.03,303.39 714.68,303.63 715.33,303.91 715.98,304.22 716.63,304.56 717.28,304.93 717.93,305.33 718.58,305.76 719.22,306.22 719.87,306.71 720.52,307.23 721.17,307.77 721.82,308.35 722.47,308.96 723.12,309.59 723.77,310.25 724.42,310.93 725.07,311.64 725.72,312.38 726.37,313.14 727.02,313.93 727.67,314.73 728.32,315.56 728.97,316.41 729.62,317.29 730.27,318.18 730.92,319.09 731.57,320.02 732.22,320.97 732.87,321.93 733.52,322.91 734.17,323.90 734.81,324.91 735.46,325.93 736.11,326.96 736.76,328.01 737.41,329.06 738.06,330.13 738.71,331.20 739.36,332.27 740.01,333.36 740.66,334.45 741.31,335.54 741.96,336.64 742.61,337.74 743.26,338.84 743.91,339.94 744.56,341.05 745.21,342.15 745.86,343.24 746.51,344.34 747.16,345.43 747.81,346.51 748.46,347.59 749.11,348.66 749.76,349.73 750.40,350.79 751.05,351.83 751.70,352.87 752.35,353.90 753.00,354.91 753.65,355.91 754.30,356.90 754.95,357.88 755.60,358.84 756.25,359.79 756.90,360.72 757.55,361.63 758.20,362.53 758.85,363.41 759.50,364.27 760.15,365.12 760.80,365.94 761.45,366.75 762.10,367.54 762.75,368.30 763.40,369.05 764.05,369.78 764.70,370.48 765.34,371.17 765.99,371.83 766.64,372.47 767.29,373.09 767.94,373.69 768.59,374.26 769.24,374.82 769.89,375.35 770.54,375.86 771.19,376.34 771.84,376.81 772.49,377.25 773.14,377.67 773.79,378.07 774.44,378.45 775.09,378.80 775.74,379.14 776.39,379.45 777.04,379.74 777.69,380.01 778.34,380.27 778.99,380.50 779.64,380.71 780.29,380.90 780.93,381.07 781.58,381.22 782.23,381.36 782.88,381.48 783.53,381.58 784.18,381.66 784.83,381.73 785.48,381.78 786.13,381.81 786.78,381.83 787.43,381.84 788.08,381.83 788.73,381.81 789.38,381.77 790.03,381.73 790.68,381.67 791.33,381.60 791.98,381.52 792.63,381.43 793.28,381.33 793.93,381.22 794.58,381.11 795.23,380.99 795.88,380.86 796.52,380.72 797.17,380.58 797.82,380.43 798.47,380.28 799.12,380.13 799.77,379.97 800.42,379.81 801.07,379.64 801.72,379.48 802.37,379.32 803.02,379.15 803.67,378.99 804.32,378.82 804.97,378.66 805.62,378.50 806.27,378.35 806.92,378.19 807.57,378.04 808.22,377.90 808.87,377.75 809.52,377.62 810.17,377.49 810.82,377.36 811.47,377.24 812.11,377.13 812.76,377.03 813.41,376.93 814.06,376.84 814.71,376.76 815.36,376.69 816.01,376.63 816.66,376.57 817.31,376.53 817.96,376.49 818.61,376.47 819.26,376.46 819.91,376.45 820.56,376.46 821.21,376.48 821.86,376.51 822.51,376.55 823.16,376.60 823.81,376.67 824.46,376.74 825.11,376.83 825.76,376.93 826.41,377.04 827.06,377.16 827.70,377.29 828.35,377.44 829.00,377.60 829.65,377.76 830.30,377.95 830.95,378.14 831.60,378.34 832.25,378.56 832.90,378.78 833.55,379.02 834.20,379.27 834.85,379.52 835.50,379.79 836.15,380.07 836.80,380.36 837.45,380.66 838.10,380.97 838.75,381.29 839.40,381.62 840.05,381.95 840.70,382.30 841.35,382.65 842.00,383.02 842.64,383.39 843.29,383.76 843.94,384.15 844.59,384.54 845.24,384.94 845.89,385.34 846.54,385.75 847.19,386.16 847.84,386.58 848.49,387.01 849.14,387.44 849.79,387.87 850.44,388.31 851.09,388.75 851.74,389.20 852.39,389.64 853.04,390.09 853.69,390.54 854.34,391.00 854.99,391.45 855.64,391.90 856.29,392.36 856.94,392.81 857.59,393.27 858.23,393.72 858.88,394.18 859.53,394.63 860.18,395.08 860.83,395.53 861.48,395.98 862.13,396.42 862.78,396.87 863.43,397.30 864.08,397.74 864.73,398.17 865.38,398.60 866.03,399.02 866.68,399.44 867.33,399.86 867.98,400.26 868.63,400.67 869.28,401.07 869.93,401.46 870.58,401.85 871.23,402.23 871.88,402.60 872.53,402.97 873.18,403.33 873.82,403.69 874.47,404.03 875.12,404.37 875.77,404.71 876.42,405.03"/>
<polyline fill="none" stroke="#00897b" stroke-width="2.5" points="97.58,410.64 98.23,410.06 98.88,409.45 99.53,408.83 100.18,408.19 100.82,407.53 101.47,406.86 102.12,406.17 102.77,405.47 103.42,404.75 104.07,404.02 104.72,403.27 105.37,402.51 106.02,401.73 106.67,400.94 107.32,400.15 107.97,399.34 108.62,398.52 109.27,397.69 109.92,396.85 110.57,396.00 111.22,395.15 111.87,394.29 112.52,393.42 113.17,392.55 113.82,391.67 114.47,390.80 115.12,389.92 115.77,389.03 116.41,388.15 117.06,387.27 117.71,386.39 118.36,385.51 119.01,384.63 119.66,383.76 120.31,382.89 120.96,382.03 121.61,381.17 122.26,380.33 122.91,379.49 123.56,378.66 124.21,377.84 124.86,377.04 125.51,376.25 126.16,375.47 126.81,374.70 127.46,373.95 128.11,373.22 128.76,372.51 129.41,371.81 130.06,371.13 130.71,370.47 131.36,369.83 132.00,369.22 132.65,368.63 133.30,368.06 133.95,367.51 134.60,366.99 135.25,366.49 135.90,366.03 136.55,365.58 137.20,365.17 137.85,364.78 138.50,364.42 139.15,364.10 139.80,363.80 140.45,363.53 141.10,363.29 141.75,363.08 142.40,362.91 143.05,362.77 143.70,362.66 144.35,362.58 145.00,362.53 145.65,362.52 146.30,362.54 146.94,362.59 147.59,362.68 148.24,362.80 148.89,362.95 149.54,363.13 150.19,363.35 150.84,363.60 151.49,363.88 152.14,364.20 152.79,364.55 153.44,364.92 154.09,365.33 154.74,365.77 155.39,366.24 156.04,366.74 156.69,367.26 157.34,367.82 157.99,368.40 158.64,369.01 159.29,369.64 159.94,370.30 160.59,370.99 161.24,371.69 161.89,372.42 162.53,373.17 163.18,373.94 163.83,374.73 164.48,375.54 165.13,376.36 165.78,377.20 166.43,378.05 167.08,378.92 167.73,379.79 168.38,380.68 169.03,381.58 169.68,382.48 170.33,383.39 170.98,384.30 171.63,385.22 172.28,386.13 172.93,387.05 173.58,387.97 174.23,388.88 174.88,389.79 175.53,390.69 176.18,391.58 176.83,392.46 177.48,393.33 178.12,394.19 178.77,395.04 179.42,395.86 180.07,396.67 180.72,397.46 181.37,398.23 182.02,398.98 182.67,399.70 183.32,400.39 183.97,401.06 184.62,401.70 185.27,402.31 185.92,402.88 186.57,403.42 187.22,403.93 187.87,404.40 188.52,404.83 189.17,405.22 189.82,405.57 190.47,405.88 191.12,406.15 191.77,406.37 192.42,406.55 193.07,406.68 193.71,406.76 194.36,406.79 195.01,406.77 195.66,406.70 196.31,406.58 196.96,406.40 197.61,406.18 198.26,405.90 198.91,405.56 199.56,405.17 200.21,404.72 200.86,404.22 201.51,403.66 202.16,403.04 202.81,402.37 203.46,401.64 204.11,400.85 204.76,400.01 205.41,399.10 206.06,398.14 206.71,397.13 207.36,396.06 208.01,394.93 208.66,393.74 209.30,392.50 209.95,391.21 210.60,389.86 211.25,388.46 211.90,387.00 212.55,385.50 213.20,383.94 213.85,382.33 214.50,380.68 215.15,378.98 215.80,377.23 216.45,375.44 217.10,373.61 217.75,371.73 218.40,369.82 219.05,367.86 219.70,365.87 220.35,363.85 221.00,361.79 221.65,359.70 222.30,357.58 222.95,355.44 223.60,353.26 224.24,351.07 224.89,348.85 225.54,346.62 226.19,344.37 226.84,342.10 227.49,339.83 228.14,337.54 228.79,335.25 229.44,332.95 230.09,330.65 230.74,328.35 231.39,326.05 232.04,323.76 232.69,321.47 233.34,319.20 233.99,316.94 234.64,314.69 235.29,312.46 235.94,310.25 236.59,308.07 237.24,305.91 237.89,303.78 238.54,301.68 239.19,299.61 239.83,297.58 240.48,295.59 241.13,293.63 241.78,291.72 242.43,289.86 243.08,288.04 243.73,286.27 244.38,284.56 245.03,282.90 245.68,281.29 246.33,279.75 246.98,278.26 247.63,276.84 248.28,275.48 248.93,274.19 249.58,272.96 250.23,271.81 250.88,270.72 251.53,269.71 252.18,268.78 252.83,267.92 253.48,267.13 254.13,266.42 254.78,265.80 255.42,265.25 256.07,264.78 256.72,264.40 257.37,264.09 258.02,263.87 258.67,263.74 259.32,263.68 259.97,263.72 260.62,263.83 261.27,264.03 261.92,264.31 262.57,264.68 263.22,265.13 263.87,265.67 264.52,266.28 265.17,266.98 265.82,267.76 266.47,268.63 267.12,269.57 267.77,270.59 268.42,271.68 269.07,272.85 269.72,274.10 270.37,275.42 271.01,276.81 271.66,278.27 272.31,279.80 272.96,281.39 273.61,283.05 274.26,284.77 274.91,286.55 275.56,288.39 276.21,290.28 276.86,292.22 277.51,294.21 278.16,296.25 278.81,298.34 279.46,300.46 280.11,302.62 280.76,304.82 281.41,307.05 282.06,309.31 282.71,311.59 283.36,313.90 284.01,316.23 284.66,318.57 285.31,320.92 285.96,323.28 286.60,325.65 287.25,328.02 287.90,330.39 288.55,332.75 289.20,335.11 289.85,337.45 290.50,339.78 291.15,342.08 291.80,344.36 292.45,346.62 293.10,348.84 293.75,351.03 294.40,353.19 295.05,355.30 295.70,357.37 296.35,359.38 297.00,361.35 297.65,363.26 298.30,365.11 298.95,366.90 299.60,368.63 300.25,370.29 300.90,371.87 301.54,373.38 302.19,374.82 302.84,376.17 303.49,377.44 304.14,378.62 304.79,379.71 305.44,380.72 306.09,381.63 306.74,382.44 307.39,383.16 308.04,383.77 308.69,384.28 309.34,384.69 309.99,385.00 310.64,385.19 311.29,385.28 311.94,385.25 312.59,385.12 313.24,384.87 313.89,384.51 314.54,384.03 315.19,383.44 315.84,382.74 316.49,381.91 317.13,380.97 317.78,379.92 318.43,378.75 319.08,377.46 319.73,376.06 320.38,374.54 321.03,372.91 321.68,371.17 322.33,369.31 322.98,367.34 323.63,365.26 324.28,363.08 324.93,360.78 325.58,358.38 326.23,355.88 326.88,353.28 327.53,350.58 328.18,347.78 328.83,344.89 329.48,341.90 330.13,338.83 330.78,335.67 331.43,332.43 332.08,329.11 332.72,325.71 333.37,322.24 334.02,318.70 334.67,315.09 335.32,311.42 335.97,307.70 336.62,303.91 337.27,300.08 337.92,296.20 338.57,292.28 339.22,288.32 339.87,284.33 340.52,280.31 341.17,276.26 341.82,272.19 342.47,268.11 343.12,264.01 343.77,259.91 344.42,255.81 345.07,251.71 345.72,247.61 346.37,243.53 347.02,239.47 347.67,235.43 348.31,231.41 348.96,227.43 349.61,223.48 350.26,219.57 350.91,215.71 351.56,211.90 352.21,208.14 352.86,204.44 353.51,200.81 354.16,197.24 354.81,193.75 355.46,190.33 356.11,187.00 356.76,183.75 357.41,180.59 358.06,177.52 358.71,174.55 359.36,171.68 360.01,168.92 360.66,166.26 361.31,163.72 361.96,161.29 362.61,158.97 363.26,156.78 363.90,154.71 364.55,152.77 365.20,150.96 365.85,149.28 366.50,147.73 367.15,146.32 367.80,145.05 368.45,143.92 369.10,142.93 369.75,142.08 370.40,141.37 371.05,140.81 371.70,140.40 372.35,140.13 373.00,140.01 373.65,140.03 374.30,140.20 374.95,140.53 375.60,140.99 376.25,141.61 376.90,142.37 377.55,143.27 378.20,144.32 378.84,145.52 379.49,146.85 380.14,148.33 380.79,149.94 381.44,151.69 382.09,153.58 382.74,155.59 383.39,157.74 384.04,160.01 384.69,162.41 385.34,164.93 385.99,167.57 386.64,170.32 387.29,173.18 387.94,176.15 388.59,179.22 389.24,182.40 389.89,185.67 390.54,189.03 391.19,192.48 391.84,196.01 392.49,199.62 393.14,203.30 393.79,207.05 394.43,210.87 395.08,214.74 395.73,218.67 396.38,222.64 397.03,226.66 397.68,230.72 398.33,234.81 398.98,238.93 399.63,243.07 400.28,247.22 400.93,251.39 401.58,255.56 402.23,259.72 402.88,263.89 403.53,268.04 404.18,272.17 404.83,276.28 405.48,280.36 406.13,284.40 406.78,288.41 407.43,292.37 408.08,296.28 408.73,300.13 409.38,303.92 410.02,307.64 410.67,311.29 411.32,314.86 411.97,318.34 412.62,321.74 413.27,325.05 413.92,328.26 414.57,331.37 415.22,334.37 415.87,337.26 416.52,340.03 417.17,342.69 417.82,345.22 418.47,347.62 419.12,349.90 419.77,352.04 420.42,354.04 421.07,355.90 421.72,357.61 422.37,359.18 423.02,360.60 423.67,361.87 424.32,362.98 424.97,363.94 425.61,364.74 426.26,365.38 426.91,365.85 427.56,366.17 428.21,366.32 428.86,366.31 429.51,366.13 430.16,365.79 430.81,365.29 431.46,364.61 432.11,363.78 432.76,362.77 433.41,361.61 434.06,360.28 434.71,358.79 435.36,357.14 436.01,355.33 436.66,353.36 437.31,351.24 437.96,348.96 438.61,346.53 439.26,343.96 439.91,341.24 440.56,338.38 441.20,335.37 441.85,332.24 442.50,328.97 443.15,325.57 443.80,322.04 444.45,318.40 445.10,314.64 445.75,310.77 446.40,306.79 447.05,302.70 447.70,298.52 448.35,294.25 449.00,289.88 449.65,285.44 450.30,280.92 450.95,276.32 451.60,271.66 452.25,266.94 452.90,262.16 453.55,257.33 454.20,252.46 454.85,247.56 455.50,242.62 456.14,237.65 456.79,232.67 457.44,227.67 458.09,222.67 458.74,217.67 459.39,212.67 460.04,207.68 460.69,202.71 461.34,197.76 461.99,192.85 462.64,187.97 463.29,183.13 463.94,178.34 464.59,173.61 465.24,168.93 465.89,164.32 466.54,159.79 467.19,155.33 467.84,150.95 468.49,146.67 469.14,142.47 469.79,138.38 470.44,134.39 471.09,130.51 471.73,126.74 472.38,123.10 473.03,119.58 473.68,116.18 474.33,112.92 474.98,109.79 475.63,106.81 476.28,103.97 476.93,101.28 477.58,98.74 478.23,96.35 478.88,94.12 479.53,92.05 480.18,90.15 480.83,88.41 481.48,86.83 482.13,85.43 482.78,84.20 483.43,83.14 484.08,82.26 484.73,81.55 485.38,81.02 486.03,80.66 486.68,80.48 487.32,80.48 487.97,80.66 488.62,81.02 489.27,81.55 489.92,82.26 490.57,83.14 491.22,84.20 491.87,85.43 492.52,86.83 493.17,88.41 493.82,90.15 494.47,92.05 495.12,94.12 495.77,96.35 496.42,98.74 497.07,101.28 497.72,103.97 498.37,106.81 499.02,109.79 499.67,112.92 500.32,116.18 500.97,119.58 501.62,123.10 502.27,126.74 502.91,130.51 503.56,134.39 504.21,138.38 504.86,142.47 505.51,146.67 506.16,150.95 506.81,155.33 507.46,159.79 508.11,164.32 508.76,168.93 509.41,173.61 510.06,178.34 510.71,183.13 511.36,187.97 512.01,192.85 512.66,197.76 513.31,202.71 513.96,207.68 514.61,212.67 515.26,217.67 515.91,222.67 516.56,227.67 517.21,232.67 517.86,237.65 518.50,242.62 519.15,247.56 519.80,252.46 520.45,257.33 521.10,262.16 521.75,266.94 522.40,271.66 523.05,276.32 523.70,280.92 524.35,285.44 525.00,289.88 525.65,294.25 526.30,298.52 526.95,302.70 527.60,306.79 528.25,310.77 528.90,314.64 529.55,318.40 530.20,322.04 530.85,325.57 531.50,328.97 532.15,332.24 532.80,335.37 533.44,338.38 534.09,341.24 534.74,343.96 535.39,346.53 536.04,348.96 536.69,351.24 537.34,353.36 537.99,355.33 538.64,357.14 539.29,358.79 539.94,360.28 540.59,361.61 541.24,362.77 541.89,363.78 542.54,364.61 543.19,365.29 543.84,365.79 544.49,366.13 545.14,366.31 545.79,366.32 546.44,366.17 547.09,365.85 547.74,365.38 548.39,364.74 549.03,363.94 549.68,362.98 550.33,361.87 550.98,360.60 551.63,359.18 552.28,357.61 552.93,355.90 553.58,354.04 554.23,352.04 554.88,349.90 555.53,347.62 556.18,345.22 556.83,342.69 557.48,340.03 558.13,337.26 558.78,334.37 559.43,331.37 560.08,328.26 560.73,325.05 561.38,321.74 562.03,318.34 562.68,314.86 563.33,311.29 563.98,307.64 564.62,303.92 565.27,300.13 565.92,296.28 566.57,292.37 567.22,288.41 567.87,284.40 568.52,280.36 569.17,276.28 569.82,272.17 570.47,268.04 571.12,263.89 571.77,259.72 572.42,255.56 573.07,251.39 573.72,247.22 574.37,243.07 575.02,238.93 575.67,234.81 576.32,230.72 576.97,226.66 577.62,222.64 578.27,218.67 578.92,214.74 579.57,210.87 580.21,207.05 580.86,203.30 581.51,199.62 582.16,196.01 582.81,192.48 583.46,189.03 584.11,185.67 584.76,182.40 585.41,179.22 586.06,176.15 586.71,173.18 587.36,170.32 588.01,167.57 588.66,164.93 589.31,162.41 589.96,160.01 590.61,157.74 591.26,155.59 591.91,153.58 592.56,151.69 593.21,149.94 593.86,148.33 594.51,146.85 595.16,145.52 595.80,144.32 596.45,143.27 597.10,142.37 597.75,141.61 598.40,140.99 599.05,140.53 599.70,140.20 600.35,140.03 601.00,140.01 601.65,140.13 602.30,140.40 602.95,140.81 603.60,141.37 604.25,142.08 604.90,142.93 605.55,143.92 606.20,145.05 606.85,146.32 607.50,147.73 608.15,149.28 608.80,150.96 609.45,152.77 610.10,154.71 610.74,156.78 611.39,158.97 612.04,161.29 612.69,163.72 613.34,166.26 613.99,168.92 614.64,171.68 615.29,174.55 615.94,177.52 616.59,180.59 617.24,183.75 617.89,187.00 618.54,190.33 619.19,193.75 619.84,197.24 620.49,200.81 621.14,204.44 621.79,208.14 622.44,211.90 623.09,215.71 623.74,219.57 624.39,223.48 625.04,227.43 625.69,231.41 626.33,235.43 626.98,239.47 627.63,243.53 628.28,247.61 628.93,251.71 629.58,255.81 630.23,259.91 630.88,264.01 631.53,268.11 632.18,272.19 632.83,276.26 633.48,280.31 634.13,284.33 634.78,288.32 635.43,292.28 636.08,296.20 636.73,300.08 637.38,303.91 638.03,307.70 638.68,311.42 639.33,315.09 639.98,318.70 640.63,322.24 641.28,325.71 641.92,329.11 642.57,332.43 643.22,335.67 643.87,338.83 644.52,341.90 645.17,344.89 645.82,347.78 646.47,350.58 647.12,353.28 647.77,355.88 648.42,358.38 649.07,360.78 649.72,363.08 650.37,365.26 651.02,367.34 651.67,369.31 652.32,371.17 652.97,372.91 653.62,374.54 654.27,376.06 654.92,377.46 655.57,378.75 656.22,379.92 656.87,380.97 657.51,381.91 658.16,382.74 658.81,383.44 659.46,384.03 660.11,384.51 660.76,384.87 661.41,385.12 662.06,385.25 662.71,385.28 663.36,385.19 664.01,385.00 664.66,384.69 665.31,384.28 665.96,383.77 666.61,383.16 667.26,382.44 667.91,381.63 668.56,380.72 669.21,379.71 669.86,378.62 670.51,377.44 671.16,376.17 671.81,374.82 672.46,373.38 673.10,371.87 673.75,370.29 674.40,368.63 675.05,366.90 675.70,365.11 676.35,363.26 677.00,361.35 677.65,359.38 678.30,357.37 678.95,355.30 679.60,353.19 680.25,351.03 680.90,348.84 681.55,346.62 682.20,344.36 682.85,342.08 683.50,339.78 684.15,337.45 684.80,335.11 685.45,332.75 686.10,330.39 686.75,328.02 687.40,325.65 688.04,323.28 688.69,320.92 689.34,318.57 689.99,316.23 690.64,313.90 691.29,311.59 691.94,309.31 692.59,307.05 693.24,304.82 693.89,302.62 694.54,300.46 695.19,298.34 695.84,296.25 696.49,294.21 697.14,292.22 697.79,290.28 698.44,288.39 699.09,286.55 699.74,284.77 700.39,283.05 701.04,281.39 701.69,279.80 702.34,278.27 702.99,276.81 703.63,275.42 704.28,274.10 704.93,272.85 705.58,271.68 706.23,270.59 706.88,269.57 707.53,268.63 708.18,267.76 708.83,266.98 709.48,266.28 710.13,265.67 710.78,265.13 711.43,264.68 712.08,264.31 712.73,264.03 713.38,263.83 714.03,263.72 714.68,263.68 715.33,263.74 715.98,263.87 716.63,264.09 717.28,264.40 717.93,264.78 718.58,265.25 719.22,265.80 719.87,266.42 720.52,267.13 721.17,267.92 721.82,268.78 722.47,269.71 723.12,270.72 723.77,271.81 724.42,272.96 725.07,274.19 725.72,275.48 726.37,276.84 727.02,278.26 727.67,279.75 728.32,281.29 728.97,282.90 729.62,284.56 730.27,286.27 730.92,288.04 731.57,289.86 732.22,291.72 732.87,293.63 733.52,295.59 734.17,297.58 734.81,299.61 735.46,301.68 736.11,303.78 736.76,305.91 737.41,308.07 738.06,310.25 738.71,312.46 739.36,314.69 740.01,316.94 740.66,319.20 741.31,321.47 741.96,323.76 742.61,326.05 743.26,328.35 743.91,330.65 744.56,332.95 745.21,335.25 745.86,337.54 746.51,339.83 747.16,342.10 747.81,344.37 748.46,346.62 749.11,348.85 749.76,351.07 750.40,353.26 751.05,355.44 751.70,357.58 752.35,359.70 753.00,361.79 753.65,363.85 754.30,365.87 754.95,367.86 755.60,369.82 756.25,371.73 756.90,373.61 757.55,375.44 758.20,377.23 758.85,378.98 759.50,380.68 760.15,382.33 760.80,383.94 761.45,385.50 762.10,387.00 762.75,388.46 763.40,389.86 764.05,391.21 764.70,392.50 765.34,393.74 765.99,394.93 766.64,396.06 767.29,397.13 767.94,398.14 768.59,399.10 769.24,400.01 769.89,400.85 770.54,401.64 771.19,402.37 771.84,403.04 772.49,403.66 773.14,404.22 773.79,404.72 774.44,405.17 775.09,405.56 775.74,405.90 776.39,406.18 777.04,406.40 777.69,406.58 778.34,406.70 778.99,406.77 779.64,406.79 780.29,406.76 780.93,406.68 781.58,406.55 782.23,406.37 782.88,406.15 783.53,405.88 784.18,405.57 784.83,405.22 785.48,404.83 786.13,404.40 786.78,403.93 787.43,403.42 788.08,402.88 788.73,402.31 789.38,401.70 790.03,401.06 790.68,400.39 791.33,399.70 791.98,398.98 792.63,398.23 793.28,397.46 793.93,396.67 794.58,395.86 795.23,395.04 795.88,394.19 796.52,393.33 797.17,392.46 797.82,391.58 798.47,390.69 799.12,389.79 799.77,388.88 800.42,387.97 801.07,387.05 801.72,386.13 802.37,385.22 803.02,384.30 803.67,383.39 804.32,382.48 804.97,381.58 805.62,380.68 806.27,379.79 806.92,378.92 807.57,378.05 808.22,377.20 808.87,376.36 809.52,375.54 810.17,374.73 810.82,373.94 811.47,373.17 812.11,372.42 812.76,371.69 813.41,370.99 814.06,370.30 814.71,369.64 815.36,369.01 816.01,368.40 816.66,367.82 817.31,367.26 817.96,366.74 818.61,366.24 819.26,365.77 819.91,365.33 820.56,364.92 821.21,364.55 821.86,364.20 822.51,363.88 823.16,363.60 823.81,363.35 824.46,363.13 825.11,362.95 825.76,362.80 826.41,362.68 827.06,362.59 827.70,362.54 828.35,362.52 829.00,362.53 829.65,362.58 830.30,362.66 830.95,362.77 831.60,362.91 832.25,363.08 832.90,363.29 833.55,363.53 834.20,363.80 834.85,364.10 835.50,364.42 836.15,364.78 836.80,365.17 837.45,365.58 838.10,366.03 838.75,366.49 839.40,366.99 840.05,367.51 840.70,368.06 841.35,368.63 842.00,369.22 842.64,369.83 843.29,370.47 843.94,371.13 844.59,371.81 845.24,372.51 845.89,373.22 846.54,373.95 847.19,374.70 847.84,375.47 848.49,376.25 849.14,377.04 849.79,377.84 850.44,378.66 851.09,379.49 851.74,380.33 852.39,381.17 853.04,382.03 853.69,382.89 854.34,383.76 854.99,384.63 855.64,385.51 856.29,386.39 856.94,387.27 857.59,388.15 858.23,389.03 858.88,389.92 859.53,390.80 860.18,391.67 860.83,392.55 861.48,393.42 862.13,394.29 862.78,395.15 863.43,396.00 864.08,396.85 864.73,397.69 865.38,398.52 866.03,399.34 866.68,400.15 867.33,400.94 867.98,401.73 868.63,402.51 869.28,403.27 869.93,404.02 870.58,404.75 871.23,405.47 871.88,406.17 872.53,406.86 873.18,407.53 873.82,408.19 874.47,408.83 875.12,409.45 875.77,410.06 876.42,410.64"/>
<polyline fill="none" stroke="#d84315" stroke-width="2.5" stroke-dasharray="7 5" points="97.58,393.58 98.23,393.78 98.88,394.00 99.53,394.24 100.18,394.48 100.82,394.74 101.47,395.02 102.12,395.31 102.77,395.61 103.42,395.92 104.07,396.24 104.72,396.57 105.37,396.91 106.02,397.27 106.67,397.63 107.32,398.00 107.97,398.38 108.62,398.77 109.27,399.16 109.92,399.56 110.57,399.96 111.22,400.37 111.87,400.79 112.52,401.20 113.17,401.62 113.82,402.04 114.47,402.47 115.12,402.89 115.77,403.31 116.41,403.73 117.06,404.15 117.71,404.56 118.36,404.98 119.01,405.38 119.66,405.78 120.31,406.18 120.96,406.57 121.61,406.94 122.26,407.31 122.91,407.68 123.56,408.02 124.21,408.36 124.86,408.69 125.51,409.00 126.16,409.30 126.81,409.58 127.46,409.85 128.11,410.10 128.76,410.33 129.41,410.54 130.06,410.74 130.71,410.91 131.36,411.07 132.00,411.20 132.65,411.31 133.30,411.40 133.95,411.46 134.60,411.50 135.25,411.52 135.90,411.51 136.55,411.47 137.20,411.40 137.85,411.31 138.50,411.19 139.15,411.05 139.80,410.87 140.45,410.66 141.10,410.43 141.75,410.16 142.40,409.87 143.05,409.54 143.70,409.18 144.35,408.79 145.00,408.37 145.65,407.92 146.30,407.44 146.94,406.92 147.59,406.37 148.24,405.80 148.89,405.19 149.54,404.54 150.19,403.87 150.84,403.16 151.49,402.43 152.14,401.66 152.79,400.86 153.44,400.03 154.09,399.18 154.74,398.29 155.39,397.37 156.04,396.43 156.69,395.46 157.34,394.46 157.99,393.43 158.64,392.38 159.29,391.30 159.94,390.20 160.59,389.07 161.24,387.92 161.89,386.75 162.53,385.56 163.18,384.35 163.83,383.12 164.48,381.87 165.13,380.60 165.78,379.32 166.43,378.02 167.08,376.71 167.73,375.39 168.38,374.05 169.03,372.71 169.68,371.36 170.33,370.00 170.98,368.63 171.63,367.26 172.28,365.89 172.93,364.51 173.58,363.14 174.23,361.76 174.88,360.39 175.53,359.02 176.18,357.65 176.83,356.30 177.48,354.95 178.12,353.61 178.77,352.28 179.42,350.96 180.07,349.66 180.72,348.38 181.37,347.11 182.02,345.86 182.67,344.63 183.32,343.42 183.97,342.23 184.62,341.07 185.27,339.93 185.92,338.82 186.57,337.74 187.22,336.69 187.87,335.67 188.52,334.68 189.17,333.72 189.82,332.80 190.47,331.92 191.12,331.07 191.77,330.26 192.42,329.49 193.07,328.76 193.71,328.07 194.36,327.42 195.01,326.82 195.66,326.26 196.31,325.74 196.96,325.27 197.61,324.85 198.26,324.47 198.91,324.14 199.56,323.86 200.21,323.62 200.86,323.44 201.51,323.30 202.16,323.21 202.81,323.17 203.46,323.18 204.11,323.24 204.76,323.35 205.41,323.51 206.06,323.72 206.71,323.98 207.36,324.29 208.01,324.64 208.66,325.05 209.30,325.50 209.95,326.00 210.60,326.54 211.25,327.13 211.90,327.77 212.55,328.45 213.20,329.18 213.85,329.94 214.50,330.75 215.15,331.60 215.80,332.49 216.45,333.42 217.10,334.38 217.75,335.38 218.40,336.41 219.05,337.48 219.70,338.58 220.35,339.70 221.00,340.86 221.65,342.04 222.30,343.24 222.95,344.47 223.60,345.72 224.24,346.99 224.89,348.28 225.54,349.58 226.19,350.89 226.84,352.22 227.49,353.55 228.14,354.89 228.79,356.24 229.44,357.59 230.09,358.93 230.74,360.28 231.39,361.62 232.04,362.96 232.69,364.29 233.34,365.61 233.99,366.91 234.64,368.20 235.29,369.47 235.94,370.72 236.59,371.95 237.24,373.16 237.89,374.33 238.54,375.48 239.19,376.60 239.83,377.68 240.48,378.73 241.13,379.74 241.78,380.71 242.43,381.64 243.08,382.53 243.73,383.36 244.38,384.15 245.03,384.89 245.68,385.58 246.33,386.21 246.98,386.79 247.63,387.31 248.28,387.77 248.93,388.17 249.58,388.51 250.23,388.78 250.88,388.99 251.53,389.13 252.18,389.20 252.83,389.21 253.48,389.14 254.13,389.00 254.78,388.79 255.42,388.51 256.07,388.16 256.72,387.73 257.37,387.22 258.02,386.64 258.67,385.98 259.32,385.25 259.97,384.44 260.62,383.55 261.27,382.58 261.92,381.54 262.57,380.43 263.22,379.23 263.87,377.96 264.52,376.62 265.17,375.20 265.82,373.71 266.47,372.14 267.12,370.50 267.77,368.79 268.42,367.01 269.07,365.16 269.72,363.24 270.37,361.26 271.01,359.21 271.66,357.09 272.31,354.92 272.96,352.68 273.61,350.39 274.26,348.04 274.91,345.64 275.56,343.19 276.21,340.68 276.86,338.13 277.51,335.53 278.16,332.89 278.81,330.21 279.46,327.49 280.11,324.74 280.76,321.96 281.41,319.14 282.06,316.30 282.71,313.44 283.36,310.55 284.01,307.65 284.66,304.73 285.31,301.80 285.96,298.86 286.60,295.92 287.25,292.98 287.90,290.03 288.55,287.09 289.20,284.16 289.85,281.24 290.50,278.33 291.15,275.45 291.80,272.58 292.45,269.73 293.10,266.92 293.75,264.13 294.40,261.38 295.05,258.66 295.70,255.99 296.35,253.35 297.00,250.77 297.65,248.23 298.30,245.75 298.95,243.32 299.60,240.95 300.25,238.65 300.90,236.40 301.54,234.23 302.19,232.12 302.84,230.09 303.49,228.13 304.14,226.25 304.79,224.45 305.44,222.73 306.09,221.09 306.74,219.54 307.39,218.08 308.04,216.71 308.69,215.44 309.34,214.25 309.99,213.17 310.64,212.17 311.29,211.28 311.94,210.49 312.59,209.80 313.24,209.21 313.89,208.72 314.54,208.33 315.19,208.05 315.84,207.88 316.49,207.80 317.13,207.84 317.78,207.97 318.43,208.22 319.08,208.57 319.73,209.02 320.38,209.57 321.03,210.23 321.68,211.00 322.33,211.86 322.98,212.82 323.63,213.89 324.28,215.05 324.93,216.31 325.58,217.66 326.23,219.11 326.88,220.65 327.53,222.28 328.18,224.00 328.83,225.80 329.48,227.69 330.13,229.66 330.78,231.70 331.43,233.82 332.08,236.01 332.72,238.28 333.37,240.61 334.02,243.00 334.67,245.46 335.32,247.97 335.97,250.53 336.62,253.15 337.27,255.81 337.92,258.51 338.57,261.26 339.22,264.04 339.87,266.85 340.52,269.69 341.17,272.55 341.82,275.43 342.47,278.33 343.12,281.24 343.77,284.16 344.42,287.08 345.07,290.00 345.72,292.91 346.37,295.82 347.02,298.71 347.67,301.58 348.31,304.43 348.96,307.25 349.61,310.04 350.26,312.80 350.91,315.52 351.56,318.20 352.21,320.82 352.86,323.40 353.51,325.92 354.16,328.38 354.81,330.78 355.46,333.11 356.11,335.37 356.76,337.55 357.41,339.66 358.06,341.68 358.71,343.62 359.36,345.47 360.01,347.23 360.66,348.89 361.31,350.46 361.96,351.92 362.61,353.28 363.26,354.53 363.90,355.67 364.55,356.71 365.20,357.62 365.85,358.43 366.50,359.11 367.15,359.67 367.80,360.11 368.45,360.43 369.10,360.63 369.75,360.69 370.40,360.64 371.05,360.45 371.70,360.13 372.35,359.69 373.00,359.11 373.65,358.41 374.30,357.57 374.95,356.61 375.60,355.52 376.25,354.29 376.90,352.94 377.55,351.46 378.20,349.85 378.84,348.12 379.49,346.26 380.14,344.27 380.79,342.17 381.44,339.95 382.09,337.60 382.74,335.14 383.39,332.57 384.04,329.89 384.69,327.10 385.34,324.20 385.99,321.20 386.64,318.10 387.29,314.90 387.94,311.60 388.59,308.22 389.24,304.75 389.89,301.20 390.54,297.56 391.19,293.86 391.84,290.08 392.49,286.23 393.14,282.32 393.79,278.35 394.43,274.33 395.08,270.26 395.73,266.14 396.38,261.98 397.03,257.79 397.68,253.56 398.33,249.31 398.98,245.04 399.63,240.75 400.28,236.45 400.93,232.15 401.58,227.84 402.23,223.54 402.88,219.25 403.53,214.97 404.18,210.71 404.83,206.48 405.48,202.27 406.13,198.10 406.78,193.97 407.43,189.89 408.08,185.85 408.73,181.87 409.38,177.95 410.02,174.09 410.67,170.30 411.32,166.58 411.97,162.95 412.62,159.39 413.27,155.92 413.92,152.55 414.57,149.27 415.22,146.09 415.87,143.01 416.52,140.04 417.17,137.18 417.82,134.44 418.47,131.81 419.12,129.31 419.77,126.93 420.42,124.68 421.07,122.56 421.72,120.57 422.37,118.72 423.02,117.00 423.67,115.43 424.32,114.00 424.97,112.71 425.61,111.57 426.26,110.58 426.91,109.74 427.56,109.05 428.21,108.50 428.86,108.11 429.51,107.87 430.16,107.79 430.81,107.85 431.46,108.07 432.11,108.44 432.76,108.97 433.41,109.64 434.06,110.47 434.71,111.44 435.36,112.57 436.01,113.84 436.66,115.26 437.31,116.82 437.96,118.52 438.61,120.36 439.26,122.34 439.91,124.46 440.56,126.70 441.20,129.08 441.85,131.58 442.50,134.21 443.15,136.96 443.80,139.82 444.45,142.79 445.10,145.88 445.75,149.07 446.40,152.36 447.05,155.75 447.70,159.23 448.35,162.80 449.00,166.45 449.65,170.18 450.30,173.98 450.95,177.86 451.60,181.80 452.25,185.79 452.90,189.84 453.55,193.95 454.20,198.09 454.85,202.27 455.50,206.49 456.14,210.73 456.79,214.99 457.44,219.27 458.09,223.56 458.74,227.86 459.39,232.15 460.04,236.44 460.69,240.72 461.34,244.98 461.99,249.22 462.64,253.43 463.29,257.61 463.94,261.75 464.59,265.84 465.24,269.89 465.89,273.88 466.54,277.81 467.19,281.67 467.84,285.47 468.49,289.19 469.14,292.83 469.79,296.38 470.44,299.85 471.09,303.22 471.73,306.49 472.38,309.67 473.03,312.73 473.68,315.68 474.33,318.52 474.98,321.25 475.63,323.84 476.28,326.32 476.93,328.67 477.58,330.88 478.23,332.96 478.88,334.90 479.53,336.71 480.18,338.37 480.83,339.89 481.48,341.26 482.13,342.48 482.78,343.56 483.43,344.48 484.08,345.25 484.73,345.87 485.38,346.33 486.03,346.64 486.68,346.80 487.32,346.80 487.97,346.64 488.62,346.33 489.27,345.87 489.92,345.25 490.57,344.48 491.22,343.56 491.87,342.48 492.52,341.26 493.17,339.89 493.82,338.37 494.47,336.71 495.12,334.90 495.77,332.96 496.42,330.88 497.07,328.67 497.72,326.32 498.37,323.84 499.02,321.25 499.67,318.52 500.32,315.68 500.97,312.73 501.62,309.67 502.27,306.49 502.91,303.22 503.56,299.85 504.21,296.38 504.86,292.83 505.51,289.19 506.16,285.47 506.81,281.67 507.46,277.81 508.11,273.88 508.76,269.89 509.41,265.84 510.06,261.75 510.71,257.61 511.36,253.43 512.01,249.22 512.66,244.98 513.31,240.72 513.96,236.44 514.61,232.15 515.26,227.86 515.91,223.56 516.56,219.27 517.21,214.99 517.86,210.73 518.50,206.49 519.15,202.27 519.80,198.09 520.45,193.95 521.10,189.84 521.75,185.79 522.40,181.80 523.05,177.86 523.70,173.98 524.35,170.18 525.00,166.45 525.65,162.80 526.30,159.23 526.95,155.75 527.60,152.36 528.25,149.07 528.90,145.88 529.55,142.79 530.20,139.82 530.85,136.96 531.50,134.21 532.15,131.58 532.80,129.08 533.44,126.70 534.09,124.46 534.74,122.34 535.39,120.36 536.04,118.52 536.69,116.82 537.34,115.26 537.99,113.84 538.64,112.57 539.29,111.44 539.94,110.47 540.59,109.64 541.24,108.97 541.89,108.44 542.54,108.07 543.19,107.85 543.84,107.79 544.49,107.87 545.14,108.11 545.79,108.50 546.44,109.05 547.09,109.74 547.74,110.58 548.39,111.57 549.03,112.71 549.68,114.00 550.33,115.43 550.98,117.00 551.63,118.72 552.28,120.57 552.93,122.56 553.58,124.68 554.23,126.93 554.88,129.31 555.53,131.81 556.18,134.44 556.83,137.18 557.48,140.04 558.13,143.01 558.78,146.09 559.43,149.27 560.08,152.55 560.73,155.92 561.38,159.39 562.03,162.95 562.68,166.58 563.33,170.30 563.98,174.09 564.62,177.95 565.27,181.87 565.92,185.85 566.57,189.89 567.22,193.97 567.87,198.10 568.52,202.27 569.17,206.48 569.82,210.71 570.47,214.97 571.12,219.25 571.77,223.54 572.42,227.84 573.07,232.15 573.72,236.45 574.37,240.75 575.02,245.04 575.67,249.31 576.32,253.56 576.97,257.79 577.62,261.98 578.27,266.14 578.92,270.26 579.57,274.33 580.21,278.35 580.86,282.32 581.51,286.23 582.16,290.08 582.81,293.86 583.46,297.56 584.11,301.20 584.76,304.75 585.41,308.22 586.06,311.60 586.71,314.90 587.36,318.10 588.01,321.20 588.66,324.20 589.31,327.10 589.96,329.89 590.61,332.57 591.26,335.14 591.91,337.60 592.56,339.95 593.21,342.17 593.86,344.27 594.51,346.26 595.16,348.12 595.80,349.85 596.45,351.46 597.10,352.94 597.75,354.29 598.40,355.52 599.05,356.61 599.70,357.57 600.35,358.41 601.00,359.11 601.65,359.69 602.30,360.13 602.95,360.45 603.60,360.64 604.25,360.69 604.90,360.63 605.55,360.43 606.20,360.11 606.85,359.67 607.50,359.11 608.15,358.43 608.80,357.62 609.45,356.71 610.10,355.67 610.74,354.53 611.39,353.28 612.04,351.92 612.69,350.46 613.34,348.89 613.99,347.23 614.64,345.47 615.29,343.62 615.94,341.68 616.59,339.66 617.24,337.55 617.89,335.37 618.54,333.11 619.19,330.78 619.84,328.38 620.49,325.92 621.14,323.40 621.79,320.82 622.44,318.20 623.09,315.52 623.74,312.80 624.39,310.04 625.04,307.25 625.69,304.43 626.33,301.58 626.98,298.71 627.63,295.82 628.28,292.91 628.93,290.00 629.58,287.08 630.23,284.16 630.88,281.24 631.53,278.33 632.18,275.43 632.83,272.55 633.48,269.69 634.13,266.85 634.78,264.04 635.43,261.26 636.08,258.51 636.73,255.81 637.38,253.15 638.03,250.53 638.68,247.97 639.33,245.46 639.98,243.00 640.63,240.61 641.28,238.28 641.92,236.01 642.57,233.82 643.22,231.70 643.87,229.66 644.52,227.69 645.17,225.80 645.82,224.00 646.47,222.28 647.12,220.65 647.77,219.11 648.42,217.66 649.07,216.31 649.72,215.05 650.37,213.89 651.02,212.82 651.67,211.86 652.32,211.00 652.97,210.23 653.62,209.57 654.27,209.02 654.92,208.57 655.57,208.22 656.22,207.97 656.87,207.84 657.51,207.80 658.16,207.88 658.81,208.05 659.46,208.33 660.11,208.72 660.76,209.21 661.41,209.80 662.06,210.49 662.71,211.28 663.36,212.17 664.01,213.17 664.66,214.25 665.31,215.44 665.96,216.71 666.61,218.08 667.26,219.54 667.91,221.09 668.56,222.73 669.21,224.45 669.86,226.25 670.51,228.13 671.16,230.09 671.81,232.12 672.46,234.23 673.10,236.40 673.75,238.65 674.40,240.95 675.05,243.32 675.70,245.75 676.35,248.23 677.00,250.77 677.65,253.35 678.30,255.99 678.95,258.66 679.60,261.38 680.25,264.13 680.90,266.92 681.55,269.73 682.20,272.58 682.85,275.45 683.50,278.33 684.15,281.24 684.80,284.16 685.45,287.09 686.10,290.03 686.75,292.98 687.40,295.92 688.04,298.86 688.69,301.80 689.34,304.73 689.99,307.65 690.64,310.55 691.29,313.44 691.94,316.30 692.59,319.14 693.24,321.96 693.89,324.74 694.54,327.49 695.19,330.21 695.84,332.89 696.49,335.53 697.14,338.13 697.79,340.68 698.44,343.19 699.09,345.64 699.74,348.04 700.39,350.39 701.04,352.68 701.69,354.92 702.34,357.09 702.99,359.21 703.63,361.26 704.28,363.24 704.93,365.16 705.58,367.01 706.23,368.79 706.88,370.50 707.53,372.14 708.18,373.71 708.83,375.20 709.48,376.62 710.13,377.96 710.78,379.23 711.43,380.43 712.08,381.54 712.73,382.58 713.38,383.55 714.03,384.44 714.68,385.25 715.33,385.98 715.98,386.64 716.63,387.22 717.28,387.73 717.93,388.16 718.58,388.51 719.22,388.79 719.87,389.00 720.52,389.14 721.17,389.21 721.82,389.20 722.47,389.13 723.12,388.99 723.77,388.78 724.42,388.51 725.07,388.17 725.72,387.77 726.37,387.31 727.02,386.79 727.67,386.21 728.32,385.58 728.97,384.89 729.62,384.15 730.27,383.36 730.92,382.53 731.57,381.64 732.22,380.71 732.87,379.74 733.52,378.73 734.17,377.68 734.81,376.60 735.46,375.48 736.11,374.33 736.76,373.16 737.41,371.95 738.06,370.72 738.71,369.47 739.36,368.20 740.01,366.91 740.66,365.61 741.31,364.29 741.96,362.96 742.61,361.62 743.26,360.28 743.91,358.93 744.56,357.59 745.21,356.24 745.86,354.89 746.51,353.55 747.16,352.22 747.81,350.89 748.46,349.58 749.11,348.28 749.76,346.99 750.40,345.72 751.05,344.47 751.70,343.24 752.35,342.04 753.00,340.86 753.65,339.70 754.30,338.58 754.95,337.48 755.60,336.41 756.25,335.38 756.90,334.38 757.55,333.42 758.20,332.49 758.85,331.60 759.50,330.75 760.15,329.94 760.80,329.18 761.45,328.45 762.10,327.77 762.75,327.13 763.40,326.54 764.05,326.00 764.70,325.50 765.34,325.05 765.99,324.64 766.64,324.29 767.29,323.98 767.94,323.72 768.59,323.51 769.24,323.35 769.89,323.24 770.54,323.18 771.19,323.17 771.84,323.21 772.49,323.30 773.14,323.44 773.79,323.62 774.44,323.86 775.09,324.14 775.74,324.47 776.39,324.85 777.04,325.27 777.69,325.74 778.34,326.26 778.99,326.82 779.64,327.42 780.29,328.07 780.93,328.76 781.58,329.49 782.23,330.26 782.88,331.07 783.53,331.92 784.18,332.80 784.83,333.72 785.48,334.68 786.13,335.67 786.78,336.69 787.43,337.74 788.08,338.82 788.73,339.93 789.38,341.07 790.03,342.23 790.68,343.42 791.33,344.63 791.98,345.86 792.63,347.11 793.28,348.38 793.93,349.66 794.58,350.96 795.23,352.28 795.88,353.61 796.52,354.95 797.17,356.30 797.82,357.65 798.47,359.02 799.12,360.39 799.77,361.76 800.42,363.14 801.07,364.51 801.72,365.89 802.37,367.26 803.02,368.63 803.67,370.00 804.32,371.36 804.97,372.71 805.62,374.05 806.27,375.39 806.92,376.71 807.57,378.02 808.22,379.32 808.87,380.60 809.52,381.87 810.17,383.12 810.82,384.35 811.47,385.56 812.11,386.75 812.76,387.92 813.41,389.07 814.06,390.20 814.71,391.30 815.36,392.38 816.01,393.43 816.66,394.46 817.31,395.46 817.96,396.43 818.61,397.37 819.26,398.29 819.91,399.18 820.56,400.03 821.21,400.86 821.86,401.66 822.51,402.43 823.16,403.16 823.81,403.87 824.46,404.54 825.11,405.19 825.76,405.80 826.41,406.37 827.06,406.92 827.70,407.44 828.35,407.92 829.00,408.37 829.65,408.79 830.30,409.18 830.95,409.54 831.60,409.87 832.25,410.16 832.90,410.43 833.55,410.66 834.20,410.87 834.85,411.05 835.50,411.19 836.15,411.31 836.80,411.40 837.45,411.47 838.10,411.51 838.75,411.52 839.40,411.50 840.05,411.46 840.70,411.40 841.35,411.31 842.00,411.20 842.64,411.07 843.29,410.91 843.94,410.74 844.59,410.54 845.24,410.33 845.89,410.10 846.54,409.85 847.19,409.58 847.84,409.30 848.49,409.00 849.14,408.69 849.79,408.36 850.44,408.02 851.09,407.68 851.74,407.31 852.39,406.94 853.04,406.57 853.69,406.18 854.34,405.78 854.99,405.38 855.64,404.98 856.29,404.56 856.94,404.15 857.59,403.73 858.23,403.31 858.88,402.89 859.53,402.47 860.18,402.04 860.83,401.62 861.48,401.20 862.13,400.79 862.78,400.37 863.43,399.96 864.08,399.56 864.73,399.16 865.38,398.77 866.03,398.38 866.68,398.00 867.33,397.63 867.98,397.27 868.63,396.91 869.28,396.57 869.93,396.24 870.58,395.92 871.23,395.61 871.88,395.31 872.53,395.02 873.18,394.74 873.82,394.48 874.47,394.24 875.12,394.00 875.77,393.78 876.42,393.58"/>
<line x1="94" y1="72" x2="122" y2="72" stroke="#2962ff" stroke-width="3"/>
<text x="130.00" y="76.00" font-size="12" font-family="Arial, Helvetica, sans-serif" text-anchor="start" fill="#263238">raw V=0.26</text>
<line x1="94" y1="94" x2="122" y2="94" stroke="#00897b" stroke-width="3"/>
<text x="130.00" y="98.00" font-size="12" font-family="Arial, Helvetica, sans-serif" text-anchor="start" fill="#263238">eraser + V=0.70</text>
<line x1="94" y1="116" x2="122" y2="116" stroke="#d84315" stroke-width="3" stroke-dasharray="7 5"/>
<text x="130.00" y="120.00" font-size="12" font-family="Arial, Helvetica, sans-serif" text-anchor="start" fill="#263238">eraser - V=0.62</text>
<text x="487.00" y="492.00" font-size="14" font-family="Arial, Helvetica, sans-serif" text-anchor="middle" fill="#263238">screen position</text>
<text x="22.00" y="246.00" font-size="14" font-family="Arial, Helvetica, sans-serif" text-anchor="middle" fill="#263238" transform="rotate(-90 22.00 246.00)">normalized intensity</text>
</svg>
