<svg xmlns="http://www.w3.org/2000/svg" width="920" height="520" viewBox="0 0 920 520">
<rect width="100%" height="100%" fill="#ffffff"/>
<text x="460.00" y="28.00" font-size="20" font-family="Arial, Helvetica, sans-serif" text-anchor="middle" fill="#17212b">Raw and Conditioned Eraser Patterns</text>
<rect x="82" y="54" width="810" height="384" fill="#fafafa" stroke="#cfd8dc"/>
<line x1="82.00" y1="54" x2="82.00" y2="438" stroke="#eceff1"/>
<text x="82.00" y="462.00" font-size="11" font-family="Arial, Helvetica, sans-serif" text-anchor="middle" fill="#263238">-1.6</text>
<line x1="244.00" y1="54" x2="244.00" y2="438" stroke="#eceff1"/>
<text x="244.00" y="462.00" font-size="11" font-family="Arial, Helvetica, sans-serif" text-anchor="middle" fill="#263238">-0.94</text>
<line x1="406.00" y1="54" x2="406.00" y2="438" stroke="#eceff1"/>
<text x="406.00" y="462.00" font-size="11" font-family="Arial, Helvetica, sans-serif" text-anchor="middle" fill="#263238">-0.31</text>
<line x1="568.00" y1="54" x2="568.00" y2="438" stroke="#eceff1"/>
<text x="568.00" y="462.00" font-size="11" font-family="Arial, Helvetica, sans-serif" text-anchor="middle" fill="#263238">0.31</text>
<line x1="730.00" y1="54" x2="730.00" y2="438" stroke="#eceff1"/>
<text x="730.00" y="462.00" font-size="11" font-family="Arial, Helvetica, sans-serif" text-anchor="middle" fill="#263238">0.94</text>
<line x1="892.00" y1="54" x2="892.00" y2="438" stroke="#eceff1"/>
<text x="892.00" y="462.00" font-size="11" font-family="Arial, Helvetica, sans-serif" text-anchor="middle" fill="#263238">1.6</text>
<line x1="82" y1="438.00" x2="892" y2="438.00" stroke="#eceff1"/>
<text x="72.00" y="442.00" font-size="11" font-family="Arial, Helvetica, sans-serif" text-anchor="end" fill="#263238">-0.038</text>
<line x1="82" y1="361.20" x2="892" y2="361.20" stroke="#eceff1"/>
<text x="72.00" y="365.20" font-size="11" font-family="Arial, Helvetica, sans-serif" text-anchor="end" fill="#263238">0.18</text>
<line x1="82" y1="284.40" x2="892" y2="284.40" stroke="#eceff1"/>
<text x="72.00" y="288.40" font-size="11" font-family="Arial, Helvetica, sans-serif" text-anchor="end" fill="#263238">0.4</text>
<line x1="82" y1="207.60" x2="892" y2="207.60" stroke="#eceff1"/>
<text x="72.00" y="211.60" font-size="11" font-family="Arial, Helvetica, sans-serif" text-anchor="end" fill="#263238">0.62</text>
<line x1="82" y1="130.80" x2="892" y2="130.80" stroke="#eceff1"/>
<text x="72.00" y="134.80" font-size="11" font-family="Arial, Helvetica, sans-serif" text-anchor="end" fill="#263238">0.84</text>
<line x1="82" y1="54.00" x2="892" y2="54.00" stroke="#eceff1"/>
<text x="72.00" y="58.00" font-size="11" font-family="Arial, Helvetica, sans-serif" text-anchor="end" fill="#263238">1.1</text>
<polyline fill="none" stroke="#2962ff" stroke-width="2.5" points="97.58,405.12 98.23,404.80 98.88,404.47 99.53,404.14 100.18,403.79 100.82,403.45 101.47,403.09 102.12,402.73 102.77,402.36 103.42,401.98 104.07,401.60 104.72,401.21 105.37,400.82 106.02,400.42 106.67,400.02 107.32,399.61 107.97,399.20 108.62,398.78 109.27,398.36 109.92,397.93 110.57,397.50 111.22,397.07 111.87,396.63 112.52,396.19 113.17,395.75 113.82,395.31 114.47,394.87 115.12,394.42 115.77,393.97 116.41,393.52 117.06,393.07 117.71,392.63 118.36,392.18 119.01,391.73 119.66,391.28 120.31,390.83 120.96,390.39 121.61,389.95 122.26,389.51 122.91,389.07 123.56,388.63 124.21,388.20 124.86,387.77 125.51,387.35 126.16,386.93 126.81,386.52 127.46,386.11 128.11,385.70 128.76,385.30 129.41,384.91 130.06,384.53 130.71,384.15 131.36,383.78 132.00,383.41 132.65,383.05 133.30,382.71 133.95,382.37 134.60,382.03 135.25,381.71 135.90,381.40 136.55,381.09 137.20,380.80 137.85,380.51 138.50,380.23 139.15,379.97 139.80,379.71 140.45,379.47 141.10,379.24 141.75,379.01 142.40,378.80 143.05,378.60 143.70,378.41 144.35,378.23 145.00,378.07 145.65,377.91 146.30,377.77 146.94,377.64 147.59,377.52 148.24,377.41 148.89,377.31 149.54,377.22 150.19,377.15 150.84,377.09 151.49,377.04 152.14,377.00 152.79,376.97 153.44,376.95 154.09,376.94 154.74,376.94 155.39,376.96 156.04,376.98 156.69,377.01 157.34,377.06 157.99,377.11 158.64,377.17 159.29,377.24 159.94,377.32 160.59,377.41 161.24,377.51 161.89,377.61 162.53,377.72 163.18,377.84 163.83,377.96 164.48,378.09 165.13,378.22 165.78,378.36 166.43,378.51 167.08,378.66 167.73,378.81 168.38,378.96 169.03,379.12 169.68,379.28 170.33,379.44 170.98,379.60 171.63,379.76 172.28,379.93 172.93,380.09 173.58,380.25 174.23,380.41 174.88,380.56 175.53,380.71 176.18,380.86 176.83,381.01 177.48,381.15 178.12,381.28 178.77,381.41 179.42,381.53 180.07,381.65 180.72,381.75 181.37,381.85 182.02,381.94 182.67,382.02 183.32,382.08 183.97,382.14 184.62,382.19 185.27,382.22 185.92,382.24 186.57,382.25 187.22,382.25 187.87,382.23 188.52,382.19 189.17,382.14 189.82,382.08 190.47,381.99 191.12,381.89 191.77,381.78 192.42,381.65 193.07,381.49 193.71,381.32 194.36,381.14 195.01,380.93 195.66,380.70 196.31,380.45 196.96,380.18 197.61,379.90 198.26,379.59 198.91,379.26 199.56,378.91 200.21,378.54 200.86,378.14 201.51,377.73 202.16,377.29 202.81,376.83 203.46,376.35 204.11,375.85 204.76,375.33 205.41,374.78 206.06,374.21 206.71,373.62 207.36,373.01 208.01,372.38 208.66,371.73 209.30,371.05 209.95,370.36 210.60,369.64 211.25,368.90 211.90,368.15 212.55,367.37 213.20,366.58 213.85,365.76 214.50,364.93 215.15,364.08 215.80,363.21 216.45,362.33 217.10,361.42 217.75,360.51 218.40,359.57 219.05,358.62 219.70,357.66 220.35,356.69 221.00,355.70 221.65,354.70 222.30,353.68 222.95,352.66 223.60,351.63 224.24,350.59 224.89,349.54 225.54,348.48 226.19,347.42 226.84,346.35 227.49,345.27 228.14,344.19 228.79,343.11 229.44,342.02 230.09,340.94 230.74,339.85 231.39,338.77 232.04,337.68 232.69,336.60 233.34,335.52 233.99,334.45 234.64,333.38 235.29,332.31 235.94,331.26 236.59,330.21 237.24,329.17 237.89,328.14 238.54,327.12 239.19,326.11 239.83,325.12 240.48,324.14 241.13,323.18 241.78,322.23 242.43,321.29 243.08,320.37 243.73,319.48 244.38,318.60 245.03,317.74 245.68,316.90 246.33,316.08 246.98,315.28 247.63,314.51 248.28,313.76 248.93,313.03 249.58,312.33 250.23,311.65 250.88,311.00 251.53,310.38 252.18,309.78 252.83,309.22 253.48,308.68 254.13,308.16 254.78,307.68 255.42,307.23 256.07,306.80 256.72,306.41 257.37,306.04 258.02,305.71 258.67,305.40 259.32,305.13 259.97,304.89 260.62,304.68 261.27,304.50 261.92,304.35 262.57,304.23 263.22,304.14 263.87,304.08 264.52,304.06 265.17,304.06 265.82,304.09 266.47,304.16 267.12,304.25 267.77,304.37 268.42,304.52 269.07,304.69 269.72,304.90 270.37,305.13 271.01,305.38 271.66,305.67 272.31,305.97 272.96,306.31 273.61,306.66 274.26,307.04 274.91,307.44 275.56,307.86 276.21,308.30 276.86,308.76 277.51,309.23 278.16,309.73 278.81,310.24 279.46,310.76 280.11,311.30 280.76,311.86 281.41,312.42 282.06,312.99 282.71,313.58 283.36,314.17 284.01,314.77 284.66,315.37 285.31,315.98 285.96,316.60 286.60,317.21 287.25,317.83 287.90,318.44 288.55,319.05 289.20,319.66 289.85,320.26 290.50,320.86 291.15,321.45 291.80,322.03 292.45,322.61 293.10,323.17 293.75,323.71 294.40,324.25 295.05,324.76 295.70,325.27 296.35,325.75 297.00,326.21 297.65,326.66 298.30,327.08 298.95,327.48 299.60,327.85 300.25,328.20 300.90,328.52 301.54,328.82 302.19,329.08 302.84,329.32 303.49,329.53 304.14,329.70 304.79,329.84 305.44,329.95 306.09,330.02 306.74,330.06 307.39,330.06 308.04,330.02 308.69,329.95 309.34,329.83 309.99,329.68 310.64,329.49 311.29,329.26 311.94,328.99 312.59,328.67 313.24,328.32 313.89,327.92 314.54,327.48 315.19,327.00 315.84,326.47 316.49,325.90 317.13,325.29 317.78,324.64 318.43,323.94 319.08,323.20 319.73,322.42 320.38,321.60 321.03,320.73 321.68,319.82 322.33,318.87 322.98,317.88 323.63,316.85 324.28,315.78 324.93,314.67 325.58,313.52 326.23,312.33 326.88,311.11 327.53,309.85 328.18,308.55 328.83,307.22 329.48,305.86 330.13,304.46 330.78,303.03 331.43,301.57 332.08,300.09 332.72,298.57 333.37,297.03 334.02,295.46 334.67,293.87 335.32,292.25 335.97,290.61 336.62,288.96 337.27,287.28 337.92,285.59 338.57,283.89 339.22,282.16 339.87,280.43 340.52,278.69 341.17,276.94 341.82,275.18 342.47,273.41 343.12,271.65 343.77,269.88 344.42,268.11 345.07,266.34 345.72,264.57 346.37,262.81 347.02,261.06 347.67,259.31 348.31,257.58 348.96,255.85 349.61,254.14 350.26,252.45 350.91,250.78 351.56,249.12 352.21,247.48 352.86,245.87 353.51,244.28 354.16,242.72 354.81,241.18 355.46,239.68 356.11,238.20 356.76,236.76 357.41,235.35 358.06,233.97 358.71,232.63 359.36,231.33 360.01,230.07 360.66,228.85 361.31,227.67 361.96,226.54 362.61,225.45 363.26,224.40 363.90,223.41 364.55,222.45 365.20,221.55 365.85,220.70 366.50,219.90 367.15,219.15 367.80,218.45 368.45,217.80 369.10,217.21 369.75,216.67 370.40,216.18 371.05,215.75 371.70,215.37 372.35,215.05 373.00,214.78 373.65,214.57 374.30,214.41 374.95,214.31 375.60,214.27 376.25,214.28 376.90,214.35 377.55,214.46 378.20,214.64 378.84,214.87 379.49,215.15 380.14,215.48 380.79,215.87 381.44,216.31 382.09,216.80 382.74,217.33 383.39,217.92 384.04,218.56 384.69,219.24 385.34,219.97 385.99,220.74 386.64,221.56 387.29,222.42 387.94,223.32 388.59,224.25 389.24,225.23 389.89,226.24 390.54,227.29 391.19,228.37 391.84,229.49 392.49,230.63 393.14,231.80 393.79,233.00 394.43,234.22 395.08,235.47 395.73,236.73 396.38,238.02 397.03,239.32 397.68,240.64 398.33,241.97 398.98,243.31 399.63,244.66 400.28,246.02 400.93,247.38 401.58,248.74 402.23,250.11 402.88,251.47 403.53,252.83 404.18,254.19 404.83,255.54 405.48,256.88 406.13,258.20 406.78,259.52 407.43,260.81 408.08,262.09 408.73,263.35 409.38,264.59 410.02,265.80 410.67,266.99 411.32,268.15 411.97,269.28 412.62,270.38 413.27,271.45 413.92,272.48 414.57,273.47 415.22,274.43 415.87,275.34 416.52,276.22 417.17,277.05 417.82,277.84 418.47,278.58 419.12,279.27 419.77,279.92 420.42,280.51 421.07,281.05 421.72,281.55 422.37,281.98 423.02,282.37 423.67,282.70 424.32,282.97 424.97,283.19 425.61,283.35 426.26,283.45 426.91,283.49 427.56,283.48 428.21,283.40 428.86,283.27 429.51,283.07 430.16,282.82 430.81,282.51 431.46,282.13 432.11,281.70 432.76,281.20 433.41,280.65 434.06,280.04 434.71,279.37 435.36,278.64 436.01,277.85 436.66,277.01 437.31,276.11 437.96,275.15 438.61,274.15 439.26,273.08 439.91,271.97 440.56,270.80 441.20,269.58 441.85,268.32 442.50,267.00 443.15,265.64 443.80,264.24 444.45,262.79 445.10,261.30 445.75,259.77 446.40,258.20 447.05,256.59 447.70,254.95 448.35,253.28 449.00,251.57 449.65,249.84 450.30,248.08 450.95,246.29 451.60,244.48 452.25,242.65 452.90,240.80 453.55,238.94 454.20,237.05 454.85,235.16 455.50,233.26 456.14,231.34 456.79,229.43 457.44,227.51 458.09,225.58 458.74,223.66 459.39,221.74 460.04,219.83 460.69,217.93 461.34,216.04 461.99,214.15 462.64,212.29 463.29,210.44 463.94,208.61 464.59,206.80 465.24,205.02 465.89,203.26 466.54,201.53 467.19,199.83 467.84,198.16 468.49,196.53 469.14,194.94 469.79,193.38 470.44,191.86 471.09,190.38 471.73,188.95 472.38,187.56 473.03,186.23 473.68,184.94 474.33,183.70 474.98,182.51 475.63,181.38 476.28,180.30 476.93,179.27 477.58,178.31 478.23,177.40 478.88,176.56 479.53,175.77 480.18,175.05 480.83,174.39 481.48,173.79 482.13,173.26 482.78,172.79 483.43,172.39 484.08,172.06 484.73,171.79 485.38,171.59 486.03,171.45 486.68,171.38 487.32,171.38 487.97,171.45 488.62,171.59 489.27,171.79 489.92,172.06 490.57,172.39 491.22,172.79 491.87,173.26 492.52,173.79 493.17,174.39 493.82,175.05 494.47,175.77 495.12,176.56 495.77,177.40 496.42,178.31 497.07,179.27 497.72,180.30 498.37,181.38 499.02,182.51 499.67,183.70 500.32,184.94 500.97,186.23 501.62,187.56 502.27,188.95 502.91,190.38 503.56,191.86 504.21,193.38 504.86,194.94 505.51,196.53 506.16,198.16 506.81,199.83 507.46,201.53 508.11,203.26 508.76,205.02 509.41,206.80 510.06,208.61 510.71,210.44 511.36,212.29 512.01,214.15 512.66,216.04 513.31,217.93 513.96,219.83 514.61,221.74 515.26,223.66 515.91,225.58 516.56,227.51 517.21,229.43 517.86,231.34 518.50,233.26 519.15,235.16 519.80,237.05 520.45,238.94 521.10,240.80 521.75,242.65 522.40,244.48 523.05,246.29 523.70,248.08 524.35,249.84 525.00,251.57 525.65,253.28 526.30,254.95 526.95,256.59 527.60,258.20 528.25,259.77 528.90,261.30 529.55,262.79 530.20,264.24 530.85,265.64 531.50,267.00 532.15,268.32 532.80,269.58 533.44,270.80 534.09,271.97 534.74,273.08 535.39,274.15 536.04,275.15 536.69,276.11 537.34,277.01 537.99,277.85 538.64,278.64 539.29,279.37 539.94,280.04 540.59,280.65 541.24,281.20 541.89,281.70 542.54,282.13 543.19,282.51 543.84,282.82 544.49,283.07 545.14,283.27 545.79,283.40 546.44,283.48 547.09,283.49 547.74,283.45 548.39,283.35 549.03,283.19 549.68,282.97 550.33,282.70 550.98,282.37 551.63,281.98 552.28,281.55 552.93,281.05 553.58,280.51 554.23,279.92 554.88,279.27 555.53,278.58 556.18,277.84 556.83,277.05 557.48,276.22 558.13,275.34 558.78,274.43 559.43,273.47 560.08,272.48 560.73,271.45 561.38,270.38 562.03,269.28 562.68,268.15 563.33,266.99 563.98,265.80 564.62,264.59 565.27,263.35 565.92,262.09 566.57,260.81 567.22,259.52 567.87,258.20 568.52,256.88 569.17,255.54 569.82,254.19 570.47,252.83 571.12,251.47 571.77,250.11 572.42,248.74 573.07,247.38 573.72,246.02 574.37,244.66 575.02,243.31 575.67,241.97 576.32,240.64 576.97,239.32 577.62,238.02 578.27,236.73 578.92,235.47 579.57,234.22 580.21,233.00 580.86,231.80 581.51,230.63 582.16,229.49 582.81,228.37 583.46,227.29 584.11,226.24 584.76,225.23 585.41,224.25 586.06,223.32 586.71,222.42 587.36,221.56 588.01,220.74 588.66,219.97 589.31,219.24 589.96,218.56 590.61,217.92 591.26,217.33 591.91,216.80 592.56,216.31 593.21,215.87 593.86,215.48 594.51,215.15 595.16,214.87 595.80,214.64 596.45,214.46 597.10,214.35 597.75,214.28 598.40,214.27 599.05,214.31 599.70,214.41 600.35,214.57 601.00,214.78 601.65,215.05 602.30,215.37 602.95,215.75 603.60,216.18 604.25,216.67 604.90,217.21 605.55,217.80 606.20,218.45 606.85,219.15 607.50,219.90 608.15,220.70 608.80,221.55 609.45,222.45 610.10,223.41 610.74,224.40 611.39,225.45 612.04,226.54 612.69,227.67 613.34,228.85 613.99,230.07 614.64,231.33 615.29,232.63 615.94,233.97 616.59,235.35 617.24,236.76 617.89,238.20 618.54,239.68 619.19,241.18 619.84,242.72 620.49,244.28 621.14,245.87 621.79,247.48 622.44,249.12 623.09,250.78 623.74,252.45 624.39,254.14 625.04,255.85 625.69,257.58 626.33,259.31 626.98,261.06 627.63,262.81 628.28,264.57 628.93,266.34 629.58,268.11 630.23,269.88 630.88,271.65 631.53,273.41 632.18,275.18 632.83,276.94 633.48,278.69 634.13,280.43 634.78,282.16 635.43,283.89 636.08,285.59 636.73,287.28 637.38,288.96 638.03,290.61 638.68,292.25 639.33,293.87 639.98,295.46 640.63,297.03 641.28,298.57 641.92,300.09 642.57,301.57 643.22,303.03 643.87,304.46 644.52,305.86 645.17,307.22 645.82,308.55 646.47,309.85 647.12,311.11 647.77,312.33 648.42,313.52 649.07,314.67 649.72,315.78 650.37,316.85 651.02,317.88 651.67,318.87 652.32,319.82 652.97,320.73 653.62,321.60 654.27,322.42 654.92,323.20 655.57,323.94 656.22,324.64 656.87,325.29 657.51,325.90 658.16,326.47 658.81,327.00 659.46,327.48 660.11,327.92 660.76,328.32 661.41,328.67 662.06,328.99 662.71,329.26 663.36,329.49 664.01,329.68 664.66,329.83 665.31,329.95 665.96,330.02 666.61,330.06 667.26,330.06 667.91,330.02 668.56,329.95 669.21,329.84 669.86,329.70 670.51,329.53 671.16,329.32 671.81,329.08 672.46,328.82 673.10,328.52 673.75,328.20 674.40,327.85 675.05,327.48 675.70,327.08 676.35,326.66 677.00,326.21 677.65,325.75 678.30,325.27 678.95,324.76 679.60,324.25 680.25,323.71 680.90,323.17 681.55,322.61 682.20,322.03 682.85,321.45 683.50,320.86 684.15,320.26 684.80,319.66 685.45,319.05 686.10,318.44 686.75,317.83 687.40,317.21 688.04,316.60 688.69,315.98 689.34,315.37 689.99,314.77 690.64,314.17 691.29,313.58 691.94,312.99 692.59,312.42 693.24,311.86 693.89,311.30 694.54,310.76 695.19,310.24 695.84,309.73 696.49,309.23 697.14,308.76 697.79,308.30 698.44,307.86 699.09,307.44 699.74,307.04 700.39,306.66 701.04,306.31 701.69,305.97 702.34,305.67 702.99,305.38 703.63,305.13 704.28,304.90 704.93,304.69 705.58,304.52 706.23,304.37 706.88,304.25 707.53,304.16 708.18,304.09 708.83,304.06 709.48,304.06 710.13,304.08 710.78,304.14 711.43,304.23 712.08,304.35 712.73,304.50 713.38,304.68 714.03,304.89 714.68,305.13 715.33,305.40 715.98,305.71 716.63,306.04 717.28,306.41 717.93,306.80 718.58,307.23 719.22,307.68 719.87,308.16 720.52,308.68 721.17,309.22 721.82,309.78 722.47,310.38 723.12,311.00 723.77,311.65 724.42,312.33 725.07,313.03 725.72,313.76 726.37,314.51 727.02,315.28 727.67,316.08 728.32,316.90 728.97,317.74 729.62,318.60 730.27,319.48 730.92,320.37 731.57,321.29 732.22,322.23 732.87,323.18 733.52,324.14 734.17,325.12 734.81,326.11 735.46,327.12 736.11,328.14 736.76,329.17 737.41,330.21 738.06,331.26 738.71,332.31 739.36,333.38 740.01,334.45 740.66,335.52 741.31,336.60 741.96,337.68 742.61,338.77 743.26,339.85 743.91,340.94 744.56,342.02 745.21,343.11 745.86,344.19 746.51,345.27 747.16,346.35 747.81,347.42 748.46,348.48 749.11,349.54 749.76,350.59 750.40,351.63 751.05,352.66 751.70,353.68 752.35,354.70 753.00,355.70 753.65,356.69 754.30,357.66 754.95,358.62 755.60,359.57 756.25,360.51 756.90,361.42 757.55,362.33 758.20,363.21 758.85,364.08 759.50,364.93 760.15,365.76 760.80,366.58 761.45,367.37 762.10,368.15 762.75,368.90 763.40,369.64 764.05,370.36 764.70,371.05 765.34,371.73 765.99,372.38 766.64,373.01 767.29,373.62 767.94,374.21 768.59,374.78 769.24,375.33 769.89,375.85 770.54,376.35 771.19,376.83 771.84,377.29 772.49,377.73 773.14,378.14 773.79,378.54 774.44,378.91 775.09,379.26 775.74,379.59 776.39,379.90 777.04,380.18 777.69,380.45 778.34,380.70 778.99,380.93 779.64,381.14 780.29,381.32 780.93,381.49 781.58,381.65 782.23,381.78 782.88,381.89 783.53,381.99 784.18,382.08 784.83,382.14 785.48,382.19 786.13,382.23 786.78,382.25 787.43,382.25 788.08,382.24 788.73,382.22 789.38,382.19 790.03,382.14 790.68,382.08 791.33,382.02 791.98,381.94 792.63,381.85 793.28,381.75 793.93,381.65 794.58,381.53 795.23,381.41 795.88,381.28 796.52,381.15 797.17,381.01 797.82,380.86 798.47,380.71 799.12,380.56 799.77,380.41 800.42,380.25 801.07,380.09 801.72,379.93 802.37,379.76 803.02,379.60 803.67,379.44 804.32,379.28 804.97,379.12 805.62,378.96 806.27,378.81 806.92,378.66 807.57,378.51 808.22,378.36 808.87,378.22 809.52,378.09 810.17,377.96 810.82,377.84 811.47,377.72 812.11,377.61 812.76,377.51 813.41,377.41 814.06,377.32 814.71,377.24 815.36,377.17 816.01,377.11 816.66,377.06 817.31,377.01 817.96,376.98 818.61,376.96 819.26,376.94 819.91,376.94 820.56,376.95 821.21,376.97 821.86,377.00 822.51,377.04 823.16,377.09 823.81,377.15 824.46,377.22 825.11,377.31 825.76,377.41 826.41,377.52 827.06,377.64 827.70,377.77 828.35,377.91 829.00,378.07 829.65,378.23 830.30,378.41 830.95,378.60 831.60,378.80 832.25,379.01 832.90,379.24 833.55,379.47 834.20,379.71 834.85,379.97 835.50,380.23 836.15,380.51 836.80,380.80 837.45,381.09 838.10,381.40 838.75,381.71 839.40,382.03 840.05,382.37 840.70,382.71 841.35,383.05 842.00,383.41 842.64,383.78 843.29,384.15 843.94,384.53 844.59,384.91 845.24,385.30 845.89,385.70 846.54,386.11 847.19,386.52 847.84,386.93 848.49,387.35 849.14,387.77 849.79,388.20 850.44,388.63 851.09,389.07 851.74,389.51 852.39,389.95 853.04,390.39 853.69,390.83 854.34,391.28 854.99,391.73 855.64,392.18 856.29,392.63 856.94,393.07 857.59,393.52 858.23,393.97 858.88,394.42 859.53,394.87 860.18,395.31 860.83,395.75 861.48,396.19 862.13,396.63 862.78,397.07 863.43,397.50 864.08,397.93 864.73,398.36 865.38,398.78 866.03,399.20 866.68,399.61 867.33,400.02 867.98,400.42 868.63,400.82 869.28,401.21 869.93,401.60 870.58,401.98 871.23,402.36 871.88,402.73 872.53,403.09 873.18,403.45 873.82,403.79 874.47,404.14 875.12,404.47 875.77,404.80 876.42,405.12"/>
<polyline fill="none" stroke="#00897b" stroke-width="2.5" points="97.58,410.65 98.23,410.08 98.88,409.48 99.53,408.87 100.18,408.24 100.82,407.59 101.47,406.93 102.12,406.25 102.77,405.55 103.42,404.84 104.07,404.12 104.72,403.38 105.37,402.63 106.02,401.87 106.67,401.09 107.32,400.30 107.97,399.51 108.62,398.70 109.27,397.88 109.92,397.05 110.57,396.22 111.22,395.38 111.87,394.53 112.52,393.67 113.17,392.81 113.82,391.95 114.47,391.08 115.12,390.22 115.77,389.35 116.41,388.47 117.06,387.60 117.71,386.73 118.36,385.87 119.01,385.00 119.66,384.14 120.31,383.29 120.96,382.44 121.61,381.60 122.26,380.76 122.91,379.94 123.56,379.12 124.21,378.31 124.86,377.52 125.51,376.74 126.16,375.97 126.81,375.21 127.46,374.48 128.11,373.75 128.76,373.05 129.41,372.36 130.06,371.69 130.71,371.04 131.36,370.41 132.00,369.81 132.65,369.22 133.30,368.66 133.95,368.12 134.60,367.61 135.25,367.12 135.90,366.66 136.55,366.22 137.20,365.81 137.85,365.43 138.50,365.08 139.15,364.75 139.80,364.46 140.45,364.20 141.10,363.96 141.75,363.76 142.40,363.59 143.05,363.44 143.70,363.34 144.35,363.26 145.00,363.21 145.65,363.20 146.30,363.22 146.94,363.27 147.59,363.36 148.24,363.47 148.89,363.62 149.54,363.81 150.19,364.02 150.84,364.27 151.49,364.55 152.14,364.86 152.79,365.20 153.44,365.57 154.09,365.97 154.74,366.41 155.39,366.87 156.04,367.36 156.69,367.88 157.34,368.43 157.99,369.00 158.64,369.60 159.29,370.23 159.94,370.88 160.59,371.55 161.24,372.25 161.89,372.97 162.53,373.71 163.18,374.47 163.83,375.24 164.48,376.04 165.13,376.85 165.78,377.68 166.43,378.52 167.08,379.37 167.73,380.24 168.38,381.11 169.03,381.99 169.68,382.88 170.33,383.78 170.98,384.68 171.63,385.58 172.28,386.49 172.93,387.39 173.58,388.29 174.23,389.19 174.88,390.09 175.53,390.98 176.18,391.86 176.83,392.73 177.48,393.59 178.12,394.43 178.77,395.26 179.42,396.08 180.07,396.88 180.72,397.66 181.37,398.42 182.02,399.15 182.67,399.86 183.32,400.55 183.97,401.21 184.62,401.84 185.27,402.43 185.92,403.00 186.57,403.54 187.22,404.04 187.87,404.50 188.52,404.92 189.17,405.31 189.82,405.66 190.47,405.96 191.12,406.22 191.77,406.44 192.42,406.62 193.07,406.74 193.71,406.82 194.36,406.85 195.01,406.84 195.66,406.77 196.31,406.65 196.96,406.48 197.61,406.25 198.26,405.97 198.91,405.64 199.56,405.26 200.21,404.82 200.86,404.32 201.51,403.77 202.16,403.16 202.81,402.50 203.46,401.78 204.11,401.00 204.76,400.17 205.41,399.28 206.06,398.33 206.71,397.33 207.36,396.27 208.01,395.16 208.66,393.99 209.30,392.77 209.95,391.49 210.60,390.16 211.25,388.78 211.90,387.34 212.55,385.86 213.20,384.32 213.85,382.74 214.50,381.11 215.15,379.43 215.80,377.71 216.45,375.94 217.10,374.14 217.75,372.29 218.40,370.40 219.05,368.47 219.70,366.51 220.35,364.51 221.00,362.48 221.65,360.42 222.30,358.33 222.95,356.21 223.60,354.07 224.24,351.91 224.89,349.72 225.54,347.52 226.19,345.30 226.84,343.07 227.49,340.82 228.14,338.57 228.79,336.31 229.44,334.04 230.09,331.77 230.74,329.50 231.39,327.24 232.04,324.98 232.69,322.72 233.34,320.48 233.99,318.25 234.64,316.04 235.29,313.84 235.94,311.66 236.59,309.51 237.24,307.38 237.89,305.28 238.54,303.20 239.19,301.17 239.83,299.16 240.48,297.20 241.13,295.27 241.78,293.39 242.43,291.55 243.08,289.76 243.73,288.01 244.38,286.32 245.03,284.68 245.68,283.10 246.33,281.58 246.98,280.11 247.63,278.71 248.28,277.37 248.93,276.10 249.58,274.89 250.23,273.75 250.88,272.68 251.53,271.68 252.18,270.76 252.83,269.91 253.48,269.14 254.13,268.44 254.78,267.82 255.42,267.28 256.07,266.82 256.72,266.44 257.37,266.14 258.02,265.93 258.67,265.79 259.32,265.74 259.97,265.77 260.62,265.88 261.27,266.08 261.92,266.36 262.57,266.72 263.22,267.17 263.87,267.69 264.52,268.30 265.17,268.99 265.82,269.76 266.47,270.61 267.12,271.54 267.77,272.54 268.42,273.62 269.07,274.78 269.72,276.01 270.37,277.31 271.01,278.68 271.66,280.12 272.31,281.63 272.96,283.20 273.61,284.84 274.26,286.53 274.91,288.29 275.56,290.10 276.21,291.96 276.86,293.88 277.51,295.84 278.16,297.86 278.81,299.91 279.46,302.00 280.11,304.14 280.76,306.30 281.41,308.50 282.06,310.73 282.71,312.98 283.36,315.26 284.01,317.55 284.66,319.86 285.31,322.18 285.96,324.51 286.60,326.85 287.25,329.18 287.90,331.52 288.55,333.85 289.20,336.17 289.85,338.48 290.50,340.77 291.15,343.05 291.80,345.30 292.45,347.52 293.10,349.72 293.75,351.88 294.40,354.00 295.05,356.08 295.70,358.12 296.35,360.11 297.00,362.05 297.65,363.93 298.30,365.76 298.95,367.52 299.60,369.23 300.25,370.86 300.90,372.42 301.54,373.91 302.19,375.33 302.84,376.66 303.49,377.91 304.14,379.08 304.79,380.16 305.44,381.15 306.09,382.04 306.74,382.85 307.39,383.55 308.04,384.16 308.69,384.66 309.34,385.07 309.99,385.37 310.64,385.56 311.29,385.64 311.94,385.62 312.59,385.49 313.24,385.24 313.89,384.88 314.54,384.42 315.19,383.83 315.84,383.14 316.49,382.32 317.13,381.40 317.78,380.36 318.43,379.20 319.08,377.94 319.73,376.55 320.38,375.06 321.03,373.45 321.68,371.73 322.33,369.90 322.98,367.96 323.63,365.91 324.28,363.75 324.93,361.49 325.58,359.12 326.23,356.66 326.88,354.09 327.53,351.42 328.18,348.66 328.83,345.81 329.48,342.87 330.13,339.84 330.78,336.73 331.43,333.53 332.08,330.25 332.72,326.90 333.37,323.48 334.02,319.99 334.67,316.43 335.32,312.81 335.97,309.14 336.62,305.41 337.27,301.63 337.92,297.81 338.57,293.94 339.22,290.03 339.87,286.10 340.52,282.13 341.17,278.14 341.82,274.13 342.47,270.10 343.12,266.06 343.77,262.02 344.42,257.97 345.07,253.93 345.72,249.89 346.37,245.87 347.02,241.86 347.67,237.87 348.31,233.92 348.96,229.99 349.61,226.09 350.26,222.24 350.91,218.43 351.56,214.67 352.21,210.97 352.86,207.32 353.51,203.74 354.16,200.22 354.81,196.78 355.46,193.41 356.11,190.12 356.76,186.91 357.41,183.80 358.06,180.77 358.71,177.84 359.36,175.02 360.01,172.29 360.66,169.67 361.31,167.16 361.96,164.76 362.61,162.48 363.26,160.32 363.90,158.28 364.55,156.37 365.20,154.58 365.85,152.93 366.50,151.40 367.15,150.01 367.80,148.75 368.45,147.64 369.10,146.66 369.75,145.82 370.40,145.13 371.05,144.57 371.70,144.16 372.35,143.90 373.00,143.78 373.65,143.80 374.30,143.98 374.95,144.29 375.60,144.75 376.25,145.36 376.90,146.11 377.55,147.00 378.20,148.04 378.84,149.21 379.49,150.53 380.14,151.99 380.79,153.58 381.44,155.30 382.09,157.16 382.74,159.15 383.39,161.27 384.04,163.51 384.69,165.87 385.34,168.36 385.99,170.96 386.64,173.67 387.29,176.49 387.94,179.42 388.59,182.45 389.24,185.58 389.89,188.81 390.54,192.12 391.19,195.52 391.84,199.00 392.49,202.56 393.14,206.19 393.79,209.89 394.43,213.65 395.08,217.47 395.73,221.35 396.38,225.27 397.03,229.23 397.68,233.23 398.33,237.27 398.98,241.33 399.63,245.41 400.28,249.50 400.93,253.61 401.58,257.72 402.23,261.83 402.88,265.94 403.53,270.03 404.18,274.11 404.83,278.16 405.48,282.18 406.13,286.17 406.78,290.12 407.43,294.02 408.08,297.88 408.73,301.67 409.38,305.41 410.02,309.08 410.67,312.68 411.32,316.20 411.97,319.64 412.62,322.99 413.27,326.25 413.92,329.42 414.57,332.48 415.22,335.44 415.87,338.29 416.52,341.03 417.17,343.65 417.82,346.14 418.47,348.51 419.12,350.75 419.77,352.86 420.42,354.84 421.07,356.67 421.72,358.36 422.37,359.91 423.02,361.31 423.67,362.56 424.32,363.65 424.97,364.60 425.61,365.39 426.26,366.02 426.91,366.49 427.56,366.80 428.21,366.95 428.86,366.94 429.51,366.77 430.16,366.43 430.81,365.93 431.46,365.27 432.11,364.44 432.76,363.45 433.41,362.30 434.06,360.99 434.71,359.52 435.36,357.89 436.01,356.11 436.66,354.17 437.31,352.07 437.96,349.83 438.61,347.44 439.26,344.90 439.91,342.22 440.56,339.39 441.20,336.43 441.85,333.34 442.50,330.11 443.15,326.76 443.80,323.29 444.45,319.69 445.10,315.99 445.75,312.17 446.40,308.24 447.05,304.21 447.70,300.09 448.35,295.88 449.00,291.57 449.65,287.19 450.30,282.73 450.95,278.20 451.60,273.60 452.25,268.95 452.90,264.24 453.55,259.48 454.20,254.67 454.85,249.84 455.50,244.97 456.14,240.07 456.79,235.16 457.44,230.23 458.09,225.29 458.74,220.36 459.39,215.43 460.04,210.51 460.69,205.61 461.34,200.73 461.99,195.89 462.64,191.07 463.29,186.30 463.94,181.58 464.59,176.91 465.24,172.30 465.89,167.76 466.54,163.29 467.19,158.89 467.84,154.57 468.49,150.35 469.14,146.21 469.79,142.17 470.44,138.24 471.09,134.41 471.73,130.70 472.38,127.11 473.03,123.63 473.68,120.29 474.33,117.07 474.98,113.99 475.63,111.04 476.28,108.24 476.93,105.59 477.58,103.08 478.23,100.73 478.88,98.53 479.53,96.49 480.18,94.61 480.83,92.90 481.48,91.35 482.13,89.96 482.78,88.75 483.43,87.70 484.08,86.83 484.73,86.13 485.38,85.61 486.03,85.26 486.68,85.08 487.32,85.08 487.97,85.26 488.62,85.61 489.27,86.13 489.92,86.83 490.57,87.70 491.22,88.75 491.87,89.96 492.52,91.35 493.17,92.90 493.82,94.61 494.47,96.49 495.12,98.53 495.77,100.73 496.42,103.08 497.07,105.59 497.72,108.24 498.37,111.04 499.02,113.99 499.67,117.07 500.32,120.29 500.97,123.63 501.62,127.11 502.27,130.70 502.91,134.41 503.56,138.24 504.21,142.17 504.86,146.21 505.51,150.35 506.16,154.57 506.81,158.89 507.46,163.29 508.11,167.76 508.76,172.30 509.41,176.91 510.06,181.58 510.71,186.30 511.36,191.07 512.01,195.89 512.66,200.73 513.31,205.61 513.96,210.51 514.61,215.43 515.26,220.36 515.91,225.29 516.56,230.23 517.21,235.16 517.86,240.07 518.50,244.97 519.15,249.84 519.80,254.67 520.45,259.48 521.10,264.24 521.75,268.95 522.40,273.60 523.05,278.20 523.70,282.73 524.35,287.19 525.00,291.57 525.65,295.88 526.30,300.09 526.95,304.21 527.60,308.24 528.25,312.17 528.90,315.99 529.55,319.69 530.20,323.29 530.85,326.76 531.50,330.11 532.15,333.34 532.80,336.43 533.44,339.39 534.09,342.22 534.74,344.90 535.39,347.44 536.04,349.83 536.69,352.07 537.34,354.17 537.99,356.11 538.64,357.89 539.29,359.52 539.94,360.99 540.59,362.30 541.24,363.45 541.89,364.44 542.54,365.27 543.19,365.93 543.84,366.43 544.49,366.77 545.14,366.94 545.79,366.95 546.44,366.80 547.09,366.49 547.74,366.02 548.39,365.39 549.03,364.60 549.68,363.65 550.33,362.56 550.98,361.31 551.63,359.91 552.28,358.36 552.93,356.67 553.58,354.84 554.23,352.86 554.88,350.75 555.53,348.51 556.18,346.14 556.83,343.65 557.48,341.03 558.13,338.29 558.78,335.44 559.43,332.48 560.08,329.42 560.73,326.25 561.38,322.99 562.03,319.64 562.68,316.20 563.33,312.68 563.98,309.08 564.62,305.41 565.27,301.67 565.92,297.88 566.57,294.02 567.22,290.12 567.87,286.17 568.52,282.18 569.17,278.16 569.82,274.11 570.47,270.03 571.12,265.94 571.77,261.83 572.42,257.72 573.07,253.61 573.72,249.50 574.37,245.41 575.02,241.33 575.67,237.27 576.32,233.23 576.97,229.23 577.62,225.27 578.27,221.35 578.92,217.47 579.57,213.65 580.21,209.89 580.86,206.19 581.51,202.56 582.16,199.00 582.81,195.52 583.46,192.12 584.11,188.81 584.76,185.58 585.41,182.45 586.06,179.42 586.71,176.49 587.36,173.67 588.01,170.96 588.66,168.36 589.31,165.87 589.96,163.51 590.61,161.27 591.26,159.15 591.91,157.16 592.56,155.30 593.21,153.58 593.86,151.99 594.51,150.53 595.16,149.21 595.80,148.04 596.45,147.00 597.10,146.11 597.75,145.36 598.40,144.75 599.05,144.29 599.70,143.98 600.35,143.80 601.00,143.78 601.65,143.90 602.30,144.16 602.95,144.57 603.60,145.13 604.25,145.82 604.90,146.66 605.55,147.64 606.20,148.75 606.85,150.01 607.50,151.40 608.15,152.93 608.80,154.58 609.45,156.37 610.10,158.28 610.74,160.32 611.39,162.48 612.04,164.76 612.69,167.16 613.34,169.67 613.99,172.29 614.64,175.02 615.29,177.84 615.94,180.77 616.59,183.80 617.24,186.91 617.89,190.12 618.54,193.41 619.19,196.78 619.84,200.22 620.49,203.74 621.14,207.32 621.79,210.97 622.44,214.67 623.09,218.43 623.74,222.24 624.39,226.09 625.04,229.99 625.69,233.92 626.33,237.87 626.98,241.86 627.63,245.87 628.28,249.89 628.93,253.93 629.58,257.97 630.23,262.02 630.88,266.06 631.53,270.10 632.18,274.13 632.83,278.14 633.48,282.13 634.13,286.10 634.78,290.03 635.43,293.94 636.08,297.81 636.73,301.63 637.38,305.41 638.03,309.14 638.68,312.81 639.33,316.43 639.98,319.99 640.63,323.48 641.28,326.90 641.92,330.25 642.57,333.53 643.22,336.73 643.87,339.84 644.52,342.87 645.17,345.81 645.82,348.66 646.47,351.42 647.12,354.09 647.77,356.66 648.42,359.12 649.07,361.49 649.72,363.75 650.37,365.91 651.02,367.96 651.67,369.90 652.32,371.73 652.97,373.45 653.62,375.06 654.27,376.55 654.92,377.94 655.57,379.20 656.22,380.36 656.87,381.40 657.51,382.32 658.16,383.14 658.81,383.83 659.46,384.42 660.11,384.88 660.76,385.24 661.41,385.49 662.06,385.62 662.71,385.64 663.36,385.56 664.01,385.37 664.66,385.07 665.31,384.66 665.96,384.16 666.61,383.55 667.26,382.85 667.91,382.04 668.56,381.15 669.21,380.16 669.86,379.08 670.51,377.91 671.16,376.66 671.81,375.33 672.46,373.91 673.10,372.42 673.75,370.86 674.40,369.23 675.05,367.52 675.70,365.76 676.35,363.93 677.00,362.05 677.65,360.11 678.30,358.12 678.95,356.08 679.60,354.00 680.25,351.88 680.90,349.72 681.55,347.52 682.20,345.30 682.85,343.05 683.50,340.77 684.15,338.48 684.80,336.17 685.45,333.85 686.10,331.52 686.75,329.18 687.40,326.85 688.04,324.51 688.69,322.18 689.34,319.86 689.99,317.55 690.64,315.26 691.29,312.98 691.94,310.73 692.59,308.50 693.24,306.30 693.89,304.14 694.54,302.00 695.19,299.91 695.84,297.86 696.49,295.84 697.14,293.88 697.79,291.96 698.44,290.10 699.09,288.29 699.74,286.53 700.39,284.84 701.04,283.20 701.69,281.63 702.34,280.12 702.99,278.68 703.63,277.31 704.28,276.01 704.93,274.78 705.58,273.62 706.23,272.54 706.88,271.54 707.53,270.61 708.18,269.76 708.83,268.99 709.48,268.30 710.13,267.69 710.78,267.17 711.43,266.72 712.08,266.36 712.73,266.08 713.38,265.88 714.03,265.77 714.68,265.74 715.33,265.79 715.98,265.93 716.63,266.14 717.28,266.44 717.93,266.82 718.58,267.28 719.22,267.82 719.87,268.44 720.52,269.14 721.17,269.91 721.82,270.76 722.47,271.68 723.12,272.68 723.77,273.75 724.42,274.89 725.07,276.10 725.72,277.37 726.37,278.71 727.02,280.11 727.67,281.58 728.32,283.10 728.97,284.68 729.62,286.32 730.27,288.01 730.92,289.76 731.57,291.55 732.22,293.39 732.87,295.27 733.52,297.20 734.17,299.16 734.81,301.17 735.46,303.20 736.11,305.28 736.76,307.38 737.41,309.51 738.06,311.66 738.71,313.84 739.36,316.04 740.01,318.25 740.66,320.48 741.31,322.72 741.96,324.98 742.61,327.24 743.26,329.50 743.91,331.77 744.56,334.04 745.21,336.31 745.86,338.57 746.51,340.82 747.16,343.07 747.81,345.30 748.46,347.52 749.11,349.72 749.76,351.91 750.40,354.07 751.05,356.21 751.70,358.33 752.35,360.42 753.00,362.48 753.65,364.51 754.30,366.51 754.95,368.47 755.60,370.40 756.25,372.29 756.90,374.14 757.55,375.94 758.20,377.71 758.85,379.43 759.50,381.11 760.15,382.74 760.80,384.32 761.45,385.86 762.10,387.34 762.75,388.78 763.40,390.16 764.05,391.49 764.70,392.77 765.34,393.99 765.99,395.16 766.64,396.27 767.29,397.33 767.94,398.33 768.59,399.28 769.24,400.17 769.89,401.00 770.54,401.78 771.19,402.50 771.84,403.16 772.49,403.77 773.14,404.32 773.79,404.82 774.44,405.26 775.09,405.64 775.74,405.97 776.39,406.25 777.04,406.48 777.69,406.65 778.34,406.77 778.99,406.84 779.64,406.85 780.29,406.82 780.93,406.74 781.58,406.62 782.23,406.44 782.88,406.22 783.53,405.96 784.18,405.66 784.83,405.31 785.48,404.92 786.13,404.50 786.78,404.04 787.43,403.54 788.08,403.00 788.73,402.43 789.38,401.84 790.03,401.21 790.68,400.55 791.33,399.86 791.98,399.15 792.63,398.42 793.28,397.66 793.93,396.88 794.58,396.08 795.23,395.26 795.88,394.43 796.52,393.59 797.17,392.73 797.82,391.86 798.47,390.98 799.12,390.09 799.77,389.19 800.42,388.29 801.07,387.39 801.72,386.49 802.37,385.58 803.02,384.68 803.67,383.78 804.32,382.88 804.97,381.99 805.62,381.11 806.27,380.24 806.92,379.37 807.57,378.52 808.22,377.68 808.87,376.85 809.52,376.04 810.17,375.24 810.82,374.47 811.47,373.71 812.11,372.97 812.76,372.25 813.41,371.55 814.06,370.88 814.71,370.23 815.36,369.60 816.01,369.00 816.66,368.43 817.31,367.88 817.96,367.36 818.61,366.87 819.26,366.41 819.91,365.97 820.56,365.57 821.21,365.20 821.86,364.86 822.51,364.55 823.16,364.27 823.81,364.02 824.46,363.81 825.11,363.62 825.76,363.47 826.41,363.36 827.06,363.27 827.70,363.22 828.35,363.20 829.00,363.21 829.65,363.26 830.30,363.34 830.95,363.44 831.60,363.59 832.25,363.76 832.90,363.96 833.55,364.20 834.20,364.46 834.85,364.75 835.50,365.08 836.15,365.43 836.80,365.81 837.45,366.22 838.10,366.66 838.75,367.12 839.40,367.61 840.05,368.12 840.70,368.66 841.35,369.22 842.00,369.81 842.64,370.41 843.29,371.04 843.94,371.69 844.59,372.36 845.24,373.05 845.89,373.75 846.54,374.48 847.19,375.21 847.84,375.97 848.49,376.74 849.14,377.52 849.79,378.31 850.44,379.12 851.09,379.94 851.74,380.76 852.39,381.60 853.04,382.44 853.69,383.29 854.34,384.14 854.99,385.00 855.64,385.87 856.29,386.73 856.94,387.60 857.59,388.47 858.23,389.35 858.88,390.22 859.53,391.08 860.18,391.95 860.83,392.81 861.48,393.67 862.13,394.53 862.78,395.38 863.43,396.22 864.08,397.05 864.73,397.88 865.38,398.70 866.03,399.51 866.68,400.30 867.33,401.09 867.98,401.87 868.63,402.63 869.28,403.38 869.93,404.12 870.58,404.84 871.23,405.55 871.88,406.25 872.53,406.93 873.18,407.59 873.82,408.24 874.47,408.87 875.12,409.48 875.77,410.08 876.42,410.65"/>
<polyline fill="none" stroke="#d84315" stroke-width="2.5" stroke-dasharray="7 5" points="97.58,393.83 98.23,394.03 98.88,394.25 99.53,394.48 100.18,394.72 100.82,394.98 101.47,395.25 102.12,395.53 102.77,395.83 103.42,396.13 104.07,396.45 104.72,396.78 105.37,397.12 106.02,397.47 106.67,397.82 107.32,398.19 107.97,398.56 108.62,398.94 109.27,399.33 109.92,399.72 110.57,400.12 111.22,400.53 111.87,400.94 112.52,401.35 113.17,401.76 113.82,402.18 114.47,402.59 115.12,403.01 115.77,403.42 116.41,403.84 117.06,404.25 117.71,404.66 118.36,405.07 119.01,405.47 119.66,405.86 120.31,406.25 120.96,406.63 121.61,407.01 122.26,407.37 122.91,407.73 123.56,408.07 124.21,408.41 124.86,408.73 125.51,409.04 126.16,409.33 126.81,409.61 127.46,409.87 128.11,410.12 128.76,410.35 129.41,410.56 130.06,410.75 130.71,410.92 131.36,411.07 132.00,411.21 132.65,411.31 133.30,411.40 133.95,411.46 134.60,411.50 135.25,411.52 135.90,411.51 136.55,411.47 137.20,411.41 137.85,411.32 138.50,411.20 139.15,411.05 139.80,410.88 140.45,410.68 141.10,410.44 141.75,410.18 142.40,409.89 143.05,409.57 143.70,409.21 144.35,408.83 145.00,408.42 145.65,407.97 146.30,407.49 146.94,406.99 147.59,406.45 148.24,405.88 148.89,405.27 149.54,404.64 150.19,403.98 150.84,403.28 151.49,402.55 152.14,401.80 152.79,401.01 153.44,400.19 154.09,399.35 154.74,398.47 155.39,397.57 156.04,396.64 156.69,395.68 157.34,394.69 157.99,393.68 158.64,392.64 159.29,391.58 159.94,390.49 160.59,389.38 161.24,388.25 161.89,387.09 162.53,385.92 163.18,384.72 163.83,383.51 164.48,382.28 165.13,381.03 165.78,379.77 166.43,378.49 167.08,377.20 167.73,375.89 168.38,374.58 169.03,373.25 169.68,371.92 170.33,370.58 170.98,369.23 171.63,367.88 172.28,366.52 172.93,365.17 173.58,363.81 174.23,362.45 174.88,361.10 175.53,359.75 176.18,358.40 176.83,357.06 177.48,355.73 178.12,354.41 178.77,353.10 179.42,351.81 180.07,350.52 180.72,349.25 181.37,348.00 182.02,346.77 182.67,345.56 183.32,344.36 183.97,343.19 184.62,342.05 185.27,340.93 185.92,339.83 186.57,338.77 187.22,337.73 187.87,336.72 188.52,335.75 189.17,334.80 189.82,333.90 190.47,333.02 191.12,332.19 191.77,331.39 192.42,330.63 193.07,329.91 193.71,329.23 194.36,328.59 195.01,328.00 195.66,327.44 196.31,326.94 196.96,326.47 197.61,326.05 198.26,325.68 198.91,325.35 199.56,325.08 200.21,324.84 200.86,324.66 201.51,324.53 202.16,324.44 202.81,324.40 203.46,324.41 204.11,324.47 204.76,324.58 205.41,324.74 206.06,324.94 206.71,325.20 207.36,325.50 208.01,325.85 208.66,326.25 209.30,326.69 209.95,327.19 210.60,327.72 211.25,328.31 211.90,328.93 212.55,329.61 213.20,330.32 213.85,331.08 214.50,331.87 215.15,332.71 215.80,333.59 216.45,334.50 217.10,335.45 217.75,336.44 218.40,337.46 219.05,338.51 219.70,339.59 220.35,340.70 221.00,341.84 221.65,343.00 222.30,344.19 222.95,345.40 223.60,346.64 224.24,347.89 224.89,349.16 225.54,350.44 226.19,351.73 226.84,353.04 227.49,354.36 228.14,355.68 228.79,357.00 229.44,358.33 230.09,359.66 230.74,360.99 231.39,362.32 232.04,363.64 232.69,364.95 233.34,366.24 233.99,367.53 234.64,368.80 235.29,370.06 235.94,371.29 236.59,372.50 237.24,373.69 237.89,374.85 238.54,375.98 239.19,377.09 239.83,378.15 240.48,379.19 241.13,380.18 241.78,381.14 242.43,382.06 243.08,382.93 243.73,383.75 244.38,384.53 245.03,385.26 245.68,385.94 246.33,386.56 246.98,387.13 247.63,387.64 248.28,388.10 248.93,388.49 249.58,388.83 250.23,389.10 250.88,389.30 251.53,389.44 252.18,389.51 252.83,389.52 253.48,389.45 254.13,389.32 254.78,389.11 255.42,388.83 256.07,388.48 256.72,388.06 257.37,387.56 258.02,386.98 258.67,386.34 259.32,385.61 259.97,384.81 260.62,383.94 261.27,382.99 261.92,381.96 262.57,380.86 263.22,379.68 263.87,378.43 264.52,377.10 265.17,375.70 265.82,374.23 266.47,372.69 267.12,371.07 267.77,369.38 268.42,367.63 269.07,365.80 269.72,363.91 270.37,361.96 271.01,359.93 271.66,357.85 272.31,355.71 272.96,353.50 273.61,351.24 274.26,348.93 274.91,346.56 275.56,344.14 276.21,341.67 276.86,339.15 277.51,336.59 278.16,333.98 278.81,331.34 279.46,328.66 280.11,325.95 280.76,323.20 281.41,320.43 282.06,317.62 282.71,314.80 283.36,311.95 284.01,309.09 284.66,306.21 285.31,303.33 285.96,300.43 286.60,297.53 287.25,294.62 287.90,291.72 288.55,288.82 289.20,285.93 289.85,283.05 290.50,280.19 291.15,277.34 291.80,274.51 292.45,271.70 293.10,268.93 293.75,266.18 294.40,263.46 295.05,260.79 295.70,258.15 296.35,255.55 297.00,253.00 297.65,250.50 298.30,248.05 298.95,245.66 299.60,243.32 300.25,241.05 300.90,238.84 301.54,236.69 302.19,234.61 302.84,232.61 303.49,230.68 304.14,228.82 304.79,227.05 305.44,225.35 306.09,223.74 306.74,222.21 307.39,220.77 308.04,219.42 308.69,218.16 309.34,217.00 309.99,215.92 310.64,214.95 311.29,214.07 311.94,213.28 312.59,212.60 313.24,212.02 313.89,211.54 314.54,211.16 315.19,210.88 315.84,210.71 316.49,210.64 317.13,210.67 317.78,210.80 318.43,211.04 319.08,211.39 319.73,211.83 320.38,212.38 321.03,213.03 321.68,213.78 322.33,214.63 322.98,215.59 323.63,216.63 324.28,217.78 324.93,219.02 325.58,220.36 326.23,221.79 326.88,223.30 327.53,224.91 328.18,226.61 328.83,228.38 329.48,230.24 330.13,232.18 330.78,234.20 331.43,236.29 332.08,238.45 332.72,240.69 333.37,242.98 334.02,245.34 334.67,247.76 335.32,250.24 335.97,252.77 336.62,255.35 337.27,257.97 337.92,260.64 338.57,263.35 339.22,266.09 339.87,268.86 340.52,271.66 341.17,274.48 341.82,277.32 342.47,280.18 343.12,283.05 343.77,285.93 344.42,288.81 345.07,291.69 345.72,294.56 346.37,297.42 347.02,300.27 347.67,303.11 348.31,305.92 348.96,308.70 349.61,311.46 350.26,314.17 350.91,316.86 351.56,319.49 352.21,322.08 352.86,324.63 353.51,327.11 354.16,329.54 354.81,331.90 355.46,334.20 356.11,336.43 356.76,338.58 357.41,340.66 358.06,342.65 358.71,344.57 359.36,346.39 360.01,348.12 360.66,349.76 361.31,351.31 361.96,352.75 362.61,354.09 363.26,355.32 363.90,356.45 364.55,357.47 365.20,358.37 365.85,359.16 366.50,359.84 367.15,360.39 367.80,360.83 368.45,361.14 369.10,361.33 369.75,361.40 370.40,361.34 371.05,361.16 371.70,360.85 372.35,360.41 373.00,359.84 373.65,359.15 374.30,358.32 374.95,357.37 375.60,356.29 376.25,355.09 376.90,353.75 377.55,352.29 378.20,350.71 378.84,349.00 379.49,347.16 380.14,345.21 380.79,343.13 381.44,340.94 382.09,338.63 382.74,336.21 383.39,333.67 384.04,331.02 384.69,328.27 385.34,325.41 385.99,322.45 386.64,319.39 387.29,316.24 387.94,312.99 388.59,309.66 389.24,306.23 389.89,302.73 390.54,299.15 391.19,295.49 391.84,291.76 392.49,287.97 393.14,284.12 393.79,280.20 394.43,276.24 395.08,272.22 395.73,268.16 396.38,264.06 397.03,259.92 397.68,255.76 398.33,251.57 398.98,247.35 399.63,243.13 400.28,238.89 400.93,234.64 401.58,230.40 402.23,226.15 402.88,221.92 403.53,217.70 404.18,213.50 404.83,209.33 405.48,205.18 406.13,201.07 406.78,197.00 407.43,192.97 408.08,188.99 408.73,185.06 409.38,181.19 410.02,177.39 410.67,173.65 411.32,169.99 411.97,166.40 412.62,162.90 413.27,159.48 413.92,156.15 414.57,152.91 415.22,149.78 415.87,146.74 416.52,143.81 417.17,140.99 417.82,138.29 418.47,135.70 419.12,133.23 419.77,130.88 420.42,128.66 421.07,126.57 421.72,124.61 422.37,122.79 423.02,121.10 423.67,119.55 424.32,118.14 424.97,116.87 425.61,115.74 426.26,114.76 426.91,113.93 427.56,113.25 428.21,112.71 428.86,112.33 429.51,112.09 430.16,112.01 430.81,112.07 431.46,112.29 432.11,112.66 432.76,113.17 433.41,113.84 434.06,114.65 434.71,115.62 435.36,116.72 436.01,117.98 436.66,119.37 437.31,120.91 437.96,122.59 438.61,124.41 439.26,126.36 439.91,128.45 440.56,130.66 441.20,133.01 441.85,135.47 442.50,138.06 443.15,140.77 443.80,143.60 444.45,146.53 445.10,149.57 445.75,152.72 446.40,155.96 447.05,159.30 447.70,162.73 448.35,166.25 449.00,169.85 449.65,173.53 450.30,177.29 450.95,181.11 451.60,184.99 452.25,188.93 452.90,192.93 453.55,196.97 454.20,201.05 454.85,205.18 455.50,209.33 456.14,213.52 456.79,217.72 457.44,221.94 458.09,226.17 458.74,230.41 459.39,234.65 460.04,238.88 460.69,243.10 461.34,247.30 461.99,251.48 462.64,255.63 463.29,259.75 463.94,263.83 464.59,267.87 465.24,271.86 465.89,275.79 466.54,279.67 467.19,283.48 467.84,287.22 468.49,290.89 469.14,294.48 469.79,297.98 470.44,301.40 471.09,304.73 471.73,307.95 472.38,311.08 473.03,314.10 473.68,317.02 474.33,319.82 474.98,322.50 475.63,325.06 476.28,327.50 476.93,329.82 477.58,332.00 478.23,334.05 478.88,335.97 479.53,337.75 480.18,339.39 480.83,340.88 481.48,342.24 482.13,343.44 482.78,344.50 483.43,345.41 484.08,346.17 484.73,346.78 485.38,347.24 486.03,347.55 486.68,347.70 487.32,347.70 487.97,347.55 488.62,347.24 489.27,346.78 489.92,346.17 490.57,345.41 491.22,344.50 491.87,343.44 492.52,342.24 493.17,340.88 493.82,339.39 494.47,337.75 495.12,335.97 495.77,334.05 496.42,332.00 497.07,329.82 497.72,327.50 498.37,325.06 499.02,322.50 499.67,319.82 500.32,317.02 500.97,314.10 501.62,311.08 502.27,307.95 502.91,304.73 503.56,301.40 504.21,297.98 504.86,294.48 505.51,290.89 506.16,287.22 506.81,283.48 507.46,279.67 508.11,275.79 508.76,271.86 509.41,267.87 510.06,263.83 510.71,259.75 511.36,255.63 512.01,251.48 512.66,247.30 513.31,243.10 513.96,238.88 514.61,234.65 515.26,230.41 515.91,226.17 516.56,221.94 517.21,217.72 517.86,213.52 518.50,209.33 519.15,205.18 519.80,201.05 520.45,196.97 521.10,192.93 521.75,188.93 522.40,184.99 523.05,181.11 523.70,177.29 524.35,173.53 525.00,169.85 525.65,166.25 526.30,162.73 526.95,159.30 527.60,155.96 528.25,152.72 528.90,149.57 529.55,146.53 530.20,143.60 530.85,140.77 531.50,138.06 532.15,135.47 532.80,133.01 533.44,130.66 534.09,128.45 534.74,126.36 535.39,124.41 536.04,122.59 536.69,120.91 537.34,119.37 537.99,117.98 538.64,116.72 539.29,115.62 539.94,114.65 540.59,113.84 541.24,113.17 541.89,112.66 542.54,112.29 543.19,112.07 543.84,112.01 544.49,112.09 545.14,112.33 545.79,112.71 546.44,113.25 547.09,113.93 547.74,114.76 548.39,115.74 549.03,116.87 549.68,118.14 550.33,119.55 550.98,121.10 551.63,122.79 552.28,124.61 552.93,126.57 553.58,128.66 554.23,130.88 554.88,133.23 555.53,135.70 556.18,138.29 556.83,140.99 557.48,143.81 558.13,146.74 558.78,149.78 559.43,152.91 560.08,156.15 560.73,159.48 561.38,162.90 562.03,166.40 562.68,169.99 563.33,173.65 563.98,177.39 564.62,181.19 565.27,185.06 565.92,188.99 566.57,192.97 567.22,197.00 567.87,201.07 568.52,205.18 569.17,209.33 569.82,213.50 570.47,217.70 571.12,221.92 571.77,226.15 572.42,230.40 573.07,234.64 573.72,238.89 574.37,243.13 575.02,247.35 575.67,251.57 576.32,255.76 576.97,259.92 577.62,264.06 578.27,268.16 578.92,272.22 579.57,276.24 580.21,280.20 580.86,284.12 581.51,287.97 582.16,291.76 582.81,295.49 583.46,299.15 584.11,302.73 584.76,306.23 585.41,309.66 586.06,312.99 586.71,316.24 587.36,319.39 588.01,322.45 588.66,325.41 589.31,328.27 589.96,331.02 590.61,333.67 591.26,336.21 591.91,338.63 592.56,340.94 593.21,343.13 593.86,345.21 594.51,347.16 595.16,349.00 595.80,350.71 596.45,352.29 597.10,353.75 597.75,355.09 598.40,356.29 599.05,357.37 599.70,358.32 600.35,359.15 601.00,359.84 601.65,360.41 602.30,360.85 602.95,361.16 603.60,361.34 604.25,361.40 604.90,361.33 605.55,361.14 606.20,360.83 606.85,360.39 607.50,359.84 608.15,359.16 608.80,358.37 609.45,357.47 610.10,356.45 610.74,355.32 611.39,354.09 612.04,352.75 612.69,351.31 613.34,349.76 613.99,348.12 614.64,346.39 615.29,344.57 615.94,342.65 616.59,340.66 617.24,338.58 617.89,336.43 618.54,334.20 619.19,331.90 619.84,329.54 620.49,327.11 621.14,324.63 621.79,322.08 622.44,319.49 623.09,316.86 623.74,314.17 624.39,311.46 625.04,308.70 625.69,305.92 626.33,303.11 626.98,300.27 627.63,297.42 628.28,294.56 628.93,291.69 629.58,288.81 630.23,285.93 630.88,283.05 631.53,280.18 632.18,277.32 632.83,274.48 633.48,271.66 634.13,268.86 634.78,266.09 635.43,263.35 636.08,260.64 636.73,257.97 637.38,255.35 638.03,252.77 638.68,250.24 639.33,247.76 639.98,245.34 640.63,242.98 641.28,240.69 641.92,238.45 642.57,236.29 643.22,234.20 643.87,232.18 644.52,230.24 645.17,228.38 645.82,226.61 646.47,224.91 647.12,223.30 647.77,221.79 648.42,220.36 649.07,219.02 649.72,217.78 650.37,216.63 651.02,215.59 651.67,214.63 652.32,213.78 652.97,213.03 653.62,212.38 654.27,211.83 654.92,211.39 655.57,211.04 656.22,210.80 656.87,210.67 657.51,210.64 658.16,210.71 658.81,210.88 659.46,211.16 660.11,211.54 660.76,212.02 661.41,212.60 662.06,213.28 662.71,214.07 663.36,214.95 664.01,215.92 664.66,217.00 665.31,218.16 665.96,219.42 666.61,220.77 667.26,222.21 667.91,223.74 668.56,225.35 669.21,227.05 669.86,228.82 670.51,230.68 671.16,232.61 671.81,234.61 672.46,236.69 673.10,238.84 673.75,241.05 674.40,243.32 675.05,245.66 675.70,248.05 676.35,250.50 677.00,253.00 677.65,255.55 678.30,258.15 678.95,260.79 679.60,263.46 680.25,266.18 680.90,268.93 681.55,271.70 682.20,274.51 682.85,277.34 683.50,280.19 684.15,283.05 684.80,285.93 685.45,288.82 686.10,291.72 686.75,294.62 687.40,297.53 688.04,300.43 688.69,303.33 689.34,306.21 689.99,309.09 690.64,311.95 691.29,314.80 691.94,317.62 692.59,320.43 693.24,323.20 693.89,325.95 694.54,328.66 695.19,331.34 695.84,333.98 696.49,336.59 697.14,339.15 697.79,341.67 698.44,344.14 699.09,346.56 699.74,348.93 700.39,351.24 701.04,353.50 701.69,355.71 702.34,357.85 702.99,359.93 703.63,361.96 704.28,363.91 704.93,365.80 705.58,367.63 706.23,369.38 706.88,371.07 707.53,372.69 708.18,374.23 708.83,375.70 709.48,377.10 710.13,378.43 710.78,379.68 711.43,380.86 712.08,381.96 712.73,382.99 713.38,383.94 714.03,384.81 714.68,385.61 715.33,386.34 715.98,386.98 716.63,387.56 717.28,388.06 717.93,388.48 718.58,388.83 719.22,389.11 719.87,389.32 720.52,389.45 721.17,389.52 721.82,389.51 722.47,389.44 723.12,389.30 723.77,389.10 724.42,388.83 725.07,388.49 725.72,388.10 726.37,387.64 727.02,387.13 727.67,386.56 728.32,385.94 728.97,385.26 729.62,384.53 730.27,383.75 730.92,382.93 731.57,382.06 732.22,381.14 732.87,380.18 733.52,379.19 734.17,378.15 734.81,377.09 735.46,375.98 736.11,374.85 736.76,373.69 737.41,372.50 738.06,371.29 738.71,370.06 739.36,368.80 740.01,367.53 740.66,366.24 741.31,364.95 741.96,363.64 742.61,362.32 743.26,360.99 743.91,359.66 744.56,358.33 745.21,357.00 745.86,355.68 746.51,354.36 747.16,353.04 747.81,351.73 748.46,350.44 749.11,349.16 749.76,347.89 750.40,346.64 751.05,345.40 751.70,344.19 752.35,343.00 753.00,341.84 753.65,340.70 754.30,339.59 754.95,338.51 755.60,337.46 756.25,336.44 756.90,335.45 757.55,334.50 758.20,333.59 758.85,332.71 759.50,331.87 760.15,331.08 760.80,330.32 761.45,329.61 762.10,328.93 762.75,328.31 763.40,327.72 764.05,327.19 764.70,326.69 765.34,326.25 765.99,325.85 766.64,325.50 767.29,325.20 767.94,324.94 768.59,324.74 769.24,324.58 769.89,324.47 770.54,324.41 771.19,324.40 771.84,324.44 772.49,324.53 773.14,324.66 773.79,324.84 774.44,325.08 775.09,325.35 775.74,325.68 776.39,326.05 777.04,326.47 777.69,326.94 778.34,327.44 778.99,328.00 779.64,328.59 780.29,329.23 780.93,329.91 781.58,330.63 782.23,331.39 782.88,332.19 783.53,333.02 784.18,333.90 784.83,334.80 785.48,335.75 786.13,336.72 786.78,337.73 787.43,338.77 788.08,339.83 788.73,340.93 789.38,342.05 790.03,343.19 790.68,344.36 791.33,345.56 791.98,346.77 792.63,348.00 793.28,349.25 793.93,350.52 794.58,351.81 795.23,353.10 795.88,354.41 796.52,355.73 797.17,357.06 797.82,358.40 798.47,359.75 799.12,361.10 799.77,362.45 800.42,363.81 801.07,365.17 801.72,366.52 802.37,367.88 803.02,369.23 803.67,370.58 804.32,371.92 804.97,373.25 805.62,374.58 806.27,375.89 806.92,377.20 807.57,378.49 808.22,379.77 808.87,381.03 809.52,382.28 810.17,383.51 810.82,384.72 811.47,385.92 812.11,387.09 812.76,388.25 813.41,389.38 814.06,390.49 814.71,391.58 815.36,392.64 816.01,393.68 816.66,394.69 817.31,395.68 817.96,396.64 818.61,397.57 819.26,398.47 819.91,399.35 820.56,400.19 821.21,401.01 821.86,401.80 822.51,402.55 823.16,403.28 823.81,403.98 824.46,404.64 825.11,405.27 825.76,405.88 826.41,406.45 827.06,406.99 827.70,407.49 828.35,407.97 829.00,408.42 829.65,408.83 830.30,409.21 830.95,409.57 831.60,409.89 832.25,410.18 832.90,410.44 833.55,410.68 834.20,410.88 834.85,411.05 835.50,411.20 836.15,411.32 836.80,411.41 837.45,411.47 838.10,411.51 838.75,411.52 839.40,411.50 840.05,411.46 840.70,411.40 841.35,411.31 842.00,411.21 842.64,411.07 843.29,410.92 843.94,410.75 844.59,410.56 845.24,410.35 845.89,410.12 846.54,409.87 847.19,409.61 847.84,409.33 848.49,409.04 849.14,408.73 849.79,408.41 850.44,408.07 851.09,407.73 851.74,407.37 852.39,407.01 853.04,406.63 853.69,406.25 854.34,405.86 854.99,405.47 855.64,405.07 856.29,404.66 856.94,404.25 857.59,403.84 858.23,403.42 858.88,403.01 859.53,402.59 860.18,402.18 860.83,401.76 861.48,401.35 862.13,400.94 862.78,400.53 863.43,400.12 864.08,399.72 864.73,399.33 865.38,398.94 866.03,398.56 866.68,398.19 867.33,397.82 867.98,397.47 868.63,397.12 869.28,396.78 869.93,396.45 870.58,396.13 871.23,395.83 871.88,395.53 872.53,395.25 873.18,394.98 873.82,394.72 874.47,394.48 875.12,394.25 875.77,394.03 876.42,393.83"/>
<polyline fill="none" stroke="#6a1b9a" stroke-width="2.5" points="97.58,410.95 98.23,410.36 98.88,409.75 99.53,409.12 100.18,408.47 100.82,407.81 101.47,407.13 102.12,406.44 102.77,405.72 103.42,405.00 104.07,404.25 104.72,403.50 105.37,402.73 106.02,401.94 106.67,401.15 107.32,400.34 107.97,399.52 108.62,398.69 109.27,397.85 109.92,397.01 110.57,396.15 111.22,395.29 111.87,394.41 112.52,393.54 113.17,392.66 113.82,391.77 114.47,390.88 115.12,389.99 115.77,389.10 116.41,388.21 117.06,387.31 117.71,386.42 118.36,385.53 119.01,384.65 119.66,383.76 120.31,382.89 120.96,382.01 121.61,381.15 122.26,380.30 122.91,379.45 123.56,378.61 124.21,377.79 124.86,376.97 125.51,376.17 126.16,375.38 126.81,374.61 127.46,373.86 128.11,373.12 128.76,372.39 129.41,371.69 130.06,371.01 130.71,370.34 131.36,369.70 132.00,369.08 132.65,368.48 133.30,367.91 133.95,367.36 134.60,366.84 135.25,366.34 135.90,365.87 136.55,365.43 137.20,365.01 137.85,364.63 138.50,364.27 139.15,363.94 139.80,363.65 140.45,363.38 141.10,363.15 141.75,362.94 142.40,362.77 143.05,362.64 143.70,362.53 144.35,362.46 145.00,362.42 145.65,362.42 146.30,362.44 146.94,362.51 147.59,362.60 148.24,362.73 148.89,362.89 149.54,363.09 150.19,363.32 150.84,363.58 151.49,363.88 152.14,364.21 152.79,364.57 153.44,364.96 154.09,365.39 154.74,365.84 155.39,366.33 156.04,366.85 156.69,367.39 157.34,367.97 157.99,368.57 158.64,369.20 159.29,369.85 159.94,370.53 160.59,371.24 161.24,371.97 161.89,372.72 162.53,373.49 163.18,374.29 163.83,375.10 164.48,375.93 165.13,376.78 165.78,377.64 166.43,378.52 167.08,379.41 167.73,380.31 168.38,381.22 169.03,382.15 169.68,383.08 170.33,384.01 170.98,384.95 171.63,385.89 172.28,386.84 172.93,387.78 173.58,388.72 174.23,389.66 174.88,390.60 175.53,391.52 176.18,392.44 176.83,393.35 177.48,394.25 178.12,395.13 178.77,396.00 179.42,396.86 180.07,397.69 180.72,398.51 181.37,399.30 182.02,400.07 182.67,400.81 183.32,401.53 183.97,402.22 184.62,402.88 185.27,403.51 185.92,404.11 186.57,404.67 187.22,405.20 187.87,405.69 188.52,406.14 189.17,406.55 189.82,406.91 190.47,407.24 191.12,407.52 191.77,407.76 192.42,407.95 193.07,408.09 193.71,408.18 194.36,408.22 195.01,408.22 195.66,408.16 196.31,408.04 196.96,407.88 197.61,407.66 198.26,407.38 198.91,407.05 199.56,406.66 200.21,406.22 200.86,405.72 201.51,405.16 202.16,404.54 202.81,403.87 203.46,403.13 204.11,402.34 204.76,401.49 205.41,400.58 206.06,399.62 206.71,398.59 207.36,397.51 208.01,396.37 208.66,395.18 209.30,393.92 209.95,392.62 210.60,391.25 211.25,389.84 211.90,388.37 212.55,386.84 213.20,385.27 213.85,383.65 214.50,381.97 215.15,380.25 215.80,378.48 216.45,376.67 217.10,374.81 217.75,372.91 218.40,370.97 219.05,369.00 219.70,366.98 220.35,364.93 221.00,362.84 221.65,360.73 222.30,358.58 222.95,356.40 223.60,354.20 224.24,351.98 224.89,349.73 225.54,347.47 226.19,345.19 226.84,342.89 227.49,340.59 228.14,338.27 228.79,335.95 229.44,333.62 230.09,331.28 230.74,328.95 231.39,326.62 232.04,324.30 232.69,321.98 233.34,319.68 233.99,317.39 234.64,315.11 235.29,312.85 235.94,310.62 236.59,308.40 237.24,306.22 237.89,304.06 238.54,301.93 239.19,299.84 239.83,297.78 240.48,295.76 241.13,293.78 241.78,291.85 242.43,289.96 243.08,288.12 243.73,286.34 244.38,284.60 245.03,282.92 245.68,281.30 246.33,279.74 246.98,278.24 247.63,276.80 248.28,275.43 248.93,274.13 249.58,272.89 250.23,271.73 250.88,270.64 251.53,269.62 252.18,268.68 252.83,267.82 253.48,267.03 254.13,266.32 254.78,265.70 255.42,265.15 256.07,264.69 256.72,264.31 257.37,264.02 258.02,263.81 258.67,263.68 259.32,263.64 259.97,263.68 260.62,263.82 261.27,264.03 261.92,264.33 262.57,264.72 263.22,265.20 263.87,265.75 264.52,266.40 265.17,267.12 265.82,267.93 266.47,268.82 267.12,269.80 267.77,270.85 268.42,271.98 269.07,273.19 269.72,274.47 270.37,275.83 271.01,277.26 271.66,278.76 272.31,280.33 272.96,281.97 273.61,283.68 274.26,285.44 274.91,287.27 275.56,289.15 276.21,291.09 276.86,293.09 277.51,295.13 278.16,297.22 278.81,299.36 279.46,301.54 280.11,303.75 280.76,306.01 281.41,308.29 282.06,310.61 282.71,312.95 283.36,315.31 284.01,317.70 284.66,320.10 285.31,322.51 285.96,324.93 286.60,327.36 287.25,329.79 287.90,332.22 288.55,334.64 289.20,337.05 289.85,339.45 290.50,341.83 291.15,344.20 291.80,346.54 292.45,348.85 293.10,351.13 293.75,353.38 294.40,355.58 295.05,357.75 295.70,359.87 296.35,361.94 297.00,363.96 297.65,365.92 298.30,367.82 298.95,369.66 299.60,371.43 300.25,373.13 300.90,374.76 301.54,376.32 302.19,377.79 302.84,379.18 303.49,380.49 304.14,381.71 304.79,382.84 305.44,383.88 306.09,384.82 306.74,385.66 307.39,386.40 308.04,387.04 308.69,387.58 309.34,388.01 309.99,388.33 310.64,388.55 311.29,388.65 311.94,388.64 312.59,388.51 313.24,388.28 313.89,387.92 314.54,387.45 315.19,386.86 315.84,386.16 316.49,385.33 317.13,384.39 317.78,383.33 318.43,382.15 319.08,380.85 319.73,379.44 320.38,377.91 321.03,376.26 321.68,374.49 322.33,372.62 322.98,370.62 323.63,368.52 324.28,366.31 324.93,363.98 325.58,361.55 326.23,359.02 326.88,356.38 327.53,353.64 328.18,350.80 328.83,347.87 329.48,344.84 330.13,341.73 330.78,338.52 331.43,335.23 332.08,331.86 332.72,328.41 333.37,324.89 334.02,321.30 334.67,317.64 335.32,313.91 335.97,310.13 336.62,306.29 337.27,302.40 337.92,298.46 338.57,294.47 339.22,290.45 339.87,286.40 340.52,282.31 341.17,278.20 341.82,274.07 342.47,269.92 343.12,265.76 343.77,261.60 344.42,257.43 345.07,253.27 345.72,249.11 346.37,244.96 347.02,240.84 347.67,236.73 348.31,232.65 348.96,228.61 349.61,224.60 350.26,220.63 350.91,216.71 351.56,212.84 352.21,209.02 352.86,205.27 353.51,201.58 354.16,197.96 354.81,194.41 355.46,190.94 356.11,187.56 356.76,184.26 357.41,181.05 358.06,177.94 358.71,174.92 359.36,172.01 360.01,169.21 360.66,166.51 361.31,163.93 361.96,161.47 362.61,159.13 363.26,156.91 363.90,154.81 364.55,152.85 365.20,151.01 365.85,149.31 366.50,147.75 367.15,146.32 367.80,145.04 368.45,143.90 369.10,142.90 369.75,142.04 370.40,141.34 371.05,140.78 371.70,140.37 372.35,140.11 373.00,139.99 373.65,140.03 374.30,140.22 374.95,140.56 375.60,141.05 376.25,141.68 376.90,142.47 377.55,143.41 378.20,144.49 378.84,145.71 379.49,147.09 380.14,148.60 380.79,150.26 381.44,152.05 382.09,153.98 382.74,156.05 383.39,158.25 384.04,160.57 384.69,163.03 385.34,165.60 385.99,168.30 386.64,171.12 387.29,174.04 387.94,177.08 388.59,180.22 389.24,183.47 389.89,186.81 390.54,190.24 391.19,193.77 391.84,197.38 392.49,201.07 393.14,204.83 393.79,208.66 394.43,212.56 395.08,216.52 395.73,220.53 396.38,224.59 397.03,228.69 397.68,232.84 398.33,237.02 398.98,241.22 399.63,245.45 400.28,249.69 400.93,253.94 401.58,258.20 402.23,262.46 402.88,266.71 403.53,270.95 404.18,275.17 404.83,279.36 405.48,283.53 406.13,287.66 406.78,291.75 407.43,295.79 408.08,299.78 408.73,303.72 409.38,307.59 410.02,311.39 410.67,315.11 411.32,318.76 411.97,322.32 412.62,325.80 413.27,329.18 413.92,332.45 414.57,335.63 415.22,338.69 415.87,341.65 416.52,344.48 417.17,347.20 417.82,349.78 418.47,352.24 419.12,354.56 419.77,356.75 420.42,358.80 421.07,360.70 421.72,362.46 422.37,364.06 423.02,365.52 423.67,366.81 424.32,367.96 424.97,368.94 425.61,369.76 426.26,370.42 426.91,370.91 427.56,371.24 428.21,371.40 428.86,371.40 429.51,371.23 430.16,370.89 430.81,370.38 431.46,369.70 432.11,368.85 432.76,367.84 433.41,366.65 434.06,365.31 434.71,363.79 435.36,362.12 436.01,360.28 436.66,358.28 437.31,356.12 437.96,353.81 438.61,351.34 439.26,348.73 439.91,345.96 440.56,343.05 441.20,340.00 441.85,336.80 442.50,333.48 443.15,330.02 443.80,326.44 444.45,322.73 445.10,318.90 445.75,314.96 446.40,310.91 447.05,306.75 447.70,302.50 448.35,298.15 449.00,293.71 449.65,289.18 450.30,284.58 450.95,279.90 451.60,275.16 452.25,270.35 452.90,265.49 453.55,260.57 454.20,255.61 454.85,250.62 455.50,245.59 456.14,240.54 456.79,235.46 457.44,230.37 458.09,225.28 458.74,220.18 459.39,215.09 460.04,210.01 460.69,204.95 461.34,199.92 461.99,194.91 462.64,189.94 463.29,185.02 463.94,180.14 464.59,175.32 465.24,170.56 465.89,165.87 466.54,161.25 467.19,156.71 467.84,152.25 468.49,147.88 469.14,143.61 469.79,139.44 470.44,135.38 471.09,131.43 471.73,127.60 472.38,123.88 473.03,120.30 473.68,116.84 474.33,113.52 474.98,110.33 475.63,107.29 476.28,104.40 476.93,101.66 477.58,99.07 478.23,96.64 478.88,94.37 479.53,92.26 480.18,90.32 480.83,88.55 481.48,86.95 482.13,85.52 482.78,84.27 483.43,83.19 484.08,82.29 484.73,81.57 485.38,81.03 486.03,80.66 486.68,80.48 487.32,80.48 487.97,80.66 488.62,81.03 489.27,81.57 489.92,82.29 490.57,83.19 491.22,84.27 491.87,85.52 492.52,86.95 493.17,88.55 493.82,90.32 494.47,92.26 495.12,94.37 495.77,96.64 496.42,99.07 497.07,101.66 497.72,104.40 498.37,107.29 499.02,110.33 499.67,113.52 500.32,116.84 500.97,120.30 501.62,123.88 502.27,127.60 502.91,131.43 503.56,135.38 504.21,139.44 504.86,143.61 505.51,147.88 506.16,152.25 506.81,156.71 507.46,161.25 508.11,165.87 508.76,170.56 509.41,175.32 510.06,180.14 510.71,185.02 511.36,189.94 512.01,194.91 512.66,199.92 513.31,204.95 513.96,210.01 514.61,215.09 515.26,220.18 515.91,225.28 516.56,230.37 517.21,235.46 517.86,240.54 518.50,245.59 519.15,250.62 519.80,255.61 520.45,260.57 521.10,265.49 521.75,270.35 522.40,275.16 523.05,279.90 523.70,284.58 524.35,289.18 525.00,293.71 525.65,298.15 526.30,302.50 526.95,306.75 527.60,310.91 528.25,314.96 528.90,318.90 529.55,322.73 530.20,326.44 530.85,330.02 531.50,333.48 532.15,336.80 532.80,340.00 533.44,343.05 534.09,345.96 534.74,348.73 535.39,351.34 536.04,353.81 536.69,356.12 537.34,358.28 537.99,360.28 538.64,362.12 539.29,363.79 539.94,365.31 540.59,366.65 541.24,367.84 541.89,368.85 542.54,369.70 543.19,370.38 543.84,370.89 544.49,371.23 545.14,371.40 545.79,371.40 546.44,371.24 547.09,370.91 547.74,370.42 548.39,369.76 549.03,368.94 549.68,367.96 550.33,366.81 550.98,365.52 551.63,364.06 552.28,362.46 552.93,360.70 553.58,358.80 554.23,356.75 554.88,354.56 555.53,352.24 556.18,349.78 556.83,347.20 557.48,344.48 558.13,341.65 558.78,338.69 559.43,335.63 560.08,332.45 560.73,329.18 561.38,325.80 562.03,322.32 562.68,318.76 563.33,315.11 563.98,311.39 564.62,307.59 565.27,303.72 565.92,299.78 566.57,295.79 567.22,291.75 567.87,287.66 568.52,283.53 569.17,279.36 569.82,275.17 570.47,270.95 571.12,266.71 571.77,262.46 572.42,258.20 573.07,253.94 573.72,249.69 574.37,245.45 575.02,241.22 575.67,237.02 576.32,232.84 576.97,228.69 577.62,224.59 578.27,220.53 578.92,216.52 579.57,212.56 580.21,208.66 580.86,204.83 581.51,201.07 582.16,197.38 582.81,193.77 583.46,190.24 584.11,186.81 584.76,183.47 585.41,180.22 586.06,177.08 586.71,174.04 587.36,171.12 588.01,168.30 588.66,165.60 589.31,163.03 589.96,160.57 590.61,158.25 591.26,156.05 591.91,153.98 592.56,152.05 593.21,150.26 593.86,148.60 594.51,147.09 595.16,145.71 595.80,144.49 596.45,143.41 597.10,142.47 597.75,141.68 598.40,141.05 599.05,140.56 599.70,140.22 600.35,140.03 601.00,139.99 601.65,140.11 602.30,140.37 602.95,140.78 603.60,141.34 604.25,142.04 604.90,142.90 605.55,143.90 606.20,145.04 606.85,146.32 607.50,147.75 608.15,149.31 608.80,151.01 609.45,152.85 610.10,154.81 610.74,156.91 611.39,159.13 612.04,161.47 612.69,163.93 613.34,166.51 613.99,169.21 614.64,172.01 615.29,174.92 615.94,177.94 616.59,181.05 617.24,184.26 617.89,187.56 618.54,190.94 619.19,194.41 619.84,197.96 620.49,201.58 621.14,205.27 621.79,209.02 622.44,212.84 623.09,216.71 623.74,220.63 624.39,224.60 625.04,228.61 625.69,232.65 626.33,236.73 626.98,240.84 627.63,244.96 628.28,249.11 628.93,253.27 629.58,257.43 630.23,261.60 630.88,265.76 631.53,269.92 632.18,274.07 632.83,278.20 633.48,282.31 634.13,286.40 634.78,290.45 635.43,294.47 636.08,298.46 636.73,302.40 637.38,306.29 638.03,310.13 638.68,313.91 639.33,317.64 639.98,321.30 640.63,324.89 641.28,328.41 641.92,331.86 642.57,335.23 643.22,338.52 643.87,341.73 644.52,344.84 645.17,347.87 645.82,350.80 646.47,353.64 647.12,356.38 647.77,359.02 648.42,361.55 649.07,363.98 649.72,366.31 650.37,368.52 651.02,370.62 651.67,372.62 652.32,374.49 652.97,376.26 653.62,377.91 654.27,379.44 654.92,380.85 655.57,382.15 656.22,383.33 656.87,384.39 657.51,385.33 658.16,386.16 658.81,386.86 659.46,387.45 660.11,387.92 660.76,388.28 661.41,388.51 662.06,388.64 662.71,388.65 663.36,388.55 664.01,388.33 664.66,388.01 665.31,387.58 665.96,387.04 666.61,386.40 667.26,385.66 667.91,384.82 668.56,383.88 669.21,382.84 669.86,381.71 670.51,380.49 671.16,379.18 671.81,377.79 672.46,376.32 673.10,374.76 673.75,373.13 674.40,371.43 675.05,369.66 675.70,367.82 676.35,365.92 677.00,363.96 677.65,361.94 678.30,359.87 678.95,357.75 679.60,355.58 680.25,353.38 680.90,351.13 681.55,348.85 682.20,346.54 682.85,344.20 683.50,341.83 684.15,339.45 684.80,337.05 685.45,334.64 686.10,332.22 686.75,329.79 687.40,327.36 688.04,324.93 688.69,322.51 689.34,320.10 689.99,317.70 690.64,315.31 691.29,312.95 691.94,310.61 692.59,308.29 693.24,306.01 693.89,303.75 694.54,301.54 695.19,299.36 695.84,297.22 696.49,295.13 697.14,293.09 697.79,291.09 698.44,289.15 699.09,287.27 699.74,285.44 700.39,283.68 701.04,281.97 701.69,280.33 702.34,278.76 702.99,277.26 703.63,275.83 704.28,274.47 704.93,273.19 705.58,271.98 706.23,270.85 706.88,269.80 707.53,268.82 708.18,267.93 708.83,267.12 709.48,266.40 710.13,265.75 710.78,265.20 711.43,264.72 712.08,264.33 712.73,264.03 713.38,263.82 714.03,263.68 714.68,263.64 715.33,263.68 715.98,263.81 716.63,264.02 717.28,264.31 717.93,264.69 718.58,265.15 719.22,265.70 719.87,266.32 720.52,267.03 721.17,267.82 721.82,268.68 722.47,269.62 723.12,270.64 723.77,271.73 724.42,272.89 725.07,274.13 725.72,275.43 726.37,276.80 727.02,278.24 727.67,279.74 728.32,281.30 728.97,282.92 729.62,284.60 730.27,286.34 730.92,288.12 731.57,289.96 732.22,291.85 732.87,293.78 733.52,295.76 734.17,297.78 734.81,299.84 735.46,301.93 736.11,304.06 736.76,306.22 737.41,308.40 738.06,310.62 738.71,312.85 739.36,315.11 740.01,317.39 740.66,319.68 741.31,321.98 741.96,324.30 742.61,326.62 743.26,328.95 743.91,331.28 744.56,333.62 745.21,335.95 745.86,338.27 746.51,340.59 747.16,342.89 747.81,345.19 748.46,347.47 749.11,349.73 749.76,351.98 750.40,354.20 751.05,356.40 751.70,358.58 752.35,360.73 753.00,362.84 753.65,364.93 754.30,366.98 754.95,369.00 755.60,370.97 756.25,372.91 756.90,374.81 757.55,376.67 758.20,378.48 758.85,380.25 759.50,381.97 760.15,383.65 760.80,385.27 761.45,386.84 762.10,388.37 762.75,389.84 763.40,391.25 764.05,392.62 764.70,393.92 765.34,395.18 765.99,396.37 766.64,397.51 767.29,398.59 767.94,399.62 768.59,400.58 769.24,401.49 769.89,402.34 770.54,403.13 771.19,403.87 771.84,404.54 772.49,405.16 773.14,405.72 773.79,406.22 774.44,406.66 775.09,407.05 775.74,407.38 776.39,407.66 777.04,407.88 777.69,408.04 778.34,408.16 778.99,408.22 779.64,408.22 780.29,408.18 780.93,408.09 781.58,407.95 782.23,407.76 782.88,407.52 783.53,407.24 784.18,406.91 784.83,406.55 785.48,406.14 786.13,405.69 786.78,405.20 787.43,404.67 788.08,404.11 788.73,403.51 789.38,402.88 790.03,402.22 790.68,401.53 791.33,400.81 791.98,400.07 792.63,399.30 793.28,398.51 793.93,397.69 794.58,396.86 795.23,396.00 795.88,395.13 796.52,394.25 797.17,393.35 797.82,392.44 798.47,391.52 799.12,390.60 799.77,389.66 800.42,388.72 801.07,387.78 801.72,386.84 802.37,385.89 803.02,384.95 803.67,384.01 804.32,383.08 804.97,382.15 805.62,381.22 806.27,380.31 806.92,379.41 807.57,378.52 808.22,377.64 808.87,376.78 809.52,375.93 810.17,375.10 810.82,374.29 811.47,373.49 812.11,372.72 812.76,371.97 813.41,371.24 814.06,370.53 814.71,369.85 815.36,369.20 816.01,368.57 816.66,367.97 817.31,367.39 817.96,366.85 818.61,366.33 819.26,365.84 819.91,365.39 820.56,364.96 821.21,364.57 821.86,364.21 822.51,363.88 823.16,363.58 823.81,363.32 824.46,363.09 825.11,362.89 825.76,362.73 826.41,362.60 827.06,362.51 827.70,362.44 828.35,362.42 829.00,362.42 829.65,362.46 830.30,362.53 830.95,362.64 831.60,362.77 832.25,362.94 832.90,363.15 833.55,363.38 834.20,363.65 834.85,363.94 835.50,364.27 836.15,364.63 836.80,365.01 837.45,365.43 838.10,365.87 838.75,366.34 839.40,366.84 840.05,367.36 840.70,367.91 841.35,368.48 842.00,369.08 842.64,369.70 843.29,370.34 843.94,371.01 844.59,371.69 845.24,372.39 845.89,373.12 846.54,373.86 847.19,374.61 847.84,375.38 848.49,376.17 849.14,376.97 849.79,377.79 850.44,378.61 851.09,379.45 851.74,380.30 852.39,381.15 853.04,382.01 853.69,382.89 854.34,383.76 854.99,384.65 855.64,385.53 856.29,386.42 856.94,387.31 857.59,388.21 858.23,389.10 858.88,389.99 859.53,390.88 860.18,391.77 860.83,392.66 861.48,393.54 862.13,394.41 862.78,395.29 863.43,396.15 864.08,397.01 864.73,397.85 865.38,398.69 866.03,399.52 866.68,400.34 867.33,401.15 867.98,401.94 868.63,402.73 869.28,403.50 869.93,404.25 870.58,405.00 871.23,405.72 871.88,406.44 872.53,407.13 873.18,407.81 873.82,408.47 874.47,409.12 875.12,409.75 875.77,410.36 876.42,410.95"/>
<line x1="94" y1="72" x2="122" y2="72" stroke="#2962ff" stroke-width="3"/>
<text x="130.00" y="76.00" font-size="12" font-family="Arial, Helvetica, sans-serif" text-anchor="start" fill="#263238">raw V=0.26</text>
<line x1="94" y1="94" x2="122" y2="94" stroke="#00897b" stroke-width="3"/>
<text x="130.00" y="98.00" font-size="12" font-family="Arial, Helvetica, sans-serif" text-anchor="start" fill="#263238">fixed eraser + V=0.70</text>
<line x1="94" y1="116" x2="122" y2="116" stroke="#d84315" stroke-width="3" stroke-dasharray="7 5"/>
<text x="130.00" y="120.00" font-size="12" font-family="Arial, Helvetica, sans-serif" text-anchor="start" fill="#263238">fixed eraser - V=0.62</text>
<line x1="94" y1="138" x2="122" y2="138" stroke="#6a1b9a" stroke-width="3"/>
<text x="130.00" y="142.00" font-size="12" font-family="Arial, Helvetica, sans-serif" text-anchor="start" fill="#263238">optimal eraser V=0.72</text>
<text x="487.00" y="492.00" font-size="14" font-family="Arial, Helvetica, sans-serif" text-anchor="middle" fill="#263238">screen position</text>
<text x="22.00" y="246.00" font-size="14" font-family="Arial, Helvetica, sans-serif" text-anchor="middle" fill="#263238" transform="rotate(-90 22.00 246.00)">normalized intensity</text>
</svg>
