<svg xmlns="http://www.w3.org/2000/svg" width="820" height="500" viewBox="0 0 820 500">
<rect width="100%" height="100%" fill="#ffffff"/>
<text x="410.00" y="28.00" font-size="20" font-family="Arial, Helvetica, sans-serif" text-anchor="middle" fill="#17212b">Model Comparison on Visibility Dataset</text>
<rect x="86" y="54" width="710" height="318" fill="#fafafa" stroke="#cfd8dc"/>
<line x1="86" y1="372.00" x2="796" y2="372.00" stroke="#eceff1"/>
<text x="76.00" y="376.00" font-size="11" font-family="Arial, Helvetica, sans-serif" text-anchor="end" fill="#263238">0</text>
<line x1="86" y1="308.40" x2="796" y2="308.40" stroke="#eceff1"/>
<text x="76.00" y="312.40" font-size="11" font-family="Arial, Helvetica, sans-serif" text-anchor="end" fill="#263238">3.4e+02</text>
<line x1="86" y1="244.80" x2="796" y2="244.80" stroke="#eceff1"/>
<text x="76.00" y="248.80" font-size="11" font-family="Arial, Helvetica, sans-serif" text-anchor="end" fill="#263238">6.8e+02</text>
<line x1="86" y1="181.20" x2="796" y2="181.20" stroke="#eceff1"/>
<text x="76.00" y="185.20" font-size="11" font-family="Arial, Helvetica, sans-serif" text-anchor="end" fill="#263238">1e+03</text>
<line x1="86" y1="117.60" x2="796" y2="117.60" stroke="#eceff1"/>
<text x="76.00" y="121.60" font-size="11" font-family="Arial, Helvetica, sans-serif" text-anchor="end" fill="#263238">1.4e+03</text>
<line x1="86" y1="54.00" x2="796" y2="54.00" stroke="#eceff1"/>
<text x="76.00" y="58.00" font-size="11" font-family="Arial, Helvetica, sans-serif" text-anchor="end" fill="#263238">1.7e+03</text>
<rect x="101.97" y="372.00" width="56.80" height="0.00" fill="#2962ff" fill-opacity="0.82"/>
<text x="130.38" y="390.00" font-size="10" font-family="Arial, Helvetica, sans-serif" text-anchor="middle" fill="#263238" transform="rotate(-28 130.38 390.00)">product</text>
<rect x="190.72" y="371.93" width="56.80" height="0.07" fill="#00897b" fill-opacity="0.82"/>
<text x="219.12" y="390.00" font-size="10" font-family="Arial, Helvetica, sans-serif" text-anchor="middle" fill="#263238" transform="rotate(-28 219.12 390.00)">full_second_order</text>
<rect x="279.48" y="371.92" width="56.80" height="0.08" fill="#d84315" fill-opacity="0.82"/>
<text x="307.88" y="390.00" font-size="10" font-family="Arial, Helvetica, sans-serif" text-anchor="middle" fill="#263238" transform="rotate(-28 307.88 390.00)">product_plus_background</text>
<rect x="368.23" y="371.46" width="56.80" height="0.54" fill="#6a1b9a" fill-opacity="0.82"/>
<text x="396.62" y="390.00" font-size="10" font-family="Arial, Helvetica, sans-serif" text-anchor="middle" fill="#263238" transform="rotate(-28 396.62 390.00)">pairwise_plus_product</text>
<rect x="456.98" y="149.61" width="56.80" height="222.39" fill="#f9a825" fill-opacity="0.82"/>
<text x="485.38" y="390.00" font-size="10" font-family="Arial, Helvetica, sans-serif" text-anchor="middle" fill="#263238" transform="rotate(-28 485.38 390.00)">pairwise</text>
<rect x="545.73" y="128.46" width="56.80" height="243.54" fill="#455a64" fill-opacity="0.82"/>
<text x="574.12" y="390.00" font-size="10" font-family="Arial, Helvetica, sans-serif" text-anchor="middle" fill="#263238" transform="rotate(-28 574.12 390.00)">additive_plus_background</text>
<rect x="634.48" y="107.11" width="56.80" height="264.89" fill="#c2185b" fill-opacity="0.82"/>
<text x="662.88" y="390.00" font-size="10" font-family="Arial, Helvetica, sans-serif" text-anchor="middle" fill="#263238" transform="rotate(-28 662.88 390.00)">additive</text>
<rect x="723.23" y="88.07" width="56.80" height="283.93" fill="#2e7d32" fill-opacity="0.82"/>
<text x="751.62" y="390.00" font-size="10" font-family="Arial, Helvetica, sans-serif" text-anchor="middle" fill="#263238" transform="rotate(-28 751.62 390.00)">constant</text>
<text x="22.00" y="213.00" font-size="14" font-family="Arial, Helvetica, sans-serif" text-anchor="middle" fill="#263238" transform="rotate(-90 22.00 213.00)">delta AICc</text>
</svg>
