<svg xmlns="http://www.w3.org/2000/svg" width="920" height="520" viewBox="0 0 920 520">
<rect width="100%" height="100%" fill="#ffffff"/>
<text x="460.00" y="28.00" font-size="20" font-family="Arial, Helvetica, sans-serif" text-anchor="middle" fill="#17212b">Chapman Phase-Grade Raw Fit: High-Confidence Raw</text>
<rect x="82" y="54" width="810" height="384" fill="#fafafa" stroke="#cfd8dc"/>
<line x1="82.00" y1="54" x2="82.00" y2="438" stroke="#eceff1"/>
<text x="82.00" y="462.00" font-size="11" font-family="Arial, Helvetica, sans-serif" text-anchor="middle" fill="#263238">-0.037</text>
<line x1="244.00" y1="54" x2="244.00" y2="438" stroke="#eceff1"/>
<text x="244.00" y="462.00" font-size="11" font-family="Arial, Helvetica, sans-serif" text-anchor="middle" fill="#263238">0.35</text>
<line x1="406.00" y1="54" x2="406.00" y2="438" stroke="#eceff1"/>
<text x="406.00" y="462.00" font-size="11" font-family="Arial, Helvetica, sans-serif" text-anchor="middle" fill="#263238">0.74</text>
<line x1="568.00" y1="54" x2="568.00" y2="438" stroke="#eceff1"/>
<text x="568.00" y="462.00" font-size="11" font-family="Arial, Helvetica, sans-serif" text-anchor="middle" fill="#263238">1.1</text>
<line x1="730.00" y1="54" x2="730.00" y2="438" stroke="#eceff1"/>
<text x="730.00" y="462.00" font-size="11" font-family="Arial, Helvetica, sans-serif" text-anchor="middle" fill="#263238">1.5</text>
<line x1="892.00" y1="54" x2="892.00" y2="438" stroke="#eceff1"/>
<text x="892.00" y="462.00" font-size="11" font-family="Arial, Helvetica, sans-serif" text-anchor="middle" fill="#263238">1.9</text>
<line x1="82" y1="438.00" x2="892" y2="438.00" stroke="#eceff1"/>
<text x="72.00" y="442.00" font-size="11" font-family="Arial, Helvetica, sans-serif" text-anchor="end" fill="#263238">-0.8</text>
<line x1="82" y1="361.20" x2="892" y2="361.20" stroke="#eceff1"/>
<text x="72.00" y="365.20" font-size="11" font-family="Arial, Helvetica, sans-serif" text-anchor="end" fill="#263238">1.7</text>
<line x1="82" y1="284.40" x2="892" y2="284.40" stroke="#eceff1"/>
<text x="72.00" y="288.40" font-size="11" font-family="Arial, Helvetica, sans-serif" text-anchor="end" fill="#263238">4.1</text>
<line x1="82" y1="207.60" x2="892" y2="207.60" stroke="#eceff1"/>
<text x="72.00" y="211.60" font-size="11" font-family="Arial, Helvetica, sans-serif" text-anchor="end" fill="#263238">6.6</text>
<line x1="82" y1="130.80" x2="892" y2="130.80" stroke="#eceff1"/>
<text x="72.00" y="134.80" font-size="11" font-family="Arial, Helvetica, sans-serif" text-anchor="end" fill="#263238">9.1</text>
<line x1="82" y1="54.00" x2="892" y2="54.00" stroke="#eceff1"/>
<text x="72.00" y="58.00" font-size="11" font-family="Arial, Helvetica, sans-serif" text-anchor="end" fill="#263238">12</text>
<polyline fill="none" stroke="#263238" stroke-width="2.5" points="97.58,411.52 139.45,407.49 181.32,383.61 223.20,365.00 256.70,349.50 340.44,309.44 382.32,289.28 424.19,270.68 466.06,256.72 541.44,213.57 591.68,198.06 641.93,182.56 692.18,170.15 775.93,109.94 826.17,92.89 876.42,80.48"/>
<polyline fill="none" stroke="#2962ff" stroke-width="2.5" points="97.58,381.66 139.45,361.38 181.32,341.01 223.20,320.39 256.70,303.39 340.44,383.01 382.32,347.73 424.19,325.20 466.06,303.08 541.44,219.99 591.68,153.94 641.93,126.12 692.18,98.53 775.93,172.98 826.17,139.97 876.42,112.52"/>
<polyline fill="none" stroke="#d84315" stroke-width="2.5" stroke-dasharray="7 5" points="97.58,383.58 139.45,362.77 181.32,341.81 223.20,320.38 256.70,302.32 340.44,384.97 382.32,349.62 424.19,325.54 466.06,301.65 541.44,211.31 591.68,156.16 641.93,126.15 692.18,95.62 775.93,176.62 826.17,141.13 876.42,111.25"/>
<line x1="94" y1="72" x2="122" y2="72" stroke="#263238" stroke-width="3"/>
<text x="130.00" y="76.00" font-size="12" font-family="Arial, Helvetica, sans-serif" text-anchor="start" fill="#263238">graded phase</text>
<line x1="94" y1="94" x2="122" y2="94" stroke="#2962ff" stroke-width="3"/>
<text x="130.00" y="98.00" font-size="12" font-family="Arial, Helvetica, sans-serif" text-anchor="start" fill="#263238">simple complex</text>
<line x1="94" y1="116" x2="122" y2="116" stroke="#d84315" stroke-width="3" stroke-dasharray="7 5"/>
<text x="130.00" y="120.00" font-size="12" font-family="Arial, Helvetica, sans-serif" text-anchor="start" fill="#263238">best mixture</text>
<text x="487.00" y="492.00" font-size="14" font-family="Arial, Helvetica, sans-serif" text-anchor="middle" fill="#263238">d/lambda</text>
<text x="22.00" y="246.00" font-size="14" font-family="Arial, Helvetica, sans-serif" text-anchor="middle" fill="#263238" transform="rotate(-90 22.00 246.00)">phase (rad)</text>
</svg>
