<svg xmlns="http://www.w3.org/2000/svg" width="720" height="560" viewBox="0 0 720 560">
<rect width="100%" height="100%" fill="#ffffff"/>
<text x="360.00" y="28.00" font-size="20" font-family="Arial, Helvetica, sans-serif" text-anchor="middle" fill="#17212b">Cormann setup 1 Visibility</text>
<rect x="82" y="54" width="606" height="424" fill="#fafafa" stroke="#cfd8dc"/>
<line x1="82.00" y1="54" x2="82.00" y2="478" stroke="#eceff1"/>
<text x="82.00" y="502.00" font-size="11" font-family="Arial, Helvetica, sans-serif" text-anchor="middle" fill="#263238">-98</text>
<line x1="203.20" y1="54" x2="203.20" y2="478" stroke="#eceff1"/>
<text x="203.20" y="502.00" font-size="11" font-family="Arial, Helvetica, sans-serif" text-anchor="middle" fill="#263238">-59</text>
<line x1="324.40" y1="54" x2="324.40" y2="478" stroke="#eceff1"/>
<text x="324.40" y="502.00" font-size="11" font-family="Arial, Helvetica, sans-serif" text-anchor="middle" fill="#263238">-19</text>
<line x1="445.60" y1="54" x2="445.60" y2="478" stroke="#eceff1"/>
<text x="445.60" y="502.00" font-size="11" font-family="Arial, Helvetica, sans-serif" text-anchor="middle" fill="#263238">20</text>
<line x1="566.80" y1="54" x2="566.80" y2="478" stroke="#eceff1"/>
<text x="566.80" y="502.00" font-size="11" font-family="Arial, Helvetica, sans-serif" text-anchor="middle" fill="#263238">60</text>
<line x1="688.00" y1="54" x2="688.00" y2="478" stroke="#eceff1"/>
<text x="688.00" y="502.00" font-size="11" font-family="Arial, Helvetica, sans-serif" text-anchor="middle" fill="#263238">99</text>
<line x1="82" y1="478.00" x2="688" y2="478.00" stroke="#eceff1"/>
<text x="72.00" y="482.00" font-size="11" font-family="Arial, Helvetica, sans-serif" text-anchor="end" fill="#263238">-0.017</text>
<line x1="82" y1="393.20" x2="688" y2="393.20" stroke="#eceff1"/>
<text x="72.00" y="397.20" font-size="11" font-family="Arial, Helvetica, sans-serif" text-anchor="end" fill="#263238">0.14</text>
<line x1="82" y1="308.40" x2="688" y2="308.40" stroke="#eceff1"/>
<text x="72.00" y="312.40" font-size="11" font-family="Arial, Helvetica, sans-serif" text-anchor="end" fill="#263238">0.3</text>
<line x1="82" y1="223.60" x2="688" y2="223.60" stroke="#eceff1"/>
<text x="72.00" y="227.60" font-size="11" font-family="Arial, Helvetica, sans-serif" text-anchor="end" fill="#263238">0.46</text>
<line x1="82" y1="138.80" x2="688" y2="138.80" stroke="#eceff1"/>
<text x="72.00" y="142.80" font-size="11" font-family="Arial, Helvetica, sans-serif" text-anchor="end" fill="#263238">0.62</text>
<line x1="82" y1="54.00" x2="688" y2="54.00" stroke="#eceff1"/>
<text x="72.00" y="58.00" font-size="11" font-family="Arial, Helvetica, sans-serif" text-anchor="end" fill="#263238">0.78</text>
<circle cx="114.46" cy="441.53" r="3.4" fill="#d84315" fill-opacity="0.62"/>
<circle cx="120.31" cy="412.10" r="3.4" fill="#d84315" fill-opacity="0.62"/>
<circle cx="126.42" cy="380.02" r="3.4" fill="#d84315" fill-opacity="0.62"/>
<circle cx="132.43" cy="348.04" r="3.4" fill="#d84315" fill-opacity="0.62"/>
<circle cx="138.72" cy="317.39" r="3.4" fill="#d84315" fill-opacity="0.62"/>
<circle cx="144.85" cy="285.66" r="3.4" fill="#d84315" fill-opacity="0.62"/>
<circle cx="150.95" cy="255.50" r="3.4" fill="#d84315" fill-opacity="0.62"/>
<circle cx="157.02" cy="227.92" r="3.4" fill="#d84315" fill-opacity="0.62"/>
<circle cx="163.13" cy="199.74" r="3.4" fill="#d84315" fill-opacity="0.62"/>
<circle cx="169.06" cy="174.33" r="3.4" fill="#d84315" fill-opacity="0.62"/>
<circle cx="175.30" cy="149.32" r="3.4" fill="#d84315" fill-opacity="0.62"/>
<circle cx="181.42" cy="123.86" r="3.4" fill="#d84315" fill-opacity="0.62"/>
<circle cx="187.36" cy="103.14" r="3.4" fill="#d84315" fill-opacity="0.62"/>
<circle cx="315.25" cy="117.97" r="3.4" fill="#d84315" fill-opacity="0.62"/>
<circle cx="321.26" cy="141.03" r="3.4" fill="#d84315" fill-opacity="0.62"/>
<circle cx="327.36" cy="165.18" r="3.4" fill="#d84315" fill-opacity="0.62"/>
<circle cx="333.47" cy="188.85" r="3.4" fill="#d84315" fill-opacity="0.62"/>
<circle cx="339.50" cy="214.84" r="3.4" fill="#d84315" fill-opacity="0.62"/>
<circle cx="345.59" cy="242.40" r="3.4" fill="#d84315" fill-opacity="0.62"/>
<circle cx="351.78" cy="271.53" r="3.4" fill="#d84315" fill-opacity="0.62"/>
<circle cx="357.83" cy="301.41" r="3.4" fill="#d84315" fill-opacity="0.62"/>
<circle cx="363.82" cy="330.35" r="3.4" fill="#d84315" fill-opacity="0.62"/>
<circle cx="370.05" cy="363.03" r="3.4" fill="#d84315" fill-opacity="0.62"/>
<circle cx="376.04" cy="393.98" r="3.4" fill="#d84315" fill-opacity="0.62"/>
<circle cx="382.12" cy="424.32" r="3.4" fill="#d84315" fill-opacity="0.62"/>
<circle cx="388.27" cy="455.29" r="3.4" fill="#d84315" fill-opacity="0.62"/>
<circle cx="394.32" cy="432.17" r="3.4" fill="#d84315" fill-opacity="0.62"/>
<circle cx="400.21" cy="401.94" r="3.4" fill="#d84315" fill-opacity="0.62"/>
<circle cx="406.45" cy="369.09" r="3.4" fill="#d84315" fill-opacity="0.62"/>
<circle cx="412.56" cy="337.92" r="3.4" fill="#d84315" fill-opacity="0.62"/>
<circle cx="418.63" cy="307.77" r="3.4" fill="#d84315" fill-opacity="0.62"/>
<circle cx="424.66" cy="277.53" r="3.4" fill="#d84315" fill-opacity="0.62"/>
<circle cx="430.89" cy="246.79" r="3.4" fill="#d84315" fill-opacity="0.62"/>
<circle cx="436.86" cy="220.06" r="3.4" fill="#d84315" fill-opacity="0.62"/>
<circle cx="442.92" cy="191.47" r="3.4" fill="#d84315" fill-opacity="0.62"/>
<circle cx="449.07" cy="167.69" r="3.4" fill="#d84315" fill-opacity="0.62"/>
<circle cx="455.22" cy="141.91" r="3.4" fill="#d84315" fill-opacity="0.62"/>
<circle cx="461.25" cy="119.04" r="3.4" fill="#d84315" fill-opacity="0.62"/>
<circle cx="467.35" cy="97.56" r="3.4" fill="#d84315" fill-opacity="0.62"/>
<circle cx="473.53" cy="78.07" r="3.4" fill="#d84315" fill-opacity="0.62"/>
<circle cx="576.88" cy="76.71" r="3.4" fill="#d84315" fill-opacity="0.62"/>
<circle cx="583.09" cy="95.86" r="3.4" fill="#d84315" fill-opacity="0.62"/>
<circle cx="589.20" cy="117.93" r="3.4" fill="#d84315" fill-opacity="0.62"/>
<circle cx="595.13" cy="139.86" r="3.4" fill="#d84315" fill-opacity="0.62"/>
<circle cx="601.35" cy="164.62" r="3.4" fill="#d84315" fill-opacity="0.62"/>
<circle cx="607.51" cy="191.56" r="3.4" fill="#d84315" fill-opacity="0.62"/>
<circle cx="613.62" cy="220.01" r="3.4" fill="#d84315" fill-opacity="0.62"/>
<circle cx="619.58" cy="250.19" r="3.4" fill="#d84315" fill-opacity="0.62"/>
<circle cx="625.76" cy="276.65" r="3.4" fill="#d84315" fill-opacity="0.62"/>
<circle cx="631.86" cy="311.62" r="3.4" fill="#d84315" fill-opacity="0.62"/>
<circle cx="637.90" cy="341.42" r="3.4" fill="#d84315" fill-opacity="0.62"/>
<circle cx="644.08" cy="376.17" r="3.4" fill="#d84315" fill-opacity="0.62"/>
<circle cx="650.07" cy="409.06" r="3.4" fill="#d84315" fill-opacity="0.62"/>
<circle cx="655.54" cy="442.14" r="3.4" fill="#d84315" fill-opacity="0.62"/>
<polyline fill="none" stroke="#d84315" stroke-width="2.5" points="110.97,452.61 113.07,441.28 115.18,429.96 117.28,418.67 119.39,407.41 121.49,396.18 123.60,384.99 125.70,373.85 127.80,362.77 129.91,351.75 132.01,340.79 134.12,329.92 136.22,319.12 138.33,308.41 140.43,297.79 142.53,287.27 144.64,276.86 146.74,266.56 148.85,256.37 150.95,246.31 153.06,236.38 155.16,226.59 157.26,216.93 159.37,207.42 161.47,198.06 163.58,188.86 165.68,179.82 167.79,170.95 169.89,162.25 172.00,153.73 174.10,145.40 176.20,137.24 178.31,129.29 180.41,121.52 182.52,113.96 184.62,106.61 186.73,99.46 188.83,92.53 190.93,85.82 193.04,79.33 195.14,73.06 197.25,67.02 199.35,61.22 201.46,55.65 203.56,50.32 205.66,45.23 207.77,40.38 209.87,35.79 211.98,31.44 214.08,27.35 216.19,23.51 218.29,19.93 220.39,16.61 222.50,13.55 224.60,10.75 226.71,8.21 228.81,5.94 230.92,3.94 233.02,2.21 235.13,0.75 237.23,-0.45 239.33,-1.37 241.44,-2.03 243.54,-2.41 245.65,-2.52 247.75,-2.36 249.86,-1.92 251.96,-1.22 254.06,-0.25 256.17,1.00 258.27,2.51 260.38,4.29 262.48,6.34 264.59,8.65 266.69,11.23 268.79,14.07 270.90,17.17 273.00,20.54 275.11,24.16 277.21,28.03 279.32,32.16 281.42,36.54 283.52,41.17 285.63,46.04 287.73,51.15 289.84,56.51 291.94,62.10 294.05,67.92 296.15,73.98 298.26,80.26 300.36,86.76 302.46,93.48 304.57,100.42 306.67,107.57 308.78,114.92 310.88,122.48 312.99,130.24 315.09,138.19 317.19,146.33 319.30,154.65 321.40,163.16 323.51,171.84 325.61,180.69 327.72,189.70 329.82,198.87 331.92,208.20 334.03,217.68 336.13,227.30 338.24,237.06 340.34,246.95 342.45,256.97 344.55,267.11 346.65,277.37 348.76,287.73 350.86,298.20 352.97,308.77 355.07,319.42 357.18,330.17 359.28,340.99 361.39,351.88 363.49,362.85 365.59,373.87 367.70,384.95 369.80,396.07 371.91,407.24 374.01,418.44 376.12,429.67 378.22,440.93 380.32,452.20 382.43,463.48 384.53,463.48 386.64,452.20 388.74,440.93 390.85,429.67 392.95,418.44 395.05,407.24 397.16,396.07 399.26,384.95 401.37,373.87 403.47,362.85 405.58,351.88 407.68,340.99 409.78,330.17 411.89,319.42 413.99,308.77 416.10,298.20 418.20,287.73 420.31,277.37 422.41,267.11 424.52,256.97 426.62,246.95 428.72,237.06 430.83,227.30 432.93,217.68 435.04,208.20 437.14,198.87 439.25,189.70 441.35,180.69 443.45,171.84 445.56,163.16 447.66,154.65 449.77,146.33 451.87,138.19 453.98,130.24 456.08,122.48 458.18,114.92 460.29,107.57 462.39,100.42 464.50,93.48 466.60,86.76 468.71,80.26 470.81,73.98 472.91,67.92 475.02,62.10 477.12,56.51 479.23,51.15 481.33,46.04 483.44,41.17 485.54,36.54 487.65,32.16 489.75,28.03 491.85,24.16 493.96,20.54 496.06,17.17 498.17,14.07 500.27,11.23 502.38,8.65 504.48,6.34 506.58,4.29 508.69,2.51 510.79,1.00 512.90,-0.25 515.00,-1.22 517.11,-1.92 519.21,-2.36 521.31,-2.52 523.42,-2.41 525.52,-2.03 527.63,-1.37 529.73,-0.45 531.84,0.75 533.94,2.21 536.04,3.94 538.15,5.94 540.25,8.21 542.36,10.75 544.46,13.55 546.57,16.61 548.67,19.93 550.78,23.51 552.88,27.35 554.98,31.44 557.09,35.79 559.19,40.38 561.30,45.23 563.40,50.32 565.51,55.65 567.61,61.22 569.71,67.02 571.82,73.06 573.92,79.33 576.03,85.82 578.13,92.53 580.24,99.46 582.34,106.61 584.44,113.96 586.55,121.52 588.65,129.29 590.76,137.24 592.86,145.40 594.97,153.73 597.07,162.25 599.17,170.95 601.28,179.82 603.38,188.86 605.49,198.06 607.59,207.42 609.70,216.93 611.80,226.59 613.90,236.38 616.01,246.31 618.11,256.37 620.22,266.56 622.32,276.86 624.43,287.27 626.53,297.79 628.64,308.41 630.74,319.12 632.84,329.92 634.95,340.79 637.05,351.75 639.16,362.77 641.26,373.85 643.37,384.99 645.47,396.18 647.57,407.41 649.68,418.67 651.78,429.96 653.89,441.28 655.99,452.61"/>
<text x="100.00" y="74.00" font-size="12" font-family="Arial, Helvetica, sans-serif" text-anchor="start" fill="#d84315">caption no-refit theory</text>
<text x="385.00" y="532.00" font-size="14" font-family="Arial, Helvetica, sans-serif" text-anchor="middle" fill="#263238">postselected angle alpha (deg)</text>
<text x="22.00" y="266.00" font-size="14" font-family="Arial, Helvetica, sans-serif" text-anchor="middle" fill="#263238" transform="rotate(-90 22.00 266.00)">visibility</text>
</svg>
