<svg xmlns="http://www.w3.org/2000/svg" width="720" height="560" viewBox="0 0 720 560">
<rect width="100%" height="100%" fill="#ffffff"/>
<text x="360.00" y="28.00" font-size="20" font-family="Arial, Helvetica, sans-serif" text-anchor="middle" fill="#17212b">Cormann setup 3 Visibility</text>
<rect x="82" y="54" width="606" height="424" fill="#fafafa" stroke="#cfd8dc"/>
<line x1="82.00" y1="54" x2="82.00" y2="478" stroke="#eceff1"/>
<text x="82.00" y="502.00" font-size="11" font-family="Arial, Helvetica, sans-serif" text-anchor="middle" fill="#263238">-99</text>
<line x1="203.20" y1="54" x2="203.20" y2="478" stroke="#eceff1"/>
<text x="203.20" y="502.00" font-size="11" font-family="Arial, Helvetica, sans-serif" text-anchor="middle" fill="#263238">-59</text>
<line x1="324.40" y1="54" x2="324.40" y2="478" stroke="#eceff1"/>
<text x="324.40" y="502.00" font-size="11" font-family="Arial, Helvetica, sans-serif" text-anchor="middle" fill="#263238">-19</text>
<line x1="445.60" y1="54" x2="445.60" y2="478" stroke="#eceff1"/>
<text x="445.60" y="502.00" font-size="11" font-family="Arial, Helvetica, sans-serif" text-anchor="middle" fill="#263238">21</text>
<line x1="566.80" y1="54" x2="566.80" y2="478" stroke="#eceff1"/>
<text x="566.80" y="502.00" font-size="11" font-family="Arial, Helvetica, sans-serif" text-anchor="middle" fill="#263238">60</text>
<line x1="688.00" y1="54" x2="688.00" y2="478" stroke="#eceff1"/>
<text x="688.00" y="502.00" font-size="11" font-family="Arial, Helvetica, sans-serif" text-anchor="middle" fill="#263238">1e+02</text>
<line x1="82" y1="478.00" x2="688" y2="478.00" stroke="#eceff1"/>
<text x="72.00" y="482.00" font-size="11" font-family="Arial, Helvetica, sans-serif" text-anchor="end" fill="#263238">-0.02</text>
<line x1="82" y1="393.20" x2="688" y2="393.20" stroke="#eceff1"/>
<text x="72.00" y="397.20" font-size="11" font-family="Arial, Helvetica, sans-serif" text-anchor="end" fill="#263238">0.16</text>
<line x1="82" y1="308.40" x2="688" y2="308.40" stroke="#eceff1"/>
<text x="72.00" y="312.40" font-size="11" font-family="Arial, Helvetica, sans-serif" text-anchor="end" fill="#263238">0.33</text>
<line x1="82" y1="223.60" x2="688" y2="223.60" stroke="#eceff1"/>
<text x="72.00" y="227.60" font-size="11" font-family="Arial, Helvetica, sans-serif" text-anchor="end" fill="#263238">0.51</text>
<line x1="82" y1="138.80" x2="688" y2="138.80" stroke="#eceff1"/>
<text x="72.00" y="142.80" font-size="11" font-family="Arial, Helvetica, sans-serif" text-anchor="end" fill="#263238">0.69</text>
<line x1="82" y1="54.00" x2="688" y2="54.00" stroke="#eceff1"/>
<text x="72.00" y="58.00" font-size="11" font-family="Arial, Helvetica, sans-serif" text-anchor="end" fill="#263238">0.86</text>
<circle cx="114.46" cy="366.00" r="3.4" fill="#222222" fill-opacity="0.62"/>
<circle cx="122.28" cy="375.61" r="3.4" fill="#222222" fill-opacity="0.62"/>
<circle cx="128.64" cy="288.09" r="3.4" fill="#222222" fill-opacity="0.62"/>
<circle cx="134.66" cy="215.99" r="3.4" fill="#222222" fill-opacity="0.62"/>
<circle cx="140.66" cy="172.64" r="3.4" fill="#222222" fill-opacity="0.62"/>
<circle cx="152.32" cy="266.17" r="3.4" fill="#222222" fill-opacity="0.62"/>
<circle cx="170.71" cy="180.69" r="3.4" fill="#222222" fill-opacity="0.62"/>
<circle cx="181.47" cy="186.93" r="3.4" fill="#222222" fill-opacity="0.62"/>
<circle cx="207.94" cy="76.71" r="3.4" fill="#222222" fill-opacity="0.62"/>
<circle cx="252.09" cy="126.48" r="3.4" fill="#222222" fill-opacity="0.62"/>
<circle cx="252.11" cy="152.00" r="3.4" fill="#222222" fill-opacity="0.62"/>
<circle cx="381.12" cy="455.29" r="3.4" fill="#222222" fill-opacity="0.62"/>
<circle cx="523.83" cy="126.15" r="3.4" fill="#222222" fill-opacity="0.62"/>
<circle cx="524.15" cy="151.09" r="3.4" fill="#222222" fill-opacity="0.62"/>
<circle cx="624.07" cy="327.37" r="3.4" fill="#222222" fill-opacity="0.62"/>
<circle cx="641.09" cy="183.96" r="3.4" fill="#222222" fill-opacity="0.62"/>
<circle cx="647.18" cy="244.80" r="3.4" fill="#222222" fill-opacity="0.62"/>
<circle cx="652.49" cy="332.36" r="3.4" fill="#222222" fill-opacity="0.62"/>
<circle cx="655.54" cy="421.56" r="3.4" fill="#222222" fill-opacity="0.62"/>
<polyline fill="none" stroke="#d84315" stroke-width="2.5" points="113.45,414.18 115.54,378.12 117.62,343.74 119.71,311.56 121.79,282.03 123.87,255.41 125.96,231.88 128.04,211.48 130.13,194.14 132.21,179.73 134.30,168.06 136.38,158.90 138.46,152.01 140.55,147.12 142.63,144.01 144.72,142.43 146.80,142.16 148.88,143.01 150.97,144.81 153.05,147.39 155.14,150.62 157.22,154.38 159.30,158.56 161.39,163.08 163.47,167.87 165.56,172.85 167.64,177.99 169.73,183.22 171.81,188.51 173.89,193.84 175.98,199.17 178.06,204.48 180.15,209.76 182.23,214.99 184.31,220.17 186.40,225.27 188.48,230.30 190.57,235.25 192.65,240.12 194.74,244.89 196.82,249.58 198.90,254.18 200.99,258.68 203.07,263.10 205.16,267.43 207.24,271.66 209.32,275.81 211.41,279.88 213.49,283.85 215.58,287.75 217.66,291.56 219.74,295.30 221.83,298.96 223.91,302.55 226.00,306.06 228.08,309.50 230.17,312.87 232.25,316.18 234.33,319.42 236.42,322.60 238.50,325.72 240.59,328.79 242.67,331.79 244.75,334.74 246.84,337.64 248.92,340.49 251.01,343.28 253.09,346.03 255.17,348.74 257.26,351.40 259.34,354.01 261.43,356.59 263.51,359.12 265.60,361.62 267.68,364.07 269.76,366.49 271.85,368.88 273.93,371.23 276.02,373.55 278.10,375.84 280.18,378.10 282.27,380.33 284.35,382.52 286.44,384.70 288.52,386.84 290.60,388.96 292.69,391.06 294.77,393.13 296.86,395.18 298.94,397.21 301.03,399.21 303.11,401.20 305.19,403.16 307.28,405.11 309.36,407.03 311.45,408.95 313.53,410.84 315.61,412.72 317.70,414.58 319.78,416.42 321.87,418.26 323.95,420.07 326.03,421.88 328.12,423.67 330.20,425.45 332.29,427.22 334.37,428.98 336.46,430.73 338.54,432.46 340.62,434.19 342.71,435.91 344.79,437.62 346.88,439.33 348.96,441.02 351.04,442.71 353.13,444.39 355.21,446.07 357.30,447.74 359.38,449.40 361.46,451.06 363.55,452.72 365.63,454.37 367.72,456.02 369.80,457.66 371.89,459.30 373.97,460.94 376.05,462.58 378.14,464.22 380.22,465.86 382.31,467.49 384.39,467.49 386.47,465.86 388.56,464.22 390.64,462.58 392.73,460.94 394.81,459.30 396.89,457.66 398.98,456.02 401.06,454.37 403.15,452.72 405.23,451.06 407.32,449.40 409.40,447.74 411.48,446.07 413.57,444.39 415.65,442.71 417.74,441.02 419.82,439.33 421.90,437.62 423.99,435.91 426.07,434.19 428.16,432.46 430.24,430.73 432.33,428.98 434.41,427.22 436.49,425.45 438.58,423.67 440.66,421.88 442.75,420.07 444.83,418.26 446.91,416.42 449.00,414.58 451.08,412.72 453.17,410.84 455.25,408.95 457.33,407.03 459.42,405.11 461.50,403.16 463.59,401.20 465.67,399.21 467.76,397.21 469.84,395.18 471.92,393.13 474.01,391.06 476.09,388.96 478.18,386.84 480.26,384.70 482.34,382.52 484.43,380.33 486.51,378.10 488.60,375.84 490.68,373.55 492.76,371.23 494.85,368.88 496.93,366.49 499.02,364.07 501.10,361.62 503.19,359.12 505.27,356.59 507.35,354.01 509.44,351.40 511.52,348.74 513.61,346.03 515.69,343.28 517.77,340.49 519.86,337.64 521.94,334.74 524.03,331.79 526.11,328.79 528.19,325.72 530.28,322.60 532.36,319.42 534.45,316.18 536.53,312.87 538.62,309.50 540.70,306.06 542.78,302.55 544.87,298.96 546.95,295.30 549.04,291.56 551.12,287.75 553.20,283.85 555.29,279.88 557.37,275.81 559.46,271.66 561.54,267.43 563.62,263.10 565.71,258.68 567.79,254.18 569.88,249.58 571.96,244.89 574.05,240.12 576.13,235.25 578.21,230.30 580.30,225.27 582.38,220.17 584.47,214.99 586.55,209.76 588.63,204.48 590.72,199.17 592.80,193.84 594.89,188.51 596.97,183.22 599.05,177.99 601.14,172.85 603.22,167.87 605.31,163.08 607.39,158.56 609.48,154.38 611.56,150.62 613.64,147.39 615.73,144.81 617.81,143.01 619.90,142.16 621.98,142.43 624.06,144.01 626.15,147.12 628.23,152.01 630.32,158.90 632.40,168.06 634.49,179.73 636.57,194.14 638.65,211.48 640.74,231.88 642.82,255.41 644.91,282.03 646.99,311.56 649.07,343.74 651.16,378.12 653.24,414.18"/>
<text x="100.00" y="74.00" font-size="12" font-family="Arial, Helvetica, sans-serif" text-anchor="start" fill="#d84315">caption no-refit theory</text>
<text x="385.00" y="532.00" font-size="14" font-family="Arial, Helvetica, sans-serif" text-anchor="middle" fill="#263238">postselected angle alpha (deg)</text>
<text x="22.00" y="266.00" font-size="14" font-family="Arial, Helvetica, sans-serif" text-anchor="middle" fill="#263238" transform="rotate(-90 22.00 266.00)">visibility</text>
</svg>
