<svg xmlns="http://www.w3.org/2000/svg" width="720" height="560" viewBox="0 0 720 560">
<rect width="100%" height="100%" fill="#ffffff"/>
<text x="360.00" y="28.00" font-size="20" font-family="Arial, Helvetica, sans-serif" text-anchor="middle" fill="#17212b">Cormann setup 2 Visibility</text>
<rect x="82" y="54" width="606" height="424" fill="#fafafa" stroke="#cfd8dc"/>
<line x1="82.00" y1="54" x2="82.00" y2="478" stroke="#eceff1"/>
<text x="82.00" y="502.00" font-size="11" font-family="Arial, Helvetica, sans-serif" text-anchor="middle" fill="#263238">-99</text>
<line x1="203.20" y1="54" x2="203.20" y2="478" stroke="#eceff1"/>
<text x="203.20" y="502.00" font-size="11" font-family="Arial, Helvetica, sans-serif" text-anchor="middle" fill="#263238">-59</text>
<line x1="324.40" y1="54" x2="324.40" y2="478" stroke="#eceff1"/>
<text x="324.40" y="502.00" font-size="11" font-family="Arial, Helvetica, sans-serif" text-anchor="middle" fill="#263238">-19</text>
<line x1="445.60" y1="54" x2="445.60" y2="478" stroke="#eceff1"/>
<text x="445.60" y="502.00" font-size="11" font-family="Arial, Helvetica, sans-serif" text-anchor="middle" fill="#263238">21</text>
<line x1="566.80" y1="54" x2="566.80" y2="478" stroke="#eceff1"/>
<text x="566.80" y="502.00" font-size="11" font-family="Arial, Helvetica, sans-serif" text-anchor="middle" fill="#263238">61</text>
<line x1="688.00" y1="54" x2="688.00" y2="478" stroke="#eceff1"/>
<text x="688.00" y="502.00" font-size="11" font-family="Arial, Helvetica, sans-serif" text-anchor="middle" fill="#263238">1e+02</text>
<line x1="82" y1="478.00" x2="688" y2="478.00" stroke="#eceff1"/>
<text x="72.00" y="482.00" font-size="11" font-family="Arial, Helvetica, sans-serif" text-anchor="end" fill="#263238">-0.013</text>
<line x1="82" y1="393.20" x2="688" y2="393.20" stroke="#eceff1"/>
<text x="72.00" y="397.20" font-size="11" font-family="Arial, Helvetica, sans-serif" text-anchor="end" fill="#263238">0.14</text>
<line x1="82" y1="308.40" x2="688" y2="308.40" stroke="#eceff1"/>
<text x="72.00" y="312.40" font-size="11" font-family="Arial, Helvetica, sans-serif" text-anchor="end" fill="#263238">0.28</text>
<line x1="82" y1="223.60" x2="688" y2="223.60" stroke="#eceff1"/>
<text x="72.00" y="227.60" font-size="11" font-family="Arial, Helvetica, sans-serif" text-anchor="end" fill="#263238">0.43</text>
<line x1="82" y1="138.80" x2="688" y2="138.80" stroke="#eceff1"/>
<text x="72.00" y="142.80" font-size="11" font-family="Arial, Helvetica, sans-serif" text-anchor="end" fill="#263238">0.58</text>
<line x1="82" y1="54.00" x2="688" y2="54.00" stroke="#eceff1"/>
<text x="72.00" y="58.00" font-size="11" font-family="Arial, Helvetica, sans-serif" text-anchor="end" fill="#263238">0.73</text>
<circle cx="114.46" cy="455.29" r="3.4" fill="#2962ff" fill-opacity="0.62"/>
<circle cx="120.04" cy="424.70" r="3.4" fill="#2962ff" fill-opacity="0.62"/>
<circle cx="126.64" cy="364.65" r="3.4" fill="#2962ff" fill-opacity="0.62"/>
<circle cx="132.39" cy="322.48" r="3.4" fill="#2962ff" fill-opacity="0.62"/>
<circle cx="137.17" cy="275.98" r="3.4" fill="#2962ff" fill-opacity="0.62"/>
<circle cx="143.72" cy="231.61" r="3.4" fill="#2962ff" fill-opacity="0.62"/>
<circle cx="150.44" cy="193.65" r="3.4" fill="#2962ff" fill-opacity="0.62"/>
<circle cx="156.48" cy="157.89" r="3.4" fill="#2962ff" fill-opacity="0.62"/>
<circle cx="162.57" cy="125.84" r="3.4" fill="#2962ff" fill-opacity="0.62"/>
<circle cx="168.68" cy="97.79" r="3.4" fill="#2962ff" fill-opacity="0.62"/>
<circle cx="174.74" cy="76.71" r="3.4" fill="#2962ff" fill-opacity="0.62"/>
<circle cx="393.11" cy="442.27" r="3.4" fill="#2962ff" fill-opacity="0.62"/>
<circle cx="604.97" cy="88.84" r="3.4" fill="#2962ff" fill-opacity="0.62"/>
<circle cx="610.99" cy="113.52" r="3.4" fill="#2962ff" fill-opacity="0.62"/>
<circle cx="617.08" cy="142.56" r="3.4" fill="#2962ff" fill-opacity="0.62"/>
<circle cx="623.14" cy="175.99" r="3.4" fill="#2962ff" fill-opacity="0.62"/>
<circle cx="629.15" cy="213.22" r="3.4" fill="#2962ff" fill-opacity="0.62"/>
<circle cx="635.25" cy="257.52" r="3.4" fill="#2962ff" fill-opacity="0.62"/>
<circle cx="641.23" cy="299.56" r="3.4" fill="#2962ff" fill-opacity="0.62"/>
<circle cx="647.32" cy="348.14" r="3.4" fill="#2962ff" fill-opacity="0.62"/>
<circle cx="653.21" cy="396.71" r="3.4" fill="#2962ff" fill-opacity="0.62"/>
<circle cx="655.54" cy="454.35" r="3.4" fill="#2962ff" fill-opacity="0.62"/>
<polyline fill="none" stroke="#d84315" stroke-width="2.5" points="110.97,444.16 113.06,425.90 115.15,407.75 117.25,389.73 119.34,371.90 121.44,354.29 123.53,336.94 125.62,319.88 127.72,303.16 129.81,286.79 131.91,270.81 134.00,255.24 136.09,240.12 138.19,225.47 140.28,211.30 142.37,197.63 144.47,184.48 146.56,171.87 148.66,159.79 150.75,148.27 152.84,137.30 154.94,126.89 157.03,117.05 159.13,107.76 161.22,99.04 163.31,90.87 165.41,83.25 167.50,76.18 169.60,69.65 171.69,63.64 173.78,58.15 175.88,53.17 177.97,48.68 180.07,44.68 182.16,41.15 184.25,38.07 186.35,35.43 188.44,33.23 190.54,31.43 192.63,30.04 194.72,29.04 196.82,28.40 198.91,28.12 201.01,28.19 203.10,28.58 205.19,29.29 207.29,30.30 209.38,31.60 211.48,33.18 213.57,35.02 215.66,37.11 217.76,39.44 219.85,41.99 221.95,44.77 224.04,47.74 226.13,50.92 228.23,54.28 230.32,57.81 232.42,61.51 234.51,65.37 236.60,69.38 238.70,73.53 240.79,77.81 242.89,82.22 244.98,86.74 247.07,91.38 249.17,96.12 251.26,100.96 253.36,105.90 255.45,110.92 257.54,116.02 259.64,121.20 261.73,126.46 263.83,131.78 265.92,137.17 268.01,142.61 270.11,148.11 272.20,153.66 274.30,159.26 276.39,164.91 278.48,170.59 280.58,176.32 282.67,182.08 284.77,187.88 286.86,193.71 288.95,199.57 291.05,205.45 293.14,211.36 295.24,217.29 297.33,223.24 299.42,229.21 301.52,235.20 303.61,241.21 305.70,247.23 307.80,253.27 309.89,259.32 311.99,265.37 314.08,271.44 316.17,277.52 318.27,283.61 320.36,289.71 322.46,295.81 324.55,301.92 326.64,308.03 328.74,314.15 330.83,320.27 332.93,326.40 335.02,332.53 337.11,338.67 339.21,344.80 341.30,350.94 343.40,357.08 345.49,363.22 347.58,369.37 349.68,375.51 351.77,381.66 353.87,387.81 355.96,393.95 358.05,400.10 360.15,406.25 362.24,412.40 364.34,418.55 366.43,424.70 368.52,430.85 370.62,437.00 372.71,443.15 374.81,449.30 376.90,455.45 378.99,461.60 381.09,467.75 383.18,467.75 385.28,461.60 387.37,455.45 389.46,449.30 391.56,443.15 393.65,437.00 395.75,430.85 397.84,424.70 399.93,418.55 402.03,412.40 404.12,406.25 406.22,400.10 408.31,393.95 410.40,387.81 412.50,381.66 414.59,375.51 416.69,369.37 418.78,363.22 420.87,357.08 422.97,350.94 425.06,344.80 427.16,338.67 429.25,332.53 431.34,326.40 433.44,320.27 435.53,314.15 437.63,308.03 439.72,301.92 441.81,295.81 443.91,289.71 446.00,283.61 448.10,277.52 450.19,271.44 452.28,265.37 454.38,259.32 456.47,253.27 458.56,247.23 460.66,241.21 462.75,235.20 464.85,229.21 466.94,223.24 469.03,217.29 471.13,211.36 473.22,205.45 475.32,199.57 477.41,193.71 479.50,187.88 481.60,182.08 483.69,176.32 485.79,170.59 487.88,164.91 489.97,159.26 492.07,153.66 494.16,148.11 496.26,142.61 498.35,137.17 500.44,131.78 502.54,126.46 504.63,121.20 506.73,116.02 508.82,110.92 510.91,105.90 513.01,100.96 515.10,96.12 517.20,91.38 519.29,86.74 521.38,82.22 523.48,77.81 525.57,73.53 527.67,69.38 529.76,65.37 531.85,61.51 533.95,57.81 536.04,54.28 538.14,50.92 540.23,47.74 542.32,44.77 544.42,41.99 546.51,39.44 548.61,37.11 550.70,35.02 552.79,33.18 554.89,31.60 556.98,30.30 559.08,29.29 561.17,28.58 563.26,28.19 565.36,28.12 567.45,28.40 569.55,29.04 571.64,30.04 573.73,31.43 575.83,33.23 577.92,35.43 580.02,38.07 582.11,41.15 584.20,44.68 586.30,48.68 588.39,53.17 590.49,58.15 592.58,63.64 594.67,69.65 596.77,76.18 598.86,83.25 600.96,90.87 603.05,99.04 605.14,107.76 607.24,117.05 609.33,126.89 611.42,137.30 613.52,148.27 615.61,159.79 617.71,171.87 619.80,184.48 621.89,197.63 623.99,211.30 626.08,225.47 628.18,240.12 630.27,255.24 632.36,270.81 634.46,286.79 636.55,303.16 638.65,319.88 640.74,336.94 642.83,354.29 644.93,371.90 647.02,389.73 649.12,407.75 651.21,425.90 653.30,444.16"/>
<text x="100.00" y="74.00" font-size="12" font-family="Arial, Helvetica, sans-serif" text-anchor="start" fill="#d84315">caption no-refit theory</text>
<text x="385.00" y="532.00" font-size="14" font-family="Arial, Helvetica, sans-serif" text-anchor="middle" fill="#263238">postselected angle alpha (deg)</text>
<text x="22.00" y="266.00" font-size="14" font-family="Arial, Helvetica, sans-serif" text-anchor="middle" fill="#263238" transform="rotate(-90 22.00 266.00)">visibility</text>
</svg>
