<svg xmlns="http://www.w3.org/2000/svg" width="820" height="500" viewBox="0 0 820 500">
<rect width="100%" height="100%" fill="#ffffff"/>
<text x="410.00" y="28.00" font-size="20" font-family="Arial, Helvetica, sans-serif" text-anchor="middle" fill="#17212b">Kokorowski Bootstrap Independent-Kappa RMSE</text>
<rect x="86" y="54" width="710" height="318" fill="#fafafa" stroke="#cfd8dc"/>
<line x1="86" y1="372.00" x2="796" y2="372.00" stroke="#eceff1"/>
<text x="76.00" y="376.00" font-size="11" font-family="Arial, Helvetica, sans-serif" text-anchor="end" fill="#263238">0</text>
<line x1="86" y1="308.40" x2="796" y2="308.40" stroke="#eceff1"/>
<text x="76.00" y="312.40" font-size="11" font-family="Arial, Helvetica, sans-serif" text-anchor="end" fill="#263238">24</text>
<line x1="86" y1="244.80" x2="796" y2="244.80" stroke="#eceff1"/>
<text x="76.00" y="248.80" font-size="11" font-family="Arial, Helvetica, sans-serif" text-anchor="end" fill="#263238">48</text>
<line x1="86" y1="181.20" x2="796" y2="181.20" stroke="#eceff1"/>
<text x="76.00" y="185.20" font-size="11" font-family="Arial, Helvetica, sans-serif" text-anchor="end" fill="#263238">73</text>
<line x1="86" y1="117.60" x2="796" y2="117.60" stroke="#eceff1"/>
<text x="76.00" y="121.60" font-size="11" font-family="Arial, Helvetica, sans-serif" text-anchor="end" fill="#263238">97</text>
<line x1="86" y1="54.00" x2="796" y2="54.00" stroke="#eceff1"/>
<text x="76.00" y="58.00" font-size="11" font-family="Arial, Helvetica, sans-serif" text-anchor="end" fill="#263238">1.2e+02</text>
<rect x="90.56" y="350.97" width="16.23" height="21.03" fill="#2962ff" fill-opacity="0.82"/>
<text x="98.68" y="390.00" font-size="10" font-family="Arial, Helvetica, sans-serif" text-anchor="middle" fill="#263238" transform="rotate(-28 98.68 390.00)">0.0237</text>
<rect x="115.92" y="335.19" width="16.23" height="36.81" fill="#00897b" fill-opacity="0.82"/>
<text x="124.04" y="390.00" font-size="10" font-family="Arial, Helvetica, sans-serif" text-anchor="middle" fill="#263238" transform="rotate(-28 124.04 390.00)">0.0257</text>
<rect x="141.28" y="306.28" width="16.23" height="65.72" fill="#d84315" fill-opacity="0.82"/>
<text x="149.39" y="390.00" font-size="10" font-family="Arial, Helvetica, sans-serif" text-anchor="middle" fill="#263238" transform="rotate(-28 149.39 390.00)">0.0277</text>
<rect x="166.64" y="240.55" width="16.23" height="131.45" fill="#6a1b9a" fill-opacity="0.82"/>
<text x="174.75" y="390.00" font-size="10" font-family="Arial, Helvetica, sans-serif" text-anchor="middle" fill="#263238" transform="rotate(-28 174.75 390.00)">0.0297</text>
<rect x="191.99" y="177.46" width="16.23" height="194.54" fill="#f9a825" fill-opacity="0.82"/>
<text x="200.11" y="390.00" font-size="10" font-family="Arial, Helvetica, sans-serif" text-anchor="middle" fill="#263238" transform="rotate(-28 200.11 390.00)">0.0317</text>
<rect x="217.35" y="156.42" width="16.23" height="215.58" fill="#455a64" fill-opacity="0.82"/>
<text x="225.46" y="390.00" font-size="10" font-family="Arial, Helvetica, sans-serif" text-anchor="middle" fill="#263238" transform="rotate(-28 225.46 390.00)">0.0337</text>
<rect x="242.71" y="88.07" width="16.23" height="283.93" fill="#c2185b" fill-opacity="0.82"/>
<text x="250.82" y="390.00" font-size="10" font-family="Arial, Helvetica, sans-serif" text-anchor="middle" fill="#263238" transform="rotate(-28 250.82 390.00)">0.0357</text>
<rect x="268.06" y="127.51" width="16.23" height="244.49" fill="#2e7d32" fill-opacity="0.82"/>
<text x="276.18" y="390.00" font-size="10" font-family="Arial, Helvetica, sans-serif" text-anchor="middle" fill="#263238" transform="rotate(-28 276.18 390.00)">0.0377</text>
<rect x="293.42" y="109.10" width="16.23" height="262.90" fill="#2962ff" fill-opacity="0.82"/>
<text x="301.54" y="390.00" font-size="10" font-family="Arial, Helvetica, sans-serif" text-anchor="middle" fill="#263238" transform="rotate(-28 301.54 390.00)">0.0397</text>
<rect x="318.78" y="130.13" width="16.23" height="241.87" fill="#00897b" fill-opacity="0.82"/>
<text x="326.89" y="390.00" font-size="10" font-family="Arial, Helvetica, sans-serif" text-anchor="middle" fill="#263238" transform="rotate(-28 326.89 390.00)">0.0417</text>
<rect x="344.14" y="151.17" width="16.23" height="220.83" fill="#d84315" fill-opacity="0.82"/>
<text x="352.25" y="390.00" font-size="10" font-family="Arial, Helvetica, sans-serif" text-anchor="middle" fill="#263238" transform="rotate(-28 352.25 390.00)">0.0437</text>
<rect x="369.49" y="214.26" width="16.23" height="157.74" fill="#6a1b9a" fill-opacity="0.82"/>
<text x="377.61" y="390.00" font-size="10" font-family="Arial, Helvetica, sans-serif" text-anchor="middle" fill="#263238" transform="rotate(-28 377.61 390.00)">0.0457</text>
<rect x="394.85" y="264.21" width="16.23" height="107.79" fill="#f9a825" fill-opacity="0.82"/>
<text x="402.96" y="390.00" font-size="10" font-family="Arial, Helvetica, sans-serif" text-anchor="middle" fill="#263238" transform="rotate(-28 402.96 390.00)">0.0477</text>
<rect x="420.21" y="256.33" width="16.23" height="115.67" fill="#455a64" fill-opacity="0.82"/>
<text x="428.32" y="390.00" font-size="10" font-family="Arial, Helvetica, sans-serif" text-anchor="middle" fill="#263238" transform="rotate(-28 428.32 390.00)">0.0497</text>
<rect x="445.56" y="301.02" width="16.23" height="70.98" fill="#c2185b" fill-opacity="0.82"/>
<text x="453.68" y="390.00" font-size="10" font-family="Arial, Helvetica, sans-serif" text-anchor="middle" fill="#263238" transform="rotate(-28 453.68 390.00)">0.0517</text>
<rect x="470.92" y="301.02" width="16.23" height="70.98" fill="#2e7d32" fill-opacity="0.82"/>
<text x="479.04" y="390.00" font-size="10" font-family="Arial, Helvetica, sans-serif" text-anchor="middle" fill="#263238" transform="rotate(-28 479.04 390.00)">0.0537</text>
<rect x="496.28" y="332.57" width="16.23" height="39.43" fill="#2962ff" fill-opacity="0.82"/>
<text x="504.39" y="390.00" font-size="10" font-family="Arial, Helvetica, sans-serif" text-anchor="middle" fill="#263238" transform="rotate(-28 504.39 390.00)">0.0557</text>
<rect x="521.64" y="335.19" width="16.23" height="36.81" fill="#00897b" fill-opacity="0.82"/>
<text x="529.75" y="390.00" font-size="10" font-family="Arial, Helvetica, sans-serif" text-anchor="middle" fill="#263238" transform="rotate(-28 529.75 390.00)">0.0577</text>
<rect x="546.99" y="327.31" width="16.23" height="44.69" fill="#d84315" fill-opacity="0.82"/>
<text x="555.11" y="390.00" font-size="10" font-family="Arial, Helvetica, sans-serif" text-anchor="middle" fill="#263238" transform="rotate(-28 555.11 390.00)">0.0597</text>
<rect x="572.35" y="356.23" width="16.23" height="15.77" fill="#6a1b9a" fill-opacity="0.82"/>
<text x="580.46" y="390.00" font-size="10" font-family="Arial, Helvetica, sans-serif" text-anchor="middle" fill="#263238" transform="rotate(-28 580.46 390.00)">0.0617</text>
<rect x="597.71" y="364.11" width="16.23" height="7.89" fill="#f9a825" fill-opacity="0.82"/>
<text x="605.82" y="390.00" font-size="10" font-family="Arial, Helvetica, sans-serif" text-anchor="middle" fill="#263238" transform="rotate(-28 605.82 390.00)">0.0637</text>
<rect x="623.06" y="353.60" width="16.23" height="18.40" fill="#455a64" fill-opacity="0.82"/>
<text x="631.18" y="390.00" font-size="10" font-family="Arial, Helvetica, sans-serif" text-anchor="middle" fill="#263238" transform="rotate(-28 631.18 390.00)">0.0657</text>
<rect x="648.42" y="369.37" width="16.23" height="2.63" fill="#c2185b" fill-opacity="0.82"/>
<text x="656.54" y="390.00" font-size="10" font-family="Arial, Helvetica, sans-serif" text-anchor="middle" fill="#263238" transform="rotate(-28 656.54 390.00)">0.0677</text>
<rect x="673.78" y="361.48" width="16.23" height="10.52" fill="#2e7d32" fill-opacity="0.82"/>
<text x="681.89" y="390.00" font-size="10" font-family="Arial, Helvetica, sans-serif" text-anchor="middle" fill="#263238" transform="rotate(-28 681.89 390.00)">0.0697</text>
<rect x="699.14" y="369.37" width="16.23" height="2.63" fill="#2962ff" fill-opacity="0.82"/>
<text x="707.25" y="390.00" font-size="10" font-family="Arial, Helvetica, sans-serif" text-anchor="middle" fill="#263238" transform="rotate(-28 707.25 390.00)">0.0717</text>
<rect x="724.49" y="372.00" width="16.23" height="0.00" fill="#00897b" fill-opacity="0.82"/>
<text x="732.61" y="390.00" font-size="10" font-family="Arial, Helvetica, sans-serif" text-anchor="middle" fill="#263238" transform="rotate(-28 732.61 390.00)">0.0737</text>
<rect x="749.85" y="366.74" width="16.23" height="5.26" fill="#d84315" fill-opacity="0.82"/>
<text x="757.96" y="390.00" font-size="10" font-family="Arial, Helvetica, sans-serif" text-anchor="middle" fill="#263238" transform="rotate(-28 757.96 390.00)">0.0757</text>
<rect x="775.21" y="369.37" width="16.23" height="2.63" fill="#6a1b9a" fill-opacity="0.82"/>
<text x="783.32" y="390.00" font-size="10" font-family="Arial, Helvetica, sans-serif" text-anchor="middle" fill="#263238" transform="rotate(-28 783.32 390.00)">0.0777</text>
<text x="22.00" y="213.00" font-size="14" font-family="Arial, Helvetica, sans-serif" text-anchor="middle" fill="#263238" transform="rotate(-90 22.00 213.00)">count (visibility RMSE)</text>
</svg>
