<svg xmlns="http://www.w3.org/2000/svg" width="820" height="500" viewBox="0 0 820 500">
<rect width="100%" height="100%" fill="#ffffff"/>
<text x="410.00" y="28.00" font-size="20" font-family="Arial, Helvetica, sans-serif" text-anchor="middle" fill="#17212b">Kokorowski Shuffled-Visibility Null RMSE</text>
<rect x="86" y="54" width="710" height="318" fill="#fafafa" stroke="#cfd8dc"/>
<line x1="86" y1="372.00" x2="796" y2="372.00" stroke="#eceff1"/>
<text x="76.00" y="376.00" font-size="11" font-family="Arial, Helvetica, sans-serif" text-anchor="end" fill="#263238">0</text>
<line x1="86" y1="308.40" x2="796" y2="308.40" stroke="#eceff1"/>
<text x="76.00" y="312.40" font-size="11" font-family="Arial, Helvetica, sans-serif" text-anchor="end" fill="#263238">18</text>
<line x1="86" y1="244.80" x2="796" y2="244.80" stroke="#eceff1"/>
<text x="76.00" y="248.80" font-size="11" font-family="Arial, Helvetica, sans-serif" text-anchor="end" fill="#263238">36</text>
<line x1="86" y1="181.20" x2="796" y2="181.20" stroke="#eceff1"/>
<text x="76.00" y="185.20" font-size="11" font-family="Arial, Helvetica, sans-serif" text-anchor="end" fill="#263238">54</text>
<line x1="86" y1="117.60" x2="796" y2="117.60" stroke="#eceff1"/>
<text x="76.00" y="121.60" font-size="11" font-family="Arial, Helvetica, sans-serif" text-anchor="end" fill="#263238">73</text>
<line x1="86" y1="54.00" x2="796" y2="54.00" stroke="#eceff1"/>
<text x="76.00" y="58.00" font-size="11" font-family="Arial, Helvetica, sans-serif" text-anchor="end" fill="#263238">91</text>
<rect x="90.56" y="368.49" width="16.23" height="3.51" fill="#2962ff" fill-opacity="0.82"/>
<text x="98.68" y="390.00" font-size="10" font-family="Arial, Helvetica, sans-serif" text-anchor="middle" fill="#263238" transform="rotate(-28 98.68 390.00)">0.331</text>
<rect x="115.92" y="357.98" width="16.23" height="14.02" fill="#00897b" fill-opacity="0.82"/>
<text x="124.04" y="390.00" font-size="10" font-family="Arial, Helvetica, sans-serif" text-anchor="middle" fill="#263238" transform="rotate(-28 124.04 390.00)">0.341</text>
<rect x="141.28" y="350.97" width="16.23" height="21.03" fill="#d84315" fill-opacity="0.82"/>
<text x="149.39" y="390.00" font-size="10" font-family="Arial, Helvetica, sans-serif" text-anchor="middle" fill="#263238" transform="rotate(-28 149.39 390.00)">0.351</text>
<rect x="166.64" y="336.95" width="16.23" height="35.05" fill="#6a1b9a" fill-opacity="0.82"/>
<text x="174.75" y="390.00" font-size="10" font-family="Arial, Helvetica, sans-serif" text-anchor="middle" fill="#263238" transform="rotate(-28 174.75 390.00)">0.361</text>
<rect x="191.99" y="333.44" width="16.23" height="38.56" fill="#f9a825" fill-opacity="0.82"/>
<text x="200.11" y="390.00" font-size="10" font-family="Arial, Helvetica, sans-serif" text-anchor="middle" fill="#263238" transform="rotate(-28 200.11 390.00)">0.372</text>
<rect x="217.35" y="308.90" width="16.23" height="63.10" fill="#455a64" fill-opacity="0.82"/>
<text x="225.46" y="390.00" font-size="10" font-family="Arial, Helvetica, sans-serif" text-anchor="middle" fill="#263238" transform="rotate(-28 225.46 390.00)">0.382</text>
<rect x="242.71" y="329.94" width="16.23" height="42.06" fill="#c2185b" fill-opacity="0.82"/>
<text x="250.82" y="390.00" font-size="10" font-family="Arial, Helvetica, sans-serif" text-anchor="middle" fill="#263238" transform="rotate(-28 250.82 390.00)">0.392</text>
<rect x="268.06" y="266.84" width="16.23" height="105.16" fill="#2e7d32" fill-opacity="0.82"/>
<text x="276.18" y="390.00" font-size="10" font-family="Arial, Helvetica, sans-serif" text-anchor="middle" fill="#263238" transform="rotate(-28 276.18 390.00)">0.402</text>
<rect x="293.42" y="270.35" width="16.23" height="101.65" fill="#2962ff" fill-opacity="0.82"/>
<text x="301.54" y="390.00" font-size="10" font-family="Arial, Helvetica, sans-serif" text-anchor="middle" fill="#263238" transform="rotate(-28 301.54 390.00)">0.413</text>
<rect x="318.78" y="266.84" width="16.23" height="105.16" fill="#00897b" fill-opacity="0.82"/>
<text x="326.89" y="390.00" font-size="10" font-family="Arial, Helvetica, sans-serif" text-anchor="middle" fill="#263238" transform="rotate(-28 326.89 390.00)">0.423</text>
<rect x="344.14" y="200.24" width="16.23" height="171.76" fill="#d84315" fill-opacity="0.82"/>
<text x="352.25" y="390.00" font-size="10" font-family="Arial, Helvetica, sans-serif" text-anchor="middle" fill="#263238" transform="rotate(-28 352.25 390.00)">0.433</text>
<rect x="369.49" y="203.75" width="16.23" height="168.25" fill="#6a1b9a" fill-opacity="0.82"/>
<text x="377.61" y="390.00" font-size="10" font-family="Arial, Helvetica, sans-serif" text-anchor="middle" fill="#263238" transform="rotate(-28 377.61 390.00)">0.444</text>
<rect x="394.85" y="151.17" width="16.23" height="220.83" fill="#f9a825" fill-opacity="0.82"/>
<text x="402.96" y="390.00" font-size="10" font-family="Arial, Helvetica, sans-serif" text-anchor="middle" fill="#263238" transform="rotate(-28 402.96 390.00)">0.454</text>
<rect x="420.21" y="172.20" width="16.23" height="199.80" fill="#455a64" fill-opacity="0.82"/>
<text x="428.32" y="390.00" font-size="10" font-family="Arial, Helvetica, sans-serif" text-anchor="middle" fill="#263238" transform="rotate(-28 428.32 390.00)">0.464</text>
<rect x="445.56" y="126.63" width="16.23" height="245.37" fill="#c2185b" fill-opacity="0.82"/>
<text x="453.68" y="390.00" font-size="10" font-family="Arial, Helvetica, sans-serif" text-anchor="middle" fill="#263238" transform="rotate(-28 453.68 390.00)">0.474</text>
<rect x="470.92" y="88.07" width="16.23" height="283.93" fill="#2e7d32" fill-opacity="0.82"/>
<text x="479.04" y="390.00" font-size="10" font-family="Arial, Helvetica, sans-serif" text-anchor="middle" fill="#263238" transform="rotate(-28 479.04 390.00)">0.485</text>
<rect x="496.28" y="88.07" width="16.23" height="283.93" fill="#2962ff" fill-opacity="0.82"/>
<text x="504.39" y="390.00" font-size="10" font-family="Arial, Helvetica, sans-serif" text-anchor="middle" fill="#263238" transform="rotate(-28 504.39 390.00)">0.495</text>
<rect x="521.64" y="95.08" width="16.23" height="276.92" fill="#00897b" fill-opacity="0.82"/>
<text x="529.75" y="390.00" font-size="10" font-family="Arial, Helvetica, sans-serif" text-anchor="middle" fill="#263238" transform="rotate(-28 529.75 390.00)">0.505</text>
<rect x="546.99" y="105.60" width="16.23" height="266.40" fill="#d84315" fill-opacity="0.82"/>
<text x="555.11" y="390.00" font-size="10" font-family="Arial, Helvetica, sans-serif" text-anchor="middle" fill="#263238" transform="rotate(-28 555.11 390.00)">0.515</text>
<rect x="572.35" y="144.16" width="16.23" height="227.84" fill="#6a1b9a" fill-opacity="0.82"/>
<text x="580.46" y="390.00" font-size="10" font-family="Arial, Helvetica, sans-serif" text-anchor="middle" fill="#263238" transform="rotate(-28 580.46 390.00)">0.526</text>
<rect x="597.71" y="196.74" width="16.23" height="175.26" fill="#f9a825" fill-opacity="0.82"/>
<text x="605.82" y="390.00" font-size="10" font-family="Arial, Helvetica, sans-serif" text-anchor="middle" fill="#263238" transform="rotate(-28 605.82 390.00)">0.536</text>
<rect x="623.06" y="214.26" width="16.23" height="157.74" fill="#455a64" fill-opacity="0.82"/>
<text x="631.18" y="390.00" font-size="10" font-family="Arial, Helvetica, sans-serif" text-anchor="middle" fill="#263238" transform="rotate(-28 631.18 390.00)">0.546</text>
<rect x="648.42" y="249.31" width="16.23" height="122.69" fill="#c2185b" fill-opacity="0.82"/>
<text x="656.54" y="390.00" font-size="10" font-family="Arial, Helvetica, sans-serif" text-anchor="middle" fill="#263238" transform="rotate(-28 656.54 390.00)">0.557</text>
<rect x="673.78" y="298.39" width="16.23" height="73.61" fill="#2e7d32" fill-opacity="0.82"/>
<text x="681.89" y="390.00" font-size="10" font-family="Arial, Helvetica, sans-serif" text-anchor="middle" fill="#263238" transform="rotate(-28 681.89 390.00)">0.567</text>
<rect x="699.14" y="340.45" width="16.23" height="31.55" fill="#2962ff" fill-opacity="0.82"/>
<text x="707.25" y="390.00" font-size="10" font-family="Arial, Helvetica, sans-serif" text-anchor="middle" fill="#263238" transform="rotate(-28 707.25 390.00)">0.577</text>
<rect x="724.49" y="350.97" width="16.23" height="21.03" fill="#00897b" fill-opacity="0.82"/>
<text x="732.61" y="390.00" font-size="10" font-family="Arial, Helvetica, sans-serif" text-anchor="middle" fill="#263238" transform="rotate(-28 732.61 390.00)">0.587</text>
<rect x="749.85" y="333.44" width="16.23" height="38.56" fill="#d84315" fill-opacity="0.82"/>
<text x="757.96" y="390.00" font-size="10" font-family="Arial, Helvetica, sans-serif" text-anchor="middle" fill="#263238" transform="rotate(-28 757.96 390.00)">0.598</text>
<rect x="775.21" y="361.48" width="16.23" height="10.52" fill="#6a1b9a" fill-opacity="0.82"/>
<text x="783.32" y="390.00" font-size="10" font-family="Arial, Helvetica, sans-serif" text-anchor="middle" fill="#263238" transform="rotate(-28 783.32 390.00)">0.608</text>
<text x="22.00" y="213.00" font-size="14" font-family="Arial, Helvetica, sans-serif" text-anchor="middle" fill="#263238" transform="rotate(-90 22.00 213.00)">count (visibility RMSE)</text>
</svg>
