<svg xmlns="http://www.w3.org/2000/svg" width="820" height="500" viewBox="0 0 820 500">
<rect width="100%" height="100%" fill="#ffffff"/>
<text x="410.00" y="28.00" font-size="20" font-family="Arial, Helvetica, sans-serif" text-anchor="middle" fill="#17212b">Kokorowski Calibration Sensitivity</text>
<rect x="86" y="54" width="710" height="318" fill="#fafafa" stroke="#cfd8dc"/>
<line x1="86" y1="372.00" x2="796" y2="372.00" stroke="#eceff1"/>
<text x="76.00" y="376.00" font-size="11" font-family="Arial, Helvetica, sans-serif" text-anchor="end" fill="#263238">0</text>
<line x1="86" y1="308.40" x2="796" y2="308.40" stroke="#eceff1"/>
<text x="76.00" y="312.40" font-size="11" font-family="Arial, Helvetica, sans-serif" text-anchor="end" fill="#263238">0.2</text>
<line x1="86" y1="244.80" x2="796" y2="244.80" stroke="#eceff1"/>
<text x="76.00" y="248.80" font-size="11" font-family="Arial, Helvetica, sans-serif" text-anchor="end" fill="#263238">0.4</text>
<line x1="86" y1="181.20" x2="796" y2="181.20" stroke="#eceff1"/>
<text x="76.00" y="185.20" font-size="11" font-family="Arial, Helvetica, sans-serif" text-anchor="end" fill="#263238">0.6</text>
<line x1="86" y1="117.60" x2="796" y2="117.60" stroke="#eceff1"/>
<text x="76.00" y="121.60" font-size="11" font-family="Arial, Helvetica, sans-serif" text-anchor="end" fill="#263238">0.8</text>
<line x1="86" y1="54.00" x2="796" y2="54.00" stroke="#eceff1"/>
<text x="76.00" y="58.00" font-size="11" font-family="Arial, Helvetica, sans-serif" text-anchor="end" fill="#263238">1</text>
<rect x="94.52" y="365.15" width="30.29" height="6.85" fill="#2962ff" fill-opacity="0.82"/>
<text x="109.67" y="390.00" font-size="10" font-family="Arial, Helvetica, sans-serif" text-anchor="middle" fill="#263238" transform="rotate(-28 109.67 390.00)">0.98/-0.01</text>
<rect x="141.85" y="365.45" width="30.29" height="6.55" fill="#00897b" fill-opacity="0.82"/>
<text x="157.00" y="390.00" font-size="10" font-family="Arial, Helvetica, sans-serif" text-anchor="middle" fill="#263238" transform="rotate(-28 157.00 390.00)">0.98/+0.00</text>
<rect x="189.19" y="364.38" width="30.29" height="7.62" fill="#d84315" fill-opacity="0.82"/>
<text x="204.33" y="390.00" font-size="10" font-family="Arial, Helvetica, sans-serif" text-anchor="middle" fill="#263238" transform="rotate(-28 204.33 390.00)">0.98/+0.01</text>
<rect x="236.52" y="365.36" width="30.29" height="6.64" fill="#6a1b9a" fill-opacity="0.82"/>
<text x="251.67" y="390.00" font-size="10" font-family="Arial, Helvetica, sans-serif" text-anchor="middle" fill="#263238" transform="rotate(-28 251.67 390.00)">0.99/-0.01</text>
<rect x="283.85" y="365.05" width="30.29" height="6.95" fill="#f9a825" fill-opacity="0.82"/>
<text x="299.00" y="390.00" font-size="10" font-family="Arial, Helvetica, sans-serif" text-anchor="middle" fill="#263238" transform="rotate(-28 299.00 390.00)">0.99/+0.00</text>
<rect x="331.19" y="363.52" width="30.29" height="8.48" fill="#455a64" fill-opacity="0.82"/>
<text x="346.33" y="390.00" font-size="10" font-family="Arial, Helvetica, sans-serif" text-anchor="middle" fill="#263238" transform="rotate(-28 346.33 390.00)">0.99/+0.01</text>
<rect x="378.52" y="365.23" width="30.29" height="6.77" fill="#c2185b" fill-opacity="0.82"/>
<text x="393.67" y="390.00" font-size="10" font-family="Arial, Helvetica, sans-serif" text-anchor="middle" fill="#263238" transform="rotate(-28 393.67 390.00)">1.00/-0.01</text>
<rect x="425.85" y="364.37" width="30.29" height="7.63" fill="#2e7d32" fill-opacity="0.82"/>
<text x="441.00" y="390.00" font-size="10" font-family="Arial, Helvetica, sans-serif" text-anchor="middle" fill="#263238" transform="rotate(-28 441.00 390.00)">1.00/+0.00</text>
<rect x="473.19" y="362.52" width="30.29" height="9.48" fill="#2962ff" fill-opacity="0.82"/>
<text x="488.33" y="390.00" font-size="10" font-family="Arial, Helvetica, sans-serif" text-anchor="middle" fill="#263238" transform="rotate(-28 488.33 390.00)">1.00/+0.01</text>
<rect x="520.52" y="364.80" width="30.29" height="7.20" fill="#00897b" fill-opacity="0.82"/>
<text x="535.67" y="390.00" font-size="10" font-family="Arial, Helvetica, sans-serif" text-anchor="middle" fill="#263238" transform="rotate(-28 535.67 390.00)">1.01/-0.01</text>
<rect x="567.85" y="363.50" width="30.29" height="8.50" fill="#d84315" fill-opacity="0.82"/>
<text x="583.00" y="390.00" font-size="10" font-family="Arial, Helvetica, sans-serif" text-anchor="middle" fill="#263238" transform="rotate(-28 583.00 390.00)">1.01/+0.00</text>
<rect x="615.19" y="361.42" width="30.29" height="10.58" fill="#6a1b9a" fill-opacity="0.82"/>
<text x="630.33" y="390.00" font-size="10" font-family="Arial, Helvetica, sans-serif" text-anchor="middle" fill="#263238" transform="rotate(-28 630.33 390.00)">1.01/+0.01</text>
<rect x="662.52" y="364.13" width="30.29" height="7.87" fill="#f9a825" fill-opacity="0.82"/>
<text x="677.67" y="390.00" font-size="10" font-family="Arial, Helvetica, sans-serif" text-anchor="middle" fill="#263238" transform="rotate(-28 677.67 390.00)">1.02/-0.01</text>
<rect x="709.85" y="362.50" width="30.29" height="9.50" fill="#455a64" fill-opacity="0.82"/>
<text x="725.00" y="390.00" font-size="10" font-family="Arial, Helvetica, sans-serif" text-anchor="middle" fill="#263238" transform="rotate(-28 725.00 390.00)">1.02/+0.00</text>
<rect x="757.19" y="360.26" width="30.29" height="11.74" fill="#c2185b" fill-opacity="0.82"/>
<text x="772.33" y="390.00" font-size="10" font-family="Arial, Helvetica, sans-serif" text-anchor="middle" fill="#263238" transform="rotate(-28 772.33 390.00)">1.02/+0.01</text>
<text x="22.00" y="213.00" font-size="14" font-family="Arial, Helvetica, sans-serif" text-anchor="middle" fill="#263238" transform="rotate(-90 22.00 213.00)">visibility RMSE</text>
</svg>
