<svg xmlns="http://www.w3.org/2000/svg" width="1280" height="640" viewBox="0 0 1280 640" role="img" aria-labelledby="title desc">
  <title id="title">Constraint Dynamics Quantum Measurement Test</title>
  <desc id="desc">Three experimental lanes connect visibility loss to record bandwidth, momentum disturbance, and durable thermal record load.</desc>
  <defs>
    <linearGradient id="bg" x1="0" x2="1" y1="0" y2="1">
      <stop offset="0" stop-color="#111827"/>
      <stop offset="0.55" stop-color="#1f2937"/>
      <stop offset="1" stop-color="#0f172a"/>
    </linearGradient>
    <linearGradient id="wave" x1="0" x2="1">
      <stop offset="0" stop-color="#22d3ee"/>
      <stop offset="0.52" stop-color="#f59e0b"/>
      <stop offset="1" stop-color="#fb7185"/>
    </linearGradient>
    <filter id="soft" x="-20%" y="-20%" width="140%" height="140%">
      <feGaussianBlur stdDeviation="10"/>
    </filter>
  </defs>
  <rect width="1280" height="640" fill="url(#bg)"/>
  <g opacity="0.28" stroke="#94a3b8" stroke-width="1">
    <path d="M80 132 H1200"/>
    <path d="M80 244 H1200"/>
    <path d="M80 356 H1200"/>
    <path d="M80 468 H1200"/>
    <path d="M80 580 H1200"/>
    <path d="M160 88 V584"/>
    <path d="M400 88 V584"/>
    <path d="M640 88 V584"/>
    <path d="M880 88 V584"/>
    <path d="M1120 88 V584"/>
  </g>
  <path d="M86 450 C158 286 230 280 302 432 S446 596 518 404 S662 126 734 292 S878 566 950 388 S1094 168 1198 310" fill="none" stroke="url(#wave)" stroke-width="12" stroke-linecap="round"/>
  <path d="M86 450 C158 286 230 280 302 432 S446 596 518 404 S662 126 734 292 S878 566 950 388 S1094 168 1198 310" fill="none" stroke="#ffffff" stroke-opacity="0.22" stroke-width="28" stroke-linecap="round" filter="url(#soft)"/>
  <g transform="translate(96 112)">
    <text x="0" y="0" fill="#f8fafc" font-family="Inter, Arial, sans-serif" font-size="54" font-weight="700">Constraint Dynamics</text>
    <text x="0" y="58" fill="#f8fafc" font-family="Inter, Arial, sans-serif" font-size="54" font-weight="700">Quantum Measurement Test</text>
    <text x="0" y="112" fill="#cbd5e1" font-family="Inter, Arial, sans-serif" font-size="24">A reproducible research scaffold for record accessibility, bandwidth, and load</text>
  </g>
  <g transform="translate(96 498)" font-family="Inter, Arial, sans-serif">
    <g>
      <rect x="0" y="0" width="304" height="78" rx="8" fill="#0f172a" stroke="#22d3ee" stroke-opacity="0.8"/>
      <text x="22" y="32" fill="#22d3ee" font-size="20" font-weight="700">Chapman 1995</text>
      <text x="22" y="58" fill="#e2e8f0" font-size="17">Fourier recoil kernel</text>
    </g>
    <g transform="translate(336 0)">
      <rect x="0" y="0" width="304" height="78" rx="8" fill="#0f172a" stroke="#f59e0b" stroke-opacity="0.85"/>
      <text x="22" y="32" fill="#f59e0b" font-size="20" font-weight="700">Xiao 2019</text>
      <text x="22" y="58" fill="#e2e8f0" font-size="17">Measured momentum proxy</text>
    </g>
    <g transform="translate(672 0)">
      <rect x="0" y="0" width="394" height="78" rx="8" fill="#0f172a" stroke="#fb7185" stroke-opacity="0.85"/>
      <text x="22" y="32" fill="#fb7185" font-size="20" font-weight="700">Hackermueller 2004</text>
      <text x="22" y="58" fill="#e2e8f0" font-size="17">Thermal emitted-record load</text>
    </g>
  </g>
  <g transform="translate(906 112)" font-family="Inter, Arial, sans-serif">
    <rect x="0" y="0" width="282" height="164" rx="8" fill="#020617" fill-opacity="0.74" stroke="#475569"/>
    <text x="24" y="38" fill="#f8fafc" font-size="22" font-weight="700">Current verdict</text>
    <text x="24" y="78" fill="#cbd5e1" font-size="18">Three-experiment</text>
    <text x="24" y="106" fill="#cbd5e1" font-size="18">record-variable</text>
    <text x="24" y="134" fill="#cbd5e1" font-size="18">structure survives</text>
  </g>
</svg>
