<svg xmlns="http://www.w3.org/2000/svg" width="820" height="500" viewBox="0 0 820 500">
<rect width="100%" height="100%" fill="#ffffff"/>
<text x="410.00" y="28.00" font-size="20" font-family="Arial, Helvetica, sans-serif" text-anchor="middle" fill="#17212b">Second No-Refit Target Scores</text>
<rect x="86" y="54" width="710" height="318" fill="#fafafa" stroke="#cfd8dc"/>
<line x1="86" y1="372.00" x2="796" y2="372.00" stroke="#eceff1"/>
<text x="76.00" y="376.00" font-size="11" font-family="Arial, Helvetica, sans-serif" text-anchor="end" fill="#263238">0</text>
<line x1="86" y1="308.40" x2="796" y2="308.40" stroke="#eceff1"/>
<text x="76.00" y="312.40" font-size="11" font-family="Arial, Helvetica, sans-serif" text-anchor="end" fill="#263238">0.21</text>
<line x1="86" y1="244.80" x2="796" y2="244.80" stroke="#eceff1"/>
<text x="76.00" y="248.80" font-size="11" font-family="Arial, Helvetica, sans-serif" text-anchor="end" fill="#263238">0.43</text>
<line x1="86" y1="181.20" x2="796" y2="181.20" stroke="#eceff1"/>
<text x="76.00" y="185.20" font-size="11" font-family="Arial, Helvetica, sans-serif" text-anchor="end" fill="#263238">0.64</text>
<line x1="86" y1="117.60" x2="796" y2="117.60" stroke="#eceff1"/>
<text x="76.00" y="121.60" font-size="11" font-family="Arial, Helvetica, sans-serif" text-anchor="end" fill="#263238">0.85</text>
<line x1="86" y1="54.00" x2="796" y2="54.00" stroke="#eceff1"/>
<text x="76.00" y="58.00" font-size="11" font-family="Arial, Helvetica, sans-serif" text-anchor="end" fill="#263238">1.1</text>
<rect x="107.30" y="88.07" width="75.73" height="283.93" fill="#2962ff" fill-opacity="0.82"/>
<text x="145.17" y="390.00" font-size="10" font-family="Arial, Helvetica, sans-serif" text-anchor="middle" fill="#263238" transform="rotate(-28 145.17 390.00)">XIAO 2019 INTERNAL LEA</text>
<rect x="225.63" y="162.79" width="75.73" height="209.21" fill="#00897b" fill-opacity="0.82"/>
<text x="263.50" y="390.00" font-size="10" font-family="Arial, Helvetica, sans-serif" text-anchor="middle" fill="#263238" transform="rotate(-28 263.50 390.00)">EIBENBERGER 2014 RECOI</text>
<rect x="343.97" y="168.77" width="75.73" height="203.23" fill="#d84315" fill-opacity="0.82"/>
<text x="381.83" y="390.00" font-size="10" font-family="Arial, Helvetica, sans-serif" text-anchor="middle" fill="#263238" transform="rotate(-28 381.83 390.00)">HORNBERGER 2003 COLLIS</text>
<rect x="462.30" y="237.51" width="75.73" height="134.49" fill="#6a1b9a" fill-opacity="0.82"/>
<text x="500.17" y="390.00" font-size="10" font-family="Arial, Helvetica, sans-serif" text-anchor="middle" fill="#263238" transform="rotate(-28 500.17 390.00)">KOCSIS 2011 AVERAGE TR</text>
<rect x="580.63" y="246.47" width="75.73" height="125.53" fill="#f9a825" fill-opacity="0.82"/>
<text x="618.50" y="390.00" font-size="10" font-family="Arial, Helvetica, sans-serif" text-anchor="middle" fill="#263238" transform="rotate(-28 618.50 390.00)">CORMANN 2016 MODULAR V</text>
<rect x="698.97" y="267.39" width="75.73" height="104.61" fill="#455a64" fill-opacity="0.82"/>
<text x="736.83" y="390.00" font-size="10" font-family="Arial, Helvetica, sans-serif" text-anchor="middle" fill="#263238" transform="rotate(-28 736.83 390.00)">DURR 1998 COMPLEMENTAR</text>
<text x="22.00" y="213.00" font-size="14" font-family="Arial, Helvetica, sans-serif" text-anchor="middle" fill="#263238" transform="rotate(-90 22.00 213.00)">gate score</text>
</svg>
