<svg xmlns="http://www.w3.org/2000/svg" width="820" height="500" viewBox="0 0 820 500">
<rect width="100%" height="100%" fill="#ffffff"/>
<text x="410.00" y="28.00" font-size="20" font-family="Arial, Helvetica, sans-serif" text-anchor="middle" fill="#17212b">Second No-Refit Target Scores</text>
<rect x="86" y="54" width="710" height="318" fill="#fafafa" stroke="#cfd8dc"/>
<line x1="86" y1="372.00" x2="796" y2="372.00" stroke="#eceff1"/>
<text x="76.00" y="376.00" font-size="11" font-family="Arial, Helvetica, sans-serif" text-anchor="end" fill="#263238">0</text>
<line x1="86" y1="308.40" x2="796" y2="308.40" stroke="#eceff1"/>
<text x="76.00" y="312.40" font-size="11" font-family="Arial, Helvetica, sans-serif" text-anchor="end" fill="#263238">0.21</text>
<line x1="86" y1="244.80" x2="796" y2="244.80" stroke="#eceff1"/>
<text x="76.00" y="248.80" font-size="11" font-family="Arial, Helvetica, sans-serif" text-anchor="end" fill="#263238">0.43</text>
<line x1="86" y1="181.20" x2="796" y2="181.20" stroke="#eceff1"/>
<text x="76.00" y="185.20" font-size="11" font-family="Arial, Helvetica, sans-serif" text-anchor="end" fill="#263238">0.64</text>
<line x1="86" y1="117.60" x2="796" y2="117.60" stroke="#eceff1"/>
<text x="76.00" y="121.60" font-size="11" font-family="Arial, Helvetica, sans-serif" text-anchor="end" fill="#263238">0.85</text>
<line x1="86" y1="54.00" x2="796" y2="54.00" stroke="#eceff1"/>
<text x="76.00" y="58.00" font-size="11" font-family="Arial, Helvetica, sans-serif" text-anchor="end" fill="#263238">1.1</text>
<rect x="95.13" y="88.07" width="32.46" height="283.93" fill="#2962ff" fill-opacity="0.82"/>
<text x="111.36" y="390.00" font-size="10" font-family="Arial, Helvetica, sans-serif" text-anchor="middle" fill="#263238" transform="rotate(-28 111.36 390.00)">XIAO 2019 INTERNAL LEA</text>
<rect x="145.84" y="162.79" width="32.46" height="209.21" fill="#00897b" fill-opacity="0.82"/>
<text x="162.07" y="390.00" font-size="10" font-family="Arial, Helvetica, sans-serif" text-anchor="middle" fill="#263238" transform="rotate(-28 162.07 390.00)">EIBENBERGER 2014 RECOI</text>
<rect x="196.56" y="168.77" width="32.46" height="203.23" fill="#d84315" fill-opacity="0.82"/>
<text x="212.79" y="390.00" font-size="10" font-family="Arial, Helvetica, sans-serif" text-anchor="middle" fill="#263238" transform="rotate(-28 212.79 390.00)">HORNBERGER 2003 COLLIS</text>
<rect x="247.27" y="192.68" width="32.46" height="179.32" fill="#6a1b9a" fill-opacity="0.82"/>
<text x="263.50" y="390.00" font-size="10" font-family="Arial, Helvetica, sans-serif" text-anchor="middle" fill="#263238" transform="rotate(-28 263.50 390.00)">HOCHRAINER 2017 INDUCE</text>
<rect x="297.99" y="198.65" width="32.46" height="173.35" fill="#f9a825" fill-opacity="0.82"/>
<text x="314.21" y="390.00" font-size="10" font-family="Arial, Helvetica, sans-serif" text-anchor="middle" fill="#263238" transform="rotate(-28 314.21 390.00)">LAHIRI 2017 TWIN PHOTO</text>
<rect x="348.70" y="216.59" width="32.46" height="155.41" fill="#455a64" fill-opacity="0.82"/>
<text x="364.93" y="390.00" font-size="10" font-family="Arial, Helvetica, sans-serif" text-anchor="middle" fill="#263238" transform="rotate(-28 364.93 390.00)">MIR 2007 WEAK VALUE MO</text>
<rect x="399.41" y="222.56" width="32.46" height="149.44" fill="#c2185b" fill-opacity="0.82"/>
<text x="415.64" y="390.00" font-size="10" font-family="Arial, Helvetica, sans-serif" text-anchor="middle" fill="#263238" transform="rotate(-28 415.64 390.00)">DING 2025 WAVE PARTICL</text>
<rect x="450.13" y="228.54" width="32.46" height="143.46" fill="#2e7d32" fill-opacity="0.82"/>
<text x="466.36" y="390.00" font-size="10" font-family="Arial, Helvetica, sans-serif" text-anchor="middle" fill="#263238" transform="rotate(-28 466.36 390.00)">CHEN 2022 ASYMMETRIC B</text>
<rect x="500.84" y="231.53" width="32.46" height="140.47" fill="#2962ff" fill-opacity="0.82"/>
<text x="517.07" y="390.00" font-size="10" font-family="Arial, Helvetica, sans-serif" text-anchor="middle" fill="#263238" transform="rotate(-28 517.07 390.00)">YOON 2021 QUANTITATIVE</text>
<rect x="551.56" y="237.51" width="32.46" height="134.49" fill="#00897b" fill-opacity="0.82"/>
<text x="567.79" y="390.00" font-size="10" font-family="Arial, Helvetica, sans-serif" text-anchor="middle" fill="#263238" transform="rotate(-28 567.79 390.00)">KOCSIS 2011 AVERAGE TR</text>
<rect x="602.27" y="240.50" width="32.46" height="131.50" fill="#d84315" fill-opacity="0.82"/>
<text x="618.50" y="390.00" font-size="10" font-family="Arial, Helvetica, sans-serif" text-anchor="middle" fill="#263238" transform="rotate(-28 618.50 390.00)">ROZEMA 2012 WEAK MEASU</text>
<rect x="652.99" y="243.48" width="32.46" height="128.52" fill="#6a1b9a" fill-opacity="0.82"/>
<text x="669.21" y="390.00" font-size="10" font-family="Arial, Helvetica, sans-serif" text-anchor="middle" fill="#263238" transform="rotate(-28 669.21 390.00)">KANEDA 2014 ERROR DIST</text>
<rect x="703.70" y="246.47" width="32.46" height="125.53" fill="#f9a825" fill-opacity="0.82"/>
<text x="719.93" y="390.00" font-size="10" font-family="Arial, Helvetica, sans-serif" text-anchor="middle" fill="#263238" transform="rotate(-28 719.93 390.00)">CORMANN 2016 MODULAR V</text>
<rect x="754.41" y="267.39" width="32.46" height="104.61" fill="#455a64" fill-opacity="0.82"/>
<text x="770.64" y="390.00" font-size="10" font-family="Arial, Helvetica, sans-serif" text-anchor="middle" fill="#263238" transform="rotate(-28 770.64 390.00)">DURR 1998 COMPLEMENTAR</text>
<text x="22.00" y="213.00" font-size="14" font-family="Arial, Helvetica, sans-serif" text-anchor="middle" fill="#263238" transform="rotate(-90 22.00 213.00)">gate score</text>
</svg>
