<svg xmlns="http://www.w3.org/2000/svg" width="920" height="520" viewBox="0 0 920 520">
<rect width="100%" height="100%" fill="#ffffff"/>
<text x="460.00" y="28.00" font-size="20" font-family="Arial, Helvetica, sans-serif" text-anchor="middle" fill="#17212b">Xiao Far-Field Momentum Disturbance Distribution</text>
<rect x="82" y="54" width="810" height="384" fill="#fafafa" stroke="#cfd8dc"/>
<line x1="82.00" y1="54" x2="82.00" y2="438" stroke="#eceff1"/>
<text x="82.00" y="462.00" font-size="11" font-family="Arial, Helvetica, sans-serif" text-anchor="middle" fill="#263238">-3</text>
<line x1="244.00" y1="54" x2="244.00" y2="438" stroke="#eceff1"/>
<text x="244.00" y="462.00" font-size="11" font-family="Arial, Helvetica, sans-serif" text-anchor="middle" fill="#263238">-1.8</text>
<line x1="406.00" y1="54" x2="406.00" y2="438" stroke="#eceff1"/>
<text x="406.00" y="462.00" font-size="11" font-family="Arial, Helvetica, sans-serif" text-anchor="middle" fill="#263238">-0.6</text>
<line x1="568.00" y1="54" x2="568.00" y2="438" stroke="#eceff1"/>
<text x="568.00" y="462.00" font-size="11" font-family="Arial, Helvetica, sans-serif" text-anchor="middle" fill="#263238">0.6</text>
<line x1="730.00" y1="54" x2="730.00" y2="438" stroke="#eceff1"/>
<text x="730.00" y="462.00" font-size="11" font-family="Arial, Helvetica, sans-serif" text-anchor="middle" fill="#263238">1.8</text>
<line x1="892.00" y1="54" x2="892.00" y2="438" stroke="#eceff1"/>
<text x="892.00" y="462.00" font-size="11" font-family="Arial, Helvetica, sans-serif" text-anchor="middle" fill="#263238">3</text>
<line x1="82" y1="438.00" x2="892" y2="438.00" stroke="#eceff1"/>
<text x="72.00" y="442.00" font-size="11" font-family="Arial, Helvetica, sans-serif" text-anchor="end" fill="#263238">0</text>
<line x1="82" y1="361.20" x2="892" y2="361.20" stroke="#eceff1"/>
<text x="72.00" y="365.20" font-size="11" font-family="Arial, Helvetica, sans-serif" text-anchor="end" fill="#263238">1.2</text>
<line x1="82" y1="284.40" x2="892" y2="284.40" stroke="#eceff1"/>
<text x="72.00" y="288.40" font-size="11" font-family="Arial, Helvetica, sans-serif" text-anchor="end" fill="#263238">2.4</text>
<line x1="82" y1="207.60" x2="892" y2="207.60" stroke="#eceff1"/>
<text x="72.00" y="211.60" font-size="11" font-family="Arial, Helvetica, sans-serif" text-anchor="end" fill="#263238">3.7</text>
<line x1="82" y1="130.80" x2="892" y2="130.80" stroke="#eceff1"/>
<text x="72.00" y="134.80" font-size="11" font-family="Arial, Helvetica, sans-serif" text-anchor="end" fill="#263238">4.9</text>
<line x1="82" y1="54.00" x2="892" y2="54.00" stroke="#eceff1"/>
<text x="72.00" y="58.00" font-size="11" font-family="Arial, Helvetica, sans-serif" text-anchor="end" fill="#263238">6.1</text>
<polyline fill="none" stroke="#d84315" stroke-width="2.5" points="96.79,425.13 100.49,424.59 104.19,424.52 107.89,424.43 111.59,424.38 115.29,424.38 118.99,424.38 122.68,424.40 126.38,424.41 130.08,424.38 133.78,424.38 137.48,424.38 141.18,424.41 144.88,424.50 148.58,424.98 152.27,425.24 155.97,425.32 159.67,425.40 163.37,424.97 167.07,424.50 170.77,424.38 174.47,424.38 178.16,424.38 181.86,424.39 185.56,424.42 189.26,424.98 192.96,425.16 196.66,425.13 200.36,425.09 204.05,425.06 207.75,425.02 211.45,424.99 215.15,424.95 218.85,424.92 222.55,424.88 226.25,424.85 229.95,424.81 233.64,424.78 237.34,424.74 241.04,424.71 244.74,424.67 248.44,424.64 252.14,424.60 255.84,424.57 259.53,424.54 263.23,424.49 266.93,424.42 270.63,424.39 274.33,424.38 278.03,424.38 281.73,424.38 285.42,424.38 289.12,424.40 292.82,424.41 296.52,424.38 300.22,424.38 303.92,424.38 307.62,424.38 311.32,424.41 315.01,424.40 318.71,424.38 322.41,424.38 326.11,424.38 329.81,424.40 333.51,424.41 337.21,424.38 340.90,424.38 344.60,424.38 348.30,424.38 352.00,424.41 355.70,424.40 359.40,424.38 363.10,424.38 366.79,424.38 370.49,424.40 374.19,424.41 377.89,424.38 381.59,424.38 385.29,424.38 388.99,424.40 392.68,424.49 396.38,424.63 400.08,424.78 403.78,424.94 407.48,425.09 411.18,425.24 414.88,425.39 418.58,424.73 422.27,424.42 425.97,424.38 429.67,424.39 433.37,424.42 437.07,424.39 440.77,424.38 444.47,424.32 448.16,423.79 451.86,422.69 455.56,419.13 459.26,411.88 462.96,395.35 466.66,364.44 470.36,314.37 474.05,235.60 477.75,161.16 481.45,111.38 485.15,92.27 488.85,105.66 492.55,150.37 496.25,216.97 499.95,293.82 503.64,357.88 507.34,391.99 511.04,410.78 514.74,419.72 518.44,422.20 522.14,423.41 525.84,424.29 529.53,425.17 533.23,424.90 536.93,424.48 540.63,424.42 544.33,424.39 548.03,424.38 551.73,424.38 555.42,424.38 559.12,424.41 562.82,424.40 566.52,424.38 570.22,424.38 573.92,424.38 577.62,424.40 581.32,424.41 585.01,424.38 588.71,424.38 592.41,424.38 596.11,424.38 599.81,424.41 603.51,424.40 607.21,424.38 610.90,424.38 614.60,424.38 618.30,424.40 622.00,424.41 625.70,424.38 629.40,424.38 633.10,424.38 636.79,424.38 640.49,424.41 644.19,424.40 647.89,424.38 651.59,424.38 655.29,424.49 658.99,424.51 662.68,424.51 666.38,424.51 670.08,424.51 673.78,424.51 677.48,424.51 681.18,424.51 684.88,424.51 688.58,424.49 692.27,424.38 695.97,424.38 699.67,424.38 703.37,424.39 707.07,424.42 710.77,424.39 714.47,424.38 718.16,424.38 721.86,424.38 725.56,424.41 729.26,424.40 732.96,424.38 736.66,424.38 740.36,424.38 744.05,424.39 747.75,424.42 751.45,424.39 755.15,424.38 758.85,424.38 762.55,424.38 766.25,424.41 769.95,424.40 773.64,424.38 777.34,424.38 781.04,424.38 784.74,424.39 788.44,424.42 792.14,424.39 795.84,424.38 799.53,424.41 803.23,424.51 806.93,424.51 810.63,424.51 814.33,424.51 818.03,424.51 821.73,424.51 825.42,424.51 829.12,424.51 832.82,424.51 836.52,424.51 840.22,424.51 843.92,424.51 847.62,424.44 851.32,424.40 855.01,424.38 858.71,424.38 862.41,424.38 866.11,424.39 869.81,424.42 873.51,424.39 877.21,424.46 880.90,424.89"/>
<polyline fill="none" stroke="#2962ff" stroke-width="2.5" points="96.79,422.46 100.49,421.86 104.19,421.02 107.89,420.52 111.59,420.15 115.29,419.99 118.99,419.89 122.68,419.44 126.38,419.17 130.08,419.33 133.78,419.74 137.48,419.96 141.18,420.30 144.88,420.86 148.58,421.54 152.27,422.50 155.97,423.61 159.67,423.05 163.37,422.30 167.07,421.19 170.77,419.78 174.47,418.72 178.16,418.44 181.86,419.06 185.56,419.96 189.26,421.32 192.96,422.63 196.66,423.73 200.36,424.35 204.05,424.51 207.75,424.51 211.45,424.51 215.15,424.51 218.85,424.51 222.55,424.51 226.25,424.51 229.95,424.51 233.64,424.51 237.34,424.51 241.04,424.51 244.74,424.51 248.44,424.29 252.14,423.85 255.84,423.06 259.53,421.89 263.23,419.46 266.93,414.57 270.63,408.44 274.33,400.60 278.03,389.64 281.73,375.31 285.42,366.70 289.12,364.83 292.82,364.18 296.52,370.57 300.22,380.99 303.92,390.13 307.62,395.37 311.32,396.85 315.01,395.83 318.71,394.55 322.41,393.95 326.11,395.19 329.81,397.29 333.51,400.26 337.21,403.75 340.90,405.04 344.60,405.30 348.30,404.52 352.00,401.73 355.70,399.18 359.40,396.73 363.10,394.83 366.79,394.83 370.49,396.40 374.19,399.41 377.89,403.25 381.59,408.57 385.29,413.14 388.99,416.72 392.68,419.51 396.38,421.73 400.08,423.15 403.78,423.79 407.48,423.79 411.18,423.27 414.88,422.01 418.58,419.93 422.27,418.07 425.97,415.66 429.67,413.34 433.37,412.10 437.07,412.98 440.77,414.36 444.47,415.82 448.16,416.94 451.86,417.32 455.56,417.52 459.26,418.08 462.96,418.55 466.66,419.04 470.36,419.24 474.05,419.13 477.75,418.62 481.45,418.22 485.15,418.31 488.85,418.92 492.55,420.08 496.25,421.48 499.95,422.79 503.64,423.49 507.34,424.07 511.04,424.51 514.74,424.51 518.44,424.51 522.14,424.12 525.84,423.49 529.53,422.79 533.23,421.30 536.93,420.07 540.63,419.02 544.33,418.40 548.03,418.22 551.73,418.51 555.42,418.92 559.12,418.39 562.82,418.22 566.52,418.22 570.22,418.22 573.92,418.75 577.62,419.41 581.32,419.81 585.01,419.18 588.71,418.49 592.41,417.88 596.11,417.32 599.81,417.04 603.51,416.26 607.21,415.17 610.90,413.78 614.60,412.53 618.30,412.27 622.00,413.27 625.70,415.36 629.40,416.81 633.10,417.71 636.79,418.22 640.49,418.22 644.19,418.22 647.89,418.76 651.59,420.00 655.29,421.39 658.99,422.68 662.68,423.74 666.38,424.27 670.08,424.46 673.78,424.51 677.48,424.30 681.18,423.74 684.88,422.33 688.58,420.35 692.27,416.69 695.97,410.93 699.67,403.53 703.37,394.77 707.07,385.01 710.77,375.46 714.47,368.14 718.16,363.08 721.86,360.49 725.56,362.07 729.26,365.05 732.96,374.11 736.66,388.05 740.36,398.41 744.05,405.59 747.75,411.00 751.45,410.08 755.15,407.48 758.85,403.17 762.55,400.30 766.25,400.77 769.95,402.18 773.64,406.96 777.34,411.74 781.04,414.77 784.74,416.40 788.44,417.35 792.14,417.97 795.84,419.06 799.53,420.46 803.23,421.85 806.93,423.06 810.63,423.89 814.33,424.39 818.03,424.49 821.73,424.51 825.42,424.51 829.12,424.50 832.82,424.41 836.52,423.64 840.22,422.53 843.92,421.80 847.62,421.74 851.32,421.38 855.01,420.91 858.71,420.91 862.41,420.82 866.11,420.80 869.81,420.83 873.51,420.90 877.21,421.38 880.90,422.02"/>
<line x1="94" y1="72" x2="122" y2="72" stroke="#d84315" stroke-width="3"/>
<text x="130.00" y="76.00" font-size="12" font-family="Arial, Helvetica, sans-serif" text-anchor="start" fill="#263238">phi=0</text>
<line x1="94" y1="94" x2="122" y2="94" stroke="#2962ff" stroke-width="3"/>
<text x="130.00" y="98.00" font-size="12" font-family="Arial, Helvetica, sans-serif" text-anchor="start" fill="#263238">phi=pi</text>
<text x="487.00" y="492.00" font-size="14" font-family="Arial, Helvetica, sans-serif" text-anchor="middle" fill="#263238">p (hbar/d)</text>
<text x="22.00" y="246.00" font-size="14" font-family="Arial, Helvetica, sans-serif" text-anchor="middle" fill="#263238" transform="rotate(-90 22.00 246.00)">probability density</text>
</svg>
