<svg xmlns="http://www.w3.org/2000/svg" width="820" height="500" viewBox="0 0 820 500">
<rect width="100%" height="100%" fill="#ffffff"/>
<text x="410.00" y="28.00" font-size="20" font-family="Arial, Helvetica, sans-serif" text-anchor="middle" fill="#17212b">Hackermueller Thermal Delta-T4 Bootstrap</text>
<rect x="86" y="54" width="710" height="318" fill="#fafafa" stroke="#cfd8dc"/>
<line x1="86" y1="372.00" x2="796" y2="372.00" stroke="#eceff1"/>
<text x="76.00" y="376.00" font-size="11" font-family="Arial, Helvetica, sans-serif" text-anchor="end" fill="#263238">0</text>
<line x1="86" y1="308.40" x2="796" y2="308.40" stroke="#eceff1"/>
<text x="76.00" y="312.40" font-size="11" font-family="Arial, Helvetica, sans-serif" text-anchor="end" fill="#263238">23</text>
<line x1="86" y1="244.80" x2="796" y2="244.80" stroke="#eceff1"/>
<text x="76.00" y="248.80" font-size="11" font-family="Arial, Helvetica, sans-serif" text-anchor="end" fill="#263238">47</text>
<line x1="86" y1="181.20" x2="796" y2="181.20" stroke="#eceff1"/>
<text x="76.00" y="185.20" font-size="11" font-family="Arial, Helvetica, sans-serif" text-anchor="end" fill="#263238">70</text>
<line x1="86" y1="117.60" x2="796" y2="117.60" stroke="#eceff1"/>
<text x="76.00" y="121.60" font-size="11" font-family="Arial, Helvetica, sans-serif" text-anchor="end" fill="#263238">93</text>
<line x1="86" y1="54.00" x2="796" y2="54.00" stroke="#eceff1"/>
<text x="76.00" y="58.00" font-size="11" font-family="Arial, Helvetica, sans-serif" text-anchor="end" fill="#263238">1.2e+02</text>
<rect x="90.56" y="369.27" width="16.23" height="2.73" fill="#2962ff" fill-opacity="0.82"/>
<text x="98.68" y="390.00" font-size="10" font-family="Arial, Helvetica, sans-serif" text-anchor="middle" fill="#263238" transform="rotate(-28 98.68 390.00)">0.0598</text>
<rect x="115.92" y="363.81" width="16.23" height="8.19" fill="#00897b" fill-opacity="0.82"/>
<text x="124.04" y="390.00" font-size="10" font-family="Arial, Helvetica, sans-serif" text-anchor="middle" fill="#263238" transform="rotate(-28 124.04 390.00)">0.0614</text>
<rect x="141.28" y="366.54" width="16.23" height="5.46" fill="#d84315" fill-opacity="0.82"/>
<text x="149.39" y="390.00" font-size="10" font-family="Arial, Helvetica, sans-serif" text-anchor="middle" fill="#263238" transform="rotate(-28 149.39 390.00)">0.0631</text>
<rect x="166.64" y="363.81" width="16.23" height="8.19" fill="#6a1b9a" fill-opacity="0.82"/>
<text x="174.75" y="390.00" font-size="10" font-family="Arial, Helvetica, sans-serif" text-anchor="middle" fill="#263238" transform="rotate(-28 174.75 390.00)">0.0648</text>
<rect x="191.99" y="341.97" width="16.23" height="30.03" fill="#f9a825" fill-opacity="0.82"/>
<text x="200.11" y="390.00" font-size="10" font-family="Arial, Helvetica, sans-serif" text-anchor="middle" fill="#263238" transform="rotate(-28 200.11 390.00)">0.0665</text>
<rect x="217.35" y="344.70" width="16.23" height="27.30" fill="#455a64" fill-opacity="0.82"/>
<text x="225.46" y="390.00" font-size="10" font-family="Arial, Helvetica, sans-serif" text-anchor="middle" fill="#263238" transform="rotate(-28 225.46 390.00)">0.0682</text>
<rect x="242.71" y="303.75" width="16.23" height="68.25" fill="#c2185b" fill-opacity="0.82"/>
<text x="250.82" y="390.00" font-size="10" font-family="Arial, Helvetica, sans-serif" text-anchor="middle" fill="#263238" transform="rotate(-28 250.82 390.00)">0.0699</text>
<rect x="268.06" y="303.75" width="16.23" height="68.25" fill="#2e7d32" fill-opacity="0.82"/>
<text x="276.18" y="390.00" font-size="10" font-family="Arial, Helvetica, sans-serif" text-anchor="middle" fill="#263238" transform="rotate(-28 276.18 390.00)">0.0716</text>
<rect x="293.42" y="232.77" width="16.23" height="139.23" fill="#2962ff" fill-opacity="0.82"/>
<text x="301.54" y="390.00" font-size="10" font-family="Arial, Helvetica, sans-serif" text-anchor="middle" fill="#263238" transform="rotate(-28 301.54 390.00)">0.0732</text>
<rect x="318.78" y="205.46" width="16.23" height="166.54" fill="#00897b" fill-opacity="0.82"/>
<text x="326.89" y="390.00" font-size="10" font-family="Arial, Helvetica, sans-serif" text-anchor="middle" fill="#263238" transform="rotate(-28 326.89 390.00)">0.0749</text>
<rect x="344.14" y="197.27" width="16.23" height="174.73" fill="#d84315" fill-opacity="0.82"/>
<text x="352.25" y="390.00" font-size="10" font-family="Arial, Helvetica, sans-serif" text-anchor="middle" fill="#263238" transform="rotate(-28 352.25 390.00)">0.0766</text>
<rect x="369.49" y="115.37" width="16.23" height="256.63" fill="#6a1b9a" fill-opacity="0.82"/>
<text x="377.61" y="390.00" font-size="10" font-family="Arial, Helvetica, sans-serif" text-anchor="middle" fill="#263238" transform="rotate(-28 377.61 390.00)">0.0783</text>
<rect x="394.85" y="96.26" width="16.23" height="275.74" fill="#f9a825" fill-opacity="0.82"/>
<text x="402.96" y="390.00" font-size="10" font-family="Arial, Helvetica, sans-serif" text-anchor="middle" fill="#263238" transform="rotate(-28 402.96 390.00)">0.08</text>
<rect x="420.21" y="88.07" width="16.23" height="283.93" fill="#455a64" fill-opacity="0.82"/>
<text x="428.32" y="390.00" font-size="10" font-family="Arial, Helvetica, sans-serif" text-anchor="middle" fill="#263238" transform="rotate(-28 428.32 390.00)">0.0817</text>
<rect x="445.56" y="120.83" width="16.23" height="251.17" fill="#c2185b" fill-opacity="0.82"/>
<text x="453.68" y="390.00" font-size="10" font-family="Arial, Helvetica, sans-serif" text-anchor="middle" fill="#263238" transform="rotate(-28 453.68 390.00)">0.0834</text>
<rect x="470.92" y="123.56" width="16.23" height="248.44" fill="#2e7d32" fill-opacity="0.82"/>
<text x="479.04" y="390.00" font-size="10" font-family="Arial, Helvetica, sans-serif" text-anchor="middle" fill="#263238" transform="rotate(-28 479.04 390.00)">0.085</text>
<rect x="496.28" y="164.51" width="16.23" height="207.49" fill="#2962ff" fill-opacity="0.82"/>
<text x="504.39" y="390.00" font-size="10" font-family="Arial, Helvetica, sans-serif" text-anchor="middle" fill="#263238" transform="rotate(-28 504.39 390.00)">0.0867</text>
<rect x="521.64" y="194.54" width="16.23" height="177.46" fill="#00897b" fill-opacity="0.82"/>
<text x="529.75" y="390.00" font-size="10" font-family="Arial, Helvetica, sans-serif" text-anchor="middle" fill="#263238" transform="rotate(-28 529.75 390.00)">0.0884</text>
<rect x="546.99" y="279.18" width="16.23" height="92.82" fill="#d84315" fill-opacity="0.82"/>
<text x="555.11" y="390.00" font-size="10" font-family="Arial, Helvetica, sans-serif" text-anchor="middle" fill="#263238" transform="rotate(-28 555.11 390.00)">0.0901</text>
<rect x="572.35" y="265.53" width="16.23" height="106.47" fill="#6a1b9a" fill-opacity="0.82"/>
<text x="580.46" y="390.00" font-size="10" font-family="Arial, Helvetica, sans-serif" text-anchor="middle" fill="#263238" transform="rotate(-28 580.46 390.00)">0.0918</text>
<rect x="597.71" y="325.59" width="16.23" height="46.41" fill="#f9a825" fill-opacity="0.82"/>
<text x="605.82" y="390.00" font-size="10" font-family="Arial, Helvetica, sans-serif" text-anchor="middle" fill="#263238" transform="rotate(-28 605.82 390.00)">0.0935</text>
<rect x="623.06" y="331.05" width="16.23" height="40.95" fill="#455a64" fill-opacity="0.82"/>
<text x="631.18" y="390.00" font-size="10" font-family="Arial, Helvetica, sans-serif" text-anchor="middle" fill="#263238" transform="rotate(-28 631.18 390.00)">0.0952</text>
<rect x="648.42" y="350.16" width="16.23" height="21.84" fill="#c2185b" fill-opacity="0.82"/>
<text x="656.54" y="390.00" font-size="10" font-family="Arial, Helvetica, sans-serif" text-anchor="middle" fill="#263238" transform="rotate(-28 656.54 390.00)">0.0968</text>
<rect x="673.78" y="366.54" width="16.23" height="5.46" fill="#2e7d32" fill-opacity="0.82"/>
<text x="681.89" y="390.00" font-size="10" font-family="Arial, Helvetica, sans-serif" text-anchor="middle" fill="#263238" transform="rotate(-28 681.89 390.00)">0.0985</text>
<rect x="699.14" y="363.81" width="16.23" height="8.19" fill="#2962ff" fill-opacity="0.82"/>
<text x="707.25" y="390.00" font-size="10" font-family="Arial, Helvetica, sans-serif" text-anchor="middle" fill="#263238" transform="rotate(-28 707.25 390.00)">0.1</text>
<rect x="724.49" y="366.54" width="16.23" height="5.46" fill="#00897b" fill-opacity="0.82"/>
<text x="732.61" y="390.00" font-size="10" font-family="Arial, Helvetica, sans-serif" text-anchor="middle" fill="#263238" transform="rotate(-28 732.61 390.00)">0.102</text>
<rect x="749.85" y="372.00" width="16.23" height="0.00" fill="#d84315" fill-opacity="0.82"/>
<text x="757.96" y="390.00" font-size="10" font-family="Arial, Helvetica, sans-serif" text-anchor="middle" fill="#263238" transform="rotate(-28 757.96 390.00)">0.104</text>
<rect x="775.21" y="369.27" width="16.23" height="2.73" fill="#6a1b9a" fill-opacity="0.82"/>
<text x="783.32" y="390.00" font-size="10" font-family="Arial, Helvetica, sans-serif" text-anchor="middle" fill="#263238" transform="rotate(-28 783.32 390.00)">0.105</text>
<text x="22.00" y="213.00" font-size="14" font-family="Arial, Helvetica, sans-serif" text-anchor="middle" fill="#263238" transform="rotate(-90 22.00 213.00)">count (thermal delta-T4 RMSE)</text>
</svg>
