<svg xmlns="http://www.w3.org/2000/svg" width="720" height="560" viewBox="0 0 720 560">
<rect width="100%" height="100%" fill="#ffffff"/>
<text x="360.00" y="28.00" font-size="20" font-family="Arial, Helvetica, sans-serif" text-anchor="middle" fill="#17212b">Xiao Momentum-Disturbance Fit</text>
<rect x="82" y="54" width="606" height="424" fill="#fafafa" stroke="#cfd8dc"/>
<line x1="82.00" y1="54" x2="82.00" y2="478" stroke="#eceff1"/>
<text x="82.00" y="502.00" font-size="11" font-family="Arial, Helvetica, sans-serif" text-anchor="middle" fill="#263238">0.0067</text>
<line x1="203.20" y1="54" x2="203.20" y2="478" stroke="#eceff1"/>
<text x="203.20" y="502.00" font-size="11" font-family="Arial, Helvetica, sans-serif" text-anchor="middle" fill="#263238">0.21</text>
<line x1="324.40" y1="54" x2="324.40" y2="478" stroke="#eceff1"/>
<text x="324.40" y="502.00" font-size="11" font-family="Arial, Helvetica, sans-serif" text-anchor="middle" fill="#263238">0.41</text>
<line x1="445.60" y1="54" x2="445.60" y2="478" stroke="#eceff1"/>
<text x="445.60" y="502.00" font-size="11" font-family="Arial, Helvetica, sans-serif" text-anchor="middle" fill="#263238">0.61</text>
<line x1="566.80" y1="54" x2="566.80" y2="478" stroke="#eceff1"/>
<text x="566.80" y="502.00" font-size="11" font-family="Arial, Helvetica, sans-serif" text-anchor="middle" fill="#263238">0.8</text>
<line x1="688.00" y1="54" x2="688.00" y2="478" stroke="#eceff1"/>
<text x="688.00" y="502.00" font-size="11" font-family="Arial, Helvetica, sans-serif" text-anchor="middle" fill="#263238">1</text>
<line x1="82" y1="478.00" x2="688" y2="478.00" stroke="#eceff1"/>
<text x="72.00" y="482.00" font-size="11" font-family="Arial, Helvetica, sans-serif" text-anchor="end" fill="#263238">0.036</text>
<line x1="82" y1="393.20" x2="688" y2="393.20" stroke="#eceff1"/>
<text x="72.00" y="397.20" font-size="11" font-family="Arial, Helvetica, sans-serif" text-anchor="end" fill="#263238">0.17</text>
<line x1="82" y1="308.40" x2="688" y2="308.40" stroke="#eceff1"/>
<text x="72.00" y="312.40" font-size="11" font-family="Arial, Helvetica, sans-serif" text-anchor="end" fill="#263238">0.31</text>
<line x1="82" y1="223.60" x2="688" y2="223.60" stroke="#eceff1"/>
<text x="72.00" y="227.60" font-size="11" font-family="Arial, Helvetica, sans-serif" text-anchor="end" fill="#263238">0.45</text>
<line x1="82" y1="138.80" x2="688" y2="138.80" stroke="#eceff1"/>
<text x="72.00" y="142.80" font-size="11" font-family="Arial, Helvetica, sans-serif" text-anchor="end" fill="#263238">0.59</text>
<line x1="82" y1="54.00" x2="688" y2="54.00" stroke="#eceff1"/>
<text x="72.00" y="58.00" font-size="11" font-family="Arial, Helvetica, sans-serif" text-anchor="end" fill="#263238">0.73</text>
<circle cx="114.46" cy="76.71" r="3.4" fill="#2962ff" fill-opacity="0.62"/>
<circle cx="220.04" cy="152.60" r="3.4" fill="#2962ff" fill-opacity="0.62"/>
<circle cx="331.95" cy="228.20" r="3.4" fill="#2962ff" fill-opacity="0.62"/>
<circle cx="446.39" cy="303.94" r="3.4" fill="#2962ff" fill-opacity="0.62"/>
<circle cx="552.25" cy="379.84" r="3.4" fill="#2962ff" fill-opacity="0.62"/>
<circle cx="655.54" cy="455.29" r="3.4" fill="#2962ff" fill-opacity="0.62"/>
<polyline fill="none" stroke="#d84315" stroke-width="2.5" points="77.92,51.67 83.99,55.89 90.07,60.11 96.15,64.32 102.22,68.54 108.30,72.76 114.38,76.98 120.45,81.20 126.53,85.42 132.61,89.64 138.68,93.86 144.76,98.07 150.84,102.29 156.91,106.51 162.99,110.73 169.07,114.95 175.14,119.17 181.22,123.39 187.30,127.61 193.37,131.83 199.45,136.04 205.53,140.26 211.60,144.48 217.68,148.70 223.76,152.92 229.83,157.14 235.91,161.36 241.99,165.58 248.06,169.80 254.14,174.01 260.22,178.23 266.29,182.45 272.37,186.67 278.45,190.89 284.52,195.11 290.60,199.33 296.68,203.55 302.75,207.76 308.83,211.98 314.90,216.20 320.98,220.42 327.06,224.64 333.13,228.86 339.21,233.08 345.29,237.30 351.36,241.52 357.44,245.73 363.52,249.95 369.59,254.17 375.67,258.39 381.75,262.61 387.82,266.83 393.90,271.05 399.98,275.27 406.05,279.48 412.13,283.70 418.21,287.92 424.28,292.14 430.36,296.36 436.44,300.58 442.51,304.80 448.59,309.02 454.67,313.24 460.74,317.45 466.82,321.67 472.90,325.89 478.97,330.11 485.05,334.33 491.13,338.55 497.20,342.77 503.28,346.99 509.36,351.21 515.43,355.42 521.51,359.64 527.59,363.86 533.66,368.08 539.74,372.30 545.82,376.52 551.89,380.74 557.97,384.96 564.05,389.17 570.12,393.39 576.20,397.61 582.28,401.83 588.35,406.05 594.43,410.27 600.51,414.49 606.58,418.71 612.66,422.93 618.74,427.14 624.81,431.36 630.89,435.58 636.97,439.80 643.04,444.02 649.12,448.24 655.20,452.46 661.27,456.68 667.35,460.90 673.43,465.11 679.50,469.33 685.58,473.55"/>
<text x="100.00" y="74.00" font-size="12" font-family="Arial, Helvetica, sans-serif" text-anchor="start" fill="#d84315">linear bandwidth</text>
<text x="385.00" y="532.00" font-size="14" font-family="Arial, Helvetica, sans-serif" text-anchor="middle" fill="#263238">visibility V</text>
<text x="22.00" y="266.00" font-size="14" font-family="Arial, Helvetica, sans-serif" text-anchor="middle" fill="#263238" transform="rotate(-90 22.00 266.00)">mean |p| disturbance (hbar/d)</text>
</svg>
