<svg xmlns="http://www.w3.org/2000/svg" width="820" height="500" viewBox="0 0 820 500">
<rect width="100%" height="100%" fill="#ffffff"/>
<text x="410.00" y="28.00" font-size="20" font-family="Arial, Helvetica, sans-serif" text-anchor="middle" fill="#17212b">G11 Evidence Readiness</text>
<rect x="86" y="54" width="710" height="318" fill="#fafafa" stroke="#cfd8dc"/>
<line x1="86" y1="372.00" x2="796" y2="372.00" stroke="#eceff1"/>
<text x="76.00" y="376.00" font-size="11" font-family="Arial, Helvetica, sans-serif" text-anchor="end" fill="#263238">0</text>
<line x1="86" y1="308.40" x2="796" y2="308.40" stroke="#eceff1"/>
<text x="76.00" y="312.40" font-size="11" font-family="Arial, Helvetica, sans-serif" text-anchor="end" fill="#263238">0.22</text>
<line x1="86" y1="244.80" x2="796" y2="244.80" stroke="#eceff1"/>
<text x="76.00" y="248.80" font-size="11" font-family="Arial, Helvetica, sans-serif" text-anchor="end" fill="#263238">0.45</text>
<line x1="86" y1="181.20" x2="796" y2="181.20" stroke="#eceff1"/>
<text x="76.00" y="185.20" font-size="11" font-family="Arial, Helvetica, sans-serif" text-anchor="end" fill="#263238">0.67</text>
<line x1="86" y1="117.60" x2="796" y2="117.60" stroke="#eceff1"/>
<text x="76.00" y="121.60" font-size="11" font-family="Arial, Helvetica, sans-serif" text-anchor="end" fill="#263238">0.9</text>
<line x1="86" y1="54.00" x2="796" y2="54.00" stroke="#eceff1"/>
<text x="76.00" y="58.00" font-size="11" font-family="Arial, Helvetica, sans-serif" text-anchor="end" fill="#263238">1.1</text>
<rect x="94.52" y="88.07" width="30.29" height="283.93" fill="#2962ff" fill-opacity="0.82"/>
<text x="109.67" y="390.00" font-size="10" font-family="Arial, Helvetica, sans-serif" text-anchor="middle" fill="#263238" transform="rotate(-28 109.67 390.00)">KOKOROWSKI_2001_MULTIPHOTON_SCATTERING</text>
<rect x="141.85" y="144.86" width="30.29" height="227.14" fill="#00897b" fill-opacity="0.82"/>
<text x="157.00" y="390.00" font-size="10" font-family="Arial, Helvetica, sans-serif" text-anchor="middle" fill="#263238" transform="rotate(-28 157.00 390.00)">XIAO_2019_INTERNAL_LEAD</text>
<rect x="189.19" y="173.25" width="30.29" height="198.75" fill="#d84315" fill-opacity="0.82"/>
<text x="204.33" y="390.00" font-size="10" font-family="Arial, Helvetica, sans-serif" text-anchor="middle" fill="#263238" transform="rotate(-28 204.33 390.00)">CORMANN_2016_MODULAR_VALUE</text>
<rect x="236.52" y="201.64" width="30.29" height="170.36" fill="#6a1b9a" fill-opacity="0.82"/>
<text x="251.67" y="390.00" font-size="10" font-family="Arial, Helvetica, sans-serif" text-anchor="middle" fill="#263238" transform="rotate(-28 251.67 390.00)">EIBENBERGER_2014_RECOIL_ABSORPTION</text>
<rect x="283.85" y="201.64" width="30.29" height="170.36" fill="#f9a825" fill-opacity="0.82"/>
<text x="299.00" y="390.00" font-size="10" font-family="Arial, Helvetica, sans-serif" text-anchor="middle" fill="#263238" transform="rotate(-28 299.00 390.00)">HORNBERGER_2003_COLLISIONAL_DECOHERENCE</text>
<rect x="331.19" y="201.64" width="30.29" height="170.36" fill="#455a64" fill-opacity="0.82"/>
<text x="346.33" y="390.00" font-size="10" font-family="Arial, Helvetica, sans-serif" text-anchor="middle" fill="#263238" transform="rotate(-28 346.33 390.00)">HOCHRAINER_2017_INDUCED_COHERENCE_MOMENTUM_CORRELATION</text>
<rect x="378.52" y="201.64" width="30.29" height="170.36" fill="#c2185b" fill-opacity="0.82"/>
<text x="393.67" y="390.00" font-size="10" font-family="Arial, Helvetica, sans-serif" text-anchor="middle" fill="#263238" transform="rotate(-28 393.67 390.00)">MIR_2007_WEAK_VALUE_MOMENTUM_TRANSFER</text>
<rect x="425.85" y="230.04" width="30.29" height="141.96" fill="#2e7d32" fill-opacity="0.82"/>
<text x="441.00" y="390.00" font-size="10" font-family="Arial, Helvetica, sans-serif" text-anchor="middle" fill="#263238" transform="rotate(-28 441.00 390.00)">LAHIRI_2017_TWIN_PHOTON_CORRELATIONS</text>
<rect x="473.19" y="258.43" width="30.29" height="113.57" fill="#2962ff" fill-opacity="0.82"/>
<text x="488.33" y="390.00" font-size="10" font-family="Arial, Helvetica, sans-serif" text-anchor="middle" fill="#263238" transform="rotate(-28 488.33 390.00)">DING_2025_WAVE_PARTICLE_ENTANGLEMENT_TRIAD</text>
<rect x="520.52" y="258.43" width="30.29" height="113.57" fill="#00897b" fill-opacity="0.82"/>
<text x="535.67" y="390.00" font-size="10" font-family="Arial, Helvetica, sans-serif" text-anchor="middle" fill="#263238" transform="rotate(-28 535.67 390.00)">CHEN_2022_ASYMMETRIC_BEAM_DUALITY</text>
<rect x="567.85" y="258.43" width="30.29" height="113.57" fill="#d84315" fill-opacity="0.82"/>
<text x="583.00" y="390.00" font-size="10" font-family="Arial, Helvetica, sans-serif" text-anchor="middle" fill="#263238" transform="rotate(-28 583.00 390.00)">YOON_2021_QUANTITATIVE_COMPLEMENTARITY</text>
<rect x="615.19" y="258.43" width="30.29" height="113.57" fill="#6a1b9a" fill-opacity="0.82"/>
<text x="630.33" y="390.00" font-size="10" font-family="Arial, Helvetica, sans-serif" text-anchor="middle" fill="#263238" transform="rotate(-28 630.33 390.00)">KOCSIS_2011_AVERAGE_TRAJECTORIES</text>
<rect x="662.52" y="258.43" width="30.29" height="113.57" fill="#f9a825" fill-opacity="0.82"/>
<text x="677.67" y="390.00" font-size="10" font-family="Arial, Helvetica, sans-serif" text-anchor="middle" fill="#263238" transform="rotate(-28 677.67 390.00)">ROZEMA_2012_WEAK_MEASUREMENT_DISTURBANCE</text>
<rect x="709.85" y="258.43" width="30.29" height="113.57" fill="#455a64" fill-opacity="0.82"/>
<text x="725.00" y="390.00" font-size="10" font-family="Arial, Helvetica, sans-serif" text-anchor="middle" fill="#263238" transform="rotate(-28 725.00 390.00)">KANEDA_2014_ERROR_DISTURBANCE</text>
<rect x="757.19" y="258.43" width="30.29" height="113.57" fill="#c2185b" fill-opacity="0.82"/>
<text x="772.33" y="390.00" font-size="10" font-family="Arial, Helvetica, sans-serif" text-anchor="middle" fill="#263238" transform="rotate(-28 772.33 390.00)">DURR_1998_COMPLEMENTARITY</text>
<text x="22.00" y="213.00" font-size="14" font-family="Arial, Helvetica, sans-serif" text-anchor="middle" fill="#263238" transform="rotate(-90 22.00 213.00)">readiness score</text>
</svg>
