<svg xmlns="http://www.w3.org/2000/svg" width="920" height="520" viewBox="0 0 920 520">
<rect width="100%" height="100%" fill="#ffffff"/>
<text x="460.00" y="28.00" font-size="20" font-family="Arial, Helvetica, sans-serif" text-anchor="middle" fill="#17212b">Xiao Vector Far-Field Distribution</text>
<rect x="82" y="54" width="810" height="384" fill="#fafafa" stroke="#cfd8dc"/>
<line x1="82.00" y1="54" x2="82.00" y2="438" stroke="#eceff1"/>
<text x="82.00" y="462.00" font-size="11" font-family="Arial, Helvetica, sans-serif" text-anchor="middle" fill="#263238">-3</text>
<line x1="244.00" y1="54" x2="244.00" y2="438" stroke="#eceff1"/>
<text x="244.00" y="462.00" font-size="11" font-family="Arial, Helvetica, sans-serif" text-anchor="middle" fill="#263238">-1.8</text>
<line x1="406.00" y1="54" x2="406.00" y2="438" stroke="#eceff1"/>
<text x="406.00" y="462.00" font-size="11" font-family="Arial, Helvetica, sans-serif" text-anchor="middle" fill="#263238">-0.6</text>
<line x1="568.00" y1="54" x2="568.00" y2="438" stroke="#eceff1"/>
<text x="568.00" y="462.00" font-size="11" font-family="Arial, Helvetica, sans-serif" text-anchor="middle" fill="#263238">0.6</text>
<line x1="730.00" y1="54" x2="730.00" y2="438" stroke="#eceff1"/>
<text x="730.00" y="462.00" font-size="11" font-family="Arial, Helvetica, sans-serif" text-anchor="middle" fill="#263238">1.8</text>
<line x1="892.00" y1="54" x2="892.00" y2="438" stroke="#eceff1"/>
<text x="892.00" y="462.00" font-size="11" font-family="Arial, Helvetica, sans-serif" text-anchor="middle" fill="#263238">3</text>
<line x1="82" y1="438.00" x2="892" y2="438.00" stroke="#eceff1"/>
<text x="72.00" y="442.00" font-size="11" font-family="Arial, Helvetica, sans-serif" text-anchor="end" fill="#263238">0</text>
<line x1="82" y1="361.20" x2="892" y2="361.20" stroke="#eceff1"/>
<text x="72.00" y="365.20" font-size="11" font-family="Arial, Helvetica, sans-serif" text-anchor="end" fill="#263238">1.2</text>
<line x1="82" y1="284.40" x2="892" y2="284.40" stroke="#eceff1"/>
<text x="72.00" y="288.40" font-size="11" font-family="Arial, Helvetica, sans-serif" text-anchor="end" fill="#263238">2.4</text>
<line x1="82" y1="207.60" x2="892" y2="207.60" stroke="#eceff1"/>
<text x="72.00" y="211.60" font-size="11" font-family="Arial, Helvetica, sans-serif" text-anchor="end" fill="#263238">3.7</text>
<line x1="82" y1="130.80" x2="892" y2="130.80" stroke="#eceff1"/>
<text x="72.00" y="134.80" font-size="11" font-family="Arial, Helvetica, sans-serif" text-anchor="end" fill="#263238">4.9</text>
<line x1="82" y1="54.00" x2="892" y2="54.00" stroke="#eceff1"/>
<text x="72.00" y="58.00" font-size="11" font-family="Arial, Helvetica, sans-serif" text-anchor="end" fill="#263238">6.1</text>
<polyline fill="none" stroke="#d84315" stroke-width="2.5" points="85.39,424.88 88.78,424.88 92.17,424.88 95.56,424.88 98.95,424.88 102.33,424.88 105.72,424.88 109.11,424.88 112.50,424.88 115.89,424.88 119.28,424.88 122.67,424.88 126.06,424.88 129.45,424.88 132.84,424.88 136.23,424.88 139.62,424.88 143.00,424.88 146.39,424.88 149.78,424.88 153.17,424.88 156.56,424.88 159.95,424.88 163.34,424.88 166.73,424.88 170.12,424.88 173.51,424.88 176.90,424.88 180.28,424.88 183.67,424.88 187.06,424.88 190.45,424.88 193.84,424.88 197.23,424.88 200.62,424.88 204.01,424.88 207.40,424.88 210.79,424.88 214.18,424.88 217.56,424.88 220.95,424.88 224.34,424.88 227.73,424.88 231.12,424.88 234.51,424.88 237.90,424.88 241.29,424.88 244.68,424.88 248.07,424.88 251.46,424.88 254.85,424.88 258.23,424.88 261.62,424.88 265.01,424.88 268.40,424.88 271.79,424.88 275.18,424.88 278.57,424.88 281.96,424.88 285.35,424.88 288.74,424.88 292.13,424.88 295.51,424.88 298.90,424.88 302.29,424.88 305.68,424.88 309.07,424.88 312.46,424.88 315.85,424.88 319.24,424.88 322.63,424.88 326.02,424.88 329.41,424.88 332.79,424.88 336.18,424.88 339.57,424.88 342.96,424.88 346.35,424.88 349.74,424.88 353.13,424.88 356.52,424.88 359.91,424.88 363.30,424.88 366.69,424.88 370.08,424.88 373.46,424.88 376.85,424.88 380.24,424.88 383.63,424.88 387.02,424.88 390.41,424.88 393.80,424.88 397.19,424.88 400.58,424.88 403.97,424.88 407.36,424.88 410.74,424.88 414.13,424.88 417.52,424.88 420.91,424.88 424.30,424.88 427.69,424.88 431.08,424.88 434.47,424.88 437.86,424.88 441.25,424.87 444.64,424.83 448.03,424.64 451.41,424.05 454.80,422.01 458.19,417.30 461.58,404.34 464.97,383.92 468.36,338.59 471.75,286.95 475.14,214.46 478.53,144.50 481.92,98.09 485.31,81.97 488.69,85.47 492.08,121.33 495.47,176.47 498.86,269.63 502.25,313.84 505.64,369.75 509.03,398.78 512.42,413.65 515.81,420.43 519.20,423.47 522.59,424.45 525.97,424.78 529.36,424.86 532.75,424.88 536.14,424.88 539.53,424.88 542.92,424.88 546.31,424.88 549.70,424.88 553.09,424.88 556.48,424.88 559.87,424.88 563.26,424.88 566.64,424.88 570.03,424.88 573.42,424.88 576.81,424.88 580.20,424.88 583.59,424.88 586.98,424.88 590.37,424.88 593.76,424.88 597.15,424.88 600.54,424.88 603.92,424.88 607.31,424.88 610.70,424.88 614.09,424.88 617.48,424.88 620.87,424.88 624.26,424.88 627.65,424.88 631.04,424.88 634.43,424.88 637.82,424.88 641.21,424.88 644.59,424.88 647.98,424.88 651.37,424.88 654.76,424.88 658.15,424.88 661.54,424.88 664.93,424.88 668.32,424.88 671.71,424.88 675.10,424.88 678.49,424.88 681.87,424.88 685.26,424.88 688.65,424.88 692.04,424.88 695.43,424.88 698.82,424.88 702.21,424.88 705.60,424.88 708.99,424.88 712.38,424.88 715.77,424.88 719.15,424.88 722.54,424.88 725.93,424.88 729.32,424.88 732.71,424.88 736.10,424.88 739.49,424.88 742.88,424.88 746.27,424.88 749.66,424.88 753.05,424.88 756.44,424.88 759.82,424.88 763.21,424.88 766.60,424.88 769.99,424.88 773.38,424.88 776.77,424.88 780.16,424.88 783.55,424.88 786.94,424.88 790.33,424.88 793.72,424.88 797.10,424.88 800.49,424.88 803.88,424.88 807.27,424.88 810.66,424.88 814.05,424.88 817.44,424.88 820.83,424.88 824.22,424.88 827.61,424.88 831.00,424.88 834.38,424.88 837.77,424.88 841.16,424.88 844.55,424.88 847.94,424.88 851.33,424.88 854.72,424.88 858.11,424.88 861.50,424.88 864.89,424.88 868.28,424.88 871.67,424.88 875.05,424.88 878.44,424.88 881.83,424.88 885.22,424.88 888.61,424.88"/>
<polyline fill="none" stroke="#2962ff" stroke-width="2.5" points="85.39,424.84 88.78,424.65 92.17,424.23 95.56,423.83 98.95,423.21 102.33,422.60 105.72,422.03 109.11,421.51 112.50,421.05 115.89,420.68 119.28,420.42 122.67,420.22 126.06,420.14 129.45,420.18 132.84,420.28 136.23,420.56 139.62,420.89 143.00,421.41 146.39,421.97 149.78,422.66 153.17,423.38 156.56,424.03 159.95,423.90 163.34,422.99 166.73,421.98 170.12,420.72 173.51,419.65 176.90,419.27 180.28,419.31 183.67,419.84 187.06,421.13 190.45,422.49 193.84,423.47 197.23,424.29 200.62,424.87 204.01,425.19 207.40,425.34 210.79,425.41 214.18,425.43 217.56,425.44 220.95,425.44 224.34,425.44 227.73,425.44 231.12,425.44 234.51,425.44 237.90,425.43 241.29,425.41 244.68,425.35 248.07,425.21 251.46,424.89 254.85,424.20 258.23,423.04 261.62,421.05 265.01,417.34 268.40,413.65 271.79,406.44 275.18,397.19 278.57,388.43 281.96,375.91 285.35,366.94 288.74,363.45 292.13,363.04 295.51,367.08 298.90,373.06 302.29,383.71 305.68,391.52 309.07,396.32 312.46,397.55 315.85,396.50 319.24,395.26 322.63,394.94 326.02,395.25 329.41,397.25 332.79,400.10 336.18,402.53 339.57,404.62 342.96,406.20 346.35,405.76 349.74,404.48 353.13,402.09 356.52,398.86 359.91,396.54 363.30,395.15 366.69,394.95 370.08,395.47 373.46,397.80 376.85,401.83 380.24,406.06 383.63,410.45 387.02,414.58 390.41,417.17 393.80,420.56 397.19,422.53 400.58,423.82 403.97,424.63 407.36,424.86 410.74,424.35 414.13,423.44 417.52,421.63 420.91,419.86 424.30,417.32 427.69,414.52 431.08,413.23 434.47,412.92 437.86,413.20 441.25,414.30 444.64,415.99 448.03,417.28 451.41,418.12 454.80,418.31 458.19,418.35 461.58,418.63 464.97,419.24 468.36,419.95 471.75,420.52 475.14,420.08 478.53,419.52 481.92,419.01 485.31,418.98 488.69,419.31 492.08,420.39 495.47,421.50 498.86,422.72 502.25,423.76 505.64,424.59 509.03,425.00 512.42,425.26 515.81,425.32 519.20,425.18 522.59,424.88 525.97,424.15 529.36,423.47 532.75,422.08 536.14,421.04 539.53,419.62 542.92,419.01 546.31,418.91 549.70,419.03 553.09,419.31 556.48,419.65 559.87,419.40 563.26,419.00 566.64,418.80 570.03,418.83 573.42,419.08 576.81,419.72 580.20,420.22 583.59,420.09 586.98,419.40 590.37,418.87 593.76,418.37 597.15,418.12 600.54,417.74 603.92,417.03 607.31,415.71 610.70,414.57 614.09,413.16 617.48,412.88 620.87,413.20 624.26,414.59 627.65,416.11 631.04,417.35 634.43,418.68 637.82,419.01 641.21,418.87 644.59,418.90 647.98,419.23 651.37,420.05 654.76,421.10 658.15,422.66 661.54,423.77 664.93,424.58 668.32,424.98 671.71,425.23 675.10,425.26 678.49,424.99 681.87,424.36 685.26,423.01 688.65,420.30 692.04,416.62 695.43,412.09 698.82,404.37 702.21,398.21 705.60,391.57 708.99,382.44 712.38,375.18 715.77,367.54 719.15,362.23 722.54,360.69 725.93,361.17 729.32,364.25 732.71,372.60 736.10,383.18 739.49,392.17 742.88,400.34 746.27,407.90 749.66,411.57 753.05,410.01 756.44,406.46 759.82,403.06 763.21,400.67 766.60,400.58 769.99,402.49 773.38,406.56 776.77,410.67 780.16,413.50 783.55,416.18 786.94,417.67 790.33,418.31 793.72,418.81 797.10,419.53 800.49,420.47 803.88,421.98 807.27,423.18 810.66,424.27 814.05,424.84 817.44,425.16 820.83,425.33 824.22,425.39 827.61,425.35 831.00,425.19 834.38,424.84 837.77,424.05 841.16,423.00 844.55,422.56 847.94,422.33 851.33,422.14 854.72,421.84 858.11,421.59 861.50,421.45 864.89,421.36 868.28,421.38 871.67,421.47 875.05,421.76 878.44,422.26 881.83,422.73 885.22,423.39 888.61,424.32"/>
<line x1="94" y1="72" x2="122" y2="72" stroke="#d84315" stroke-width="3"/>
<text x="130.00" y="76.00" font-size="12" font-family="Arial, Helvetica, sans-serif" text-anchor="start" fill="#263238">phi=0</text>
<line x1="94" y1="94" x2="122" y2="94" stroke="#2962ff" stroke-width="3"/>
<text x="130.00" y="98.00" font-size="12" font-family="Arial, Helvetica, sans-serif" text-anchor="start" fill="#263238">phi=pi</text>
<text x="487.00" y="492.00" font-size="14" font-family="Arial, Helvetica, sans-serif" text-anchor="middle" fill="#263238">p (hbar/d)</text>
<text x="22.00" y="246.00" font-size="14" font-family="Arial, Helvetica, sans-serif" text-anchor="middle" fill="#263238" transform="rotate(-90 22.00 246.00)">probability density</text>
</svg>
