<svg xmlns="http://www.w3.org/2000/svg" width="920" height="520" viewBox="0 0 920 520">
<rect width="100%" height="100%" fill="#ffffff"/>
<text x="460.00" y="28.00" font-size="20" font-family="Arial, Helvetica, sans-serif" text-anchor="middle" fill="#17212b">Xiao Fig. 3a Vector Markers</text>
<rect x="82" y="54" width="810" height="384" fill="#fafafa" stroke="#cfd8dc"/>
<line x1="82.00" y1="54" x2="82.00" y2="438" stroke="#eceff1"/>
<text x="82.00" y="462.00" font-size="11" font-family="Arial, Helvetica, sans-serif" text-anchor="middle" fill="#263238">1.3</text>
<line x1="244.00" y1="54" x2="244.00" y2="438" stroke="#eceff1"/>
<text x="244.00" y="462.00" font-size="11" font-family="Arial, Helvetica, sans-serif" text-anchor="middle" fill="#263238">2.8</text>
<line x1="406.00" y1="54" x2="406.00" y2="438" stroke="#eceff1"/>
<text x="406.00" y="462.00" font-size="11" font-family="Arial, Helvetica, sans-serif" text-anchor="middle" fill="#263238">4.3</text>
<line x1="568.00" y1="54" x2="568.00" y2="438" stroke="#eceff1"/>
<text x="568.00" y="462.00" font-size="11" font-family="Arial, Helvetica, sans-serif" text-anchor="middle" fill="#263238">5.8</text>
<line x1="730.00" y1="54" x2="730.00" y2="438" stroke="#eceff1"/>
<text x="730.00" y="462.00" font-size="11" font-family="Arial, Helvetica, sans-serif" text-anchor="middle" fill="#263238">7.3</text>
<line x1="892.00" y1="54" x2="892.00" y2="438" stroke="#eceff1"/>
<text x="892.00" y="462.00" font-size="11" font-family="Arial, Helvetica, sans-serif" text-anchor="middle" fill="#263238">8.8</text>
<line x1="82" y1="438.00" x2="892" y2="438.00" stroke="#eceff1"/>
<text x="72.00" y="442.00" font-size="11" font-family="Arial, Helvetica, sans-serif" text-anchor="end" fill="#263238">0</text>
<line x1="82" y1="361.20" x2="892" y2="361.20" stroke="#eceff1"/>
<text x="72.00" y="365.20" font-size="11" font-family="Arial, Helvetica, sans-serif" text-anchor="end" fill="#263238">0.16</text>
<line x1="82" y1="284.40" x2="892" y2="284.40" stroke="#eceff1"/>
<text x="72.00" y="288.40" font-size="11" font-family="Arial, Helvetica, sans-serif" text-anchor="end" fill="#263238">0.31</text>
<line x1="82" y1="207.60" x2="892" y2="207.60" stroke="#eceff1"/>
<text x="72.00" y="211.60" font-size="11" font-family="Arial, Helvetica, sans-serif" text-anchor="end" fill="#263238">0.47</text>
<line x1="82" y1="130.80" x2="892" y2="130.80" stroke="#eceff1"/>
<text x="72.00" y="134.80" font-size="11" font-family="Arial, Helvetica, sans-serif" text-anchor="end" fill="#263238">0.62</text>
<line x1="82" y1="54.00" x2="892" y2="54.00" stroke="#eceff1"/>
<text x="72.00" y="58.00" font-size="11" font-family="Arial, Helvetica, sans-serif" text-anchor="end" fill="#263238">0.78</text>
<polyline fill="none" stroke="#2962ff" stroke-width="2.5" points="97.58,383.02 106.21,379.09 113.80,374.23 119.33,366.38 124.50,367.87 130.72,347.12 139.00,348.99 139.01,348.98 142.80,344.50 148.33,336.65 155.58,329.35 155.58,329.35 164.55,309.34 167.66,305.98 177.67,293.82 177.67,293.82 179.05,290.46 187.68,274.00 190.10,262.22 190.10,262.21 199.76,251.00 207.70,249.88 207.71,249.87 213.57,245.76 221.86,233.05 221.86,233.04 227.04,228.75 237.05,223.51 244.99,214.91 244.99,214.90 252.24,200.51 256.38,196.96 259.83,199.58 263.63,187.23 269.50,181.44 278.82,176.95 283.31,171.90 283.31,171.89 293.32,157.31 295.05,155.07 295.05,155.06 299.19,158.25 299.19,158.24 314.04,153.57 317.83,145.16 319.21,142.35 329.23,146.47 335.78,143.10 341.65,141.23 347.18,138.24 350.97,138.05 350.98,138.05 359.95,136.18 359.96,136.18 370.31,137.68 370.31,137.67 372.72,138.99 374.45,140.11 374.46,140.10 391.37,129.08 391.37,129.07 398.62,122.91 406.90,124.59 406.91,124.58 412.43,118.98 420.02,119.35 420.03,119.35 425.89,117.86 429.34,117.30 429.35,117.29 437.28,109.63 437.29,109.62 446.26,120.66 446.26,120.66 450.40,119.73 467.66,112.44 467.67,112.43 470.08,119.35 470.08,119.35 472.84,119.35 480.78,120.66 497.01,118.04 497.01,118.04 502.88,115.24 502.88,115.23 508.74,115.05 515.65,119.73 515.99,119.17 519.10,115.43 527.04,103.83 527.05,103.83 540.85,116.18 549.83,111.50 549.83,111.49 558.80,111.50 558.81,111.49 565.02,114.12 571.23,119.35 571.24,119.35 578.48,118.61 583.66,114.87 583.67,114.86 590.56,113.37 594.71,113.37 597.47,111.87 606.10,114.49 610.93,113.74 623.01,110.94 623.02,110.93 627.50,110.94 631.99,109.44 639.93,104.58 651.32,108.13 658.57,109.07 663.06,109.07 670.31,112.06 674.45,113.93 684.47,117.11 692.41,116.36 692.41,116.35 703.80,109.26 703.81,109.25 707.25,108.88 707.26,108.87 716.57,107.76 716.58,107.75 729.69,111.31 729.70,111.31 732.45,110.38 732.46,110.37 739.36,107.57 739.37,107.56 748.68,107.20 748.69,107.19 757.65,105.14 757.66,105.13 761.80,104.39 761.81,104.39 768.36,105.33 768.37,105.32 770.43,107.01 770.44,107.00 778.37,108.32 778.38,108.31 789.07,107.95 789.08,107.94 794.59,106.26 794.60,106.26 800.46,104.96 800.47,104.95 804.26,106.26 804.27,106.26 813.93,108.32 813.94,108.31 820.14,110.75 820.15,110.74 833.26,109.26 833.27,109.25 838.09,108.32 838.10,108.31 845.34,107.20 845.35,107.19 847.76,106.83 847.77,106.82 852.94,106.08 852.95,106.07 858.46,104.77 858.47,104.76 863.98,103.27 863.99,103.26 867.09,103.09 867.10,103.08 872.96,103.83 872.97,103.83 876.41,103.27 876.42,103.26"/>
<line x1="94" y1="72" x2="122" y2="72" stroke="#2962ff" stroke-width="3"/>
<text x="130.00" y="76.00" font-size="12" font-family="Arial, Helvetica, sans-serif" text-anchor="start" fill="#263238">mean |p|</text>
<text x="487.00" y="492.00" font-size="14" font-family="Arial, Helvetica, sans-serif" text-anchor="middle" fill="#263238">z (m)</text>
<text x="22.00" y="246.00" font-size="14" font-family="Arial, Helvetica, sans-serif" text-anchor="middle" fill="#263238" transform="rotate(-90 22.00 246.00)">mean |p| (hbar/d)</text>
</svg>
