<svg xmlns="http://www.w3.org/2000/svg" width="920" height="520" viewBox="0 0 920 520">
<rect width="100%" height="100%" fill="#ffffff"/>
<text x="460.00" y="28.00" font-size="20" font-family="Arial, Helvetica, sans-serif" text-anchor="middle" fill="#17212b">Chapman Complex Accepted Momentum Windows</text>
<rect x="82" y="54" width="810" height="384" fill="#fafafa" stroke="#cfd8dc"/>
<line x1="82.00" y1="54" x2="82.00" y2="438" stroke="#eceff1"/>
<text x="82.00" y="462.00" font-size="11" font-family="Arial, Helvetica, sans-serif" text-anchor="middle" fill="#263238">-0.04</text>
<line x1="244.00" y1="54" x2="244.00" y2="438" stroke="#eceff1"/>
<text x="244.00" y="462.00" font-size="11" font-family="Arial, Helvetica, sans-serif" text-anchor="middle" fill="#263238">0.38</text>
<line x1="406.00" y1="54" x2="406.00" y2="438" stroke="#eceff1"/>
<text x="406.00" y="462.00" font-size="11" font-family="Arial, Helvetica, sans-serif" text-anchor="middle" fill="#263238">0.79</text>
<line x1="568.00" y1="54" x2="568.00" y2="438" stroke="#eceff1"/>
<text x="568.00" y="462.00" font-size="11" font-family="Arial, Helvetica, sans-serif" text-anchor="middle" fill="#263238">1.2</text>
<line x1="730.00" y1="54" x2="730.00" y2="438" stroke="#eceff1"/>
<text x="730.00" y="462.00" font-size="11" font-family="Arial, Helvetica, sans-serif" text-anchor="middle" fill="#263238">1.6</text>
<line x1="892.00" y1="54" x2="892.00" y2="438" stroke="#eceff1"/>
<text x="892.00" y="462.00" font-size="11" font-family="Arial, Helvetica, sans-serif" text-anchor="middle" fill="#263238">2</text>
<line x1="82" y1="438.00" x2="892" y2="438.00" stroke="#eceff1"/>
<text x="72.00" y="442.00" font-size="11" font-family="Arial, Helvetica, sans-serif" text-anchor="end" fill="#263238">-0.19</text>
<line x1="82" y1="361.20" x2="892" y2="361.20" stroke="#eceff1"/>
<text x="72.00" y="365.20" font-size="11" font-family="Arial, Helvetica, sans-serif" text-anchor="end" fill="#263238">0.36</text>
<line x1="82" y1="284.40" x2="892" y2="284.40" stroke="#eceff1"/>
<text x="72.00" y="288.40" font-size="11" font-family="Arial, Helvetica, sans-serif" text-anchor="end" fill="#263238">0.9</text>
<line x1="82" y1="207.60" x2="892" y2="207.60" stroke="#eceff1"/>
<text x="72.00" y="211.60" font-size="11" font-family="Arial, Helvetica, sans-serif" text-anchor="end" fill="#263238">1.4</text>
<line x1="82" y1="130.80" x2="892" y2="130.80" stroke="#eceff1"/>
<text x="72.00" y="134.80" font-size="11" font-family="Arial, Helvetica, sans-serif" text-anchor="end" fill="#263238">2</text>
<line x1="82" y1="54.00" x2="892" y2="54.00" stroke="#eceff1"/>
<text x="72.00" y="58.00" font-size="11" font-family="Arial, Helvetica, sans-serif" text-anchor="end" fill="#263238">2.5</text>
<polyline fill="none" stroke="#00897b" stroke-width="2.5" points="97.58,336.15 98.55,287.27 99.52,280.89 100.50,276.92 101.47,273.97 102.44,271.59 103.42,269.58 104.39,267.82 105.37,266.26 106.34,264.84 107.31,263.54 108.29,262.34 109.26,261.22 110.23,260.17 111.21,259.18 112.18,258.25 113.15,257.35 114.13,256.50 115.10,255.69 116.07,254.91 117.05,254.16 118.02,253.45 119.00,252.75 119.97,252.08 120.94,251.43 121.92,250.81 122.89,250.20 123.86,249.62 124.84,249.05 125.81,248.49 126.78,247.96 127.76,247.44 128.73,246.93 129.70,246.44 130.68,245.96 131.65,245.49 132.62,245.04 133.60,244.60 134.57,244.17 135.55,243.75 136.52,243.35 137.49,242.95 138.47,242.56 139.44,242.19 140.41,241.83 141.39,241.47 142.36,241.13 143.33,240.79 144.31,240.46 145.28,240.15 146.25,239.84 147.23,239.54 148.20,239.25 149.18,238.97 150.15,238.69 151.12,238.43 152.10,238.17 153.07,237.92 154.04,237.68 155.02,237.45 155.99,237.22 156.96,237.01 157.94,236.80 158.91,236.59 159.88,236.40 160.86,236.21 161.83,236.03 162.81,235.86 163.78,235.69 164.75,235.54 165.73,235.38 166.70,235.24 167.67,235.10 168.65,234.97 169.62,234.85 170.59,234.73 171.57,234.63 172.54,234.52 173.51,234.43 174.49,234.34 175.46,234.26 176.44,234.18 177.41,234.11 178.38,234.05 179.36,233.99 180.33,233.94 181.30,233.90 182.28,233.86 183.25,233.83 184.22,233.81 185.20,233.79 186.17,233.78 187.14,233.77 188.12,233.77 189.09,233.78 190.06,233.79 191.04,233.81 192.01,233.84 192.99,233.87 193.96,233.91 194.93,233.95 195.91,234.00 196.88,234.05 197.85,234.12 198.83,234.18 199.80,234.26 200.77,234.33 201.75,234.42 202.72,234.51 203.69,234.60 204.67,234.71 205.64,234.81 206.62,234.93 207.59,235.05 208.56,235.17 209.54,235.30 210.51,235.43 211.48,235.57 212.46,235.72 213.43,235.87 214.40,236.03 215.38,236.19 216.35,236.36 217.32,236.53 218.30,236.71 219.27,236.89 220.25,237.08 221.22,237.28 222.19,237.48 223.17,237.68 224.14,237.89 225.11,238.10 226.09,238.32 227.06,238.55 228.03,238.78 229.01,239.01 229.98,239.25 230.95,239.50 231.93,239.75 232.90,240.00 233.87,240.26 234.85,240.52 235.82,240.79 236.80,241.06 237.77,241.34 238.74,241.62 239.72,241.91 240.69,242.20 241.66,242.50 242.64,242.80 243.61,243.10 244.58,243.41 245.56,243.73 246.53,244.04 247.50,244.37 248.48,244.69 249.45,245.03 250.43,245.36 251.40,245.70 252.37,246.04 253.35,246.39 254.32,246.74 255.29,247.10 256.27,247.46 257.24,247.82 258.21,248.19 259.19,248.56 260.16,248.94 261.13,249.32 262.11,249.70 263.08,250.09 264.06,250.48 265.03,250.88 266.00,251.28 266.98,251.68 267.95,252.08 268.92,252.49 269.90,252.91 270.87,253.32 271.84,253.74 272.82,254.16 273.79,254.59 274.76,255.02 275.74,255.45 276.71,255.89 277.69,256.33 278.66,256.77 279.63,257.22 280.61,257.67 281.58,258.12 282.55,258.58 283.53,259.03 284.50,259.50 285.47,259.96 286.45,260.43 287.42,260.90 288.39,261.37 289.37,261.84 290.34,262.32 291.31,262.80 292.29,263.29 293.26,263.77 294.24,264.26 295.21,264.75 296.18,265.25 297.16,265.74 298.13,266.24 299.10,266.74 300.08,267.25 301.05,267.75 302.02,268.26 303.00,268.77 303.97,269.28 304.94,269.80 305.92,270.31 306.89,270.83 307.87,271.35 308.84,271.87 309.81,272.40 310.79,272.93 311.76,273.45 312.73,273.98 313.71,274.52 314.68,275.05 315.65,275.59 316.63,276.12 317.60,276.66 318.57,277.20 319.55,277.74 320.52,278.29 321.50,278.83 322.47,279.38 323.44,279.93 324.42,280.48 325.39,281.03 326.36,281.58 327.34,282.13 328.31,282.69 329.28,283.24 330.26,283.80 331.23,284.36 332.20,284.92 333.18,285.48 334.15,286.04 335.12,286.60 336.10,287.16 337.07,287.73 338.05,288.29 339.02,288.86 339.99,289.42 340.97,289.99 341.94,290.56 342.91,291.13 343.89,291.70 344.86,292.27 345.83,292.84 346.81,293.41 347.78,293.98 348.75,294.55 349.73,295.12 350.70,295.70 351.68,296.27 352.65,296.84 353.62,297.42 354.60,297.99 355.57,298.56 356.54,299.14 357.52,299.71 358.49,300.29 359.46,300.86 360.44,301.44 361.41,302.01 362.38,302.59 363.36,303.16 364.33,303.74 365.31,304.31 366.28,304.89 367.25,305.46 368.23,306.04 369.20,306.61 370.17,307.18 371.15,307.76 372.12,308.33 373.09,308.90 374.07,309.47 375.04,310.05 376.01,310.62 376.99,311.19 377.96,311.76 378.94,312.33 379.91,312.90 380.88,313.47 381.86,314.04 382.83,314.60 383.80,315.17 384.78,315.74 385.75,316.30 386.72,316.87 387.70,317.43 388.67,317.99 389.64,318.56 390.62,319.12 391.59,319.68 392.56,320.24 393.54,320.80 394.51,321.36 395.49,321.91 396.46,322.47 397.43,323.02 398.41,323.58 399.38,324.13 400.35,324.68 401.33,325.23 402.30,325.78 403.27,326.33 404.25,326.88 405.22,327.42 406.19,327.97 407.17,328.51 408.14,329.05 409.12,329.59 410.09,330.13 411.06,330.67 412.04,331.21 413.01,331.74 413.98,332.28 414.96,332.81 415.93,333.34 416.90,333.87 417.88,334.40 418.85,334.92 419.82,335.45 420.80,335.97 421.77,336.49 422.75,337.02 423.72,337.53 424.69,338.05 425.67,338.57 426.64,339.08 427.61,339.59 428.59,340.10 429.56,340.61 430.53,341.12 431.51,341.62 432.48,342.13 433.45,342.63 434.43,343.13 435.40,343.63 436.37,344.13 437.35,344.62 438.32,345.11 439.30,345.60 440.27,346.09 441.24,346.58 442.22,347.07 443.19,347.55 444.16,348.03 445.14,348.51 446.11,348.99 447.08,349.47 448.06,349.94 449.03,350.41 450.00,350.88 450.98,351.35 451.95,351.82 452.93,352.28 453.90,352.74 454.87,353.20 455.85,353.66 456.82,354.12 457.79,354.57 458.77,355.02 459.74,355.47 460.71,355.92 461.69,356.36 462.66,356.81 463.63,357.25 464.61,357.69 465.58,358.13 466.56,358.56 467.53,358.99 468.50,359.43 469.48,359.85 470.45,360.28 471.42,360.71 472.40,361.13 473.37,361.55 474.34,361.97 475.32,362.38 476.29,362.80 477.26,363.21 478.24,363.62 479.21,364.02 480.19,364.43 481.16,364.83 482.13,365.23 483.11,365.63 484.08,366.03 485.05,366.42 486.03,366.81 487.00,367.20 487.97,367.59 488.95,367.98 489.92,368.36 490.89,368.74 491.87,369.12 492.84,369.50 493.81,369.87 494.79,370.24 495.76,370.61 496.74,370.98 497.71,371.34 498.68,371.71 499.66,372.07 500.63,372.43 501.60,372.78 502.58,373.14 503.55,373.49 504.52,373.84 505.50,374.19 506.47,374.53 507.44,374.88 508.42,375.22 509.39,375.56 510.37,375.89 511.34,376.23 512.31,376.56 513.29,376.89 514.26,377.22 515.23,377.55 516.21,377.87 517.18,378.19 518.15,378.51 519.13,378.83 520.10,379.14 521.07,379.46 522.05,379.77 523.02,380.07 524.00,380.38 524.97,380.69 525.94,380.99 526.92,381.29 527.89,381.59 528.86,381.88 529.84,382.17 530.81,382.47 531.78,382.76 532.76,383.04 533.73,383.33 534.70,383.61 535.68,383.89 536.65,384.17 537.62,384.45 538.60,384.72 539.57,385.00 540.55,385.27 541.52,385.54 542.49,385.80 543.47,386.07 544.44,386.33 545.41,386.59 546.39,386.85 547.36,387.10 548.33,387.36 549.31,387.61 550.28,387.86 551.25,388.11 552.23,388.36 553.20,388.60 554.18,388.84 555.15,389.09 556.12,389.32 557.10,389.56 558.07,389.80 559.04,390.03 560.02,390.26 560.99,390.49 561.96,390.72 562.94,390.94 563.91,391.17 564.88,391.39 565.86,391.61 566.83,391.82 567.81,392.04 568.78,392.26 569.75,392.47 570.73,392.68 571.70,392.89 572.67,393.09 573.65,393.30 574.62,393.50 575.59,393.70 576.57,393.90 577.54,394.10 578.51,394.30 579.49,394.49 580.46,394.69 581.44,394.88 582.41,395.07 583.38,395.26 584.36,395.44 585.33,395.63 586.30,395.81 587.28,395.99 588.25,396.17 589.22,396.35 590.20,396.52 591.17,396.70 592.14,396.87 593.12,397.04 594.09,397.21 595.06,397.38 596.04,397.55 597.01,397.71 597.99,397.88 598.96,398.04 599.93,398.20 600.91,398.36 601.88,398.51 602.85,398.67 603.83,398.82 604.80,398.98 605.77,399.13 606.75,399.28 607.72,399.43 608.69,399.57 609.67,399.72 610.64,399.86 611.62,400.01 612.59,400.15 613.56,400.29 614.54,400.43 615.51,400.56 616.48,400.70 617.46,400.83 618.43,400.97 619.40,401.10 620.38,401.23 621.35,401.36 622.32,401.49 623.30,401.61 624.27,401.74 625.25,401.86 626.22,401.98 627.19,402.10 628.17,402.22 629.14,402.34 630.11,402.46 631.09,402.58 632.06,402.69 633.03,402.81 634.01,402.92 634.98,403.03 635.95,403.14 636.93,403.25 637.90,403.36 638.87,403.46 639.85,403.57 640.82,403.67 641.80,403.78 642.77,403.88 643.74,403.98 644.72,404.08 645.69,404.18 646.66,404.28 647.64,404.37 648.61,404.47 649.58,404.56 650.56,404.66 651.53,404.75 652.50,404.84 653.48,404.93 654.45,405.02 655.43,405.11 656.40,405.20 657.37,405.28 658.35,405.37 659.32,405.45 660.29,405.54 661.27,405.62 662.24,405.70 663.21,405.78 664.19,405.86 665.16,405.94 666.13,406.02 667.11,406.10 668.08,406.17 669.06,406.25 670.03,406.32 671.00,406.39 671.98,406.47 672.95,406.54 673.92,406.61 674.90,406.68 675.87,406.75 676.84,406.82 677.82,406.88 678.79,406.95 679.76,407.02 680.74,407.08 681.71,407.15 682.69,407.21 683.66,407.27 684.63,407.34 685.61,407.40 686.58,407.46 687.55,407.52 688.53,407.58 689.50,407.64 690.47,407.69 691.45,407.75 692.42,407.81 693.39,407.86 694.37,407.92 695.34,407.97 696.31,408.02 697.29,408.08 698.26,408.13 699.24,408.18 700.21,408.23 701.18,408.28 702.16,408.33 703.13,408.38 704.10,408.43 705.08,408.48 706.05,408.52 707.02,408.57 708.00,408.62 708.97,408.66 709.94,408.71 710.92,408.75 711.89,408.79 712.87,408.84 713.84,408.88 714.81,408.92 715.79,408.96 716.76,409.00 717.73,409.04 718.71,409.08 719.68,409.12 720.65,409.16 721.63,409.20 722.60,409.24 723.57,409.28 724.55,409.31 725.52,409.35 726.50,409.38 727.47,409.42 728.44,409.45 729.42,409.49 730.39,409.52 731.36,409.56 732.34,409.59 733.31,409.62 734.28,409.65 735.26,409.68 736.23,409.72 737.20,409.75 738.18,409.78 739.15,409.81 740.12,409.84 741.10,409.87 742.07,409.89 743.05,409.92 744.02,409.95 744.99,409.98 745.97,410.01 746.94,410.03 747.91,410.06 748.89,410.08 749.86,410.11 750.83,410.14 751.81,410.16 752.78,410.19 753.75,410.21 754.73,410.23 755.70,410.26 756.68,410.28 757.65,410.30 758.62,410.33 759.60,410.35 760.57,410.37 761.54,410.39 762.52,410.41 763.49,410.43 764.46,410.45 765.44,410.47 766.41,410.49 767.38,410.51 768.36,410.53 769.33,410.55 770.31,410.57 771.28,410.59 772.25,410.61 773.23,410.63 774.20,410.64 775.17,410.66 776.15,410.68 777.12,410.70 778.09,410.71 779.07,410.73 780.04,410.75 781.01,410.76 781.99,410.78 782.96,410.79 783.94,410.81 784.91,410.82 785.88,410.84 786.86,410.85 787.83,410.87 788.80,410.88 789.78,410.90 790.75,410.91 791.72,410.92 792.70,410.94 793.67,410.95 794.64,410.96 795.62,410.98 796.59,410.99 797.56,411.00 798.54,411.01 799.51,411.03 800.49,411.04 801.46,411.05 802.43,411.06 803.41,411.07 804.38,411.08 805.35,411.09 806.33,411.10 807.30,411.11 808.27,411.13 809.25,411.14 810.22,411.15 811.19,411.16 812.17,411.16 813.14,411.17 814.12,411.18 815.09,411.19 816.06,411.20 817.04,411.21 818.01,411.22 818.98,411.23 819.96,411.24 820.93,411.25 821.90,411.25 822.88,411.26 823.85,411.27 824.82,411.28 825.80,411.29 826.77,411.29 827.75,411.30 828.72,411.31 829.69,411.32 830.67,411.32 831.64,411.33 832.61,411.34 833.59,411.34 834.56,411.35 835.53,411.36 836.51,411.36 837.48,411.37 838.45,411.38 839.43,411.38 840.40,411.39 841.37,411.39 842.35,411.40 843.32,411.40 844.30,411.41 845.27,411.42 846.24,411.42 847.22,411.43 848.19,411.43 849.16,411.44 850.14,411.44 851.11,411.45 852.08,411.45 853.06,411.45 854.03,411.46 855.00,411.46 855.98,411.47 856.95,411.47 857.93,411.48 858.90,411.48 859.87,411.48 860.85,411.49 861.82,411.49 862.79,411.49 863.77,411.50 864.74,411.50 865.71,411.50 866.69,411.51 867.66,411.51 868.63,411.51 869.61,411.51 870.58,411.52 871.56,411.52 872.53,411.52 873.50,411.52 874.48,411.51 875.45,411.51 876.42,411.34"/>
<polyline fill="none" stroke="#d84315" stroke-width="2.5" stroke-dasharray="7 5" points="97.58,406.73 98.55,403.46 99.52,403.01 100.50,402.71 101.47,402.47 102.44,402.28 103.42,402.10 104.39,401.95 105.37,401.80 106.34,401.67 107.31,401.54 108.29,401.41 109.26,401.30 110.23,401.18 111.21,401.07 112.18,400.96 113.15,400.85 114.13,400.75 115.10,400.65 116.07,400.54 117.05,400.44 118.02,400.34 119.00,400.25 119.97,400.15 120.94,400.05 121.92,399.96 122.89,399.86 123.86,399.77 124.84,399.68 125.81,399.58 126.78,399.49 127.76,399.40 128.73,399.30 129.70,399.21 130.68,399.12 131.65,399.03 132.62,398.94 133.60,398.84 134.57,398.75 135.55,398.66 136.52,398.57 137.49,398.48 138.47,398.39 139.44,398.30 140.41,398.21 141.39,398.11 142.36,398.02 143.33,397.93 144.31,397.84 145.28,397.75 146.25,397.66 147.23,397.57 148.20,397.47 149.18,397.38 150.15,397.29 151.12,397.20 152.10,397.10 153.07,397.01 154.04,396.92 155.02,396.83 155.99,396.73 156.96,396.64 157.94,396.55 158.91,396.45 159.88,396.36 160.86,396.26 161.83,396.17 162.81,396.07 163.78,395.98 164.75,395.88 165.73,395.79 166.70,395.69 167.67,395.60 168.65,395.50 169.62,395.40 170.59,395.31 171.57,395.21 172.54,395.11 173.51,395.02 174.49,394.92 175.46,394.82 176.44,394.72 177.41,394.62 178.38,394.53 179.36,394.43 180.33,394.33 181.30,394.23 182.28,394.13 183.25,394.03 184.22,393.93 185.20,393.83 186.17,393.72 187.14,393.62 188.12,393.52 189.09,393.42 190.06,393.32 191.04,393.21 192.01,393.11 192.99,393.01 193.96,392.90 194.93,392.80 195.91,392.70 196.88,392.59 197.85,392.49 198.83,392.38 199.80,392.28 200.77,392.17 201.75,392.07 202.72,391.96 203.69,391.85 204.67,391.74 205.64,391.64 206.62,391.53 207.59,391.42 208.56,391.31 209.54,391.20 210.51,391.10 211.48,390.99 212.46,390.88 213.43,390.77 214.40,390.66 215.38,390.55 216.35,390.43 217.32,390.32 218.30,390.21 219.27,390.10 220.25,389.99 221.22,389.87 222.19,389.76 223.17,389.65 224.14,389.53 225.11,389.42 226.09,389.30 227.06,389.19 228.03,389.07 229.01,388.96 229.98,388.84 230.95,388.73 231.93,388.61 232.90,388.49 233.87,388.37 234.85,388.26 235.82,388.14 236.80,388.02 237.77,387.90 238.74,387.78 239.72,387.66 240.69,387.54 241.66,387.42 242.64,387.30 243.61,387.18 244.58,387.06 245.56,386.94 246.53,386.82 247.50,386.69 248.48,386.57 249.45,386.45 250.43,386.32 251.40,386.20 252.37,386.08 253.35,385.95 254.32,385.83 255.29,385.70 256.27,385.58 257.24,385.45 258.21,385.32 259.19,385.20 260.16,385.07 261.13,384.94 262.11,384.81 263.08,384.68 264.06,384.56 265.03,384.43 266.00,384.30 266.98,384.17 267.95,384.04 268.92,383.91 269.90,383.78 270.87,383.65 271.84,383.51 272.82,383.38 273.79,383.25 274.76,383.12 275.74,382.98 276.71,382.85 277.69,382.72 278.66,382.58 279.63,382.45 280.61,382.31 281.58,382.18 282.55,382.04 283.53,381.90 284.50,381.77 285.47,381.63 286.45,381.49 287.42,381.36 288.39,381.22 289.37,381.08 290.34,380.94 291.31,380.80 292.29,380.66 293.26,380.52 294.24,380.38 295.21,380.24 296.18,380.10 297.16,379.96 298.13,379.82 299.10,379.68 300.08,379.53 301.05,379.39 302.02,379.25 303.00,379.10 303.97,378.96 304.94,378.82 305.92,378.67 306.89,378.53 307.87,378.38 308.84,378.24 309.81,378.09 310.79,377.94 311.76,377.80 312.73,377.65 313.71,377.50 314.68,377.35 315.65,377.21 316.63,377.06 317.60,376.91 318.57,376.76 319.55,376.61 320.52,376.46 321.50,376.31 322.47,376.16 323.44,376.01 324.42,375.85 325.39,375.70 326.36,375.55 327.34,375.40 328.31,375.24 329.28,375.09 330.26,374.94 331.23,374.78 332.20,374.63 333.18,374.47 334.15,374.32 335.12,374.16 336.10,374.01 337.07,373.85 338.05,373.69 339.02,373.54 339.99,373.38 340.97,373.22 341.94,373.06 342.91,372.90 343.89,372.74 344.86,372.59 345.83,372.43 346.81,372.27 347.78,372.11 348.75,371.94 349.73,371.78 350.70,371.62 351.68,371.46 352.65,371.30 353.62,371.14 354.60,370.97 355.57,370.81 356.54,370.65 357.52,370.48 358.49,370.32 359.46,370.15 360.44,369.99 361.41,369.82 362.38,369.66 363.36,369.49 364.33,369.33 365.31,369.16 366.28,368.99 367.25,368.83 368.23,368.66 369.20,368.49 370.17,368.32 371.15,368.15 372.12,367.99 373.09,367.82 374.07,367.65 375.04,367.48 376.01,367.31 376.99,367.14 377.96,366.97 378.94,366.79 379.91,366.62 380.88,366.45 381.86,366.28 382.83,366.11 383.80,365.93 384.78,365.76 385.75,365.59 386.72,365.41 387.70,365.24 388.67,365.06 389.64,364.89 390.62,364.71 391.59,364.54 392.56,364.36 393.54,364.19 394.51,364.01 395.49,363.83 396.46,363.66 397.43,363.48 398.41,363.30 399.38,363.12 400.35,362.95 401.33,362.77 402.30,362.59 403.27,362.41 404.25,362.23 405.22,362.05 406.19,361.87 407.17,361.69 408.14,361.51 409.12,361.33 410.09,361.15 411.06,360.96 412.04,360.78 413.01,360.60 413.98,360.42 414.96,360.24 415.93,360.05 416.90,359.87 417.88,359.69 418.85,359.50 419.82,359.32 420.80,359.13 421.77,358.95 422.75,358.76 423.72,358.58 424.69,358.39 425.67,358.21 426.64,358.02 427.61,357.83 428.59,357.65 429.56,357.46 430.53,357.27 431.51,357.09 432.48,356.90 433.45,356.71 434.43,356.52 435.40,356.33 436.37,356.14 437.35,355.96 438.32,355.77 439.30,355.58 440.27,355.39 441.24,355.20 442.22,355.01 443.19,354.82 444.16,354.63 445.14,354.43 446.11,354.24 447.08,354.05 448.06,353.86 449.03,353.67 450.00,353.48 450.98,353.28 451.95,353.09 452.93,352.90 453.90,352.70 454.87,352.51 455.85,352.32 456.82,352.12 457.79,351.93 458.77,351.73 459.74,351.54 460.71,351.34 461.69,351.15 462.66,350.95 463.63,350.76 464.61,350.56 465.58,350.37 466.56,350.17 467.53,349.98 468.50,349.78 469.48,349.58 470.45,349.38 471.42,349.19 472.40,348.99 473.37,348.79 474.34,348.60 475.32,348.40 476.29,348.20 477.26,348.00 478.24,347.80 479.21,347.60 480.19,347.40 481.16,347.21 482.13,347.01 483.11,346.81 484.08,346.61 485.05,346.41 486.03,346.21 487.00,346.01 487.97,345.81 488.95,345.61 489.92,345.41 490.89,345.20 491.87,345.00 492.84,344.80 493.81,344.60 494.79,344.40 495.76,344.20 496.74,344.00 497.71,343.79 498.68,343.59 499.66,343.39 500.63,343.19 501.60,342.98 502.58,342.78 503.55,342.58 504.52,342.38 505.50,342.17 506.47,341.97 507.44,341.77 508.42,341.56 509.39,341.36 510.37,341.15 511.34,340.95 512.31,340.75 513.29,340.54 514.26,340.34 515.23,340.13 516.21,339.93 517.18,339.72 518.15,339.52 519.13,339.31 520.10,339.11 521.07,338.90 522.05,338.70 523.02,338.49 524.00,338.29 524.97,338.08 525.94,337.88 526.92,337.67 527.89,337.47 528.86,337.26 529.84,337.05 530.81,336.85 531.78,336.64 532.76,336.43 533.73,336.23 534.70,336.02 535.68,335.82 536.65,335.61 537.62,335.40 538.60,335.20 539.57,334.99 540.55,334.78 541.52,334.57 542.49,334.37 543.47,334.16 544.44,333.95 545.41,333.75 546.39,333.54 547.36,333.33 548.33,333.12 549.31,332.92 550.28,332.71 551.25,332.50 552.23,332.29 553.20,332.09 554.18,331.88 555.15,331.67 556.12,331.46 557.10,331.26 558.07,331.05 559.04,330.84 560.02,330.63 560.99,330.42 561.96,330.22 562.94,330.01 563.91,329.80 564.88,329.59 565.86,329.38 566.83,329.18 567.81,328.97 568.78,328.76 569.75,328.55 570.73,328.34 571.70,328.14 572.67,327.93 573.65,327.72 574.62,327.51 575.59,327.30 576.57,327.10 577.54,326.89 578.51,326.68 579.49,326.47 580.46,326.26 581.44,326.06 582.41,325.85 583.38,325.64 584.36,325.43 585.33,325.22 586.30,325.02 587.28,324.81 588.25,324.60 589.22,324.39 590.20,324.19 591.17,323.98 592.14,323.77 593.12,323.56 594.09,323.35 595.06,323.15 596.04,322.94 597.01,322.73 597.99,322.53 598.96,322.32 599.93,322.11 600.91,321.90 601.88,321.70 602.85,321.49 603.83,321.28 604.80,321.08 605.77,320.87 606.75,320.66 607.72,320.45 608.69,320.25 609.67,320.04 610.64,319.83 611.62,319.63 612.59,319.42 613.56,319.22 614.54,319.01 615.51,318.80 616.48,318.60 617.46,318.39 618.43,318.19 619.40,317.98 620.38,317.77 621.35,317.57 622.32,317.36 623.30,317.16 624.27,316.95 625.25,316.75 626.22,316.54 627.19,316.34 628.17,316.13 629.14,315.93 630.11,315.72 631.09,315.52 632.06,315.31 633.03,315.11 634.01,314.90 634.98,314.70 635.95,314.50 636.93,314.29 637.90,314.09 638.87,313.89 639.85,313.68 640.82,313.48 641.80,313.28 642.77,313.07 643.74,312.87 644.72,312.67 645.69,312.46 646.66,312.26 647.64,312.06 648.61,311.86 649.58,311.65 650.56,311.45 651.53,311.25 652.50,311.05 653.48,310.85 654.45,310.65 655.43,310.44 656.40,310.24 657.37,310.04 658.35,309.84 659.32,309.64 660.29,309.44 661.27,309.24 662.24,309.04 663.21,308.84 664.19,308.64 665.16,308.44 666.13,308.24 667.11,308.04 668.08,307.84 669.06,307.64 670.03,307.44 671.00,307.24 671.98,307.04 672.95,306.85 673.92,306.65 674.90,306.45 675.87,306.25 676.84,306.05 677.82,305.85 678.79,305.66 679.76,305.46 680.74,305.26 681.71,305.06 682.69,304.87 683.66,304.67 684.63,304.47 685.61,304.28 686.58,304.08 687.55,303.88 688.53,303.69 689.50,303.49 690.47,303.30 691.45,303.10 692.42,302.91 693.39,302.71 694.37,302.52 695.34,302.32 696.31,302.13 697.29,301.93 698.26,301.74 699.24,301.54 700.21,301.35 701.18,301.15 702.16,300.96 703.13,300.77 704.10,300.57 705.08,300.38 706.05,300.19 707.02,299.99 708.00,299.80 708.97,299.61 709.94,299.41 710.92,299.22 711.89,299.03 712.87,298.84 713.84,298.64 714.81,298.45 715.79,298.26 716.76,298.07 717.73,297.88 718.71,297.69 719.68,297.49 720.65,297.30 721.63,297.11 722.60,296.92 723.57,296.73 724.55,296.54 725.52,296.35 726.50,296.16 727.47,295.97 728.44,295.78 729.42,295.59 730.39,295.39 731.36,295.20 732.34,295.01 733.31,294.82 734.28,294.63 735.26,294.44 736.23,294.25 737.20,294.06 738.18,293.87 739.15,293.68 740.12,293.49 741.10,293.31 742.07,293.12 743.05,292.93 744.02,292.74 744.99,292.55 745.97,292.36 746.94,292.17 747.91,291.98 748.89,291.79 749.86,291.60 750.83,291.41 751.81,291.22 752.78,291.03 753.75,290.84 754.73,290.65 755.70,290.46 756.68,290.27 757.65,290.08 758.62,289.89 759.60,289.70 760.57,289.51 761.54,289.32 762.52,289.12 763.49,288.93 764.46,288.74 765.44,288.55 766.41,288.36 767.38,288.17 768.36,287.97 769.33,287.78 770.31,287.59 771.28,287.40 772.25,287.20 773.23,287.01 774.20,286.82 775.17,286.62 776.15,286.43 777.12,286.23 778.09,286.04 779.07,285.84 780.04,285.65 781.01,285.45 781.99,285.25 782.96,285.05 783.94,284.86 784.91,284.66 785.88,284.46 786.86,284.26 787.83,284.06 788.80,283.86 789.78,283.65 790.75,283.45 791.72,283.25 792.70,283.04 793.67,282.84 794.64,282.63 795.62,282.43 796.59,282.22 797.56,282.01 798.54,281.80 799.51,281.59 800.49,281.38 801.46,281.17 802.43,280.95 803.41,280.74 804.38,280.52 805.35,280.30 806.33,280.08 807.30,279.86 808.27,279.64 809.25,279.42 810.22,279.19 811.19,278.96 812.17,278.73 813.14,278.50 814.12,278.27 815.09,278.03 816.06,277.80 817.04,277.56 818.01,277.32 818.98,277.07 819.96,276.82 820.93,276.57 821.90,276.32 822.88,276.07 823.85,275.81 824.82,275.55 825.80,275.28 826.77,275.01 827.75,274.74 828.72,274.46 829.69,274.18 830.67,273.90 831.64,273.61 832.61,273.31 833.59,273.02 834.56,272.71 835.53,272.40 836.51,272.08 837.48,271.76 838.45,271.43 839.43,271.09 840.40,270.75 841.37,270.40 842.35,270.04 843.32,269.67 844.30,269.29 845.27,268.90 846.24,268.50 847.22,268.09 848.19,267.66 849.16,267.22 850.14,266.77 851.11,266.30 852.08,265.81 853.06,265.30 854.03,264.77 855.00,264.22 855.98,263.64 856.95,263.04 857.93,262.41 858.90,261.74 859.87,261.03 860.85,260.28 861.82,259.47 862.79,258.62 863.77,257.69 864.74,256.69 865.71,255.60 866.69,254.40 867.66,253.06 868.63,251.56 869.61,249.84 870.58,247.84 871.56,245.45 872.53,242.48 873.50,238.58 874.48,232.94 875.45,222.89 876.42,80.48"/>
<line x1="94" y1="72" x2="122" y2="72" stroke="#00897b" stroke-width="3"/>
<text x="130.00" y="76.00" font-size="12" font-family="Arial, Helvetica, sans-serif" text-anchor="start" fill="#263238">case_I_forward</text>
<line x1="94" y1="94" x2="122" y2="94" stroke="#d84315" stroke-width="3" stroke-dasharray="7 5"/>
<text x="130.00" y="98.00" font-size="12" font-family="Arial, Helvetica, sans-serif" text-anchor="start" fill="#263238">case_III_backward</text>
<text x="487.00" y="492.00" font-size="14" font-family="Arial, Helvetica, sans-serif" text-anchor="middle" fill="#263238">q = Delta k_x / k</text>
<text x="22.00" y="246.00" font-size="14" font-family="Arial, Helvetica, sans-serif" text-anchor="middle" fill="#263238" transform="rotate(-90 22.00 246.00)">effective density</text>
</svg>
