<svg xmlns="http://www.w3.org/2000/svg" width="920" height="520" viewBox="0 0 920 520">
<rect width="100%" height="100%" fill="#ffffff"/>
<text x="460.00" y="28.00" font-size="20" font-family="Arial, Helvetica, sans-serif" text-anchor="middle" fill="#17212b">Chapman Complex Raw Recoil Distribution</text>
<rect x="82" y="54" width="810" height="384" fill="#fafafa" stroke="#cfd8dc"/>
<line x1="82.00" y1="54" x2="82.00" y2="438" stroke="#eceff1"/>
<text x="82.00" y="462.00" font-size="11" font-family="Arial, Helvetica, sans-serif" text-anchor="middle" fill="#263238">-0.04</text>
<line x1="244.00" y1="54" x2="244.00" y2="438" stroke="#eceff1"/>
<text x="244.00" y="462.00" font-size="11" font-family="Arial, Helvetica, sans-serif" text-anchor="middle" fill="#263238">0.38</text>
<line x1="406.00" y1="54" x2="406.00" y2="438" stroke="#eceff1"/>
<text x="406.00" y="462.00" font-size="11" font-family="Arial, Helvetica, sans-serif" text-anchor="middle" fill="#263238">0.79</text>
<line x1="568.00" y1="54" x2="568.00" y2="438" stroke="#eceff1"/>
<text x="568.00" y="462.00" font-size="11" font-family="Arial, Helvetica, sans-serif" text-anchor="middle" fill="#263238">1.2</text>
<line x1="730.00" y1="54" x2="730.00" y2="438" stroke="#eceff1"/>
<text x="730.00" y="462.00" font-size="11" font-family="Arial, Helvetica, sans-serif" text-anchor="middle" fill="#263238">1.6</text>
<line x1="892.00" y1="54" x2="892.00" y2="438" stroke="#eceff1"/>
<text x="892.00" y="462.00" font-size="11" font-family="Arial, Helvetica, sans-serif" text-anchor="middle" fill="#263238">2</text>
<line x1="82" y1="438.00" x2="892" y2="438.00" stroke="#eceff1"/>
<text x="72.00" y="442.00" font-size="11" font-family="Arial, Helvetica, sans-serif" text-anchor="end" fill="#263238">0.086</text>
<line x1="82" y1="361.20" x2="892" y2="361.20" stroke="#eceff1"/>
<text x="72.00" y="365.20" font-size="11" font-family="Arial, Helvetica, sans-serif" text-anchor="end" fill="#263238">0.38</text>
<line x1="82" y1="284.40" x2="892" y2="284.40" stroke="#eceff1"/>
<text x="72.00" y="288.40" font-size="11" font-family="Arial, Helvetica, sans-serif" text-anchor="end" fill="#263238">0.68</text>
<line x1="82" y1="207.60" x2="892" y2="207.60" stroke="#eceff1"/>
<text x="72.00" y="211.60" font-size="11" font-family="Arial, Helvetica, sans-serif" text-anchor="end" fill="#263238">0.97</text>
<line x1="82" y1="130.80" x2="892" y2="130.80" stroke="#eceff1"/>
<text x="72.00" y="134.80" font-size="11" font-family="Arial, Helvetica, sans-serif" text-anchor="end" fill="#263238">1.3</text>
<line x1="82" y1="54.00" x2="892" y2="54.00" stroke="#eceff1"/>
<text x="72.00" y="58.00" font-size="11" font-family="Arial, Helvetica, sans-serif" text-anchor="end" fill="#263238">1.6</text>
<polyline fill="none" stroke="#2962ff" stroke-width="2.5" points="97.58,411.52 98.55,380.07 99.52,376.09 100.50,373.66 101.47,371.90 102.44,370.51 103.42,369.35 104.39,368.36 105.37,367.49 106.34,366.71 107.31,366.01 108.29,365.37 109.26,364.79 110.23,364.24 111.21,363.73 112.18,363.26 113.15,362.81 114.13,362.39 115.10,361.99 116.07,361.61 117.05,361.24 118.02,360.89 119.00,360.56 119.97,360.24 120.94,359.93 121.92,359.64 122.89,359.35 123.86,359.08 124.84,358.81 125.81,358.55 126.78,358.30 127.76,358.05 128.73,357.82 129.70,357.59 130.68,357.36 131.65,357.14 132.62,356.93 133.60,356.72 134.57,356.52 135.55,356.32 136.52,356.12 137.49,355.93 138.47,355.75 139.44,355.56 140.41,355.39 141.39,355.21 142.36,355.04 143.33,354.87 144.31,354.70 145.28,354.54 146.25,354.38 147.23,354.22 148.20,354.07 149.18,353.91 150.15,353.76 151.12,353.62 152.10,353.47 153.07,353.33 154.04,353.19 155.02,353.05 155.99,352.91 156.96,352.78 157.94,352.64 158.91,352.51 159.88,352.38 160.86,352.25 161.83,352.13 162.81,352.00 163.78,351.88 164.75,351.75 165.73,351.63 166.70,351.51 167.67,351.40 168.65,351.28 169.62,351.16 170.59,351.05 171.57,350.94 172.54,350.83 173.51,350.72 174.49,350.61 175.46,350.50 176.44,350.39 177.41,350.28 178.38,350.18 179.36,350.08 180.33,349.97 181.30,349.87 182.28,349.77 183.25,349.67 184.22,349.57 185.20,349.47 186.17,349.37 187.14,349.28 188.12,349.18 189.09,349.08 190.06,348.99 191.04,348.90 192.01,348.80 192.99,348.71 193.96,348.62 194.93,348.53 195.91,348.44 196.88,348.35 197.85,348.26 198.83,348.17 199.80,348.08 200.77,348.00 201.75,347.91 202.72,347.82 203.69,347.74 204.67,347.66 205.64,347.57 206.62,347.49 207.59,347.40 208.56,347.32 209.54,347.24 210.51,347.16 211.48,347.08 212.46,347.00 213.43,346.92 214.40,346.84 215.38,346.76 216.35,346.68 217.32,346.60 218.30,346.53 219.27,346.45 220.25,346.37 221.22,346.30 222.19,346.22 223.17,346.15 224.14,346.07 225.11,346.00 226.09,345.92 227.06,345.85 228.03,345.78 229.01,345.70 229.98,345.63 230.95,345.56 231.93,345.49 232.90,345.41 233.87,345.34 234.85,345.27 235.82,345.20 236.80,345.13 237.77,345.06 238.74,344.99 239.72,344.92 240.69,344.85 241.66,344.79 242.64,344.72 243.61,344.65 244.58,344.58 245.56,344.51 246.53,344.45 247.50,344.38 248.48,344.31 249.45,344.25 250.43,344.18 251.40,344.12 252.37,344.05 253.35,343.99 254.32,343.92 255.29,343.86 256.27,343.79 257.24,343.73 258.21,343.66 259.19,343.60 260.16,343.54 261.13,343.47 262.11,343.41 263.08,343.35 264.06,343.29 265.03,343.22 266.00,343.16 266.98,343.10 267.95,343.04 268.92,342.98 269.90,342.91 270.87,342.85 271.84,342.79 272.82,342.73 273.79,342.67 274.76,342.61 275.74,342.55 276.71,342.49 277.69,342.43 278.66,342.37 279.63,342.31 280.61,342.25 281.58,342.20 282.55,342.14 283.53,342.08 284.50,342.02 285.47,341.96 286.45,341.90 287.42,341.85 288.39,341.79 289.37,341.73 290.34,341.67 291.31,341.62 292.29,341.56 293.26,341.50 294.24,341.45 295.21,341.39 296.18,341.33 297.16,341.28 298.13,341.22 299.10,341.16 300.08,341.11 301.05,341.05 302.02,341.00 303.00,340.94 303.97,340.89 304.94,340.83 305.92,340.78 306.89,340.72 307.87,340.67 308.84,340.61 309.81,340.56 310.79,340.50 311.76,340.45 312.73,340.39 313.71,340.34 314.68,340.29 315.65,340.23 316.63,340.18 317.60,340.12 318.57,340.07 319.55,340.02 320.52,339.96 321.50,339.91 322.47,339.86 323.44,339.80 324.42,339.75 325.39,339.70 326.36,339.65 327.34,339.59 328.31,339.54 329.28,339.49 330.26,339.44 331.23,339.38 332.20,339.33 333.18,339.28 334.15,339.23 335.12,339.18 336.10,339.12 337.07,339.07 338.05,339.02 339.02,338.97 339.99,338.92 340.97,338.87 341.94,338.82 342.91,338.76 343.89,338.71 344.86,338.66 345.83,338.61 346.81,338.56 347.78,338.51 348.75,338.46 349.73,338.41 350.70,338.36 351.68,338.31 352.65,338.26 353.62,338.21 354.60,338.16 355.57,338.11 356.54,338.06 357.52,338.01 358.49,337.96 359.46,337.91 360.44,337.86 361.41,337.81 362.38,337.76 363.36,337.71 364.33,337.66 365.31,337.61 366.28,337.56 367.25,337.51 368.23,337.46 369.20,337.41 370.17,337.36 371.15,337.31 372.12,337.26 373.09,337.21 374.07,337.17 375.04,337.12 376.01,337.07 376.99,337.02 377.96,336.97 378.94,336.92 379.91,336.87 380.88,336.82 381.86,336.77 382.83,336.73 383.80,336.68 384.78,336.63 385.75,336.58 386.72,336.53 387.70,336.48 388.67,336.43 389.64,336.39 390.62,336.34 391.59,336.29 392.56,336.24 393.54,336.19 394.51,336.15 395.49,336.10 396.46,336.05 397.43,336.00 398.41,335.95 399.38,335.90 400.35,335.86 401.33,335.81 402.30,335.76 403.27,335.71 404.25,335.67 405.22,335.62 406.19,335.57 407.17,335.52 408.14,335.47 409.12,335.43 410.09,335.38 411.06,335.33 412.04,335.28 413.01,335.24 413.98,335.19 414.96,335.14 415.93,335.09 416.90,335.05 417.88,335.00 418.85,334.95 419.82,334.90 420.80,334.86 421.77,334.81 422.75,334.76 423.72,334.71 424.69,334.67 425.67,334.62 426.64,334.57 427.61,334.52 428.59,334.48 429.56,334.43 430.53,334.38 431.51,334.33 432.48,334.29 433.45,334.24 434.43,334.19 435.40,334.14 436.37,334.10 437.35,334.05 438.32,334.00 439.30,333.96 440.27,333.91 441.24,333.86 442.22,333.81 443.19,333.77 444.16,333.72 445.14,333.67 446.11,333.62 447.08,333.58 448.06,333.53 449.03,333.48 450.00,333.44 450.98,333.39 451.95,333.34 452.93,333.29 453.90,333.25 454.87,333.20 455.85,333.15 456.82,333.10 457.79,333.06 458.77,333.01 459.74,332.96 460.71,332.92 461.69,332.87 462.66,332.82 463.63,332.77 464.61,332.73 465.58,332.68 466.56,332.63 467.53,332.58 468.50,332.54 469.48,332.49 470.45,332.44 471.42,332.39 472.40,332.35 473.37,332.30 474.34,332.25 475.32,332.20 476.29,332.16 477.26,332.11 478.24,332.06 479.21,332.01 480.19,331.97 481.16,331.92 482.13,331.87 483.11,331.82 484.08,331.78 485.05,331.73 486.03,331.68 487.00,331.63 487.97,331.58 488.95,331.54 489.92,331.49 490.89,331.44 491.87,331.39 492.84,331.35 493.81,331.30 494.79,331.25 495.76,331.20 496.74,331.15 497.71,331.11 498.68,331.06 499.66,331.01 500.63,330.96 501.60,330.91 502.58,330.86 503.55,330.82 504.52,330.77 505.50,330.72 506.47,330.67 507.44,330.62 508.42,330.57 509.39,330.53 510.37,330.48 511.34,330.43 512.31,330.38 513.29,330.33 514.26,330.28 515.23,330.23 516.21,330.18 517.18,330.14 518.15,330.09 519.13,330.04 520.10,329.99 521.07,329.94 522.05,329.89 523.02,329.84 524.00,329.79 524.97,329.74 525.94,329.69 526.92,329.65 527.89,329.60 528.86,329.55 529.84,329.50 530.81,329.45 531.78,329.40 532.76,329.35 533.73,329.30 534.70,329.25 535.68,329.20 536.65,329.15 537.62,329.10 538.60,329.05 539.57,329.00 540.55,328.95 541.52,328.90 542.49,328.85 543.47,328.80 544.44,328.75 545.41,328.70 546.39,328.65 547.36,328.60 548.33,328.55 549.31,328.50 550.28,328.44 551.25,328.39 552.23,328.34 553.20,328.29 554.18,328.24 555.15,328.19 556.12,328.14 557.10,328.09 558.07,328.04 559.04,327.98 560.02,327.93 560.99,327.88 561.96,327.83 562.94,327.78 563.91,327.73 564.88,327.67 565.86,327.62 566.83,327.57 567.81,327.52 568.78,327.47 569.75,327.41 570.73,327.36 571.70,327.31 572.67,327.26 573.65,327.20 574.62,327.15 575.59,327.10 576.57,327.04 577.54,326.99 578.51,326.94 579.49,326.89 580.46,326.83 581.44,326.78 582.41,326.73 583.38,326.67 584.36,326.62 585.33,326.56 586.30,326.51 587.28,326.46 588.25,326.40 589.22,326.35 590.20,326.29 591.17,326.24 592.14,326.18 593.12,326.13 594.09,326.07 595.06,326.02 596.04,325.96 597.01,325.91 597.99,325.85 598.96,325.80 599.93,325.74 600.91,325.69 601.88,325.63 602.85,325.58 603.83,325.52 604.80,325.46 605.77,325.41 606.75,325.35 607.72,325.30 608.69,325.24 609.67,325.18 610.64,325.13 611.62,325.07 612.59,325.01 613.56,324.95 614.54,324.90 615.51,324.84 616.48,324.78 617.46,324.72 618.43,324.67 619.40,324.61 620.38,324.55 621.35,324.49 622.32,324.43 623.30,324.37 624.27,324.32 625.25,324.26 626.22,324.20 627.19,324.14 628.17,324.08 629.14,324.02 630.11,323.96 631.09,323.90 632.06,323.84 633.03,323.78 634.01,323.72 634.98,323.66 635.95,323.60 636.93,323.54 637.90,323.47 638.87,323.41 639.85,323.35 640.82,323.29 641.80,323.23 642.77,323.17 643.74,323.10 644.72,323.04 645.69,322.98 646.66,322.92 647.64,322.85 648.61,322.79 649.58,322.73 650.56,322.66 651.53,322.60 652.50,322.54 653.48,322.47 654.45,322.41 655.43,322.34 656.40,322.28 657.37,322.21 658.35,322.15 659.32,322.08 660.29,322.02 661.27,321.95 662.24,321.88 663.21,321.82 664.19,321.75 665.16,321.68 666.13,321.62 667.11,321.55 668.08,321.48 669.06,321.42 670.03,321.35 671.00,321.28 671.98,321.21 672.95,321.14 673.92,321.07 674.90,321.00 675.87,320.93 676.84,320.86 677.82,320.79 678.79,320.72 679.76,320.65 680.74,320.58 681.71,320.51 682.69,320.44 683.66,320.37 684.63,320.30 685.61,320.22 686.58,320.15 687.55,320.08 688.53,320.00 689.50,319.93 690.47,319.86 691.45,319.78 692.42,319.71 693.39,319.63 694.37,319.56 695.34,319.48 696.31,319.41 697.29,319.33 698.26,319.25 699.24,319.18 700.21,319.10 701.18,319.02 702.16,318.94 703.13,318.87 704.10,318.79 705.08,318.71 706.05,318.63 707.02,318.55 708.00,318.47 708.97,318.39 709.94,318.31 710.92,318.23 711.89,318.14 712.87,318.06 713.84,317.98 714.81,317.90 715.79,317.81 716.76,317.73 717.73,317.64 718.71,317.56 719.68,317.47 720.65,317.39 721.63,317.30 722.60,317.22 723.57,317.13 724.55,317.04 725.52,316.95 726.50,316.86 727.47,316.78 728.44,316.69 729.42,316.60 730.39,316.50 731.36,316.41 732.34,316.32 733.31,316.23 734.28,316.14 735.26,316.04 736.23,315.95 737.20,315.85 738.18,315.76 739.15,315.66 740.12,315.57 741.10,315.47 742.07,315.37 743.05,315.27 744.02,315.17 744.99,315.07 745.97,314.97 746.94,314.87 747.91,314.77 748.89,314.67 749.86,314.57 750.83,314.46 751.81,314.36 752.78,314.25 753.75,314.15 754.73,314.04 755.70,313.93 756.68,313.82 757.65,313.71 758.62,313.60 759.60,313.49 760.57,313.38 761.54,313.27 762.52,313.15 763.49,313.04 764.46,312.92 765.44,312.81 766.41,312.69 767.38,312.57 768.36,312.45 769.33,312.33 770.31,312.21 771.28,312.09 772.25,311.96 773.23,311.84 774.20,311.71 775.17,311.59 776.15,311.46 777.12,311.33 778.09,311.20 779.07,311.07 780.04,310.93 781.01,310.80 781.99,310.66 782.96,310.53 783.94,310.39 784.91,310.25 785.88,310.11 786.86,309.96 787.83,309.82 788.80,309.67 789.78,309.53 790.75,309.38 791.72,309.23 792.70,309.07 793.67,308.92 794.64,308.76 795.62,308.60 796.59,308.45 797.56,308.28 798.54,308.12 799.51,307.95 800.49,307.79 801.46,307.62 802.43,307.44 803.41,307.27 804.38,307.09 805.35,306.91 806.33,306.73 807.30,306.55 808.27,306.36 809.25,306.17 810.22,305.98 811.19,305.79 812.17,305.59 813.14,305.39 814.12,305.18 815.09,304.97 816.06,304.76 817.04,304.55 818.01,304.33 818.98,304.11 819.96,303.89 820.93,303.66 821.90,303.42 822.88,303.19 823.85,302.94 824.82,302.70 825.80,302.44 826.77,302.19 827.75,301.93 828.72,301.66 829.69,301.39 830.67,301.11 831.64,300.82 832.61,300.53 833.59,300.23 834.56,299.93 835.53,299.62 836.51,299.30 837.48,298.97 838.45,298.63 839.43,298.28 840.40,297.93 841.37,297.56 842.35,297.19 843.32,296.80 844.30,296.40 845.27,295.99 846.24,295.56 847.22,295.12 848.19,294.66 849.16,294.19 850.14,293.70 851.11,293.18 852.08,292.65 853.06,292.10 854.03,291.52 855.00,290.91 855.98,290.27 856.95,289.60 857.93,288.89 858.90,288.15 859.87,287.35 860.85,286.51 861.82,285.61 862.79,284.64 863.77,283.60 864.74,282.46 865.71,281.22 866.69,279.86 867.66,278.34 868.63,276.62 869.61,274.66 870.58,272.38 871.56,269.64 872.53,266.24 873.50,261.77 874.48,255.31 875.45,243.78 876.42,80.48"/>
<line x1="94" y1="72" x2="122" y2="72" stroke="#2962ff" stroke-width="3"/>
<text x="130.00" y="76.00" font-size="12" font-family="Arial, Helvetica, sans-serif" text-anchor="start" fill="#263238">complex-fit raw P(q)</text>
<text x="487.00" y="492.00" font-size="14" font-family="Arial, Helvetica, sans-serif" text-anchor="middle" fill="#263238">q = Delta k_x / k</text>
<text x="22.00" y="246.00" font-size="14" font-family="Arial, Helvetica, sans-serif" text-anchor="middle" fill="#263238" transform="rotate(-90 22.00 246.00)">density</text>
</svg>
