<svg xmlns="http://www.w3.org/2000/svg" width="920" height="520" viewBox="0 0 920 520">
<rect width="100%" height="100%" fill="#ffffff"/>
<text x="460.00" y="28.00" font-size="20" font-family="Arial, Helvetica, sans-serif" text-anchor="middle" fill="#17212b">Chapman Complex Visibility Fit: case_III_backward</text>
<rect x="82" y="54" width="810" height="384" fill="#fafafa" stroke="#cfd8dc"/>
<line x1="82.00" y1="54" x2="82.00" y2="438" stroke="#eceff1"/>
<text x="82.00" y="462.00" font-size="11" font-family="Arial, Helvetica, sans-serif" text-anchor="middle" fill="#263238">-0.04</text>
<line x1="244.00" y1="54" x2="244.00" y2="438" stroke="#eceff1"/>
<text x="244.00" y="462.00" font-size="11" font-family="Arial, Helvetica, sans-serif" text-anchor="middle" fill="#263238">0.38</text>
<line x1="406.00" y1="54" x2="406.00" y2="438" stroke="#eceff1"/>
<text x="406.00" y="462.00" font-size="11" font-family="Arial, Helvetica, sans-serif" text-anchor="middle" fill="#263238">0.79</text>
<line x1="568.00" y1="54" x2="568.00" y2="438" stroke="#eceff1"/>
<text x="568.00" y="462.00" font-size="11" font-family="Arial, Helvetica, sans-serif" text-anchor="middle" fill="#263238">1.2</text>
<line x1="730.00" y1="54" x2="730.00" y2="438" stroke="#eceff1"/>
<text x="730.00" y="462.00" font-size="11" font-family="Arial, Helvetica, sans-serif" text-anchor="middle" fill="#263238">1.6</text>
<line x1="892.00" y1="54" x2="892.00" y2="438" stroke="#eceff1"/>
<text x="892.00" y="462.00" font-size="11" font-family="Arial, Helvetica, sans-serif" text-anchor="middle" fill="#263238">2</text>
<line x1="82" y1="438.00" x2="892" y2="438.00" stroke="#eceff1"/>
<text x="72.00" y="442.00" font-size="11" font-family="Arial, Helvetica, sans-serif" text-anchor="end" fill="#263238">0</text>
<line x1="82" y1="361.20" x2="892" y2="361.20" stroke="#eceff1"/>
<text x="72.00" y="365.20" font-size="11" font-family="Arial, Helvetica, sans-serif" text-anchor="end" fill="#263238">0.21</text>
<line x1="82" y1="284.40" x2="892" y2="284.40" stroke="#eceff1"/>
<text x="72.00" y="288.40" font-size="11" font-family="Arial, Helvetica, sans-serif" text-anchor="end" fill="#263238">0.42</text>
<line x1="82" y1="207.60" x2="892" y2="207.60" stroke="#eceff1"/>
<text x="72.00" y="211.60" font-size="11" font-family="Arial, Helvetica, sans-serif" text-anchor="end" fill="#263238">0.63</text>
<line x1="82" y1="130.80" x2="892" y2="130.80" stroke="#eceff1"/>
<text x="72.00" y="134.80" font-size="11" font-family="Arial, Helvetica, sans-serif" text-anchor="end" fill="#263238">0.84</text>
<line x1="82" y1="54.00" x2="892" y2="54.00" stroke="#eceff1"/>
<text x="72.00" y="58.00" font-size="11" font-family="Arial, Helvetica, sans-serif" text-anchor="end" fill="#263238">1.1</text>
<polyline fill="none" stroke="#263238" stroke-width="2.5" points="97.58,72.29 175.46,189.34 253.35,280.79 292.29,313.67 331.23,335.62 409.12,357.58 487.00,379.53 564.88,394.09 642.77,405.12 720.65,408.76 798.54,416.05 876.42,423.33"/>
<polyline fill="none" stroke="#2962ff" stroke-width="2.5" points="97.58,98.44 175.46,156.02 253.35,276.31 292.29,323.37 331.23,346.51 409.12,362.71 487.00,385.20 564.88,388.61 642.77,397.23 720.65,403.11 798.54,403.78 876.42,410.65"/>
<line x1="94" y1="72" x2="122" y2="72" stroke="#263238" stroke-width="3"/>
<text x="130.00" y="76.00" font-size="12" font-family="Arial, Helvetica, sans-serif" text-anchor="start" fill="#263238">case_III_backward data</text>
<line x1="94" y1="94" x2="122" y2="94" stroke="#2962ff" stroke-width="3"/>
<text x="130.00" y="98.00" font-size="12" font-family="Arial, Helvetica, sans-serif" text-anchor="start" fill="#263238">complex Eq. (3)</text>
<text x="487.00" y="492.00" font-size="14" font-family="Arial, Helvetica, sans-serif" text-anchor="middle" fill="#263238">d_over_lambda</text>
<text x="22.00" y="246.00" font-size="14" font-family="Arial, Helvetica, sans-serif" text-anchor="middle" fill="#263238" transform="rotate(-90 22.00 246.00)">relative visibility</text>
</svg>
