<svg xmlns="http://www.w3.org/2000/svg" width="820" height="500" viewBox="0 0 820 500">
<rect width="100%" height="100%" fill="#ffffff"/>
<text x="410.00" y="28.00" font-size="20" font-family="Arial, Helvetica, sans-serif" text-anchor="middle" fill="#17212b">Xiao Distribution Pairing Null RMSE</text>
<rect x="86" y="54" width="710" height="318" fill="#fafafa" stroke="#cfd8dc"/>
<line x1="86" y1="372.00" x2="796" y2="372.00" stroke="#eceff1"/>
<text x="76.00" y="376.00" font-size="11" font-family="Arial, Helvetica, sans-serif" text-anchor="end" fill="#263238">0</text>
<line x1="86" y1="308.40" x2="796" y2="308.40" stroke="#eceff1"/>
<text x="76.00" y="312.40" font-size="11" font-family="Arial, Helvetica, sans-serif" text-anchor="end" fill="#263238">24</text>
<line x1="86" y1="244.80" x2="796" y2="244.80" stroke="#eceff1"/>
<text x="76.00" y="248.80" font-size="11" font-family="Arial, Helvetica, sans-serif" text-anchor="end" fill="#263238">49</text>
<line x1="86" y1="181.20" x2="796" y2="181.20" stroke="#eceff1"/>
<text x="76.00" y="185.20" font-size="11" font-family="Arial, Helvetica, sans-serif" text-anchor="end" fill="#263238">73</text>
<line x1="86" y1="117.60" x2="796" y2="117.60" stroke="#eceff1"/>
<text x="76.00" y="121.60" font-size="11" font-family="Arial, Helvetica, sans-serif" text-anchor="end" fill="#263238">98</text>
<line x1="86" y1="54.00" x2="796" y2="54.00" stroke="#eceff1"/>
<text x="76.00" y="58.00" font-size="11" font-family="Arial, Helvetica, sans-serif" text-anchor="end" fill="#263238">1.2e+02</text>
<rect x="90.56" y="364.19" width="16.23" height="7.81" fill="#2962ff" fill-opacity="0.82"/>
<text x="98.68" y="390.00" font-size="10" font-family="Arial, Helvetica, sans-serif" text-anchor="middle" fill="#263238" transform="rotate(-28 98.68 390.00)">0.0206</text>
<rect x="115.92" y="372.00" width="16.23" height="0.00" fill="#00897b" fill-opacity="0.82"/>
<text x="124.04" y="390.00" font-size="10" font-family="Arial, Helvetica, sans-serif" text-anchor="middle" fill="#263238" transform="rotate(-28 124.04 390.00)">0.035</text>
<rect x="141.28" y="372.00" width="16.23" height="0.00" fill="#d84315" fill-opacity="0.82"/>
<text x="149.39" y="390.00" font-size="10" font-family="Arial, Helvetica, sans-serif" text-anchor="middle" fill="#263238" transform="rotate(-28 149.39 390.00)">0.0494</text>
<rect x="166.64" y="364.19" width="16.23" height="7.81" fill="#6a1b9a" fill-opacity="0.82"/>
<text x="174.75" y="390.00" font-size="10" font-family="Arial, Helvetica, sans-serif" text-anchor="middle" fill="#263238" transform="rotate(-28 174.75 390.00)">0.0639</text>
<rect x="191.99" y="361.58" width="16.23" height="10.42" fill="#f9a825" fill-opacity="0.82"/>
<text x="200.11" y="390.00" font-size="10" font-family="Arial, Helvetica, sans-serif" text-anchor="middle" fill="#263238" transform="rotate(-28 200.11 390.00)">0.0783</text>
<rect x="217.35" y="366.79" width="16.23" height="5.21" fill="#455a64" fill-opacity="0.82"/>
<text x="225.46" y="390.00" font-size="10" font-family="Arial, Helvetica, sans-serif" text-anchor="middle" fill="#263238" transform="rotate(-28 225.46 390.00)">0.0927</text>
<rect x="242.71" y="364.19" width="16.23" height="7.81" fill="#c2185b" fill-opacity="0.82"/>
<text x="250.82" y="390.00" font-size="10" font-family="Arial, Helvetica, sans-serif" text-anchor="middle" fill="#263238" transform="rotate(-28 250.82 390.00)">0.107</text>
<rect x="268.06" y="343.35" width="16.23" height="28.65" fill="#2e7d32" fill-opacity="0.82"/>
<text x="276.18" y="390.00" font-size="10" font-family="Arial, Helvetica, sans-serif" text-anchor="middle" fill="#263238" transform="rotate(-28 276.18 390.00)">0.122</text>
<rect x="293.42" y="314.69" width="16.23" height="57.31" fill="#2962ff" fill-opacity="0.82"/>
<text x="301.54" y="390.00" font-size="10" font-family="Arial, Helvetica, sans-serif" text-anchor="middle" fill="#263238" transform="rotate(-28 301.54 390.00)">0.136</text>
<rect x="318.78" y="356.37" width="16.23" height="15.63" fill="#00897b" fill-opacity="0.82"/>
<text x="326.89" y="390.00" font-size="10" font-family="Arial, Helvetica, sans-serif" text-anchor="middle" fill="#263238" transform="rotate(-28 326.89 390.00)">0.15</text>
<rect x="344.14" y="319.90" width="16.23" height="52.10" fill="#d84315" fill-opacity="0.82"/>
<text x="352.25" y="390.00" font-size="10" font-family="Arial, Helvetica, sans-serif" text-anchor="middle" fill="#263238" transform="rotate(-28 352.25 390.00)">0.165</text>
<rect x="369.49" y="309.48" width="16.23" height="62.52" fill="#6a1b9a" fill-opacity="0.82"/>
<text x="377.61" y="390.00" font-size="10" font-family="Arial, Helvetica, sans-serif" text-anchor="middle" fill="#263238" transform="rotate(-28 377.61 390.00)">0.179</text>
<rect x="394.85" y="249.57" width="16.23" height="122.43" fill="#f9a825" fill-opacity="0.82"/>
<text x="402.96" y="390.00" font-size="10" font-family="Arial, Helvetica, sans-serif" text-anchor="middle" fill="#263238" transform="rotate(-28 402.96 390.00)">0.194</text>
<rect x="420.21" y="286.04" width="16.23" height="85.96" fill="#455a64" fill-opacity="0.82"/>
<text x="428.32" y="390.00" font-size="10" font-family="Arial, Helvetica, sans-serif" text-anchor="middle" fill="#263238" transform="rotate(-28 428.32 390.00)">0.208</text>
<rect x="445.56" y="291.25" width="16.23" height="80.75" fill="#c2185b" fill-opacity="0.82"/>
<text x="453.68" y="390.00" font-size="10" font-family="Arial, Helvetica, sans-serif" text-anchor="middle" fill="#263238" transform="rotate(-28 453.68 390.00)">0.223</text>
<rect x="470.92" y="280.83" width="16.23" height="91.17" fill="#2e7d32" fill-opacity="0.82"/>
<text x="479.04" y="390.00" font-size="10" font-family="Arial, Helvetica, sans-serif" text-anchor="middle" fill="#263238" transform="rotate(-28 479.04 390.00)">0.237</text>
<rect x="496.28" y="197.48" width="16.23" height="174.52" fill="#2962ff" fill-opacity="0.82"/>
<text x="504.39" y="390.00" font-size="10" font-family="Arial, Helvetica, sans-serif" text-anchor="middle" fill="#263238" transform="rotate(-28 504.39 390.00)">0.252</text>
<rect x="521.64" y="265.20" width="16.23" height="106.80" fill="#00897b" fill-opacity="0.82"/>
<text x="529.75" y="390.00" font-size="10" font-family="Arial, Helvetica, sans-serif" text-anchor="middle" fill="#263238" transform="rotate(-28 529.75 390.00)">0.266</text>
<rect x="546.99" y="129.75" width="16.23" height="242.25" fill="#d84315" fill-opacity="0.82"/>
<text x="555.11" y="390.00" font-size="10" font-family="Arial, Helvetica, sans-serif" text-anchor="middle" fill="#263238" transform="rotate(-28 555.11 390.00)">0.28</text>
<rect x="572.35" y="88.07" width="16.23" height="283.93" fill="#6a1b9a" fill-opacity="0.82"/>
<text x="580.46" y="390.00" font-size="10" font-family="Arial, Helvetica, sans-serif" text-anchor="middle" fill="#263238" transform="rotate(-28 580.46 390.00)">0.295</text>
<rect x="597.71" y="194.87" width="16.23" height="177.13" fill="#f9a825" fill-opacity="0.82"/>
<text x="605.82" y="390.00" font-size="10" font-family="Arial, Helvetica, sans-serif" text-anchor="middle" fill="#263238" transform="rotate(-28 605.82 390.00)">0.309</text>
<rect x="623.06" y="210.50" width="16.23" height="161.50" fill="#455a64" fill-opacity="0.82"/>
<text x="631.18" y="390.00" font-size="10" font-family="Arial, Helvetica, sans-serif" text-anchor="middle" fill="#263238" transform="rotate(-28 631.18 390.00)">0.324</text>
<rect x="648.42" y="168.82" width="16.23" height="203.18" fill="#c2185b" fill-opacity="0.82"/>
<text x="656.54" y="390.00" font-size="10" font-family="Arial, Helvetica, sans-serif" text-anchor="middle" fill="#263238" transform="rotate(-28 656.54 390.00)">0.338</text>
<rect x="673.78" y="210.50" width="16.23" height="161.50" fill="#2e7d32" fill-opacity="0.82"/>
<text x="681.89" y="390.00" font-size="10" font-family="Arial, Helvetica, sans-serif" text-anchor="middle" fill="#263238" transform="rotate(-28 681.89 390.00)">0.353</text>
<rect x="699.14" y="166.22" width="16.23" height="205.78" fill="#2962ff" fill-opacity="0.82"/>
<text x="707.25" y="390.00" font-size="10" font-family="Arial, Helvetica, sans-serif" text-anchor="middle" fill="#263238" transform="rotate(-28 707.25 390.00)">0.367</text>
<rect x="724.49" y="254.78" width="16.23" height="117.22" fill="#00897b" fill-opacity="0.82"/>
<text x="732.61" y="390.00" font-size="10" font-family="Arial, Helvetica, sans-serif" text-anchor="middle" fill="#263238" transform="rotate(-28 732.61 390.00)">0.381</text>
<rect x="749.85" y="283.44" width="16.23" height="88.56" fill="#d84315" fill-opacity="0.82"/>
<text x="757.96" y="390.00" font-size="10" font-family="Arial, Helvetica, sans-serif" text-anchor="middle" fill="#263238" transform="rotate(-28 757.96 390.00)">0.396</text>
<rect x="775.21" y="325.11" width="16.23" height="46.89" fill="#6a1b9a" fill-opacity="0.82"/>
<text x="783.32" y="390.00" font-size="10" font-family="Arial, Helvetica, sans-serif" text-anchor="middle" fill="#263238" transform="rotate(-28 783.32 390.00)">0.41</text>
<text x="22.00" y="213.00" font-size="14" font-family="Arial, Helvetica, sans-serif" text-anchor="middle" fill="#263238" transform="rotate(-90 22.00 213.00)">count (no-refit RMSE)</text>
</svg>
