<svg xmlns="http://www.w3.org/2000/svg" width="760" height="520" viewBox="0 0 760 520">
<rect width="100%" height="100%" fill="white"/>
<line x1="80" y1="35" x2="80" y2="450" stroke="black"/>
<line x1="80" y1="450" x2="730" y2="450" stroke="black"/>
<line x1="80.0" y1="450" x2="80.0" y2="455" stroke="black"/>
<text x="80.0" y="474" text-anchor="middle" font-size="14">-90</text>
<line x1="188.3" y1="450" x2="188.3" y2="455" stroke="black"/>
<text x="188.3" y="474" text-anchor="middle" font-size="14">-60</text>
<line x1="296.7" y1="450" x2="296.7" y2="455" stroke="black"/>
<text x="296.7" y="474" text-anchor="middle" font-size="14">-30</text>
<line x1="405.0" y1="450" x2="405.0" y2="455" stroke="black"/>
<text x="405.0" y="474" text-anchor="middle" font-size="14">0</text>
<line x1="513.3" y1="450" x2="513.3" y2="455" stroke="black"/>
<text x="513.3" y="474" text-anchor="middle" font-size="14">30</text>
<line x1="621.7" y1="450" x2="621.7" y2="455" stroke="black"/>
<text x="621.7" y="474" text-anchor="middle" font-size="14">60</text>
<line x1="730.0" y1="450" x2="730.0" y2="455" stroke="black"/>
<text x="730.0" y="474" text-anchor="middle" font-size="14">90</text>
<line x1="75" y1="450.0" x2="80" y2="450.0" stroke="black"/>
<text x="70" y="455.0" text-anchor="end" font-size="14">0.0</text>
<line x1="75" y1="367.0" x2="80" y2="367.0" stroke="black"/>
<text x="70" y="372.0" text-anchor="end" font-size="14">0.2</text>
<line x1="75" y1="284.0" x2="80" y2="284.0" stroke="black"/>
<text x="70" y="289.0" text-anchor="end" font-size="14">0.4</text>
<line x1="75" y1="201.0" x2="80" y2="201.0" stroke="black"/>
<text x="70" y="206.0" text-anchor="end" font-size="14">0.6</text>
<line x1="75" y1="118.0" x2="80" y2="118.0" stroke="black"/>
<text x="70" y="123.0" text-anchor="end" font-size="14">0.8</text>
<line x1="75" y1="35.0" x2="80" y2="35.0" stroke="black"/>
<text x="70" y="40.0" text-anchor="end" font-size="14">1.0</text>
<circle cx="86.8" cy="417.7" r="4" fill="#e53935" opacity="0.75"/>
<circle cx="107.6" cy="347.2" r="4" fill="#e53935" opacity="0.75"/>
<circle cx="136.1" cy="257.0" r="4" fill="#e53935" opacity="0.75"/>
<circle cx="157.4" cy="198.0" r="4" fill="#e53935" opacity="0.75"/>
<circle cx="320.1" cy="174.3" r="4" fill="#e53935" opacity="0.75"/>
<circle cx="341.2" cy="227.6" r="4" fill="#e53935" opacity="0.75"/>
<circle cx="369.5" cy="312.1" r="4" fill="#e53935" opacity="0.75"/>
<circle cx="390.7" cy="381.8" r="4" fill="#e53935" opacity="0.75"/>
<circle cx="418.8" cy="387.7" r="4" fill="#e53935" opacity="0.75"/>
<circle cx="440.1" cy="317.0" r="4" fill="#e53935" opacity="0.75"/>
<circle cx="468.4" cy="229.6" r="4" fill="#e53935" opacity="0.75"/>
<circle cx="489.7" cy="175.0" r="4" fill="#e53935" opacity="0.75"/>
<circle cx="645.3" cy="190.8" r="4" fill="#e53935" opacity="0.75"/>
<circle cx="666.7" cy="250.9" r="4" fill="#e53935" opacity="0.75"/>
<circle cx="695.1" cy="342.1" r="4" fill="#e53935" opacity="0.75"/>
<circle cx="719.5" cy="418.8" r="4" fill="#e53935" opacity="0.75"/>
<circle cx="86.7" cy="427.3" r="4" fill="#1f63ff" opacity="0.75"/>
<circle cx="93.3" cy="405.9" r="4" fill="#1f63ff" opacity="0.75"/>
<circle cx="113.3" cy="301.2" r="4" fill="#1f63ff" opacity="0.75"/>
<circle cx="120.9" cy="270.1" r="4" fill="#1f63ff" opacity="0.75"/>
<circle cx="128.8" cy="243.4" r="4" fill="#1f63ff" opacity="0.75"/>
<circle cx="135.8" cy="218.2" r="4" fill="#1f63ff" opacity="0.75"/>
<circle cx="150.1" cy="176.0" r="4" fill="#1f63ff" opacity="0.75"/>
<circle cx="157.2" cy="161.1" r="4" fill="#1f63ff" opacity="0.75"/>
<circle cx="412.2" cy="418.1" r="4" fill="#1f63ff" opacity="0.75"/>
<circle cx="659.6" cy="169.6" r="4" fill="#1f63ff" opacity="0.75"/>
<circle cx="673.7" cy="207.4" r="4" fill="#1f63ff" opacity="0.75"/>
<circle cx="680.8" cy="230.9" r="4" fill="#1f63ff" opacity="0.75"/>
<circle cx="687.8" cy="257.1" r="4" fill="#1f63ff" opacity="0.75"/>
<circle cx="694.9" cy="288.3" r="4" fill="#1f63ff" opacity="0.75"/>
<circle cx="709.0" cy="352.0" r="4" fill="#1f63ff" opacity="0.75"/>
<circle cx="717.0" cy="386.3" r="4" fill="#1f63ff" opacity="0.75"/>
<circle cx="93.0" cy="360.6" r="4" fill="#222222" opacity="0.75"/>
<circle cx="100.6" cy="287.0" r="4" fill="#222222" opacity="0.75"/>
<circle cx="107.6" cy="226.6" r="4" fill="#222222" opacity="0.75"/>
<circle cx="114.6" cy="190.4" r="4" fill="#222222" opacity="0.75"/>
<circle cx="643.9" cy="210.9" r="4" fill="#222222" opacity="0.75"/>
<circle cx="653.2" cy="198.0" r="4" fill="#222222" opacity="0.75"/>
<circle cx="701.8" cy="199.7" r="4" fill="#222222" opacity="0.75"/>
<circle cx="708.9" cy="250.9" r="4" fill="#222222" opacity="0.75"/>
<circle cx="716.0" cy="324.1" r="4" fill="#222222" opacity="0.75"/>
<text x="380.0" y="502" text-anchor="middle" font-size="16">postselected angle alpha (deg)</text>
<text x="20" y="260.0" transform="rotate(-90 20 260.0)" text-anchor="middle" font-size="16">visibility</text>
<text x="80" y="24" font-size="16">Cormann scout: coarse component-extracted Fig. 2 visibility</text>
</svg>