<svg xmlns="http://www.w3.org/2000/svg" width="760" height="520" viewBox="0 0 760 520">
<rect width="100%" height="100%" fill="white"/>
<line x1="80" y1="35" x2="80" y2="450" stroke="black"/>
<line x1="80" y1="450" x2="730" y2="450" stroke="black"/>
<line x1="80.0" y1="450" x2="80.0" y2="455" stroke="black"/>
<text x="80.0" y="474" text-anchor="middle" font-size="14">0.0</text>
<line x1="210.0" y1="450" x2="210.0" y2="455" stroke="black"/>
<text x="210.0" y="474" text-anchor="middle" font-size="14">0.2</text>
<line x1="340.0" y1="450" x2="340.0" y2="455" stroke="black"/>
<text x="340.0" y="474" text-anchor="middle" font-size="14">0.4</text>
<line x1="470.0" y1="450" x2="470.0" y2="455" stroke="black"/>
<text x="470.0" y="474" text-anchor="middle" font-size="14">0.6</text>
<line x1="600.0" y1="450" x2="600.0" y2="455" stroke="black"/>
<text x="600.0" y="474" text-anchor="middle" font-size="14">0.8</text>
<line x1="730.0" y1="450" x2="730.0" y2="455" stroke="black"/>
<text x="730.0" y="474" text-anchor="middle" font-size="14">1.0</text>
<line x1="75" y1="450.0" x2="80" y2="450.0" stroke="black"/>
<text x="70" y="455.0" text-anchor="end" font-size="14">0.00</text>
<line x1="75" y1="367.0" x2="80" y2="367.0" stroke="black"/>
<text x="70" y="372.0" text-anchor="end" font-size="14">0.15</text>
<line x1="75" y1="284.0" x2="80" y2="284.0" stroke="black"/>
<text x="70" y="289.0" text-anchor="end" font-size="14">0.30</text>
<line x1="75" y1="201.0" x2="80" y2="201.0" stroke="black"/>
<text x="70" y="206.0" text-anchor="end" font-size="14">0.45</text>
<line x1="75" y1="118.0" x2="80" y2="118.0" stroke="black"/>
<text x="70" y="123.0" text-anchor="end" font-size="14">0.60</text>
<line x1="75" y1="35.0" x2="80" y2="35.0" stroke="black"/>
<text x="70" y="40.0" text-anchor="end" font-size="14">0.75</text>
<polyline fill="none" stroke="#e53935" stroke-width="3" points="80.0,97.7 88.2,102.2 96.5,106.7 104.7,111.1 112.9,115.6 121.1,120.0 129.4,124.5 137.6,129.0 145.8,133.4 154.1,137.9 162.3,142.3 170.5,146.8 178.7,151.2 187.0,155.7 195.2,160.2 203.4,164.6 211.6,169.1 219.9,173.5 228.1,178.0 236.3,182.5 244.6,186.9 252.8,191.4 261.0,195.8 269.2,200.3 277.5,204.8 285.7,209.2 293.9,213.7 302.2,218.1 310.4,222.6 318.6,227.0 326.8,231.5 335.1,236.0 343.3,240.4 351.5,244.9 359.7,249.3 368.0,253.8 376.2,258.3 384.4,262.7 392.7,267.2 400.9,271.6 409.1,276.1 417.3,280.6 425.6,285.0 433.8,289.5 442.0,293.9 450.3,298.4 458.5,302.9 466.7,307.3 474.9,311.8 483.2,316.2 491.4,320.7 499.6,325.1 507.8,329.6 516.1,334.1 524.3,338.5 532.5,343.0 540.8,347.4 549.0,351.9 557.2,356.4 565.4,360.8 573.7,365.3 581.9,369.7 590.1,374.2 598.4,378.7 606.6,383.1 614.8,387.6 623.0,392.0 631.3,396.5 639.5,401.0 647.7,405.4 655.9,409.9 664.2,414.3 672.4,418.8 680.6,423.2 688.9,427.7 697.1,432.2 705.3,436.6 713.5,441.1 721.8,445.5 730.0,450.0"/>
<polyline fill="none" stroke="#111" stroke-width="3" stroke-dasharray="10 8" points="80.0,46.3 88.2,51.1 96.5,55.9 104.7,60.8 112.9,65.6 121.1,70.4 129.4,75.2 137.6,80.0 145.8,84.8 154.1,89.6 162.3,94.4 170.5,99.2 178.7,104.0 187.0,108.8 195.2,113.7 203.4,118.5 211.6,123.3 219.9,128.1 228.1,132.9 236.3,137.7 244.6,142.5 252.8,147.3 261.0,152.1 269.2,156.9 277.5,161.7 285.7,166.6 293.9,171.4 302.2,176.2 310.4,181.0 318.6,185.8 326.8,190.6 335.1,195.4 343.3,200.2 351.5,205.0 359.7,209.8 368.0,214.6 376.2,219.5 384.4,224.3 392.7,229.1 400.9,233.9 409.1,238.7 417.3,243.5 425.6,248.3 433.8,253.1 442.0,257.9 450.3,262.7 458.5,267.5 466.7,272.4 474.9,277.2 483.2,282.0 491.4,286.8 499.6,291.6 507.8,296.4 516.1,301.2 524.3,306.0 532.5,310.8 540.8,315.6 549.0,320.4 557.2,325.3 565.4,330.1 573.7,334.9 581.9,339.7 590.1,344.5 598.4,349.3 606.6,354.1 614.8,358.9 623.0,363.7 631.3,368.5 639.5,373.3 647.7,378.2 655.9,383.0 664.2,387.8 672.4,392.6 680.6,397.4 688.9,402.2 697.1,407.0 705.3,411.8 713.5,416.6 721.8,421.4 730.0,426.2"/>
<circle cx="119.1" cy="68.9" r="5" fill="#1f63ff" stroke="black" stroke-width="1"/>
<circle cx="232.0" cy="137.2" r="5" fill="#1f63ff" stroke="black" stroke-width="1"/>
<circle cx="351.7" cy="205.3" r="5" fill="#1f63ff" stroke="black" stroke-width="1"/>
<circle cx="474.1" cy="273.5" r="5" fill="#1f63ff" stroke="black" stroke-width="1"/>
<circle cx="587.4" cy="341.9" r="5" fill="#1f63ff" stroke="black" stroke-width="1"/>
<circle cx="697.9" cy="409.8" r="5" fill="#1f63ff" stroke="black" stroke-width="1"/>
<text x="380.0" y="502" text-anchor="middle" font-size="16">visibility V</text>
<text x="20" y="260.0" transform="rotate(-90 20 260.0)" text-anchor="middle" font-size="16">mean absolute momentum disturbance</text>
<text x="80" y="24" font-size="16">Xiao scout: blue points, red bound, black fitted bandwidth line</text>
</svg>